<svg width="48" height="48" viewBox="0 0 48 48" fill="none" xmlns="http://www.w3.org/2000/svg">
<g opacity="0.3" clip-path="url(#clip0_139_13496)">
<path d="M36.9456 36.3274C36.9336 34.7792 36.9092 28.79 36.9024 28.6299H31.5988C31.592 28.79 31.5675 34.7791 31.5556 36.3274C31.5475 37.377 31.399 38.4161 31.0999 39.3588C30.8071 40.2815 30.4112 41.0219 29.9341 41.5814L29.4976 42.0933C29.2956 42.3303 29.464 42.6951 29.7753 42.6951H38.7256C39.037 42.6951 39.2054 42.3303 39.0034 42.0933L38.567 41.5814C38.0899 41.0219 37.694 40.2815 37.4012 39.3588C37.1022 38.4162 36.9537 37.377 36.9456 36.3274Z" fill="url(#paint0_linear_139_13496)"/>
<path d="M36.9388 35.9509C36.926 33.4915 36.9079 28.7643 36.9022 28.6299H31.5986C31.5962 28.6853 31.5917 29.4436 31.5864 30.5985L36.9388 35.9509Z" fill="url(#paint1_linear_139_13496)"/>
<path d="M29.9341 41.5817L29.4976 42.0936C29.2956 42.3306 29.464 42.6954 29.7753 42.6954H38.7256C39.037 42.6954 39.2054 42.3306 39.0034 42.0936L38.5669 41.5817C38.1984 41.1495 37.8787 40.609 37.6171 39.9604H30.8838C30.6223 40.609 30.3025 41.1495 29.9341 41.5817Z" fill="url(#paint2_linear_139_13496)"/>
<path d="M47.0056 24.8659C46.265 24.1253 45.2676 23.7987 44.3002 23.8853C45.0812 22.3413 44.8276 20.4082 43.5375 19.118C42.7034 18.2839 41.6006 17.8838 40.5078 17.9154C40.1313 16.928 39.1761 16.2262 38.0565 16.2262C37.2474 16.2262 36.5242 16.5927 36.0431 17.1684C35.6263 15.8984 34.4318 14.981 33.0223 14.981C31.5778 14.981 30.3591 15.9446 29.9719 17.2639C29.6732 17.1949 29.3624 17.1579 29.0427 17.1579C26.7697 17.1579 24.927 19.0006 24.927 21.2737C24.927 21.4956 24.945 21.7133 24.9789 21.9257C23.1113 21.9347 21.6001 23.4511 21.6001 25.3208C21.6001 27.1961 23.1203 28.7163 24.9956 28.7163C25.9268 28.7163 26.7702 28.3411 27.3836 27.7342C27.912 29.3974 29.4682 30.6027 31.3065 30.6027C32.7185 30.6027 33.9641 29.8913 34.7054 28.8077C34.906 29.3242 35.2141 29.8086 35.6312 30.2256C37.2385 31.8329 39.8444 31.8329 41.4518 30.2256C41.6795 29.9978 41.8738 29.7495 42.0371 29.4873C42.0904 29.5488 42.1452 29.6093 42.2037 29.6677C43.5297 30.9938 45.6796 30.9938 47.0057 29.6677C48.3316 28.3418 48.3316 26.1919 47.0056 24.8659Z" fill="url(#paint3_linear_139_13496)"/>
<path d="M33.1583 21.273C33.1583 23.5459 31.3155 25.3888 29.0425 25.3888C28.8202 25.3888 28.6032 25.3713 28.3912 25.3373V25.3208C28.3912 23.445 26.8715 21.9253 24.9957 21.9253H24.9782C24.9443 21.7134 24.9268 21.4952 24.9268 21.273C24.9268 19 26.7696 17.1572 29.0425 17.1572C31.3155 17.1572 33.1583 19 33.1583 21.273Z" fill="url(#paint4_linear_139_13496)"/>
<path d="M32.1643 22.1651C32.1643 22.6631 32.2713 23.1364 32.4638 23.5624C31.725 24.6634 30.4687 25.3888 29.0425 25.3888C26.7696 25.3888 24.9268 23.5459 24.9268 21.273C24.9268 19 26.7696 17.1572 29.0425 17.1572C30.8668 17.1572 32.4144 18.3446 32.9536 19.9878C32.4607 20.5775 32.1643 21.3358 32.1643 22.1651Z" fill="url(#paint5_linear_139_13496)"/>
<path d="M21.9365 23.8457C21.721 24.2917 21.6001 24.792 21.6001 25.3205C21.6001 27.1958 23.1203 28.716 24.9956 28.716C25.9268 28.716 26.7702 28.3409 27.3836 27.7339C27.912 29.3971 29.4682 30.6024 31.3065 30.6024C33.5796 30.6024 35.4222 28.7597 35.4222 26.4866C35.4222 26.1646 35.384 25.8516 35.3141 25.5508C35.3952 25.5567 35.4768 25.5606 35.5594 25.5606C36.8232 25.5606 37.9247 24.8698 38.5095 23.8457H21.9365Z" fill="url(#paint6_linear_139_13496)"/>
<path d="M47.0056 24.8661C45.6796 23.5401 43.5297 23.5401 42.2036 24.8661C42.1323 24.9374 42.0657 25.0115 42.002 25.0874C42.8627 26.4213 42.8741 28.1431 42.0371 29.4877C42.0903 29.5491 42.1452 29.6096 42.2036 29.6681C43.5297 30.9941 45.6796 30.9941 47.0056 29.6681C48.3316 28.3421 48.3316 26.1921 47.0056 24.8661Z" fill="url(#paint7_linear_139_13496)"/>
<path d="M42.2041 24.8661C41.8519 25.2182 41.5929 25.6286 41.4278 26.0659C40.1269 26.322 38.7256 25.9465 37.7172 24.9382C36.1099 23.3309 36.1099 20.7248 37.7172 19.1175C39.3244 17.5103 41.9305 17.5103 43.5378 19.1175C44.8277 20.4075 45.0824 22.3415 44.3017 23.8846C43.5364 23.953 42.7906 24.2797 42.2041 24.8661Z" fill="url(#paint8_linear_139_13496)"/>
<path d="M33.7836 18.8223C33.3158 18.9853 32.8766 19.2535 32.5028 19.6273C31.1768 20.9533 31.1768 23.1032 32.5028 24.4292C33.1613 25.0877 34.0229 25.4188 34.8859 25.4233C34.0834 26.973 34.3315 28.9257 35.6314 30.2256C37.2387 31.8329 39.8447 31.8329 41.452 30.2256C41.6798 29.9978 41.874 29.7495 42.0373 29.4873C42.0906 29.5488 42.1455 29.6093 42.2039 29.6677C43.0975 30.5613 44.3649 30.8517 45.5025 30.541L33.7836 18.8223Z" fill="url(#paint9_linear_139_13496)"/>
<path d="M35.4338 18.8491C35.4338 19.2338 35.5165 19.5995 35.6652 19.9285C35.0944 20.7791 34.1239 21.3394 33.0223 21.3394C31.2664 21.3394 29.8428 19.9158 29.8428 18.16C29.8428 16.4041 31.2664 14.9805 33.0223 14.9805C34.4316 14.9805 35.6271 15.8977 36.0435 17.1671C35.6627 17.6225 35.4338 18.2084 35.4338 18.8491Z" fill="url(#paint10_linear_139_13496)"/>
<path d="M47.0056 24.8659C46.265 24.1253 45.2676 23.7987 44.3002 23.8853C45.0812 22.3413 44.8276 20.4082 43.5375 19.118C42.7034 18.2839 41.6006 17.8838 40.5078 17.9154C40.1313 16.928 39.1761 16.2262 38.0565 16.2262C37.2474 16.2262 36.5242 16.5927 36.0431 17.1684C35.6263 15.8984 34.4318 14.981 33.0223 14.981C31.5778 14.981 30.3591 15.9446 29.9719 17.2639C29.6732 17.1949 29.3624 17.1579 29.0427 17.1579C26.7697 17.1579 24.927 19.0006 24.927 21.2737C24.927 21.4956 24.945 21.7133 24.9789 21.9257C23.1113 21.9347 21.6001 23.4511 21.6001 25.3208C21.6001 27.1961 23.1203 28.7163 24.9956 28.7163C25.9268 28.7163 26.7702 28.3411 27.3836 27.7342C27.912 29.3974 29.4682 30.6027 31.3065 30.6027C32.7185 30.6027 33.9641 29.8913 34.7054 28.8077C34.906 29.3242 35.2141 29.8086 35.6312 30.2256C37.2385 31.8329 39.8444 31.8329 41.4518 30.2256C41.6795 29.9978 41.8738 29.7495 42.0371 29.4873C42.0904 29.5488 42.1452 29.6093 42.2037 29.6677C43.5297 30.9938 45.6796 30.9938 47.0057 29.6677C48.3316 28.3418 48.3316 26.1919 47.0056 24.8659Z" fill="url(#paint11_linear_139_13496)"/>
<path d="M11.3144 22.6721L13.1068 20.8797L13.8773 21.6502L12.227 23.3005C11.5921 23.9353 11.8582 25.028 12.7196 25.2813C12.7256 25.2831 12.7315 25.2848 12.7376 25.2866L16.1864 26.2868L15.8829 27.3333L12.434 26.3331C11.434 26.0431 10.5163 25.5007 9.7801 24.7644L3.97803 18.9623L4.74857 18.1919L9.22876 22.6721C9.80466 23.248 10.7384 23.248 11.3144 22.6721Z" fill="url(#paint12_linear_139_13496)"/>
<path d="M22.8659 32.8853C22.8475 30.5002 22.8098 20.0112 22.7994 19.7646H14.629C14.6186 20.0112 14.5809 30.5002 14.5625 32.8853C14.55 34.5022 14.3212 36.1031 13.8605 37.5553C13.4095 38.9767 12.7996 40.1173 12.0647 40.9793L11.3923 41.768C11.0811 42.133 11.3406 42.6951 11.8202 42.6951H25.6084C26.088 42.6951 26.3475 42.133 26.0363 41.768L25.3639 40.9793C24.6289 40.1173 24.0191 38.9767 23.5681 37.5553C23.1072 36.1032 22.8784 34.5022 22.8659 32.8853Z" fill="url(#paint13_linear_139_13496)"/>
<path d="M22.8558 31.1879C22.8361 27.3992 22.8083 19.9717 22.7994 19.7646H14.6291C14.6254 19.85 14.6185 21.1632 14.6104 22.9424L22.8558 31.1879Z" fill="url(#paint14_linear_139_13496)"/>
<path d="M21.3506 30.0978L22.858 31.6052C22.8535 30.7824 22.8486 29.7354 22.8434 28.605L21.3506 30.0978Z" fill="url(#paint15_linear_139_13496)"/>
<path d="M12.0647 40.9795L11.3923 41.7682C11.0811 42.1332 11.3405 42.6953 11.8201 42.6953H25.6084C26.0881 42.6953 26.3475 42.1332 26.0362 41.7682L25.3639 40.9795C24.7962 40.3137 24.3036 39.4811 23.9008 38.4819H13.5277C13.1248 39.4811 12.6322 40.3138 12.0647 40.9795Z" fill="url(#paint16_linear_139_13496)"/>
<path d="M27.2713 27.5101L26.3661 27.2476C25.88 27.1067 25.7231 26.496 26.081 26.1382L26.3145 25.9047C26.5273 25.6919 26.5273 25.3469 26.3145 25.1341C26.1017 24.9214 25.7567 24.9214 25.5439 25.1341L21.3505 29.3276C21.1377 29.5404 21.1377 29.8854 21.3505 30.0982C21.5633 30.3109 21.9083 30.3109 22.1211 30.0982L23.6531 28.5661C24.1172 28.102 24.7972 27.9273 25.4275 28.1101L26.9677 28.5568C27.2568 28.6406 27.559 28.4743 27.6428 28.1853C27.7266 27.8962 27.5603 27.594 27.2713 27.5101Z" fill="url(#paint17_linear_139_13496)"/>
<path d="M37.3464 14.5315C36.2579 13.4429 34.7916 12.9629 33.3695 13.0902C34.5176 10.8204 34.1448 7.97865 32.2482 6.08209C31.0221 4.85602 29.4008 4.26788 27.7944 4.31418C27.2411 2.8627 25.8369 1.83108 24.1911 1.83108C23.0018 1.83108 21.9387 2.36981 21.2313 3.21611C20.6185 1.34919 18.8627 0.000488281 16.7908 0.000488281C14.6673 0.000488281 12.8758 1.41705 12.3066 3.35644C11.8677 3.25508 11.4106 3.20058 10.9408 3.20058C7.59934 3.20058 4.89054 5.90938 4.89054 9.25084C4.89054 9.57715 4.91718 9.89715 4.96687 10.2094C2.22165 10.2227 0 12.4518 0 15.2003C0 17.957 2.23473 20.1917 4.99144 20.1917C6.36028 20.1917 7.60009 19.6403 8.50184 18.748C9.27859 21.1931 11.5663 22.9648 14.2685 22.9648C16.3443 22.9648 18.1752 21.9191 19.265 20.3261C19.5598 21.0855 20.0129 21.7975 20.6259 22.4105C22.9887 24.7733 26.8195 24.7732 29.1822 22.4105C29.517 22.0757 29.8026 21.7107 30.0425 21.3253C30.1208 21.4156 30.2015 21.5046 30.2874 21.5905C32.2367 23.5398 35.3972 23.5398 37.3464 21.5905C39.2957 19.6412 39.2957 16.4808 37.3464 14.5315Z" fill="url(#paint18_linear_139_13496)"/>
<path d="M16.9907 9.25045C16.9907 12.5917 14.2817 15.3007 10.9404 15.3007C10.6136 15.3007 10.2946 15.275 9.98294 15.225V15.2009C9.98294 12.4435 7.74887 10.2094 4.9915 10.2094H4.96581C4.91593 9.8978 4.89014 9.57714 4.89014 9.25045C4.89014 5.90918 7.59912 3.2002 10.9404 3.2002C14.2816 3.2002 16.9907 5.90918 16.9907 9.25045Z" fill="url(#paint19_linear_139_13496)"/>
<path d="M15.5295 10.5619C15.5295 11.2939 15.6867 11.9897 15.9697 12.616C14.8836 14.2345 13.0368 15.3008 10.9404 15.3008C7.59912 15.3008 4.89014 12.5918 4.89014 9.25055C4.89014 5.90918 7.59912 3.2002 10.9404 3.2002C13.6222 3.2002 15.8971 4.9457 16.6897 7.36123C15.9651 8.22796 15.5295 9.34269 15.5295 10.5619Z" fill="url(#paint20_linear_139_13496)"/>
<path d="M0.494494 13.0322C0.177788 13.6879 0 14.4233 0 15.2002C0 17.9569 2.23473 20.1917 4.99144 20.1917C6.36028 20.1917 7.60009 19.6402 8.50184 18.7479C9.27859 21.193 11.5663 22.9647 14.2685 22.9647C17.61 22.9647 20.3188 20.2559 20.3188 16.9145C20.3188 16.441 20.2627 15.9809 20.1598 15.5388C20.2791 15.5473 20.3991 15.5532 20.5205 15.5532C22.3781 15.5532 23.9975 14.5376 24.857 13.0322H0.494494Z" fill="url(#paint21_linear_139_13496)"/>
<path d="M37.3467 14.5318C35.3974 12.5825 32.237 12.5825 30.2877 14.5318C30.1828 14.6366 30.0848 14.7456 29.9912 14.857C31.2565 16.818 31.2733 19.3489 30.0428 21.3256C30.1211 21.4159 30.2018 21.5049 30.2877 21.5908C32.237 23.5401 35.3974 23.5401 37.3467 21.5908C39.296 19.6415 39.296 16.481 37.3467 14.5318Z" fill="url(#paint22_linear_139_13496)"/>
<path d="M30.2878 14.532C29.7701 15.0496 29.3893 15.6528 29.1466 16.2956C27.2342 16.6721 25.1743 16.1202 23.6919 14.6378C21.3293 12.2752 21.3293 8.44405 23.6919 6.08151C26.0545 3.71897 29.8856 3.71888 32.2482 6.08151C34.1445 7.97779 34.5189 10.8207 33.3712 13.0891C32.2461 13.1897 31.1498 13.6698 30.2878 14.532Z" fill="url(#paint23_linear_139_13496)"/>
<path d="M17.9096 5.64746C17.222 5.88708 16.5764 6.28144 16.0269 6.8308C14.0776 8.78007 14.0776 11.9405 16.0269 13.8898C16.9948 14.8577 18.2614 15.3445 19.53 15.3512C18.3504 17.6293 18.7152 20.4998 20.626 22.4106C22.9888 24.7734 26.8196 24.7733 29.1823 22.4106C29.5171 22.0758 29.8027 21.7107 30.0426 21.3254C30.1209 21.4157 30.2016 21.5047 30.2875 21.5906C31.601 22.9041 33.4643 23.3311 35.1365 22.8745L17.9096 5.64746Z" fill="url(#paint24_linear_139_13496)"/>
<path d="M20.3357 5.68697C20.3357 6.25252 20.4572 6.79002 20.6758 7.27369C19.8368 8.52395 18.4101 9.34767 16.7906 9.34767C14.2094 9.34767 12.1167 7.25497 12.1167 4.67388C12.1167 2.09271 14.2094 0 16.7906 0C18.8623 0 20.6197 1.34842 21.2319 3.2144C20.6722 3.88405 20.3357 4.74522 20.3357 5.68697Z" fill="url(#paint25_linear_139_13496)"/>
<path d="M24.1228 24.1309L11.4404 11.4485C11.1648 11.1728 10.7178 11.1727 10.4422 11.4484C10.1529 11.7377 9.93983 12.0828 9.81183 12.459C9.61833 12.3952 9.4012 12.4171 9.2236 12.5368C9.09776 12.6219 8.97814 12.72 8.86699 12.8313C7.9291 13.7696 7.9291 15.2903 8.86699 16.2286L15.481 22.8427C17.0472 22.5239 18.3935 21.6004 19.2652 20.3262C19.56 21.0856 20.0131 21.7976 20.626 22.4106C21.6082 23.3928 22.8442 23.9652 24.1228 24.1309Z" fill="url(#paint26_linear_139_13496)"/>
<path d="M35.9485 22.5751L19.1339 5.76051C18.8582 5.48484 18.4113 5.48475 18.1357 5.76042C17.8464 6.04973 17.6333 6.39477 17.5053 6.77105C17.3117 6.70724 17.0947 6.72908 16.917 6.84879C16.7911 6.93388 16.6715 7.03204 16.5603 7.14329C15.6225 8.08164 15.6225 9.6023 16.5603 10.5407L28.7888 22.7691C28.9236 22.6559 29.0556 22.5372 29.1825 22.4103C29.5172 22.0755 29.8029 21.7105 30.0428 21.3251C30.1211 21.4155 30.2018 21.5044 30.2877 21.5903C31.8187 23.1215 34.0968 23.4493 35.9485 22.5751Z" fill="url(#paint27_linear_139_13496)"/>
<path d="M37.9305 20.8868L27.9336 10.8899C27.6579 10.6142 27.211 10.6141 26.9354 10.8898C26.6461 11.1791 26.433 11.5242 26.305 11.9004C26.1115 11.8366 25.8944 11.8585 25.7168 11.9782C25.5909 12.0633 25.4713 12.1614 25.3602 12.2727C24.4223 13.211 24.4223 14.7317 25.3602 15.67L32.589 22.8988C34.2373 23.3155 36.0569 22.8799 37.3465 21.5902C37.5664 21.3703 37.7602 21.1342 37.9305 20.8868Z" fill="url(#paint28_linear_139_13496)"/>
<path d="M10.283 14.8172C9.8932 14.8172 9.57715 14.5012 9.57715 14.1113V13.2148C9.57715 12.5119 9.85084 11.8511 10.3479 11.3542C10.6235 11.0785 11.0705 11.0786 11.3461 11.3543C11.6218 11.6299 11.6218 12.0769 11.346 12.3525C11.1157 12.5828 10.9888 12.889 10.9888 13.2148V14.1113C10.9889 14.5012 10.673 14.8172 10.283 14.8172Z" fill="url(#paint29_linear_139_13496)"/>
<path d="M12.1707 16.1346C11.9885 16.3168 11.7843 16.4634 11.5667 16.5748C11.3303 16.6958 11.0538 16.7111 10.8058 16.6161C10.5908 16.5337 10.3531 16.5337 10.1381 16.6161C9.89013 16.7111 9.61361 16.6957 9.37719 16.5748C9.15959 16.4634 8.95545 16.3168 8.77324 16.1346C7.83535 15.1962 7.83535 13.6756 8.77324 12.7372C8.88448 12.626 9.00401 12.5278 9.12985 12.4427C9.39874 12.2615 9.75959 12.3001 9.98942 12.5299C10.1226 12.6631 10.2975 12.7293 10.472 12.7293C10.6464 12.7293 10.8213 12.663 10.9545 12.5299C11.0866 12.3977 11.2626 12.3288 11.4391 12.3288C11.5697 12.3288 11.7002 12.3659 11.8141 12.4432C11.9399 12.5283 12.0595 12.6265 12.1707 12.7377C13.1086 13.6756 13.1086 15.1961 12.1707 16.1346Z" fill="url(#paint30_linear_139_13496)"/>
<path d="M12.8736 14.436C12.8736 15.3791 12.3302 16.195 11.5394 16.5878C11.3111 16.7012 11.0443 16.7074 10.8063 16.6164L10.8047 16.6158C10.5901 16.5337 10.3528 16.5337 10.1382 16.6158L10.1366 16.6164C9.89861 16.7075 9.63178 16.7012 9.40355 16.5878C8.61268 16.195 8.06934 15.379 8.06934 14.436H12.8736Z" fill="url(#paint31_linear_139_13496)"/>
<path d="M17.9764 9.12973C17.5866 9.12973 17.2705 8.81368 17.2705 8.42384V7.52728C17.2705 6.82441 17.5442 6.16361 18.0412 5.66667C18.3169 5.391 18.7639 5.39109 19.0394 5.66676C19.3151 5.94243 19.3151 6.3894 19.0394 6.66497C18.809 6.89528 18.6822 7.20154 18.6822 7.52728V8.42384C18.6823 8.81368 18.3663 9.12973 17.9764 9.12973Z" fill="url(#paint32_linear_139_13496)"/>
<path d="M19.8636 10.4471C19.6814 10.6293 19.4772 10.7759 19.2596 10.8873C19.0232 11.0082 18.7467 11.0236 18.4987 10.9286C18.2837 10.8462 18.046 10.8462 17.831 10.9286C17.5831 11.0236 17.3065 11.0082 17.0701 10.8873C16.8525 10.7759 16.6483 10.6293 16.4661 10.4471C15.5282 9.50873 15.5282 7.98807 16.4661 7.04972C16.5774 6.93847 16.6969 6.84031 16.8228 6.75523C17.0917 6.57405 17.4526 6.61264 17.6824 6.84238C17.8156 6.97555 17.9904 7.04181 18.1649 7.04181C18.3394 7.04181 18.5143 6.97546 18.6475 6.84238C18.7796 6.71024 18.9555 6.64134 19.1321 6.64134C19.2626 6.64134 19.3932 6.67843 19.507 6.7557C19.6329 6.84078 19.7525 6.93894 19.8638 7.05019C20.8014 7.98807 20.8014 9.50873 19.8636 10.4471Z" fill="url(#paint33_linear_139_13496)"/>
<path d="M20.5669 8.74854C20.5669 9.69159 20.0236 10.5075 19.2327 10.9003C19.0045 11.0137 18.7377 11.0199 18.4996 10.9289L18.498 10.9282C18.2834 10.8461 18.0462 10.8461 17.8316 10.9282L17.83 10.9289C17.592 11.0199 17.3251 11.0138 17.0969 10.9003C16.306 10.5075 15.7627 9.6915 15.7627 8.74854H20.5669Z" fill="url(#paint34_linear_139_13496)"/>
<path d="M26.7762 14.2591C26.3864 14.2591 26.0703 13.9431 26.0703 13.5532V12.6567C26.0703 11.9538 26.344 11.293 26.8411 10.7961C27.1168 10.5204 27.5638 10.5205 27.8393 10.7962C28.115 11.0718 28.115 11.5188 27.8393 11.7944C27.6089 12.0247 27.4821 12.3309 27.4821 12.6567V13.5532C27.4821 13.9431 27.1661 14.2591 26.7762 14.2591Z" fill="url(#paint35_linear_139_13496)"/>
<path d="M28.6634 15.5765C28.4812 15.7587 28.277 15.9053 28.0594 16.0167C27.823 16.1376 27.5465 16.153 27.2985 16.058C27.0835 15.9756 26.8458 15.9756 26.6308 16.058C26.3829 16.153 26.1063 16.1376 25.8699 16.0167C25.6523 15.9053 25.4481 15.7587 25.2659 15.5765C24.328 14.6381 24.328 13.1175 25.2659 12.1791C25.3772 12.0679 25.4967 11.9697 25.6226 11.8846C25.8915 11.7034 26.2524 11.742 26.4822 11.9718C26.6154 12.1049 26.7902 12.1712 26.9647 12.1712C27.1392 12.1712 27.3141 12.1049 27.4473 11.9718C27.5794 11.8396 27.7553 11.7707 27.9319 11.7707C28.0624 11.7707 28.193 11.8078 28.3069 11.8851C28.4327 11.9702 28.5523 12.0683 28.6636 12.1796C29.6012 13.1175 29.6012 14.6381 28.6634 15.5765Z" fill="url(#paint36_linear_139_13496)"/>
<path d="M29.3667 13.8779C29.3667 14.821 28.8234 15.6369 28.0325 16.0297C27.8043 16.1431 27.5375 16.1493 27.2994 16.0583L27.2978 16.0576C27.0833 15.9755 26.846 15.9755 26.6314 16.0576L26.6298 16.0583C26.3918 16.1493 26.1249 16.1432 25.8967 16.0297C25.1058 15.6369 24.5625 14.8209 24.5625 13.8779H29.3667Z" fill="url(#paint37_linear_139_13496)"/>
<path d="M47.9996 45.5531C47.9985 45.4226 47.9202 45.2808 47.7778 45.1396C45.5146 42.8942 35.7288 41.2051 24 41.2051C12.2712 41.2051 2.48536 42.8942 0.222212 45.1396C0.0798118 45.2808 0.00150588 45.4226 0.000376471 45.5531H0V46.1772C0 47.184 0.816188 48.0002 1.82296 48.0002H46.177C47.1838 48.0002 48 47.184 48 46.1772V45.5531H47.9996Z" fill="url(#paint38_linear_139_13496)"/>
</g>
<defs>
<linearGradient id="paint0_linear_139_13496" x1="31.6198" y1="35.6625" x2="37.311" y2="35.6625" gradientUnits="userSpaceOnUse">
<stop stop-color="#C5715A"/>
<stop offset="1" stop-color="#883F2E"/>
</linearGradient>
<linearGradient id="paint1_linear_139_13496" x1="34.2627" y1="35.265" x2="34.2627" y2="28.0576" gradientUnits="userSpaceOnUse">
<stop stop-color="#883F2E" stop-opacity="0"/>
<stop offset="1" stop-color="#6D3326"/>
</linearGradient>
<linearGradient id="paint2_linear_139_13496" x1="34.2505" y1="40.652" x2="34.2505" y2="42.2976" gradientUnits="userSpaceOnUse">
<stop stop-color="#883F2E" stop-opacity="0"/>
<stop offset="1" stop-color="#6D3326"/>
</linearGradient>
<linearGradient id="paint3_linear_139_13496" x1="27.582" y1="17.9359" x2="43.6887" y2="34.0425" gradientUnits="userSpaceOnUse">
<stop stop-color="#A2E62E"/>
<stop offset="0.1231" stop-color="#97DE30"/>
<stop offset="0.3395" stop-color="#79CB36"/>
<stop offset="0.6234" stop-color="#4AAB3F"/>
<stop offset="0.9609" stop-color="#09804C"/>
<stop offset="1" stop-color="#017B4E"/>
</linearGradient>
<linearGradient id="paint4_linear_139_13496" x1="30.1014" y1="21.7156" x2="20.155" y2="16.2965" gradientUnits="userSpaceOnUse">
<stop stop-color="#017B4E" stop-opacity="0"/>
<stop offset="0.4829" stop-color="#01754A" stop-opacity="0.483"/>
<stop offset="1" stop-color="#026841"/>
</linearGradient>
<linearGradient id="paint5_linear_139_13496" x1="29.303" y1="20.9421" x2="33.7562" y2="15.2813" gradientUnits="userSpaceOnUse">
<stop stop-color="#017B4E" stop-opacity="0"/>
<stop offset="0.4829" stop-color="#01754A" stop-opacity="0.483"/>
<stop offset="1" stop-color="#026841"/>
</linearGradient>
<linearGradient id="paint6_linear_139_13496" x1="29.6093" y1="25.9029" x2="28.1581" y2="30.9823" gradientUnits="userSpaceOnUse">
<stop stop-color="#017B4E" stop-opacity="0"/>
<stop offset="0.4829" stop-color="#01754A" stop-opacity="0.483"/>
<stop offset="1" stop-color="#026841"/>
</linearGradient>
<linearGradient id="paint7_linear_139_13496" x1="44.7251" y1="27.1502" x2="42.9792" y2="31.1271" gradientUnits="userSpaceOnUse">
<stop stop-color="#017B4E" stop-opacity="0"/>
<stop offset="0.4829" stop-color="#01754A" stop-opacity="0.483"/>
<stop offset="1" stop-color="#026841"/>
</linearGradient>
<linearGradient id="paint8_linear_139_13496" x1="41.0365" y1="21.9881" x2="48.1871" y2="21.1343" gradientUnits="userSpaceOnUse">
<stop stop-color="#017B4E" stop-opacity="0"/>
<stop offset="0.4829" stop-color="#01754A" stop-opacity="0.483"/>
<stop offset="1" stop-color="#026841"/>
</linearGradient>
<linearGradient id="paint9_linear_139_13496" x1="38.2329" y1="26.8487" x2="36.2695" y2="32.8671" gradientUnits="userSpaceOnUse">
<stop stop-color="#017B4E" stop-opacity="0"/>
<stop offset="0.4829" stop-color="#01754A" stop-opacity="0.483"/>
<stop offset="1" stop-color="#026841"/>
</linearGradient>
<linearGradient id="paint10_linear_139_13496" x1="33.2235" y1="17.9042" x2="36.6636" y2="13.5312" gradientUnits="userSpaceOnUse">
<stop stop-color="#017B4E" stop-opacity="0"/>
<stop offset="0.4829" stop-color="#01754A" stop-opacity="0.483"/>
<stop offset="1" stop-color="#026841"/>
</linearGradient>
<linearGradient id="paint11_linear_139_13496" x1="35.8395" y1="27.0083" x2="28.6238" y2="17.6593" gradientUnits="userSpaceOnUse">
<stop stop-color="#017B4E" stop-opacity="0"/>
<stop offset="0.4546" stop-color="#017046" stop-opacity="0.455"/>
<stop offset="1" stop-color="#026841"/>
</linearGradient>
<linearGradient id="paint12_linear_139_13496" x1="9.74575" y1="21.1243" x2="13.6024" y2="24.981" gradientUnits="userSpaceOnUse">
<stop stop-color="#C5715A"/>
<stop offset="1" stop-color="#883F2E"/>
</linearGradient>
<linearGradient id="paint13_linear_139_13496" x1="14.6612" y1="31.2299" x2="23.4288" y2="31.2299" gradientUnits="userSpaceOnUse">
<stop stop-color="#C5715A"/>
<stop offset="1" stop-color="#883F2E"/>
</linearGradient>
<linearGradient id="paint14_linear_139_13496" x1="18.7331" y1="30.1176" x2="18.7331" y2="18.8715" gradientUnits="userSpaceOnUse">
<stop stop-color="#883F2E" stop-opacity="0"/>
<stop offset="1" stop-color="#6D3326"/>
</linearGradient>
<linearGradient id="paint15_linear_139_13496" x1="24.6179" y1="31.8723" x2="22.0589" y2="29.3132" gradientUnits="userSpaceOnUse">
<stop stop-color="#883F2E" stop-opacity="0"/>
<stop offset="1" stop-color="#6D3326"/>
</linearGradient>
<linearGradient id="paint16_linear_139_13496" x1="18.7143" y1="39.5474" x2="18.7143" y2="42.0824" gradientUnits="userSpaceOnUse">
<stop stop-color="#883F2E" stop-opacity="0"/>
<stop offset="1" stop-color="#6D3326"/>
</linearGradient>
<linearGradient id="paint17_linear_139_13496" x1="22.822" y1="26.6057" x2="25.3599" y2="29.1436" gradientUnits="userSpaceOnUse">
<stop stop-color="#C5715A"/>
<stop offset="1" stop-color="#883F2E"/>
</linearGradient>
<linearGradient id="paint18_linear_139_13496" x1="8.79351" y1="4.34439" x2="32.4706" y2="28.0214" gradientUnits="userSpaceOnUse">
<stop stop-color="#A2E62E"/>
<stop offset="0.1231" stop-color="#97DE30"/>
<stop offset="0.3395" stop-color="#79CB36"/>
<stop offset="0.6234" stop-color="#4AAB3F"/>
<stop offset="0.9609" stop-color="#09804C"/>
<stop offset="1" stop-color="#017B4E"/>
</linearGradient>
<linearGradient id="paint19_linear_139_13496" x1="12.497" y1="9.90109" x2="-2.12445" y2="1.93497" gradientUnits="userSpaceOnUse">
<stop stop-color="#017B4E" stop-opacity="0"/>
<stop offset="0.4829" stop-color="#01754A" stop-opacity="0.483"/>
<stop offset="1" stop-color="#026841"/>
</linearGradient>
<linearGradient id="paint20_linear_139_13496" x1="11.3234" y1="8.76396" x2="17.8696" y2="0.442548" gradientUnits="userSpaceOnUse">
<stop stop-color="#017B4E" stop-opacity="0"/>
<stop offset="0.4829" stop-color="#01754A" stop-opacity="0.483"/>
<stop offset="1" stop-color="#026841"/>
</linearGradient>
<linearGradient id="paint21_linear_139_13496" x1="11.7737" y1="16.0564" x2="9.64038" y2="23.5231" gradientUnits="userSpaceOnUse">
<stop stop-color="#017B4E" stop-opacity="0"/>
<stop offset="0.4829" stop-color="#01754A" stop-opacity="0.483"/>
<stop offset="1" stop-color="#026841"/>
</linearGradient>
<linearGradient id="paint22_linear_139_13496" x1="34.0004" y1="17.8864" x2="31.4339" y2="23.7325" gradientUnits="userSpaceOnUse">
<stop stop-color="#017B4E" stop-opacity="0"/>
<stop offset="0.4829" stop-color="#01754A" stop-opacity="0.483"/>
<stop offset="1" stop-color="#026841"/>
</linearGradient>
<linearGradient id="paint23_linear_139_13496" x1="28.5774" y1="10.2981" x2="39.0889" y2="9.04302" gradientUnits="userSpaceOnUse">
<stop stop-color="#017B4E" stop-opacity="0"/>
<stop offset="0.4829" stop-color="#01754A" stop-opacity="0.483"/>
<stop offset="1" stop-color="#026841"/>
</linearGradient>
<linearGradient id="paint24_linear_139_13496" x1="24.4502" y1="17.4465" x2="21.5639" y2="26.2936" gradientUnits="userSpaceOnUse">
<stop stop-color="#017B4E" stop-opacity="0"/>
<stop offset="0.4829" stop-color="#01754A" stop-opacity="0.483"/>
<stop offset="1" stop-color="#026841"/>
</linearGradient>
<linearGradient id="paint25_linear_139_13496" x1="17.0865" y1="4.29817" x2="22.1434" y2="-2.13026" gradientUnits="userSpaceOnUse">
<stop stop-color="#017B4E" stop-opacity="0"/>
<stop offset="0.4829" stop-color="#01754A" stop-opacity="0.483"/>
<stop offset="1" stop-color="#026841"/>
</linearGradient>
<linearGradient id="paint26_linear_139_13496" x1="15.3989" y1="18.4643" x2="6.45776" y2="12.3467" gradientUnits="userSpaceOnUse">
<stop stop-color="#017B4E" stop-opacity="0"/>
<stop offset="0.4829" stop-color="#01754A" stop-opacity="0.483"/>
<stop offset="1" stop-color="#026841"/>
</linearGradient>
<linearGradient id="paint27_linear_139_13496" x1="23.3738" y1="13.6773" x2="12.8659" y2="3.16936" gradientUnits="userSpaceOnUse">
<stop stop-color="#017B4E" stop-opacity="0"/>
<stop offset="0.4829" stop-color="#01754A" stop-opacity="0.483"/>
<stop offset="1" stop-color="#026841"/>
</linearGradient>
<linearGradient id="paint28_linear_139_13496" x1="31.1539" y1="17.787" x2="25.7102" y2="12.3434" gradientUnits="userSpaceOnUse">
<stop stop-color="#017B4E" stop-opacity="0"/>
<stop offset="0.4829" stop-color="#01754A" stop-opacity="0.483"/>
<stop offset="1" stop-color="#026841"/>
</linearGradient>
<linearGradient id="paint29_linear_139_13496" x1="9.55456" y1="12.5266" x2="11.1546" y2="13.2482" gradientUnits="userSpaceOnUse">
<stop stop-color="#C5715A"/>
<stop offset="1" stop-color="#883F2E"/>
</linearGradient>
<linearGradient id="paint30_linear_139_13496" x1="10.472" y1="14.0445" x2="10.472" y2="16.1803" gradientUnits="userSpaceOnUse">
<stop stop-color="#FD4755"/>
<stop offset="1" stop-color="#D2024E"/>
</linearGradient>
<linearGradient id="paint31_linear_139_13496" x1="10.4715" y1="14.8269" x2="10.4715" y2="17.8294" gradientUnits="userSpaceOnUse">
<stop stop-color="#C00148" stop-opacity="0"/>
<stop offset="1" stop-color="#6D3326"/>
</linearGradient>
<linearGradient id="paint32_linear_139_13496" x1="17.2479" y1="6.83909" x2="18.8479" y2="7.56069" gradientUnits="userSpaceOnUse">
<stop stop-color="#C5715A"/>
<stop offset="1" stop-color="#883F2E"/>
</linearGradient>
<linearGradient id="paint33_linear_139_13496" x1="18.1648" y1="8.35701" x2="18.1648" y2="10.4928" gradientUnits="userSpaceOnUse">
<stop stop-color="#FD4755"/>
<stop offset="1" stop-color="#D2024E"/>
</linearGradient>
<linearGradient id="paint34_linear_139_13496" x1="18.1649" y1="9.13941" x2="18.1649" y2="12.1419" gradientUnits="userSpaceOnUse">
<stop stop-color="#C00148" stop-opacity="0"/>
<stop offset="1" stop-color="#6D3326"/>
</linearGradient>
<linearGradient id="paint35_linear_139_13496" x1="26.0477" y1="11.9685" x2="27.6477" y2="12.6901" gradientUnits="userSpaceOnUse">
<stop stop-color="#C5715A"/>
<stop offset="1" stop-color="#883F2E"/>
</linearGradient>
<linearGradient id="paint36_linear_139_13496" x1="26.9646" y1="13.4864" x2="26.9646" y2="15.6222" gradientUnits="userSpaceOnUse">
<stop stop-color="#FD4755"/>
<stop offset="1" stop-color="#D2024E"/>
</linearGradient>
<linearGradient id="paint37_linear_139_13496" x1="26.9647" y1="14.2688" x2="26.9647" y2="17.2713" gradientUnits="userSpaceOnUse">
<stop stop-color="#C00148" stop-opacity="0"/>
<stop offset="1" stop-color="#6D3326"/>
</linearGradient>
<linearGradient id="paint38_linear_139_13496" x1="24" y1="42.4472" x2="24" y2="50.2171" gradientUnits="userSpaceOnUse">
<stop stop-color="#A2E62E"/>
<stop offset="0.1231" stop-color="#97DE30"/>
<stop offset="0.3395" stop-color="#79CB36"/>
<stop offset="0.6234" stop-color="#4AAB3F"/>
<stop offset="0.9609" stop-color="#09804C"/>
<stop offset="1" stop-color="#017B4E"/>
</linearGradient>
<clipPath id="clip0_139_13496">
<rect width="48" height="48" fill="white"/>
</clipPath>
</defs>
</svg>
