<svg width="48" height="48" viewBox="0 0 48 48" fill="none" xmlns="http://www.w3.org/2000/svg">
<g opacity="0.3" clip-path="url(#clip0_139_13799)">
<path d="M35.5295 9.91371H33.1766C33.1766 6.23767 29.0601 3.24708 24.0001 3.24708C18.9402 3.24708 14.8236 6.23776 14.8236 9.91371H12.4707C12.4707 7.44171 13.7132 5.13913 15.9691 3.43004C18.1276 1.79465 20.9798 0.894043 24.0001 0.894043C27.0204 0.894043 29.8726 1.79465 32.0312 3.42995C34.2872 5.13903 35.5295 7.44162 35.5295 9.91371Z" fill="url(#paint0_linear_139_13799)"/>
<path d="M32.0309 3.43002C30.9368 2.60121 29.6642 1.96206 28.2822 1.53223V4.019C31.1904 5.13863 33.1763 7.36065 33.1763 9.91369H35.5293C35.5293 7.44169 34.2869 5.1391 32.0309 3.43002Z" fill="url(#paint1_linear_139_13799)"/>
<path d="M16.6505 8.49028L16.325 8.36134C15.1084 7.87955 13.7541 7.87955 12.5375 8.36134L12.2121 8.49028C11.6391 8.7172 11.2627 9.27108 11.2627 9.88737V13.1361C11.2627 13.966 11.9354 14.6388 12.7654 14.6388H16.0972C16.9272 14.6388 17.5999 13.966 17.5999 13.1361V9.88737C17.5998 9.27108 17.2234 8.7172 16.6505 8.49028Z" fill="url(#paint2_linear_139_13799)"/>
<path d="M35.7878 8.49028L35.4623 8.36134C34.2457 7.87955 32.8914 7.87955 31.6748 8.36134L31.3494 8.49028C30.7763 8.7172 30.3999 9.27108 30.3999 9.88746V13.1362C30.3999 13.9661 31.0727 14.6389 31.9026 14.6389H35.2344C36.0644 14.6389 36.7371 13.9661 36.7371 13.1362V9.88746C36.7371 9.27108 36.3608 8.7172 35.7878 8.49028Z" fill="url(#paint3_linear_139_13799)"/>
<path d="M10.6934 48H8.63235C7.98859 48 7.4668 47.4782 7.4668 46.8345V44.9883H11.859V46.8345C11.859 47.4782 11.3371 48 10.6934 48Z" fill="url(#paint4_linear_139_13799)"/>
<path d="M39.3681 48H37.3072C36.6635 48 36.1416 47.4782 36.1416 46.8345V44.9883H40.5338V46.8345C40.5337 47.4782 40.0118 48 39.3681 48Z" fill="url(#paint5_linear_139_13799)"/>
<path d="M42.0128 46.5885H5.98758C3.16122 46.5885 0.870117 44.2973 0.870117 41.4711V17.2581C0.870117 14.4317 3.16132 12.1406 5.98758 12.1406H42.0129C44.8393 12.1406 47.1304 14.4318 47.1304 17.2581V41.471C47.1304 44.2973 44.8392 46.5885 42.0128 46.5885Z" fill="url(#paint6_linear_139_13799)"/>
<path d="M47.1303 28.0068C45.8493 29.2879 44.1118 30.0076 42.3001 30.0076H1.84326L18.4241 46.5884H42.0128C44.8391 46.5884 47.1302 44.2972 47.1302 41.4709V28.0068H47.1303Z" fill="url(#paint7_linear_139_13799)"/>
<path d="M43.742 30.9462L25.7471 32.5071C24.5846 32.6079 23.4154 32.6079 22.2528 32.5071L4.25798 30.9462C1.84913 30.7372 0 28.7208 0 26.3028V15.5071C0 12.6808 2.2912 10.3896 5.11746 10.3896H42.8825C45.7088 10.3896 47.9999 12.6808 47.9999 15.5071V26.3029C48 28.7208 46.1509 30.7372 43.742 30.9462Z" fill="url(#paint8_linear_139_13799)"/>
<path d="M0 18.7202V26.3026C0 28.7206 1.84913 30.7371 4.25798 30.946L22.2528 32.5069C23.4154 32.6077 24.5846 32.6077 25.7471 32.5069L43.7419 30.946C46.1509 30.7371 48 28.7206 48 26.3027V18.7203L0 18.7202Z" fill="url(#paint9_linear_139_13799)"/>
<path d="M0.869629 34.729V41.4707C0.869629 44.2971 3.16083 46.5883 5.98709 46.5883H42.0124C44.8388 46.5883 47.1299 44.2971 47.1299 41.4707V34.729H0.869629Z" fill="url(#paint10_linear_139_13799)"/>
<path d="M47.1302 34.16V41.4711C47.1302 42.832 46.5984 44.0697 45.7316 44.9864L35.1744 34.4292C34.7725 34.2419 34.4939 33.8353 34.4939 33.3619V32.273C34.1899 31.9944 34.0073 31.5962 34.0073 31.1671V27.9181C34.0073 27.088 34.6803 26.416 35.5104 26.416H38.8422C39.4031 26.416 39.8916 26.7238 40.1494 27.1793L47.1302 34.16Z" fill="url(#paint11_linear_139_13799)"/>
<path d="M33.3938 46.5882H21.168L9.00983 34.4292C8.60795 34.2419 8.32936 33.8353 8.32936 33.3619V32.273C8.02536 31.9944 7.84277 31.5962 7.84277 31.1671V27.9181C7.84277 27.088 8.51571 26.416 9.34583 26.416H12.6776C13.2385 26.416 13.727 26.7238 13.9849 27.1793L33.3938 46.5882Z" fill="url(#paint12_linear_139_13799)"/>
<path d="M12.4211 34.4467H9.41418C8.76307 34.4467 8.23535 33.9189 8.23535 33.2679V31.3408H13.6001V33.2679C13.6 33.9189 13.0722 34.4467 12.4211 34.4467Z" fill="url(#paint13_linear_139_13799)"/>
<path d="M13.1369 32.4698L12.8114 32.5987C11.5949 33.0805 10.2405 33.0805 9.02394 32.5987L8.69839 32.4698C8.1254 32.2429 7.74902 31.689 7.74902 31.0727V27.824C7.74902 26.994 8.42178 26.3213 9.25171 26.3213H12.5836C13.4135 26.3213 14.0862 26.994 14.0862 27.824V31.0727C14.0863 31.689 13.71 32.2429 13.1369 32.4698Z" fill="url(#paint14_linear_139_13799)"/>
<path d="M38.5862 34.4467H35.5792C34.9281 34.4467 34.4004 33.9189 34.4004 33.2679V31.3408H39.7651V33.2679C39.765 33.9189 39.2372 34.4467 38.5862 34.4467Z" fill="url(#paint15_linear_139_13799)"/>
<path d="M39.3018 32.4698L38.9764 32.5987C37.7598 33.0805 36.4054 33.0805 35.1889 32.5987L34.8634 32.4698C34.2904 32.2429 33.9141 31.689 33.9141 31.0727V27.824C33.9141 26.994 34.5868 26.3213 35.4167 26.3213H38.7486C39.5785 26.3213 40.2513 26.994 40.2513 27.824V31.0727C40.2513 31.689 39.8749 32.2429 39.3018 32.4698Z" fill="url(#paint16_linear_139_13799)"/>
<path d="M39.8927 31.2799C33.8422 25.1753 28.8269 20.1103 28.795 20.0623C28.6579 19.8561 28.4235 19.7202 28.1573 19.7202H20.0312C19.6086 19.7202 19.2661 20.0627 19.2661 20.4853V21.7656C19.2661 21.9769 19.3518 22.1681 19.4902 22.3066C19.5343 22.3506 23.7371 26.5213 29.4456 32.1861L39.8927 31.2799Z" fill="url(#paint17_linear_139_13799)"/>
<path d="M28.0631 22.3866H19.937C19.5144 22.3866 19.1719 22.0441 19.1719 21.6215V20.3413C19.1719 19.9187 19.5145 19.5762 19.937 19.5762H28.0632C28.4858 19.5762 28.8283 19.9188 28.8283 20.3413V21.6215C28.8283 22.0441 28.4857 22.3866 28.0631 22.3866Z" fill="url(#paint18_linear_139_13799)"/>
<path d="M29.7759 5.87018C25.95 4.2186 22.0461 4.22029 18.224 5.87018C17.6085 6.13587 16.8918 5.90142 16.5596 5.31902C16.2246 4.73164 15.8896 4.14434 15.5546 3.55695C15.1683 2.87978 15.4568 2.02152 16.1693 1.70509C21.2884 -0.568223 26.7106 -0.568506 31.8306 1.70509C32.5432 2.02152 32.8317 2.87968 32.4454 3.55695C32.1103 4.14434 31.7754 4.73164 31.4403 5.31902C31.1081 5.90133 30.3915 6.13587 29.7759 5.87018Z" fill="url(#paint19_linear_139_13799)"/>
</g>
<defs>
<linearGradient id="paint0_linear_139_13799" x1="24.0001" y1="0.894043" x2="24.0001" y2="9.91371" gradientUnits="userSpaceOnUse">
<stop stop-color="#E6EEFF"/>
<stop offset="1" stop-color="#BAC8FA"/>
</linearGradient>
<linearGradient id="paint1_linear_139_13799" x1="34.1515" y1="8.05467" x2="31.9868" y2="6.0782" gradientUnits="userSpaceOnUse">
<stop stop-color="#A7B7F1" stop-opacity="0"/>
<stop offset="1" stop-color="#A7B7F1"/>
</linearGradient>
<linearGradient id="paint2_linear_139_13799" x1="14.4312" y1="8.97254" x2="14.4312" y2="10.9217" gradientUnits="userSpaceOnUse">
<stop stop-color="#FEE45A"/>
<stop offset="1" stop-color="#FEA613"/>
</linearGradient>
<linearGradient id="paint3_linear_139_13799" x1="33.5686" y1="8.97254" x2="33.5686" y2="10.9217" gradientUnits="userSpaceOnUse">
<stop stop-color="#FEE45A"/>
<stop offset="1" stop-color="#FEA613"/>
</linearGradient>
<linearGradient id="paint4_linear_139_13799" x1="9.66294" y1="46.1805" x2="9.66294" y2="47.625" gradientUnits="userSpaceOnUse">
<stop stop-color="#5A5A5A"/>
<stop offset="1" stop-color="#444444"/>
</linearGradient>
<linearGradient id="paint5_linear_139_13799" x1="38.3376" y1="46.1805" x2="38.3376" y2="47.625" gradientUnits="userSpaceOnUse">
<stop stop-color="#5A5A5A"/>
<stop offset="1" stop-color="#444444"/>
</linearGradient>
<linearGradient id="paint6_linear_139_13799" x1="17.116" y1="20.4593" x2="37.6336" y2="47.0005" gradientUnits="userSpaceOnUse">
<stop stop-color="#C86D36"/>
<stop offset="1" stop-color="#883F2E"/>
</linearGradient>
<linearGradient id="paint7_linear_139_13799" x1="24.4868" y1="41.6467" x2="24.4868" y2="31.7048" gradientUnits="userSpaceOnUse">
<stop stop-color="#883F2E" stop-opacity="0"/>
<stop offset="1" stop-color="#6D3326"/>
</linearGradient>
<linearGradient id="paint8_linear_139_13799" x1="14.4532" y1="15.0176" x2="38.1708" y2="29.3234" gradientUnits="userSpaceOnUse">
<stop stop-color="#C86D36"/>
<stop offset="1" stop-color="#883F2E"/>
</linearGradient>
<linearGradient id="paint9_linear_139_13799" x1="24" y1="22.9644" x2="24" y2="34.2648" gradientUnits="userSpaceOnUse">
<stop stop-color="#883F2E" stop-opacity="0"/>
<stop offset="1" stop-color="#6D3326"/>
</linearGradient>
<linearGradient id="paint10_linear_139_13799" x1="23.9998" y1="40.9408" x2="23.9998" y2="46.7196" gradientUnits="userSpaceOnUse">
<stop stop-color="#883F2E" stop-opacity="0"/>
<stop offset="1" stop-color="#6D3326"/>
</linearGradient>
<linearGradient id="paint11_linear_139_13799" x1="48.9945" y1="38.994" x2="38.171" y2="33.5352" gradientUnits="userSpaceOnUse">
<stop stop-color="#883F2E" stop-opacity="0"/>
<stop offset="1" stop-color="#6D3326"/>
</linearGradient>
<linearGradient id="paint12_linear_139_13799" x1="21.118" y1="39.2233" x2="5.49444" y2="28.4938" gradientUnits="userSpaceOnUse">
<stop stop-color="#883F2E" stop-opacity="0"/>
<stop offset="1" stop-color="#6D3326"/>
</linearGradient>
<linearGradient id="paint13_linear_139_13799" x1="10.9176" y1="32.8154" x2="10.9176" y2="34.2588" gradientUnits="userSpaceOnUse">
<stop stop-color="#FEE45A"/>
<stop offset="1" stop-color="#FEA613"/>
</linearGradient>
<linearGradient id="paint14_linear_139_13799" x1="10.1637" y1="27.8851" x2="11.8892" y2="31.4616" gradientUnits="userSpaceOnUse">
<stop stop-color="#FEE45A"/>
<stop offset="1" stop-color="#FEA613"/>
</linearGradient>
<linearGradient id="paint15_linear_139_13799" x1="37.0826" y1="32.8154" x2="37.0826" y2="34.2588" gradientUnits="userSpaceOnUse">
<stop stop-color="#FEE45A"/>
<stop offset="1" stop-color="#FEA613"/>
</linearGradient>
<linearGradient id="paint16_linear_139_13799" x1="36.3286" y1="27.8851" x2="38.0541" y2="31.4616" gradientUnits="userSpaceOnUse">
<stop stop-color="#FEE45A"/>
<stop offset="1" stop-color="#FEA613"/>
</linearGradient>
<linearGradient id="paint17_linear_139_13799" x1="32.1948" y1="30.8613" x2="24.5711" y2="18.5319" gradientUnits="userSpaceOnUse">
<stop stop-color="#883F2E" stop-opacity="0"/>
<stop offset="1" stop-color="#6D3326"/>
</linearGradient>
<linearGradient id="paint18_linear_139_13799" x1="24" y1="20.2608" x2="24" y2="22.2184" gradientUnits="userSpaceOnUse">
<stop stop-color="#E6EEFF"/>
<stop offset="1" stop-color="#BAC8FA"/>
</linearGradient>
<linearGradient id="paint19_linear_139_13799" x1="23.9999" y1="0.875918" x2="23.9999" y2="2.63131" gradientUnits="userSpaceOnUse">
<stop stop-color="#5A5A5A"/>
<stop offset="1" stop-color="#444444"/>
</linearGradient>
<clipPath id="clip0_139_13799">
<rect width="48" height="48" fill="white"/>
</clipPath>
</defs>
</svg>
