<svg width="48" height="48" viewBox="0 0 48 48" fill="none" xmlns="http://www.w3.org/2000/svg">
<g opacity="0.3" clip-path="url(#clip0_139_13603)">
<path d="M29.0019 36.3411L21.04 24.2777C20.2894 23.1405 19.8893 21.8078 19.8893 20.4453V12.9931C19.8893 10.0199 10.2257 10.0199 10.2257 12.9931V20.4453C10.2257 21.8079 9.82558 23.1405 9.07499 24.2777L1.11321 36.3411C-1.81075 40.7713 1.36648 46.675 6.67452 46.675H23.4405C28.7486 46.675 31.9258 40.7713 29.0019 36.3411Z" fill="url(#paint0_linear_139_13603)"/>
<path d="M21.0399 24.2777C20.2893 23.1405 19.8892 21.8078 19.8892 20.4453V12.9931C19.8892 10.0199 10.2256 10.0199 10.2256 12.9931V14.1565L22.3854 26.3164L21.0399 24.2777Z" fill="url(#paint1_linear_139_13603)"/>
<path d="M21.4111 44.2943H8.70442C4.68061 44.2943 2.27336 39.8193 4.48917 36.462L9.19138 29.3373C9.51025 28.8542 10.0504 28.5635 10.6293 28.5635H19.4864C20.0653 28.5635 20.6055 28.8542 20.9244 29.3373L25.6266 36.462C27.8422 39.8193 25.435 44.2943 21.4111 44.2943Z" fill="url(#paint2_linear_139_13603)"/>
<path d="M15.2375 36.8485C16.7873 36.8485 18.0438 35.592 18.0438 34.0421C18.0438 32.4923 16.7873 31.2358 15.2375 31.2358C13.6876 31.2358 12.4312 32.4923 12.4312 34.0421C12.4312 35.592 13.6876 36.8485 15.2375 36.8485Z" fill="url(#paint3_linear_139_13603)"/>
<path d="M19.202 40.6544C20.0122 40.6544 20.6691 39.9976 20.6691 39.1873C20.6691 38.3771 20.0122 37.7202 19.202 37.7202C18.3917 37.7202 17.7349 38.3771 17.7349 39.1873C17.7349 39.9976 18.3917 40.6544 19.202 40.6544Z" fill="url(#paint4_linear_139_13603)"/>
<path d="M12.1863 41.3893C12.9966 41.3893 13.6534 40.7324 13.6534 39.9222C13.6534 39.1119 12.9966 38.4551 12.1863 38.4551C11.3761 38.4551 10.7192 39.1119 10.7192 39.9222C10.7192 40.7324 11.3761 41.3893 12.1863 41.3893Z" fill="url(#paint5_linear_139_13603)"/>
<path d="M23.4406 46.6749H6.67446C1.36679 46.6749 -1.81071 40.7708 1.11305 36.3407L2.83277 33.7344H27.2824L29.0021 36.3407C31.9258 40.7708 28.7483 46.6749 23.4406 46.6749Z" fill="url(#paint6_linear_139_13603)"/>
<path d="M19.404 14.1782H10.7107C8.82445 14.1782 7.29541 12.6491 7.29541 10.7629C7.29541 8.87669 8.82445 7.34766 10.7107 7.34766H19.404C21.2902 7.34766 22.8193 8.87669 22.8193 10.7629C22.8193 12.6491 21.2902 14.1782 19.404 14.1782Z" fill="url(#paint7_linear_139_13603)"/>
<path d="M34.1512 6.97123V41.8433C34.1512 44.5117 31.988 46.6748 29.3197 46.6748C26.6514 46.6748 24.4883 44.5117 24.4883 41.8433V6.97123C24.4882 3.99787 34.1512 3.99787 34.1512 6.97123Z" fill="url(#paint8_linear_139_13603)"/>
<path d="M29.0018 36.3407L24.4878 29.5015V41.8432C24.4878 43.5223 25.3446 45.0007 26.6445 45.8665C29.8661 44.1003 31.2701 39.7775 29.0018 36.3407Z" fill="url(#paint9_linear_139_13603)"/>
<path d="M34.1512 6.97123V17.7979L24.4883 8.13481V6.97123C24.4883 3.99787 34.1512 3.99787 34.1512 6.97123Z" fill="url(#paint10_linear_139_13603)"/>
<path d="M32.4395 18.5625V41.0808C32.4395 42.8038 31.0427 44.2007 29.3196 44.2007C27.5965 44.2007 26.1997 42.8039 26.1997 41.0808V18.5625C26.1998 16.6426 32.4395 16.6426 32.4395 18.5625Z" fill="url(#paint11_linear_139_13603)"/>
<path d="M28.6767 44.1341C30.3364 42.0114 30.7081 38.9256 29.0021 36.3407L26.1997 32.0947V41.0808C26.1998 42.5835 27.2622 43.8376 28.6767 44.1341Z" fill="url(#paint12_linear_139_13603)"/>
<path d="M34.1512 33.7339V41.843C34.1512 44.5109 31.9877 46.6745 29.3197 46.6745C27.9852 46.6745 26.7781 46.1336 25.9036 45.2592C25.0291 44.3846 24.4883 43.1765 24.4883 41.8431V33.734H34.1512V33.7339Z" fill="url(#paint13_linear_139_13603)"/>
<path d="M33.6662 8.15618H24.9729C23.0867 8.15618 21.5576 6.62714 21.5576 4.74093C21.5576 2.85472 23.0867 1.32568 24.9729 1.32568H33.6662C35.5524 1.32568 37.0815 2.85472 37.0815 4.74093C37.0815 6.62714 35.5524 8.15618 33.6662 8.15618Z" fill="url(#paint14_linear_139_13603)"/>
<path d="M45.0696 15.3623V41.8432C45.0696 44.5115 42.9065 46.6747 40.2382 46.6747C37.5698 46.6747 35.4067 44.5115 35.4067 41.8432V15.3623C35.4066 12.389 45.0696 12.389 45.0696 15.3623Z" fill="url(#paint15_linear_139_13603)"/>
<path d="M45.0697 15.3623V26.1889L35.4067 16.5259V15.3623C35.4067 12.389 45.0697 12.389 45.0697 15.3623Z" fill="url(#paint16_linear_139_13603)"/>
<path d="M43.358 26.9536V41.0808C43.358 42.8038 41.9612 44.2007 40.2381 44.2007C38.515 44.2007 37.1182 42.8039 37.1182 41.0808V26.9536C37.1183 25.0337 43.358 25.0337 43.358 26.9536Z" fill="url(#paint17_linear_139_13603)"/>
<path d="M45.0696 33.7339V41.843C45.0696 44.5109 42.9061 46.6745 40.2382 46.6745C38.9037 46.6745 37.6965 46.1336 36.8221 45.2592C35.9475 44.3846 35.4067 43.1765 35.4067 41.8431V33.734H45.0696V33.7339Z" fill="url(#paint18_linear_139_13603)"/>
<path d="M44.5847 16.5473H35.8913C34.0051 16.5473 32.4761 15.0183 32.4761 13.132C32.4761 11.2458 34.0051 9.7168 35.8913 9.7168H44.5847C46.4709 9.7168 47.9999 11.2458 47.9999 13.132C47.9999 15.0183 46.4709 16.5473 44.5847 16.5473Z" fill="url(#paint19_linear_139_13603)"/>
</g>
<defs>
<linearGradient id="paint0_linear_139_13603" x1="7.75659" y1="25.4121" x2="26.6025" y2="44.2579" gradientUnits="userSpaceOnUse">
<stop stop-color="#E6EEFF"/>
<stop offset="1" stop-color="#BAC8FA"/>
</linearGradient>
<linearGradient id="paint1_linear_139_13603" x1="16.3054" y1="20.2335" x2="15.901" y2="13.2915" gradientUnits="userSpaceOnUse">
<stop stop-color="#A7B7F1" stop-opacity="0"/>
<stop offset="1" stop-color="#A7B7F1"/>
</linearGradient>
<linearGradient id="paint2_linear_139_13603" x1="8.64192" y1="31.6676" x2="21.5268" y2="44.5526" gradientUnits="userSpaceOnUse">
<stop stop-color="#CCFC5C"/>
<stop offset="0.1591" stop-color="#C6F95A"/>
<stop offset="0.3653" stop-color="#B6F053"/>
<stop offset="0.5975" stop-color="#9BE248"/>
<stop offset="0.8469" stop-color="#76CF38"/>
<stop offset="1" stop-color="#5CC12D"/>
</linearGradient>
<linearGradient id="paint3_linear_139_13603" x1="12.5759" y1="31.3806" x2="23.3633" y2="42.168" gradientUnits="userSpaceOnUse">
<stop stop-color="#026841" stop-opacity="0"/>
<stop offset="1" stop-color="#006E66"/>
</linearGradient>
<linearGradient id="paint4_linear_139_13603" x1="17.8105" y1="37.796" x2="23.4499" y2="43.4353" gradientUnits="userSpaceOnUse">
<stop stop-color="#026841" stop-opacity="0"/>
<stop offset="1" stop-color="#006E66"/>
</linearGradient>
<linearGradient id="paint5_linear_139_13603" x1="10.7949" y1="38.5308" x2="16.4342" y2="44.1702" gradientUnits="userSpaceOnUse">
<stop stop-color="#026841" stop-opacity="0"/>
<stop offset="1" stop-color="#006E66"/>
</linearGradient>
<linearGradient id="paint6_linear_139_13603" x1="15.0575" y1="41.4852" x2="15.0575" y2="46.4071" gradientUnits="userSpaceOnUse">
<stop stop-color="#A7B7F1" stop-opacity="0"/>
<stop offset="1" stop-color="#A7B7F1"/>
</linearGradient>
<linearGradient id="paint7_linear_139_13603" x1="10.8132" y1="6.51876" x2="17.2931" y2="12.9987" gradientUnits="userSpaceOnUse">
<stop stop-color="#E6EEFF"/>
<stop offset="1" stop-color="#BAC8FA"/>
</linearGradient>
<linearGradient id="paint8_linear_139_13603" x1="24.992" y1="25.708" x2="33.7851" y2="25.708" gradientUnits="userSpaceOnUse">
<stop stop-color="#E6EEFF"/>
<stop offset="1" stop-color="#BAC8FA"/>
</linearGradient>
<linearGradient id="paint9_linear_139_13603" x1="27.3013" y1="49.775" x2="27.3013" y2="24.6101" gradientUnits="userSpaceOnUse">
<stop stop-color="#A7B7F1" stop-opacity="0"/>
<stop offset="1" stop-color="#A7B7F1"/>
</linearGradient>
<linearGradient id="paint10_linear_139_13603" x1="29.62" y1="12.6878" x2="29.2824" y2="6.89199" gradientUnits="userSpaceOnUse">
<stop stop-color="#A7B7F1" stop-opacity="0"/>
<stop offset="1" stop-color="#A7B7F1"/>
</linearGradient>
<linearGradient id="paint11_linear_139_13603" x1="26.4073" y1="30.6616" x2="32.8455" y2="30.6616" gradientUnits="userSpaceOnUse">
<stop stop-color="#FE93BB"/>
<stop offset="1" stop-color="#FE0364"/>
</linearGradient>
<linearGradient id="paint12_linear_139_13603" x1="26.8985" y1="41.743" x2="30.5381" y2="26.376" gradientUnits="userSpaceOnUse">
<stop stop-color="#A72B2B" stop-opacity="0"/>
<stop offset="1" stop-color="#42210B"/>
</linearGradient>
<linearGradient id="paint13_linear_139_13603" x1="29.3196" y1="42.2261" x2="29.3196" y2="45.9355" gradientUnits="userSpaceOnUse">
<stop stop-color="#A7B7F1" stop-opacity="0"/>
<stop offset="1" stop-color="#A7B7F1"/>
</linearGradient>
<linearGradient id="paint14_linear_139_13603" x1="25.0754" y1="0.49679" x2="31.5553" y2="6.9767" gradientUnits="userSpaceOnUse">
<stop stop-color="#E6EEFF"/>
<stop offset="1" stop-color="#BAC8FA"/>
</linearGradient>
<linearGradient id="paint15_linear_139_13603" x1="35.9105" y1="29.9035" x2="44.7036" y2="29.9035" gradientUnits="userSpaceOnUse">
<stop stop-color="#E6EEFF"/>
<stop offset="1" stop-color="#BAC8FA"/>
</linearGradient>
<linearGradient id="paint16_linear_139_13603" x1="40.5385" y1="21.0789" x2="40.2009" y2="15.2831" gradientUnits="userSpaceOnUse">
<stop stop-color="#A7B7F1" stop-opacity="0"/>
<stop offset="1" stop-color="#A7B7F1"/>
</linearGradient>
<linearGradient id="paint17_linear_139_13603" x1="37.3258" y1="34.8571" x2="43.764" y2="34.8571" gradientUnits="userSpaceOnUse">
<stop stop-color="#8AC9FE"/>
<stop offset="1" stop-color="#0593FC"/>
</linearGradient>
<linearGradient id="paint18_linear_139_13603" x1="40.2381" y1="42.2261" x2="40.2381" y2="45.9355" gradientUnits="userSpaceOnUse">
<stop stop-color="#A7B7F1" stop-opacity="0"/>
<stop offset="1" stop-color="#A7B7F1"/>
</linearGradient>
<linearGradient id="paint19_linear_139_13603" x1="35.9938" y1="8.8879" x2="42.4737" y2="15.3678" gradientUnits="userSpaceOnUse">
<stop stop-color="#E6EEFF"/>
<stop offset="1" stop-color="#BAC8FA"/>
</linearGradient>
<clipPath id="clip0_139_13603">
<rect width="48" height="48" fill="white"/>
</clipPath>
</defs>
</svg>
