<svg width="48" height="48" viewBox="0 0 48 48" fill="none" xmlns="http://www.w3.org/2000/svg">
<g opacity="0.3" clip-path="url(#clip0_139_13567)">
<path d="M24.7057 42.6208V34.6375C24.7057 34.2477 24.3897 33.9316 23.9998 33.9316C23.61 33.9316 23.2939 34.2477 23.2939 34.6375V42.6208C23.2939 43.0106 23.61 43.3267 23.9998 43.3267C24.3897 43.3267 24.7057 43.0106 24.7057 42.6208Z" fill="#7BACDF"/>
<path d="M42.8454 41.2361H5.15434C3.56413 41.2361 2.2749 39.947 2.2749 38.3567V2.61035H45.7249V38.3567C45.7249 39.947 44.4358 41.2361 42.8454 41.2361Z" fill="url(#paint0_linear_139_13567)"/>
<path d="M33.1375 38.6258H41.5706C43.1609 38.6258 44.4501 37.3367 44.4501 35.7464V0H1V6.48828L33.1375 38.6258Z" fill="url(#paint1_linear_139_13567)"/>
<path d="M45.254 9.12358H2.74598C1.22936 9.12358 0 7.89412 0 6.3776V2.74598C0 1.22936 1.22936 0 2.74598 0H45.254C46.7706 0 48 1.22936 48 2.74598V6.3776C48 7.89412 46.7706 9.12358 45.254 9.12358Z" fill="url(#paint2_linear_139_13567)"/>
<path d="M24 48C22.4172 48 21.1294 46.7122 21.1294 45.1294C21.1294 43.5465 22.4172 42.2588 24 42.2588C25.5828 42.2588 26.8706 43.5465 26.8706 45.1294C26.8706 46.7122 25.5828 48 24 48ZM24 43.6706C23.1956 43.6706 22.5412 44.325 22.5412 45.1294C22.5412 45.9338 23.1956 46.5882 24 46.5882C24.8044 46.5882 25.4588 45.9338 25.4588 45.1294C25.4588 44.325 24.8044 43.6706 24 43.6706Z" fill="url(#paint3_linear_139_13567)"/>
<path d="M2.2749 31.5293V38.3565C2.2749 39.9467 3.56403 41.2359 5.15434 41.2359H42.8455C44.4358 41.2359 45.725 39.9468 45.725 38.3565V31.5293H2.2749Z" fill="url(#paint4_linear_139_13567)"/>
<path d="M9.43553 18.5561C11.0209 18.5561 12.3061 17.2709 12.3061 15.6855C12.3061 14.1001 11.0209 12.8149 9.43553 12.8149C7.85015 12.8149 6.56494 14.1001 6.56494 15.6855C6.56494 17.2709 7.85015 18.5561 9.43553 18.5561Z" fill="url(#paint5_linear_139_13567)"/>
<path d="M9.43553 28.1562C11.0209 28.1562 12.3061 26.871 12.3061 25.2856C12.3061 23.7002 11.0209 22.415 9.43553 22.415C7.85015 22.415 6.56494 23.7002 6.56494 25.2856C6.56494 26.871 7.85015 28.1562 9.43553 28.1562Z" fill="url(#paint6_linear_139_13567)"/>
<path d="M9.43553 37.7563C11.0209 37.7563 12.3061 36.4711 12.3061 34.8857C12.3061 33.3003 11.0209 32.0151 9.43553 32.0151C7.85015 32.0151 6.56494 33.3003 6.56494 34.8857C6.56494 36.4711 7.85015 37.7563 9.43553 37.7563Z" fill="url(#paint7_linear_139_13567)"/>
<path d="M38.5649 18.5561C40.1503 18.5561 41.4355 17.2709 41.4355 15.6855C41.4355 14.1001 40.1503 12.8149 38.5649 12.8149C36.9795 12.8149 35.6943 14.1001 35.6943 15.6855C35.6943 17.2709 36.9795 18.5561 38.5649 18.5561Z" fill="url(#paint8_linear_139_13567)"/>
<path d="M38.5649 28.1562C40.1503 28.1562 41.4355 26.871 41.4355 25.2856C41.4355 23.7002 40.1503 22.415 38.5649 22.415C36.9795 22.415 35.6943 23.7002 35.6943 25.2856C35.6943 26.871 36.9795 28.1562 38.5649 28.1562Z" fill="url(#paint9_linear_139_13567)"/>
<path d="M38.5649 37.7563C40.1503 37.7563 41.4355 36.4711 41.4355 34.8857C41.4355 33.3003 40.1503 32.0151 38.5649 32.0151C36.9795 32.0151 35.6943 33.3003 35.6943 34.8857C35.6943 36.4711 36.9795 37.7563 38.5649 37.7563Z" fill="url(#paint10_linear_139_13567)"/>
<path d="M22.1492 21.4893C21.9685 21.4893 21.7878 21.4204 21.6501 21.2825L16.6489 16.2814H13.804C13.4142 16.2814 13.0981 15.9653 13.0981 15.5755C13.0981 15.1857 13.4142 14.8696 13.804 14.8696H16.9413C17.1285 14.8696 17.3081 14.944 17.4404 15.0764L22.6483 20.2842C22.9239 20.5599 22.9239 21.0069 22.6483 21.2824C22.5105 21.4204 22.3299 21.4893 22.1492 21.4893Z" fill="#EAF6FF"/>
<path d="M16.9412 35.7012H13.804C13.4142 35.7012 13.0981 35.3851 13.0981 34.9953C13.0981 34.6055 13.4142 34.2894 13.804 34.2894H16.6489L21.6501 29.2883C21.9257 29.0126 22.3727 29.0126 22.6483 29.2883C22.9239 29.564 22.9239 30.0109 22.6483 30.2865L17.4404 35.4943C17.308 35.6268 17.1284 35.7012 16.9412 35.7012Z" fill="#EAF6FF"/>
<path d="M19.5452 25.9914H13.804C13.4142 25.9914 13.0981 25.6753 13.0981 25.2855C13.0981 24.8956 13.4142 24.5796 13.804 24.5796H19.5452C19.935 24.5796 20.2511 24.8956 20.2511 25.2855C20.2511 25.6753 19.935 25.9914 19.5452 25.9914Z" fill="#EAF6FF"/>
<path d="M25.8509 21.4892C25.6703 21.4892 25.4896 21.4203 25.3518 21.2824C25.0761 21.0068 25.0761 20.5598 25.3518 20.2842L30.5596 15.0764C30.6919 14.944 30.8715 14.8696 31.0587 14.8696H34.1959C34.5857 14.8696 34.9018 15.1857 34.9018 15.5755C34.9018 15.9653 34.5857 16.2814 34.1959 16.2814H31.351L26.3499 21.2825C26.2121 21.4203 26.0315 21.4892 25.8509 21.4892Z" fill="#EAF6FF"/>
<path d="M34.1959 35.7011H31.0587C30.8715 35.7011 30.6919 35.6267 30.5596 35.4943L25.3518 30.2865C25.0761 30.0108 25.0761 29.5639 25.3518 29.2883C25.6274 29.0126 26.0744 29.0126 26.35 29.2883L31.3511 34.2894H34.196C34.5858 34.2894 34.9019 34.6055 34.9019 34.9953C34.9019 35.3851 34.5858 35.7011 34.1959 35.7011Z" fill="#EAF6FF"/>
<path d="M45.3702 39.7416L29.762 24.1333L14.9478 38.9474L17.236 41.2357H42.8456C43.9337 41.2358 44.8806 40.6321 45.3702 39.7416Z" fill="url(#paint11_linear_139_13567)"/>
<path d="M34.1961 25.9914H28.4549C28.0651 25.9914 27.749 25.6753 27.749 25.2855C27.749 24.8956 28.0651 24.5796 28.4549 24.5796H34.1961C34.5859 24.5796 34.902 24.8956 34.902 25.2855C34.902 25.6753 34.586 25.9914 34.1961 25.9914Z" fill="#EAF6FF"/>
<path d="M24.0002 32.7787C28.1387 32.7787 31.4936 29.4238 31.4936 25.2854C31.4936 21.1469 28.1387 17.792 24.0002 17.792C19.8617 17.792 16.5068 21.1469 16.5068 25.2854C16.5068 29.4238 19.8617 32.7787 24.0002 32.7787Z" fill="url(#paint12_linear_139_13567)"/>
<path d="M29.7616 24.1338L21.5337 32.3617C22.3062 32.6309 23.1355 32.7791 23.9998 32.7791C27.9507 32.7791 31.1852 29.7206 31.4704 25.8425L29.7616 24.1338Z" fill="url(#paint13_linear_139_13567)"/>
<path d="M29.7621 24.1335C29.6383 24.0097 29.4432 23.9943 29.3019 24.0977C26.416 26.2115 15.0626 37.1027 15.0626 37.1027C14.5215 37.6439 14.4701 38.4699 14.9479 38.9478C15.4257 39.4256 16.2518 39.3742 16.793 38.833C16.793 38.833 27.6842 27.4797 29.798 24.5938C29.9014 24.4524 29.886 24.2573 29.7621 24.1335Z" fill="url(#paint14_linear_139_13567)"/>
</g>
<defs>
<linearGradient id="paint0_linear_139_13567" x1="13.6012" y1="10.6812" x2="43.3698" y2="40.4498" gradientUnits="userSpaceOnUse">
<stop stop-color="#E6EEFF"/>
<stop offset="1" stop-color="#BAC8FA"/>
</linearGradient>
<linearGradient id="paint1_linear_139_13567" x1="22.725" y1="24.6043" x2="22.725" y2="5.26419" gradientUnits="userSpaceOnUse">
<stop stop-color="#A7B7F1" stop-opacity="0"/>
<stop offset="1" stop-color="#A7B7F1"/>
</linearGradient>
<linearGradient id="paint2_linear_139_13567" x1="24" y1="0.514729" x2="24" y2="9.36377" gradientUnits="userSpaceOnUse">
<stop stop-color="#E6EEFF"/>
<stop offset="1" stop-color="#BAC8FA"/>
</linearGradient>
<linearGradient id="paint3_linear_139_13567" x1="21.9711" y1="43.1005" x2="26.0289" y2="47.1583" gradientUnits="userSpaceOnUse">
<stop stop-color="#5A5A5A"/>
<stop offset="1" stop-color="#444444"/>
</linearGradient>
<linearGradient id="paint4_linear_139_13567" x1="23.9999" y1="37.8352" x2="23.9999" y2="42.2946" gradientUnits="userSpaceOnUse">
<stop stop-color="#A7B7F1" stop-opacity="0"/>
<stop offset="1" stop-color="#A7B7F1"/>
</linearGradient>
<linearGradient id="paint5_linear_139_13567" x1="8.59054" y1="14.8405" x2="10.5916" y2="16.8416" gradientUnits="userSpaceOnUse">
<stop stop-color="#314DC9"/>
<stop offset="1" stop-color="#1F3596"/>
</linearGradient>
<linearGradient id="paint6_linear_139_13567" x1="7.64729" y1="23.4974" x2="11.5535" y2="27.4036" gradientUnits="userSpaceOnUse">
<stop stop-color="#D9B1EE"/>
<stop offset="1" stop-color="#814AA0"/>
</linearGradient>
<linearGradient id="paint7_linear_139_13567" x1="8.59054" y1="34.0407" x2="10.5916" y2="36.0418" gradientUnits="userSpaceOnUse">
<stop stop-color="#8AC9FE"/>
<stop offset="1" stop-color="#0593FC"/>
</linearGradient>
<linearGradient id="paint8_linear_139_13567" x1="37.7199" y1="14.8405" x2="39.721" y2="16.8416" gradientUnits="userSpaceOnUse">
<stop stop-color="#FD4755"/>
<stop offset="1" stop-color="#A72B2B"/>
</linearGradient>
<linearGradient id="paint9_linear_139_13567" x1="36.7767" y1="23.4974" x2="40.6829" y2="27.4036" gradientUnits="userSpaceOnUse">
<stop stop-color="#09A76D"/>
<stop offset="1" stop-color="#026841"/>
</linearGradient>
<linearGradient id="paint10_linear_139_13567" x1="37.181" y1="33.5018" x2="40.5489" y2="36.8697" gradientUnits="userSpaceOnUse">
<stop stop-color="#FE93BB"/>
<stop offset="1" stop-color="#FE0364"/>
</linearGradient>
<linearGradient id="paint11_linear_139_13567" x1="30.8895" y1="40.075" x2="22.566" y2="31.7516" gradientUnits="userSpaceOnUse">
<stop stop-color="#A7B7F1" stop-opacity="0"/>
<stop offset="1" stop-color="#A7B7F1"/>
</linearGradient>
<linearGradient id="paint12_linear_139_13567" x1="21.7945" y1="23.0796" x2="27.0181" y2="28.3031" gradientUnits="userSpaceOnUse">
<stop stop-color="#FEE45A"/>
<stop offset="1" stop-color="#FEA613"/>
</linearGradient>
<linearGradient id="paint13_linear_139_13567" x1="29.1941" y1="31.7941" x2="24.4069" y2="27.007" gradientUnits="userSpaceOnUse">
<stop stop-color="#FE7701" stop-opacity="0"/>
<stop offset="0.1854" stop-color="#F87204" stop-opacity="0.185"/>
<stop offset="0.4314" stop-color="#E7630C" stop-opacity="0.431"/>
<stop offset="0.7114" stop-color="#CB4B19" stop-opacity="0.711"/>
<stop offset="1" stop-color="#A72B2B"/>
</linearGradient>
<linearGradient id="paint14_linear_139_13567" x1="22.2435" y1="25.7884" x2="22.2435" y2="35.2434" gradientUnits="userSpaceOnUse">
<stop stop-color="#5A5A5A"/>
<stop offset="1" stop-color="#444444"/>
</linearGradient>
<clipPath id="clip0_139_13567">
<rect width="48" height="48" fill="white"/>
</clipPath>
</defs>
</svg>
