<svg width="48" height="48" viewBox="0 0 48 48" fill="none" xmlns="http://www.w3.org/2000/svg">
<g opacity="0.3" clip-path="url(#clip0_139_13991)">
<path d="M30.2864 33.7793C29.6539 33.6418 29.2528 33.0176 29.3903 32.3852L35.2335 5.51803C35.5558 4.03641 36.5118 2.78494 37.8566 2.08453L41.604 0.132751C42.1781 -0.166218 42.8858 0.0568135 43.1848 0.630845C43.4837 1.20488 43.2607 1.91259 42.6867 2.21156L38.9392 4.16334C38.2135 4.54125 37.6976 5.21663 37.5237 6.01622L31.6804 32.8833C31.5429 33.5156 30.9187 33.9169 30.2864 33.7793Z" fill="url(#paint0_linear_139_13991)"/>
<path d="M36.7995 29.6166L43.2439 9.31803C43.5612 8.31875 42.8153 7.29932 41.7668 7.29932H19.7379C18.6894 7.29932 17.9435 8.31866 18.2608 9.31803L24.7052 29.6166C26.6728 35.8139 25.984 41.5411 23.155 46.0488C22.6226 46.8972 23.2323 47.9998 24.234 47.9998H37.2706C38.2723 47.9998 38.882 46.8972 38.3496 46.0488C35.5207 41.541 34.8319 35.8139 36.7995 29.6166Z" fill="url(#paint1_linear_139_13991)"/>
<path d="M30.2864 33.7791C30.9188 33.9166 31.5429 33.5155 31.6805 32.883L37.2447 7.29932H34.8462L29.3903 32.3849C29.2527 33.0174 29.6539 33.6416 30.2864 33.7791Z" fill="url(#paint2_linear_139_13991)"/>
<path d="M35.0618 31.4581C34.126 35.191 33.8973 38.5749 34.253 41.4996C34.3124 41.9931 34.3896 42.4731 34.482 42.9406C34.6389 43.7329 33.9396 44.4633 33.0435 44.4633H28.4711C27.5748 44.4633 26.8746 43.7329 27.0305 42.9406C27.1223 42.473 27.1989 41.993 27.2576 41.4996C27.6095 38.5749 27.3763 35.191 26.4356 31.4581L22.1744 14.5504C22.0314 13.9831 22.4558 13.4283 23.0408 13.424C24.8861 13.4104 26.7277 13.2819 28.5603 13.04L34.2762 12.2834C35.1425 12.1683 36.0126 12.1113 36.8802 12.1113C37.531 12.1113 38.1798 12.1439 38.8242 12.2083C39.372 12.263 39.7413 12.7955 39.6074 13.3295L35.0618 31.4581Z" fill="url(#paint3_linear_139_13991)"/>
<path d="M26.2413 30.687L26.4356 31.4581C27.3763 35.191 27.6096 38.5749 27.2576 41.4996C27.199 41.9931 27.1224 42.4731 27.0306 42.9406C26.8747 43.7329 27.5749 44.4633 28.4711 44.4633H33.0435C33.9398 44.4633 34.6391 43.7329 34.482 42.9406C34.3897 42.473 34.3123 41.993 34.2531 41.4996C33.8973 38.5749 34.1261 35.191 35.0619 31.4581L39.6073 13.3295C39.7412 12.7955 39.3719 12.263 38.8241 12.2083C38.1797 12.1439 37.531 12.1113 36.8801 12.1113C36.0127 12.1113 35.1425 12.1683 34.2761 12.2834L28.5602 13.04C27.7887 13.1418 27.0155 13.2224 26.2412 13.2839V30.687H26.2413Z" fill="url(#paint4_linear_139_13991)"/>
<path d="M26.8989 33.5645C27.4439 36.4707 27.5422 39.1354 27.2577 41.4997C27.199 41.9932 27.1224 42.4732 27.0306 42.9408C26.8747 43.733 27.575 44.4635 28.4712 44.4635H33.0436C33.9398 44.4635 34.6391 43.733 34.4821 42.9408C34.3897 42.4731 34.3124 41.9931 34.2531 41.4997C33.9655 39.1354 34.0604 36.4707 34.6015 33.5645H26.8989Z" fill="url(#paint5_linear_139_13991)"/>
<path d="M25.6138 33.5645C26.2742 38.2344 25.3721 42.5164 23.1549 46.049C22.6225 46.8974 23.2323 48.0001 24.2339 48.0001H37.2706C38.2722 48.0001 38.882 46.8974 38.3496 46.049C36.1325 42.5163 35.2304 38.2344 35.8907 33.5645H25.6138Z" fill="url(#paint6_linear_139_13991)"/>
<path d="M34.2762 12.2835L33.7469 12.3535L29.3903 32.3853C29.2528 33.0177 29.6539 33.6419 30.2864 33.7794C30.9188 33.9169 31.5429 33.5158 31.6805 32.8833L36.1955 12.1235C35.5554 12.1457 34.9147 12.1986 34.2762 12.2835Z" fill="url(#paint7_linear_139_13991)"/>
<path d="M41.7668 7.29932H26.2412V47.9998H37.2707C38.2723 47.9998 38.8821 46.8972 38.3497 46.0488C35.5207 41.541 34.8319 35.8139 36.7994 29.6166L43.2439 9.31803C43.5611 8.31875 42.8153 7.29932 41.7668 7.29932Z" fill="url(#paint8_linear_139_13991)"/>
<path d="M38.4872 1.75635L37.8568 2.08475C36.5885 2.74532 35.6666 3.89619 35.2954 5.26785H37.8061C37.9781 4.95725 38.209 4.68294 38.4873 4.45963V1.75635H38.4872Z" fill="url(#paint9_linear_139_13991)"/>
<path d="M38.2159 4.70742L37.1591 2.52295C36.6247 2.92186 36.1772 3.4192 35.8384 3.98657L37.9643 5.01501C38.0408 4.90673 38.1245 4.80361 38.2159 4.70742Z" fill="url(#paint10_linear_139_13991)"/>
<path d="M38.4876 1.75586V4.45961C38.3479 4.57117 38.2204 4.69586 38.107 4.83086C38.1417 4.78867 38.1782 4.74742 38.2157 4.70711L37.1592 2.52273C37.3776 2.35961 37.6101 2.21336 37.8567 2.08492L38.4876 1.75586Z" fill="url(#paint11_linear_139_13991)"/>
<path d="M26.9367 35.0491C26.9367 40.4561 23.7895 46.1791 19.4113 47.8359C18.4639 48.1944 17.3935 47.953 16.6772 47.2367C16.198 46.7575 15.421 46.7575 14.9417 47.2367C14.2255 47.953 13.1551 48.1944 12.2078 47.8359C7.82948 46.1791 4.68164 40.4561 4.68164 35.0491C4.68164 32.8526 5.20083 30.7909 6.11095 29.0055C7.54533 26.1912 10.2024 26.0228 12.7094 26.8726C13.6898 27.2054 14.7304 27.3838 15.8095 27.3838C16.8878 27.3838 17.9284 27.2054 18.9089 26.8726C21.4158 26.0227 24.0729 26.1911 25.5073 29.0055C26.4174 30.7908 26.9367 32.8526 26.9367 35.0491Z" fill="url(#paint12_linear_139_13991)"/>
<path d="M11.4175 26.5352C11.9756 28.4338 13.7299 29.8203 15.8091 29.8203C17.8883 29.8203 19.6427 28.4337 20.2007 26.5352C19.7702 26.6128 19.3374 26.7273 18.9089 26.8727C17.9284 27.2055 16.8878 27.3839 15.8095 27.3839C14.7304 27.3839 13.6898 27.2055 12.7094 26.8727C12.2807 26.7273 11.8479 26.6128 11.4175 26.5352Z" fill="url(#paint13_linear_139_13991)"/>
<path d="M18.9088 26.8727C17.9283 27.2055 16.8877 27.3839 15.8094 27.3839C15.7869 27.3839 15.7647 27.3827 15.7422 27.3825V29.8189C15.7645 29.8192 15.7866 29.8203 15.809 29.8203C17.8882 29.8203 19.6427 28.4337 20.2007 26.5352C19.7702 26.6128 19.3373 26.7273 18.9088 26.8727Z" fill="url(#paint14_linear_139_13991)"/>
<path d="M4.79785 36.8711C5.40245 41.6867 8.31985 46.3646 12.2079 47.8359C13.1553 48.1944 14.2257 47.953 14.9419 47.2368C15.4211 46.7575 16.1981 46.7575 16.6774 47.2368C17.3936 47.953 18.4641 48.1944 19.4114 47.8359C23.2994 46.3646 26.2163 41.6867 26.8209 36.8711H4.79785Z" fill="url(#paint15_linear_139_13991)"/>
<path d="M16.677 47.2365C17.3933 47.9528 18.4637 48.1942 19.411 47.8357C23.7893 46.1789 26.9364 40.4559 26.9364 35.0489C26.9364 32.8524 26.4173 30.7907 25.5071 29.0053C24.5696 27.1659 23.1098 26.4571 21.511 26.4238L6.21338 41.7214C7.55129 44.5553 9.67322 46.8767 12.2076 47.8357C13.1549 48.1942 14.2253 47.9528 14.9415 47.2365C15.4208 46.7573 16.1978 46.7573 16.677 47.2365Z" fill="url(#paint16_linear_139_13991)"/>
<path d="M13.9862 22.895C14.7661 23.6749 15.2914 24.6127 15.5624 25.6054C16.0453 27.3741 14.4024 29.017 12.6338 28.5341C11.641 28.2631 10.7033 27.7378 9.92336 26.9579C8.56848 25.603 7.98207 23.7717 8.16207 22.0035C8.20857 21.5463 8.57467 21.1803 9.03179 21.1338C10.8 20.9538 12.6314 21.5402 13.9862 22.895Z" fill="url(#paint17_linear_139_13991)"/>
<path d="M12.6338 28.534C11.641 28.263 10.7033 27.7377 9.92335 26.9578C8.56857 25.603 7.98207 23.7716 8.16207 22.0034C8.18532 21.7748 8.28845 21.569 8.44295 21.4146L14.9424 27.9141C14.371 28.4855 13.5181 28.7754 12.6338 28.534Z" fill="url(#paint18_linear_139_13991)"/>
<path d="M9.92579 26.9602C9.92495 26.9594 9.9241 26.9586 9.92335 26.9579C8.56857 25.6031 7.98207 23.7717 8.16207 22.0035C8.20857 21.5462 8.57466 21.1803 9.03179 21.1338C10.8 20.9538 12.6314 21.5403 13.9862 22.895C13.987 22.8959 13.9878 22.8967 13.9885 22.8975V26.9603H9.92579V26.9602Z" fill="url(#paint19_linear_139_13991)"/>
<path d="M11.6926 24.6643H8.47745C8.17633 23.8077 8.07105 22.8976 8.16198 22.0034C8.20848 21.5462 8.57458 21.1802 9.0317 21.1337C9.9258 21.0427 10.8359 21.148 11.6926 21.4492V24.6643Z" fill="url(#paint20_linear_139_13991)"/>
<path d="M15.805 29.8204C16.5127 29.8204 17.0863 29.2466 17.0863 28.539C17.0863 26.1763 17.5091 23.8038 18.3187 21.579C18.6344 20.7113 17.9842 19.7949 17.0608 19.7949C16.4992 19.7949 15.9966 20.1459 15.8049 20.6738C14.8915 23.1882 14.4146 25.8691 14.4146 28.5389C14.4146 29.2466 14.9883 29.8203 15.6959 29.8203H15.805V29.8204Z" fill="url(#paint21_linear_139_13991)"/>
<path d="M17.6185 23.9414H14.884C14.5742 25.455 14.4146 26.9988 14.4146 28.5391C14.4146 29.2468 14.9883 29.8205 15.6959 29.8205H15.8049C16.5126 29.8205 17.0862 29.2467 17.0862 28.5391C17.0862 26.996 17.2678 25.449 17.6185 23.9414Z" fill="url(#paint22_linear_139_13991)"/>
</g>
<defs>
<linearGradient id="paint0_linear_139_13991" x1="31.3981" y1="14.844" x2="38.6159" y2="17.8514" gradientUnits="userSpaceOnUse">
<stop stop-color="#A274BF"/>
<stop offset="0.1435" stop-color="#976FBB"/>
<stop offset="0.3928" stop-color="#7B61B3"/>
<stop offset="0.7158" stop-color="#4D4BA4"/>
<stop offset="1" stop-color="#1F3596"/>
</linearGradient>
<linearGradient id="paint1_linear_139_13991" x1="25.0382" y1="27.6496" x2="38.2089" y2="27.6496" gradientUnits="userSpaceOnUse">
<stop stop-color="#FFFBF5"/>
<stop offset="0.4893" stop-color="#FFF8EC"/>
<stop offset="1" stop-color="#FFF2DE"/>
</linearGradient>
<linearGradient id="paint2_linear_139_13991" x1="34.8557" y1="20.1112" x2="42.3409" y2="18.5407" gradientUnits="userSpaceOnUse">
<stop stop-color="#1F3596" stop-opacity="0"/>
<stop offset="0.2618" stop-color="#1E3190" stop-opacity="0.262"/>
<stop offset="0.6062" stop-color="#1D267F" stop-opacity="0.606"/>
<stop offset="0.9953" stop-color="#1B1464" stop-opacity="0.995"/>
<stop offset="1" stop-color="#1B1464"/>
</linearGradient>
<linearGradient id="paint3_linear_139_13991" x1="25.4181" y1="26.6102" x2="35.8439" y2="28.8157" gradientUnits="userSpaceOnUse">
<stop stop-color="#FEF0AE"/>
<stop offset="1" stop-color="#FAC600"/>
</linearGradient>
<linearGradient id="paint4_linear_139_13991" x1="32.6958" y1="28.2633" x2="37.8445" y2="28.6533" gradientUnits="userSpaceOnUse">
<stop stop-color="#FE9738" stop-opacity="0"/>
<stop offset="1" stop-color="#FE9738"/>
</linearGradient>
<linearGradient id="paint5_linear_139_13991" x1="30.7502" y1="41.9658" x2="30.7502" y2="44.2377" gradientUnits="userSpaceOnUse">
<stop stop-color="#FE9738" stop-opacity="0"/>
<stop offset="1" stop-color="#FE9738"/>
</linearGradient>
<linearGradient id="paint6_linear_139_13991" x1="30.7523" y1="44.6919" x2="30.7523" y2="47.701" gradientUnits="userSpaceOnUse">
<stop stop-color="#FFF2DE" stop-opacity="0"/>
<stop offset="0.2223" stop-color="#FFEDD7" stop-opacity="0.222"/>
<stop offset="0.5516" stop-color="#FFDFC3" stop-opacity="0.552"/>
<stop offset="0.9456" stop-color="#FFC8A2" stop-opacity="0.946"/>
<stop offset="1" stop-color="#FFC49D"/>
</linearGradient>
<linearGradient id="paint7_linear_139_13991" x1="31.4602" y1="23.0512" x2="41.3067" y2="22.6057" gradientUnits="userSpaceOnUse">
<stop stop-color="#1F3596" stop-opacity="0"/>
<stop offset="0.2618" stop-color="#1E3190" stop-opacity="0.262"/>
<stop offset="0.6062" stop-color="#1D267F" stop-opacity="0.606"/>
<stop offset="0.9953" stop-color="#1B1464" stop-opacity="0.995"/>
<stop offset="1" stop-color="#1B1464"/>
</linearGradient>
<linearGradient id="paint8_linear_139_13991" x1="34.45" y1="27.6811" x2="41.0664" y2="28.1823" gradientUnits="userSpaceOnUse">
<stop stop-color="#FFF2DE" stop-opacity="0"/>
<stop offset="0.2223" stop-color="#FFEDD7" stop-opacity="0.222"/>
<stop offset="0.5516" stop-color="#FFDFC3" stop-opacity="0.552"/>
<stop offset="0.9456" stop-color="#FFC8A2" stop-opacity="0.946"/>
<stop offset="1" stop-color="#FFC49D"/>
</linearGradient>
<linearGradient id="paint9_linear_139_13991" x1="37.0482" y1="4.17294" x2="37.4158" y2="5.72122" gradientUnits="userSpaceOnUse">
<stop stop-color="#1F3596" stop-opacity="0"/>
<stop offset="0.2618" stop-color="#1E3190" stop-opacity="0.262"/>
<stop offset="0.6062" stop-color="#1D267F" stop-opacity="0.606"/>
<stop offset="0.9953" stop-color="#1B1464" stop-opacity="0.995"/>
<stop offset="1" stop-color="#1B1464"/>
</linearGradient>
<linearGradient id="paint10_linear_139_13991" x1="37.1281" y1="3.83198" x2="36.9053" y2="4.96814" gradientUnits="userSpaceOnUse">
<stop stop-color="#1F3596" stop-opacity="0"/>
<stop offset="0.2618" stop-color="#1E3190" stop-opacity="0.262"/>
<stop offset="0.6062" stop-color="#1D267F" stop-opacity="0.606"/>
<stop offset="0.9953" stop-color="#1B1464" stop-opacity="0.995"/>
<stop offset="1" stop-color="#1B1464"/>
</linearGradient>
<linearGradient id="paint11_linear_139_13991" x1="38.2209" y1="3.06189" x2="37.1071" y2="4.26489" gradientUnits="userSpaceOnUse">
<stop stop-color="#1F3596" stop-opacity="0"/>
<stop offset="0.2618" stop-color="#1E3190" stop-opacity="0.262"/>
<stop offset="0.6062" stop-color="#1D267F" stop-opacity="0.606"/>
<stop offset="0.9953" stop-color="#1B1464" stop-opacity="0.995"/>
<stop offset="1" stop-color="#1B1464"/>
</linearGradient>
<linearGradient id="paint12_linear_139_13991" x1="12.8891" y1="31.9024" x2="21.1095" y2="42.1277" gradientUnits="userSpaceOnUse">
<stop stop-color="#FD4755"/>
<stop offset="1" stop-color="#A72B2B"/>
</linearGradient>
<linearGradient id="paint13_linear_139_13991" x1="15.9213" y1="27.1105" x2="16.9906" y2="32.5908" gradientUnits="userSpaceOnUse">
<stop stop-color="#A72B2B" stop-opacity="0"/>
<stop offset="0.2378" stop-color="#A22C2B" stop-opacity="0.238"/>
<stop offset="0.5507" stop-color="#912E29" stop-opacity="0.551"/>
<stop offset="0.9042" stop-color="#763227" stop-opacity="0.904"/>
<stop offset="1" stop-color="#6D3326"/>
</linearGradient>
<linearGradient id="paint14_linear_139_13991" x1="19.2807" y1="28.4288" x2="16.6742" y2="27.9276" gradientUnits="userSpaceOnUse">
<stop stop-color="#A72B2B" stop-opacity="0"/>
<stop offset="0.2378" stop-color="#A22C2B" stop-opacity="0.238"/>
<stop offset="0.5507" stop-color="#912E29" stop-opacity="0.551"/>
<stop offset="0.9042" stop-color="#763227" stop-opacity="0.904"/>
<stop offset="1" stop-color="#6D3326"/>
</linearGradient>
<linearGradient id="paint15_linear_139_13991" x1="15.8094" y1="42.7857" x2="15.8094" y2="47.7985" gradientUnits="userSpaceOnUse">
<stop stop-color="#A72B2B" stop-opacity="0"/>
<stop offset="0.2378" stop-color="#A22C2B" stop-opacity="0.238"/>
<stop offset="0.5507" stop-color="#912E29" stop-opacity="0.551"/>
<stop offset="0.9042" stop-color="#763227" stop-opacity="0.904"/>
<stop offset="1" stop-color="#6D3326"/>
</linearGradient>
<linearGradient id="paint16_linear_139_13991" x1="18.4346" y1="37.4306" x2="25.7193" y2="38.9678" gradientUnits="userSpaceOnUse">
<stop stop-color="#A72B2B" stop-opacity="0"/>
<stop offset="0.2378" stop-color="#A22C2B" stop-opacity="0.238"/>
<stop offset="0.5507" stop-color="#912E29" stop-opacity="0.551"/>
<stop offset="0.9042" stop-color="#763227" stop-opacity="0.904"/>
<stop offset="1" stop-color="#6D3326"/>
</linearGradient>
<linearGradient id="paint17_linear_139_13991" x1="13.7797" y1="22.6055" x2="9.7175" y2="26.6678" gradientUnits="userSpaceOnUse">
<stop stop-color="#D1F19E"/>
<stop offset="1" stop-color="#78A91F"/>
</linearGradient>
<linearGradient id="paint18_linear_139_13991" x1="9.1715" y1="24.964" x2="16.8107" y2="25.076" gradientUnits="userSpaceOnUse">
<stop stop-color="#026841" stop-opacity="0"/>
<stop offset="0.3243" stop-color="#046842" stop-opacity="0.324"/>
<stop offset="0.5509" stop-color="#0E6546" stop-opacity="0.551"/>
<stop offset="0.7476" stop-color="#1D614C" stop-opacity="0.748"/>
<stop offset="0.9263" stop-color="#335C54" stop-opacity="0.926"/>
<stop offset="1" stop-color="#3E5959"/>
</linearGradient>
<linearGradient id="paint19_linear_139_13991" x1="11.2192" y1="24.1072" x2="15.1763" y2="28.0643" gradientUnits="userSpaceOnUse">
<stop stop-color="#026841" stop-opacity="0"/>
<stop offset="0.3243" stop-color="#046842" stop-opacity="0.324"/>
<stop offset="0.5509" stop-color="#0E6546" stop-opacity="0.551"/>
<stop offset="0.7476" stop-color="#1D614C" stop-opacity="0.748"/>
<stop offset="0.9263" stop-color="#335C54" stop-opacity="0.926"/>
<stop offset="1" stop-color="#3E5959"/>
</linearGradient>
<linearGradient id="paint20_linear_139_13991" x1="9.87506" y1="22.7632" x2="12.6904" y2="25.5785" gradientUnits="userSpaceOnUse">
<stop stop-color="#026841" stop-opacity="0"/>
<stop offset="0.3243" stop-color="#046842" stop-opacity="0.324"/>
<stop offset="0.5509" stop-color="#0E6546" stop-opacity="0.551"/>
<stop offset="0.7476" stop-color="#1D614C" stop-opacity="0.748"/>
<stop offset="0.9263" stop-color="#335C54" stop-opacity="0.926"/>
<stop offset="1" stop-color="#3E5959"/>
</linearGradient>
<linearGradient id="paint21_linear_139_13991" x1="15.4397" y1="24.6364" x2="17.6452" y2="25.0373" gradientUnits="userSpaceOnUse">
<stop stop-color="#F89580"/>
<stop offset="1" stop-color="#C4573A"/>
</linearGradient>
<linearGradient id="paint22_linear_139_13991" x1="16.3241" y1="27.2247" x2="17.0369" y2="29.2519" gradientUnits="userSpaceOnUse">
<stop stop-color="#C4573A" stop-opacity="0"/>
<stop offset="0.235" stop-color="#BE5539" stop-opacity="0.235"/>
<stop offset="0.539" stop-color="#AE4E35" stop-opacity="0.539"/>
<stop offset="0.8794" stop-color="#934330" stop-opacity="0.879"/>
<stop offset="1" stop-color="#883F2E"/>
</linearGradient>
<clipPath id="clip0_139_13991">
<rect width="48" height="48" fill="white"/>
</clipPath>
</defs>
</svg>
