<svg width="48" height="48" viewBox="0 0 48 48" fill="none" xmlns="http://www.w3.org/2000/svg">
<g opacity="0.3">
<path d="M11.2901 6.7407C9.62982 7.82315 8.21325 9.24884 7.1405 10.9167C6.89928 11.2918 6.34248 11.2907 6.10267 10.9148C5.03603 9.2431 3.62474 7.81223 1.96845 6.72376C1.60083 6.48216 1.60187 5.93279 1.97034 5.69251C3.63057 4.61006 5.04704 3.18437 6.1198 1.51651C6.36102 1.14145 6.91773 1.14249 7.15763 1.51839C8.22427 3.19011 9.63565 4.62098 11.2919 5.70945C11.6596 5.95105 11.6585 6.50042 11.2901 6.7407Z" fill="url(#paint0_linear_139_13947)"/>
<path d="M30.9013 42.2113C29.2719 43.2736 27.8816 44.673 26.8287 46.3099C26.5919 46.678 26.0455 46.6769 25.81 46.308C24.7632 44.6672 23.378 43.2629 21.7524 42.1947C21.3916 41.9576 21.3926 41.4184 21.7543 41.1826C23.3838 40.1203 24.774 38.721 25.8269 37.0841C26.0636 36.716 26.61 36.7169 26.8455 37.086C27.8924 38.7267 29.2776 40.131 30.9032 41.1994C31.264 41.4364 31.263 41.9756 30.9013 42.2113Z" fill="url(#paint1_linear_139_13947)"/>
<path d="M35.7546 5.45842C34.4811 6.28872 33.3944 7.38237 32.5715 8.66181C32.3865 8.94952 31.9594 8.94868 31.7754 8.66039C30.9572 7.37804 29.8746 6.28044 28.6041 5.44552C28.3221 5.26021 28.3229 4.83875 28.6055 4.65446C29.879 3.82416 30.9656 2.73051 31.7885 1.45117C31.9735 1.16345 32.4006 1.16421 32.5846 1.45258C33.4029 2.73493 34.4855 3.83254 35.756 4.66745C36.0381 4.85277 36.0373 5.27414 35.7546 5.45842Z" fill="url(#paint2_linear_139_13947)"/>
<path d="M36.6499 44.3269C35.7418 44.9189 34.967 45.6987 34.3802 46.611C34.2483 46.8162 33.9438 46.8156 33.8126 46.61C33.2292 45.6956 32.4572 44.9129 31.5513 44.3176C31.3503 44.1855 31.3508 43.885 31.5524 43.7536C32.4604 43.1616 33.2353 42.3817 33.822 41.4695C33.954 41.2643 34.2585 41.2648 34.3897 41.4705C34.9731 42.3848 35.745 43.1675 36.651 43.7628C36.852 43.895 36.8514 44.1955 36.6499 44.3269Z" fill="url(#paint3_linear_139_13947)"/>
<path d="M9.92744 43.167C8.65393 43.9973 7.56725 45.091 6.74438 46.3704C6.55934 46.6581 6.13224 46.6573 5.94824 46.3689C5.13007 45.0865 4.04744 43.9889 2.77694 43.154C2.49497 42.9687 2.49572 42.5472 2.77835 42.363C4.05186 41.5327 5.13845 40.439 5.96132 39.1597C6.14635 38.8719 6.57346 38.8727 6.75746 39.1611C7.57572 40.4434 8.65835 41.541 9.92885 42.3759C10.2108 42.5613 10.2101 42.9826 9.92744 43.167Z" fill="url(#paint4_linear_139_13947)"/>
<path d="M4.13501 27.457C8.61887 23.9862 23.0748 13.9227 43.5506 10.773C44.3652 10.6477 45.0219 11.4336 44.755 12.2133L42.3167 19.3351C42.0095 20.2324 41.2407 20.8914 40.3081 21.0635C23.505 24.1645 11.2001 34.3169 7.41106 37.7722C6.82715 38.3047 5.88955 38.0651 5.63355 37.3176L3.25812 30.3795C2.89464 29.3178 3.24767 28.1437 4.13501 27.457Z" fill="url(#paint5_linear_139_13947)"/>
<path d="M12.4383 20.1192L9.29795 10.7598C6.40572 11.2482 3.53052 11.9268 0.686095 12.7963C-0.0172467 13.0112 -0.234 13.9013 0.291742 14.4156L2.95217 17.0181C3.16242 17.2239 3.26784 17.5139 3.23856 17.8066L2.80835 22.1158C2.73993 22.8014 3.38962 23.3387 4.04911 23.1393C6.56732 22.378 9.11019 21.7946 11.666 21.3883C12.261 21.2939 12.6299 20.6903 12.4383 20.1192Z" fill="url(#paint6_linear_139_13947)"/>
<path d="M12.4385 20.119L12.127 19.1909C12.127 19.1909 9.72449 19.3939 7.10059 20.411C7.10059 20.411 11.051 21.2782 11.6661 21.3883C12.2612 21.2937 12.6301 20.6901 12.4385 20.119Z" fill="url(#paint7_linear_139_13947)"/>
<path d="M43.762 10.0174C30.7989 6.05989 17.2015 6.05999 4.23842 10.0174C3.37499 10.2811 2.90101 11.2074 3.19344 12.0614C4.02355 14.486 4.85367 16.9105 5.68379 19.335C5.96125 20.1454 6.82958 20.5929 7.64991 20.346C18.4016 17.1109 29.5987 17.1111 40.3505 20.346C41.1708 20.5928 42.0392 20.1454 42.3166 19.3349C43.1468 16.9103 43.9769 14.4858 44.807 12.0612C45.0994 11.2074 44.6254 10.281 43.762 10.0174Z" fill="url(#paint8_linear_139_13947)"/>
<path d="M35.5617 38.254L38.702 28.8945C41.5943 29.383 44.4694 30.0616 47.3139 30.931C48.0172 31.146 48.234 32.0361 47.7082 32.5503L45.0478 35.1529C44.8375 35.3585 44.7321 35.6487 44.7614 35.9414L45.1916 40.2506C45.26 40.9361 44.6103 41.4735 43.9509 41.2741C41.4326 40.5128 38.8898 39.9294 36.3339 39.5231C35.739 39.4287 35.3701 38.8251 35.5617 38.254Z" fill="url(#paint9_linear_139_13947)"/>
<path d="M35.5617 38.254L38.702 28.8945C41.5943 29.383 44.4694 30.0616 47.3139 30.931C48.0172 31.146 48.234 32.0361 47.7082 32.5503L45.0478 35.1529C44.8375 35.3585 44.7321 35.6487 44.7614 35.9414L45.1916 40.2506C45.26 40.9361 44.6103 41.4735 43.9509 41.2741C41.4326 40.5128 38.8898 39.9294 36.3339 39.5231C35.739 39.4287 35.3701 38.8251 35.5617 38.254Z" fill="url(#paint10_linear_139_13947)"/>
<path d="M35.5617 38.2538L35.8731 37.3257C35.8731 37.3257 38.2757 37.5287 40.8996 38.5457C40.8996 38.5457 36.9492 39.4129 36.334 39.523C35.739 39.4284 35.3701 38.8249 35.5617 38.2538Z" fill="url(#paint11_linear_139_13947)"/>
<path d="M20.1404 34.6465H17.7693C17.3455 34.6465 16.971 34.9112 16.8181 35.3064C16.3696 36.4663 15.4528 37.3945 14.3004 37.8582C13.9129 38.014 13.6558 38.3856 13.6558 38.8033V41.1839C13.6558 41.8499 14.2873 42.3412 14.9299 42.1666C17.9524 41.3454 20.3319 38.9466 21.1252 35.9128C21.2927 35.2718 20.8029 34.6465 20.1404 34.6465Z" fill="url(#paint12_linear_139_13947)"/>
<path d="M43.762 28.1464C30.7989 24.1888 17.2015 24.1889 4.23842 28.1464C3.37499 28.41 2.90101 29.3363 3.19344 30.1904C4.02355 32.615 4.85367 35.0394 5.68379 37.464C5.96125 38.2744 6.82958 38.7219 7.64991 38.475C18.4016 35.24 29.5987 35.2402 40.3505 38.475C41.1708 38.7218 42.0392 38.2744 42.3166 37.4639C43.1468 35.0393 43.9769 32.6148 44.807 30.1903C45.0994 29.3363 44.6254 28.41 43.762 28.1464Z" fill="url(#paint13_linear_139_13947)"/>
<path d="M9.33141 34.8302C8.62176 34.0723 7.90505 33.3291 7.17432 32.5932L7.88444 35.19C7.95126 35.4344 7.69263 35.6434 7.40124 35.7334C7.10985 35.8233 6.78326 35.7951 6.71155 35.5521C6.23729 33.9455 5.76303 32.3388 5.28868 30.7321C5.2147 30.4817 5.49959 30.2658 5.81875 30.1672C6.2771 30.0257 6.4627 30.0126 6.92162 30.4808C7.5699 31.1353 8.20661 31.8061 8.82759 32.4888C8.61301 31.6169 8.39842 30.7451 8.18373 29.8733C8.12124 29.6195 8.41639 29.4258 8.73865 29.3433C9.06091 29.2609 9.40821 29.2902 9.46562 29.5453C9.83446 31.1844 10.2034 32.8235 10.5723 34.4626C10.628 34.71 10.3611 34.9058 10.0668 34.9811C9.79541 35.0508 9.54185 35.0608 9.33141 34.8302Z" fill="url(#paint14_linear_139_13947)"/>
<path d="M12.027 31.0645C12.5084 30.9652 12.7495 30.9181 13.2322 30.8289C13.4736 30.7843 13.6478 30.9873 13.6888 31.2378C13.7234 31.4491 13.6534 31.719 13.3918 31.7673C12.9161 31.8551 12.6786 31.9016 12.2044 31.9993C12.3049 32.529 12.3552 32.7939 12.4558 33.3237C13.2851 33.1527 13.7009 33.075 14.5343 32.9351C14.7675 32.8959 14.9371 33.126 14.9802 33.4164C15.0175 33.6676 14.9512 33.959 14.6991 34.0013C13.7928 34.1512 12.8863 34.3263 11.9886 34.5253C11.7306 34.5818 11.4468 34.5166 11.3946 34.2683C11.0489 32.6265 10.7031 30.9846 10.3574 29.3427C10.3052 29.0945 10.5613 28.9059 10.8438 28.8441C11.8324 28.6365 12.8186 28.4459 13.8129 28.2701C14.0891 28.2237 14.2471 28.48 14.2845 28.7312C14.3276 29.0216 14.2248 29.295 13.9778 29.3364C13.0955 29.4845 12.6552 29.5669 11.7771 29.7479C11.877 30.2746 11.927 30.5378 12.027 31.0645Z" fill="url(#paint15_linear_139_13947)"/>
<path d="M20.6437 32.9606C20.5659 33.2436 20.2276 33.3994 19.8737 33.4255C19.5276 33.451 19.1481 33.3482 19.0639 33.0767C18.8423 32.3406 18.7291 31.9731 18.4978 31.2391C18.3975 32.0046 18.3498 32.3874 18.2596 33.153C18.2237 33.436 17.8682 33.6085 17.5231 33.6486C17.1702 33.6896 16.8022 33.6009 16.6842 33.3363C15.9684 31.7976 15.2251 30.2771 14.4519 28.7688C14.4402 28.7465 14.4262 28.7086 14.4204 28.6693C14.3814 28.4025 14.8183 28.1087 15.1958 28.0541C15.3971 28.025 15.5731 28.0648 15.6442 28.2232C16.2308 29.5113 16.799 30.8057 17.3506 32.1105C17.4616 31.1961 17.5826 30.2825 17.7131 29.3709C17.7417 29.1524 18.0201 29.0117 18.3009 28.985C18.5817 28.9584 18.8798 29.0444 18.9457 29.2539C19.2321 30.1258 19.5094 31.0018 19.7768 31.8802C20.0926 30.4931 20.4265 29.1129 20.7795 27.7356C20.8219 27.5665 20.9878 27.4942 21.1904 27.4849C21.5703 27.4676 22.0498 27.6742 22.0576 27.944C22.0587 27.9837 22.0516 28.0237 22.0438 28.0478C21.5463 29.6771 21.0801 31.3125 20.6437 32.9606Z" fill="url(#paint16_linear_139_13947)"/>
<path d="M25.5089 30.8715C25.5101 30.824 25.4949 30.7838 25.4795 30.7595C24.9437 29.8319 24.3871 28.9175 23.8105 28.0169C23.7936 27.9851 23.7936 27.9534 23.7935 27.9295C23.7926 27.6357 24.3242 27.4207 24.6875 27.4249C24.8987 27.4273 24.9738 27.5082 25.064 27.6606C25.5221 28.4852 25.744 28.8997 26.173 29.7324C26.6543 28.9333 26.902 28.536 27.4117 27.7469C27.5036 27.601 27.5923 27.5263 27.8032 27.5395C28.1661 27.5621 28.6821 27.8155 28.6614 28.1085C28.6597 28.1323 28.6575 28.164 28.6385 28.1944C28.0104 29.0573 27.3982 29.9255 26.7955 30.8079C26.7785 30.831 26.7606 30.8699 26.7585 30.9175C26.7236 31.714 26.7062 32.1122 26.6713 32.9087C26.6602 33.1627 26.354 33.2752 26.0534 33.2641C25.7528 33.253 25.4552 33.1182 25.4613 32.8641C25.4801 32.0671 25.4897 31.6686 25.5089 30.8715Z" fill="url(#paint17_linear_139_13947)"/>
<path d="M30.2712 30.1774C30.7577 30.2294 31.0008 30.2578 31.4865 30.3198C31.7293 30.3508 31.8386 30.5981 31.8074 30.8501C31.7812 31.0627 31.6384 31.2993 31.3752 31.2657C30.8968 31.2046 30.6572 31.1766 30.1779 31.1254C30.1251 31.6626 30.0986 31.9312 30.0458 32.4684C30.884 32.5578 31.3025 32.6104 32.1379 32.7308C32.3717 32.7645 32.4691 33.0363 32.4287 33.3272C32.3938 33.5787 32.2485 33.8371 31.9958 33.8007C31.0893 33.6675 30.1756 33.5585 29.2638 33.4747C29.0024 33.45 28.7508 33.3012 28.7706 33.0478C28.9018 31.3724 29.0331 29.697 29.1643 28.0216C29.1842 27.7684 29.4806 27.6662 29.7669 27.6932C30.7679 27.7964 31.7619 27.915 32.7594 28.0502C33.0362 28.0901 33.1153 28.3833 33.0804 28.6349C33.04 28.9256 32.8648 29.1558 32.6173 29.12C31.7327 28.9924 31.2895 28.9368 30.4021 28.8421C30.3499 29.3763 30.3237 29.6433 30.2712 30.1774Z" fill="url(#paint18_linear_139_13947)"/>
<path d="M32.5649 33.3718C32.5682 33.3483 32.5803 33.3181 32.5926 33.2877C33.3082 31.7611 34.0494 30.2515 34.8185 28.7534C34.9553 28.496 35.3542 28.4315 35.738 28.5061C36.1219 28.5808 36.4719 28.7911 36.5105 29.0826C36.7126 30.7698 36.8848 32.4574 37.0275 34.1511C37.0284 34.1839 37.0294 34.2167 37.0243 34.2399C36.9619 34.5264 36.4848 34.6343 36.1588 34.5619C35.9692 34.5198 35.8297 34.425 35.8164 34.2518C35.7896 33.8406 35.7753 33.635 35.7451 33.2237C35.091 33.0864 34.7632 33.0226 34.1065 32.9048C33.936 33.2771 33.8516 33.4635 33.6843 33.8369C33.6119 33.9934 33.4494 34.0295 33.2584 33.9975C32.9298 33.9423 32.5239 33.6625 32.5649 33.3718ZM35.6657 32.2354C35.5934 31.353 35.5533 30.9116 35.4652 30.0284C35.0773 30.8189 34.8872 31.2156 34.5144 32.0114C34.9755 32.0964 35.2058 32.1412 35.6657 32.2354Z" fill="url(#paint19_linear_139_13947)"/>
<path d="M38.5478 29.5534C38.5913 29.3601 38.787 29.2283 39.0268 29.2887C39.7115 29.4613 40.053 29.5525 40.734 29.745C41.7523 30.0304 42.6291 30.7812 42.2721 31.9767C42.0196 32.8226 41.48 33.1842 40.8776 33.2259C41.0705 34.0148 41.1614 34.4094 41.332 35.1983C41.3488 35.2535 41.3405 35.3091 41.3293 35.347C41.242 35.6431 40.7605 35.838 40.4169 35.733C40.2674 35.6873 40.1424 35.5837 40.1039 35.3987C39.9155 34.4635 39.8137 33.9958 39.5951 33.0606C39.3893 33.0035 39.2862 32.9753 39.08 32.9201C38.897 33.6615 38.8057 34.0323 38.6227 34.7737C38.562 35.0199 38.238 35.0643 37.9438 34.9888C37.6496 34.9133 37.3828 34.7174 37.4386 34.47C37.8083 32.8311 38.1781 31.1923 38.5478 29.5534ZM39.6607 30.5666C39.5195 31.1388 39.4489 31.4249 39.3078 31.9972C39.6217 32.0813 39.7786 32.1245 40.0918 32.213C40.5347 32.3381 40.8506 32.243 40.9964 31.7082C41.1422 31.1735 40.9159 30.9155 40.4628 30.7874C40.1423 30.6968 39.9819 30.6526 39.6607 30.5666Z" fill="url(#paint20_linear_139_13947)"/>
<path d="M14.9773 13.5192C14.3153 13.5977 13.9846 13.6408 13.324 13.7338C13.4458 14.5984 13.5067 15.0307 13.6285 15.8953C13.6645 16.1507 13.3697 16.3224 13.0571 16.3691C12.7446 16.4159 12.4123 16.3381 12.372 16.0834C12.1049 14.3967 11.8377 12.7101 11.5706 11.0234C11.529 10.7609 11.8484 10.5961 12.1858 10.5456C12.5232 10.4952 12.8766 10.5593 12.9137 10.8224C13.0238 11.6041 13.0789 11.9949 13.1891 12.7766C13.8581 12.6823 14.193 12.6388 14.8634 12.5592C14.7703 11.7753 14.7237 11.3833 14.6306 10.5994C14.5993 10.3354 14.9244 10.1833 15.2631 10.146C15.6018 10.1087 15.952 10.1865 15.9789 10.4509C16.1514 12.1499 16.3237 13.8489 16.4961 15.5478C16.5222 15.8042 16.2212 15.9643 15.9075 15.9989C15.5938 16.0334 15.2651 15.9427 15.2347 15.6867C15.1318 14.8198 15.0803 14.3862 14.9773 13.5192Z" fill="url(#paint21_linear_139_13947)"/>
<path d="M16.9532 15.3733C16.9509 15.3493 16.9559 15.3165 16.9611 15.2836C17.3182 13.6011 17.7002 11.9265 18.1079 10.2556C18.1824 9.96742 18.5647 9.80215 18.9656 9.77683C19.3666 9.75151 19.7665 9.86737 19.8766 10.144C20.4938 11.7501 21.0859 13.3634 21.6539 14.9876C21.663 15.0196 21.6723 15.0515 21.673 15.0757C21.6823 15.3736 21.2287 15.606 20.8815 15.6206C20.6796 15.6292 20.5153 15.5725 20.4586 15.4058C20.3292 15.0087 20.2638 14.8104 20.1315 14.4139C19.4387 14.4496 19.0925 14.4714 18.4005 14.5231C18.319 14.9331 18.279 15.1381 18.2005 15.5482C18.1652 15.7207 18.0092 15.7976 17.8077 15.8146C17.4611 15.8436 16.9814 15.67 16.9532 15.3733ZM19.8072 13.463C19.517 12.6142 19.3684 12.1905 19.0645 11.3445C18.8694 12.2219 18.7753 12.6611 18.5941 13.5396C19.0792 13.5051 19.3219 13.4898 19.8072 13.463Z" fill="url(#paint22_linear_139_13947)"/>
<path d="M22.0206 10.0697C22.0156 9.8684 22.2118 9.68591 22.5171 9.68026C23.2393 9.6668 23.6005 9.66417 24.3228 9.66708C25.4721 9.67584 26.375 10.3328 26.326 11.5538C26.3255 11.5699 26.3253 11.578 26.3248 11.594C26.2943 12.8097 25.3696 13.4292 24.2245 13.4284C23.8952 13.4275 23.7307 13.4278 23.4015 13.4304C23.407 14.1264 23.4097 14.4743 23.4152 15.1702C23.4173 15.428 23.1031 15.5594 22.788 15.5646C22.4729 15.5698 22.1547 15.4488 22.1482 15.191C22.1057 13.484 22.0631 11.7768 22.0206 10.0697ZM23.3805 10.7644C23.3859 11.4442 23.3885 11.7842 23.3939 12.464C23.7272 12.4613 23.8939 12.461 24.2273 12.4619C24.6987 12.4633 24.9881 12.2101 24.9952 11.6624C24.9957 11.627 24.9958 11.6092 24.9963 11.5738C25.0033 11.026 24.7142 10.7636 24.2323 10.7622C23.8916 10.7613 23.7212 10.7617 23.3805 10.7644Z" fill="url(#paint23_linear_139_13947)"/>
<path d="M26.96 10.1003C26.9676 9.89905 27.1747 9.72907 27.4798 9.74244C28.2015 9.77397 28.5624 9.79383 29.2835 9.84164C30.4302 9.92183 31.2918 10.6331 31.1671 11.8494C31.1656 11.8654 31.1648 11.8734 31.1634 11.8894C31.0573 13.1014 30.0946 13.6616 28.9516 13.5897C28.6229 13.5682 28.4586 13.5584 28.1297 13.5406C28.092 14.2355 28.0731 14.583 28.0353 15.2779C28.0213 15.5353 27.6995 15.6469 27.3847 15.6324C27.0698 15.618 26.7597 15.4775 26.7693 15.2198C26.8328 13.5133 26.8964 11.8068 26.96 10.1003ZM28.2745 10.8782C28.2376 11.557 28.2191 11.8964 28.1822 12.5753C28.5152 12.5934 28.6817 12.6033 29.0145 12.6251C29.4852 12.6558 29.7901 12.4211 29.8311 11.8749C29.8337 11.8396 29.835 11.8219 29.8378 11.7865C29.8788 11.2402 29.6062 10.9604 29.1252 10.929C28.7849 10.9069 28.6148 10.8967 28.2745 10.8782Z" fill="url(#paint24_linear_139_13947)"/>
<path d="M32.8953 13.6663C32.9009 13.6184 32.889 13.5763 32.8752 13.5504C32.3989 12.5657 31.9121 11.5906 31.4113 10.6182C31.397 10.5845 31.4001 10.5524 31.4023 10.5284C31.4302 10.2316 31.9981 10.0675 32.3716 10.1068C32.5889 10.1297 32.6584 10.2186 32.7369 10.3812C33.1309 11.2578 33.3215 11.6973 33.6896 12.5783C34.2613 11.8157 34.5533 11.4369 35.1493 10.6849C35.2571 10.5456 35.3553 10.478 35.5716 10.5098C35.9437 10.5643 36.4544 10.8643 36.4078 11.1587C36.404 11.1826 36.3989 11.2143 36.3767 11.2435C35.6524 12.0617 34.941 12.8858 34.2377 13.7221C34.2177 13.7438 34.1958 13.7816 34.1894 13.8294C34.0815 14.6309 34.0275 15.0316 33.9196 15.8332C33.8851 16.0887 33.555 16.1742 33.2417 16.1348C32.9284 16.0954 32.6299 15.9306 32.6599 15.6745C32.754 14.8711 32.8011 14.4695 32.8953 13.6663Z" fill="url(#paint25_linear_139_13947)"/>
<path d="M38.5752 2.32312V4.69423C38.5752 5.11795 38.8399 5.49253 39.2351 5.64538C40.3951 6.09385 41.3232 7.01075 41.7869 8.16312C41.9427 8.55061 42.3143 8.80773 42.732 8.80773H45.1126C45.7786 8.80773 46.2699 8.17621 46.0953 7.53357C45.2741 4.51108 42.8753 2.13159 39.8415 1.33828C39.2005 1.17075 38.5752 1.66063 38.5752 2.32312Z" fill="url(#paint26_linear_139_13947)"/>
</g>
<defs>
<linearGradient id="paint0_linear_139_13947" x1="5.02182" y1="4.06073" x2="10.2477" y2="11.0575" gradientUnits="userSpaceOnUse">
<stop stop-color="#FF819C"/>
<stop offset="0.2594" stop-color="#FF7E9A"/>
<stop offset="0.4757" stop-color="#FE7396"/>
<stop offset="0.6765" stop-color="#FC628E"/>
<stop offset="0.8668" stop-color="#FA4A83"/>
<stop offset="1" stop-color="#F83479"/>
</linearGradient>
<linearGradient id="paint1_linear_139_13947" x1="24.7423" y1="39.5851" x2="29.8711" y2="46.4521" gradientUnits="userSpaceOnUse">
<stop stop-color="#00ADFB"/>
<stop offset="1" stop-color="#3F3CED"/>
</linearGradient>
<linearGradient id="paint2_linear_139_13947" x1="30.947" y1="3.4077" x2="34.9555" y2="8.7748" gradientUnits="userSpaceOnUse">
<stop stop-color="#92F37F"/>
<stop offset="1" stop-color="#4AB272"/>
</linearGradient>
<linearGradient id="paint3_linear_139_13947" x1="33.2146" y1="42.8664" x2="36.0729" y2="46.6934" gradientUnits="userSpaceOnUse">
<stop stop-color="#FFD945"/>
<stop offset="0.3043" stop-color="#FFCD3E"/>
<stop offset="0.8558" stop-color="#FFAD2B"/>
<stop offset="1" stop-color="#FFA325"/>
</linearGradient>
<linearGradient id="paint4_linear_139_13947" x1="5.11216" y1="41.1111" x2="9.12083" y2="46.4782" gradientUnits="userSpaceOnUse">
<stop stop-color="#9B62CD"/>
<stop offset="0.3003" stop-color="#985DCB"/>
<stop offset="0.6716" stop-color="#8F4EC7"/>
<stop offset="1" stop-color="#833AC1"/>
</linearGradient>
<linearGradient id="paint5_linear_139_13947" x1="23.9661" y1="24.8657" x2="23.9661" y2="17.9144" gradientUnits="userSpaceOnUse">
<stop stop-color="#FFD945"/>
<stop offset="0.3043" stop-color="#FFCD3E"/>
<stop offset="0.8558" stop-color="#FFAD2B"/>
<stop offset="1" stop-color="#FFA325"/>
</linearGradient>
<linearGradient id="paint6_linear_139_13947" x1="2.81588" y1="18.0651" x2="5.19094" y2="17.3776" gradientUnits="userSpaceOnUse">
<stop stop-color="#FF7044"/>
<stop offset="1" stop-color="#F82814"/>
</linearGradient>
<linearGradient id="paint7_linear_139_13947" x1="9.38106" y1="19.4894" x2="11.6887" y2="22.5778" gradientUnits="userSpaceOnUse">
<stop stop-color="#FFD945"/>
<stop offset="0.3043" stop-color="#FFCD3E"/>
<stop offset="0.8558" stop-color="#FFAD2B"/>
<stop offset="1" stop-color="#FFA325"/>
</linearGradient>
<linearGradient id="paint8_linear_139_13947" x1="22.7966" y1="6.85048" x2="26.5467" y2="21.4755" gradientUnits="userSpaceOnUse">
<stop stop-color="#FF7044"/>
<stop offset="1" stop-color="#F82814"/>
</linearGradient>
<linearGradient id="paint9_linear_139_13947" x1="46.0642" y1="36.8741" x2="42.5017" y2="35.4991" gradientUnits="userSpaceOnUse">
<stop stop-color="#FF7044"/>
<stop offset="1" stop-color="#F82814"/>
</linearGradient>
<linearGradient id="paint10_linear_139_13947" x1="46.0642" y1="36.8741" x2="42.5017" y2="35.4991" gradientUnits="userSpaceOnUse">
<stop stop-color="#F82814" stop-opacity="0"/>
<stop offset="1" stop-color="#C0272D"/>
</linearGradient>
<linearGradient id="paint11_linear_139_13947" x1="38.6192" y1="37.624" x2="36.3115" y2="40.7125" gradientUnits="userSpaceOnUse">
<stop stop-color="#FFD945"/>
<stop offset="0.3043" stop-color="#FFCD3E"/>
<stop offset="0.8558" stop-color="#FFAD2B"/>
<stop offset="1" stop-color="#FFA325"/>
</linearGradient>
<linearGradient id="paint12_linear_139_13947" x1="16.256" y1="37.165" x2="20.1178" y2="41.3899" gradientUnits="userSpaceOnUse">
<stop stop-color="#92F37F"/>
<stop offset="1" stop-color="#4AB272"/>
</linearGradient>
<linearGradient id="paint13_linear_139_13947" x1="22.8876" y1="22.809" x2="26.2001" y2="43.2465" gradientUnits="userSpaceOnUse">
<stop stop-color="#FF7044"/>
<stop offset="1" stop-color="#F82814"/>
</linearGradient>
<linearGradient id="paint14_linear_139_13947" x1="7.92839" y1="30.1441" x2="7.92839" y2="40.7747" gradientUnits="userSpaceOnUse">
<stop stop-color="#F8F6FB"/>
<stop offset="1" stop-color="#EFDCFB"/>
</linearGradient>
<linearGradient id="paint15_linear_139_13947" x1="12.6703" y1="29.0806" x2="12.6703" y2="39.3855" gradientUnits="userSpaceOnUse">
<stop stop-color="#F8F6FB"/>
<stop offset="1" stop-color="#EFDCFB"/>
</linearGradient>
<linearGradient id="paint16_linear_139_13947" x1="18.2377" y1="28.2797" x2="18.2377" y2="38.3292" gradientUnits="userSpaceOnUse">
<stop stop-color="#F8F6FB"/>
<stop offset="1" stop-color="#EFDCFB"/>
</linearGradient>
<linearGradient id="paint17_linear_139_13947" x1="26.2276" y1="28.1836" x2="26.2276" y2="37.7674" gradientUnits="userSpaceOnUse">
<stop stop-color="#F8F6FB"/>
<stop offset="1" stop-color="#EFDCFB"/>
</linearGradient>
<linearGradient id="paint18_linear_139_13947" x1="30.929" y1="28.4836" x2="30.929" y2="38.5186" gradientUnits="userSpaceOnUse">
<stop stop-color="#F8F6FB"/>
<stop offset="1" stop-color="#EFDCFB"/>
</linearGradient>
<linearGradient id="paint19_linear_139_13947" x1="34.7951" y1="29.3137" x2="34.7951" y2="39.2534" gradientUnits="userSpaceOnUse">
<stop stop-color="#F8F6FB"/>
<stop offset="1" stop-color="#EFDCFB"/>
</linearGradient>
<linearGradient id="paint20_linear_139_13947" x1="39.8922" y1="30.11" x2="39.8922" y2="40.67" gradientUnits="userSpaceOnUse">
<stop stop-color="#F8F6FB"/>
<stop offset="1" stop-color="#EFDCFB"/>
</linearGradient>
<linearGradient id="paint21_linear_139_13947" x1="14.0323" y1="11.1523" x2="14.0323" y2="15.6777" gradientUnits="userSpaceOnUse">
<stop stop-color="#F8F6FB"/>
<stop offset="1" stop-color="#EFDCFB"/>
</linearGradient>
<linearGradient id="paint22_linear_139_13947" x1="19.3128" y1="10.7971" x2="19.3128" y2="15.1414" gradientUnits="userSpaceOnUse">
<stop stop-color="#F8F6FB"/>
<stop offset="1" stop-color="#EFDCFB"/>
</linearGradient>
<linearGradient id="paint23_linear_139_13947" x1="24.1742" y1="10.6248" x2="24.1742" y2="14.8996" gradientUnits="userSpaceOnUse">
<stop stop-color="#F8F6FB"/>
<stop offset="1" stop-color="#EFDCFB"/>
</linearGradient>
<linearGradient id="paint24_linear_139_13947" x1="28.9741" y1="10.6993" x2="28.9741" y2="14.9691" gradientUnits="userSpaceOnUse">
<stop stop-color="#F8F6FB"/>
<stop offset="1" stop-color="#EFDCFB"/>
</linearGradient>
<linearGradient id="paint25_linear_139_13947" x1="33.9055" y1="11.0831" x2="33.9055" y2="15.4622" gradientUnits="userSpaceOnUse">
<stop stop-color="#F8F6FB"/>
<stop offset="1" stop-color="#EFDCFB"/>
</linearGradient>
<linearGradient id="paint26_linear_139_13947" x1="41.0937" y1="6.20755" x2="45.3185" y2="2.34571" gradientUnits="userSpaceOnUse">
<stop stop-color="#9B62CD"/>
<stop offset="0.3003" stop-color="#985DCB"/>
<stop offset="0.6716" stop-color="#8F4EC7"/>
<stop offset="1" stop-color="#833AC1"/>
</linearGradient>
</defs>
</svg>
