<svg width="48" height="48" viewBox="0 0 48 48" fill="none" xmlns="http://www.w3.org/2000/svg">
<g opacity="0.3">
<path d="M27.9502 42.9307C39.0234 42.9307 48 33.9541 48 22.8809C48 11.8077 39.0234 2.83105 27.9502 2.83105C16.877 2.83105 7.90039 11.8077 7.90039 22.8809C7.90039 33.9541 16.877 42.9307 27.9502 42.9307Z" fill="url(#paint0_radial_139_13835)"/>
<path d="M27.9499 6.96924C27.8534 7.27805 27.8034 7.58686 27.7677 7.89558C27.7337 8.20439 27.7179 8.5132 27.7183 8.82192C27.7185 9.13073 27.7344 9.43955 27.7683 9.74826C27.8042 10.0571 27.8539 10.3659 27.9499 10.6746C28.0459 10.3658 28.0957 10.057 28.1315 9.74826C28.1655 9.43945 28.1813 9.13064 28.1816 8.82192C28.182 8.51311 28.166 8.2043 28.1322 7.89558C28.0965 7.58667 28.0465 7.27786 27.9499 6.96924Z" fill="url(#paint1_radial_139_13835)"/>
<path d="M27.9499 35.0874C27.8534 35.3962 27.8034 35.705 27.7677 36.0137C27.7337 36.3226 27.7179 36.6314 27.7183 36.9401C27.7185 37.2489 27.7344 37.5576 27.7683 37.8664C27.8042 38.1752 27.8539 38.4841 27.9499 38.7928C28.0459 38.484 28.0957 38.1752 28.1315 37.8664C28.1655 37.5576 28.1813 37.2489 28.1816 36.9401C28.182 36.6313 28.166 36.3225 28.1322 36.0137C28.0965 35.705 28.0465 35.3962 27.9499 35.0874Z" fill="url(#paint2_radial_139_13835)"/>
<path d="M42.0089 22.6494C41.7001 22.6497 41.3913 22.6655 41.0826 22.6995C40.7738 22.7353 40.4651 22.7851 40.1562 22.8811C40.4651 22.9771 40.7738 23.0269 41.0826 23.0627C41.3914 23.0966 41.7002 23.1125 42.0089 23.1127C42.3177 23.1131 42.6265 23.0972 42.9353 23.0633C43.2441 23.0277 43.5528 22.9776 43.8616 22.8811C43.5528 22.7845 43.2441 22.7345 42.9353 22.6988C42.6265 22.6649 42.3177 22.649 42.0089 22.6494Z" fill="url(#paint3_radial_139_13835)"/>
<path d="M13.8903 23.1127C14.1991 23.1131 14.5079 23.0972 14.8166 23.0633C15.1254 23.0277 15.4342 22.9776 15.743 22.8811C15.4342 22.7845 15.1254 22.7345 14.8166 22.6988C14.5078 22.6649 14.199 22.649 13.8903 22.6494C13.5815 22.6497 13.2728 22.6655 12.9639 22.6995C12.6551 22.7353 12.3463 22.7851 12.0376 22.8811C12.3464 22.9771 12.6551 23.0269 12.9639 23.0627C13.2728 23.0967 13.5815 23.1125 13.8903 23.1127Z" fill="url(#paint4_radial_139_13835)"/>
<path d="M37.3644 13.7228C37.6068 13.5285 37.8364 13.3213 38.0549 13.1032C38.2735 12.8852 38.4806 12.6556 38.675 12.4132C38.8681 12.1697 39.0511 11.916 39.2011 11.6294C38.9145 11.7794 38.6607 11.9625 38.4172 12.1556C38.1749 12.35 37.9453 12.557 37.7272 12.7757C37.5091 12.9942 37.3019 13.2238 37.1076 13.4661C36.9146 13.7098 36.7314 13.9634 36.5811 14.2496C36.8673 14.099 37.1208 13.9159 37.3644 13.7228Z" fill="url(#paint5_radial_139_13835)"/>
<path d="M18.5344 32.0387C18.2921 32.2331 18.0625 32.4402 17.8444 32.6588C17.6263 32.8773 17.4191 33.1068 17.2248 33.3493C17.0318 33.5929 16.8486 33.8465 16.6982 34.1327C16.9845 33.9823 17.238 33.7991 17.4817 33.6061C17.7241 33.4119 17.9536 33.2047 18.1722 32.9865C18.3908 32.7685 18.5979 32.5389 18.7922 32.2965C18.9854 32.053 19.1684 31.7993 19.3185 31.5127C19.0317 31.6627 18.778 31.8456 18.5344 32.0387Z" fill="url(#paint6_radial_139_13835)"/>
<path d="M38.055 32.6584C37.8365 32.4402 37.6069 32.233 37.3645 32.0388C37.1209 31.8458 36.8673 31.6626 36.5811 31.5122C36.7315 31.7984 36.9147 32.0519 37.1076 32.2957C37.302 32.538 37.5091 32.7676 37.7272 32.9861C37.9453 33.2048 38.1749 33.4119 38.4172 33.6062C38.6608 33.7993 38.9145 33.9823 39.2011 34.1324C39.0511 33.8457 38.868 33.592 38.675 33.3486C38.4807 33.106 38.2735 32.8765 38.055 32.6584Z" fill="url(#paint7_radial_139_13835)"/>
<path d="M17.8445 13.1032C18.0626 13.3219 18.2922 13.529 18.5345 13.7233C18.7781 13.9164 19.0318 14.0994 19.3185 14.2495C19.1685 13.9629 18.9854 13.7091 18.7922 13.4656C18.5979 13.2232 18.3908 12.9936 18.1722 12.7756C17.9536 12.5574 17.7241 12.3502 17.4817 12.156C17.2381 11.963 16.9845 11.7798 16.6982 11.6294C16.8487 11.9156 17.0319 12.1691 17.2248 12.4129C17.4192 12.6553 17.6264 12.8847 17.8445 13.1032Z" fill="url(#paint8_radial_139_13835)"/>
<path d="M33.3927 9.91586C33.5079 9.62936 33.608 9.33686 33.6912 9.03752C33.7729 8.73771 33.8413 8.43246 33.8664 8.10986C33.662 8.36055 33.5008 8.62868 33.3529 8.90205C33.2065 9.17599 33.077 9.45677 32.9626 9.74355C32.848 10.0303 32.7479 10.3228 32.6646 10.6221C32.5831 10.922 32.5145 11.2271 32.4888 11.5495C32.6927 11.2987 32.8536 11.0305 33.0018 10.7572C33.1481 10.4831 33.2776 10.2024 33.3927 9.91586Z" fill="url(#paint9_radial_139_13835)"/>
<path d="M22.507 35.8461C22.3925 36.1328 22.2923 36.4254 22.2091 36.7246C22.1275 37.0246 22.0589 37.3297 22.0332 37.6521C22.2372 37.4012 22.3982 37.133 22.5462 36.8597C22.6925 36.5858 22.8221 36.305 22.9371 36.0184C23.0523 35.7319 23.1524 35.4394 23.2356 35.1401C23.3173 34.8402 23.3857 34.535 23.4109 34.2124C23.2064 34.4631 23.0452 34.7312 22.8973 35.0046C22.751 35.2785 22.6215 35.5593 22.507 35.8461Z" fill="url(#paint10_radial_139_13835)"/>
<path d="M41.0868 27.8937C40.8 27.7792 40.5075 27.679 40.2082 27.5958C39.9082 27.5142 39.6032 27.4456 39.2808 27.4199C39.5316 27.6238 39.7999 27.7848 40.0731 27.9329C40.3471 28.0793 40.6279 28.2088 40.9144 28.3239C41.2009 28.439 41.4934 28.5391 41.7928 28.6224C42.0928 28.704 42.3978 28.7725 42.7204 28.7976C42.4698 28.5931 42.2016 28.432 41.9283 28.284C41.6543 28.1378 41.3735 28.0081 41.0868 27.8937Z" fill="url(#paint11_radial_139_13835)"/>
<path d="M14.8124 17.8682C15.0989 17.9833 15.3914 18.0834 15.6907 18.1667C15.9906 18.2484 16.2958 18.3168 16.6184 18.342C16.3677 18.1374 16.0996 17.9764 15.8262 17.8284C15.5523 17.6821 15.2715 17.5526 14.9847 17.4382C14.6979 17.3236 14.4054 17.2235 14.1062 17.1402C13.8063 17.0587 13.5011 16.99 13.1787 16.9644C13.4296 17.1684 13.6978 17.3292 13.9711 17.4774C14.2451 17.6237 14.5259 17.7532 14.8124 17.8682Z" fill="url(#paint12_radial_139_13835)"/>
<path d="M39.9516 17.5467C39.6818 17.7011 39.4176 17.8684 39.1714 18.0781C39.4929 18.0449 39.7964 17.9691 40.0944 17.8806C40.3915 17.7903 40.6817 17.6834 40.9657 17.5621C41.2497 17.441 41.5272 17.3049 41.7979 17.1521C42.0677 16.9979 42.3319 16.8305 42.5778 16.6201C42.2559 16.6528 41.9524 16.7285 41.6545 16.8171C41.3574 16.9074 41.0673 17.0142 40.7835 17.1361C40.4997 17.2579 40.222 17.394 39.9516 17.5467Z" fill="url(#paint13_radial_139_13835)"/>
<path d="M15.9477 28.2161C16.2175 28.0618 16.4817 27.8945 16.7277 27.6841C16.4058 27.7168 16.1023 27.7925 15.8044 27.881C15.5073 27.9713 15.2171 28.0782 14.9334 28.2001C14.6496 28.3218 14.372 28.4579 14.1015 28.6106C13.8318 28.765 13.5675 28.9323 13.3213 29.142C13.6429 29.1088 13.9464 29.033 14.2444 28.9445C14.5415 28.8542 14.8316 28.7473 15.1157 28.626C15.3995 28.5049 15.6772 28.3687 15.9477 28.2161Z" fill="url(#paint14_radial_139_13835)"/>
<path d="M33.6948 35.7151C33.5731 35.4314 33.437 35.1538 33.2843 34.8832C33.1299 34.6135 32.9626 34.3492 32.7529 34.103C32.7861 34.4246 32.862 34.7282 32.9505 35.026C33.0407 35.3232 33.1476 35.6133 33.2689 35.8973C33.3901 36.1814 33.5262 36.4589 33.6789 36.7295C33.8331 36.9993 34.0006 37.2635 34.2108 37.5094C34.1781 37.1876 34.1025 36.884 34.0139 36.5862C33.9237 36.289 33.8168 35.9989 33.6948 35.7151Z" fill="url(#paint15_radial_139_13835)"/>
<path d="M22.6144 10.8793C22.7688 11.1491 22.9361 11.4133 23.1465 11.6593C23.1138 11.3375 23.0381 11.0339 22.9495 10.7361C22.8592 10.4389 22.7523 10.1487 22.6305 9.86505C22.5087 9.58127 22.3727 9.30368 22.2199 9.03312C22.0655 8.7634 21.8983 8.49912 21.6885 8.25293C21.7217 8.57449 21.7975 8.87805 21.886 9.1759C21.9763 9.47308 22.0832 9.76324 22.2045 10.0472C22.3257 10.3312 22.4617 10.6088 22.6144 10.8793Z" fill="url(#paint16_radial_139_13835)"/>
<path d="M30.9425 9.14224C31.0036 8.83952 31.0487 8.53371 31.0763 8.22433C31.1021 7.91458 31.1139 7.60202 31.0799 7.28027C30.9245 7.56405 30.8147 7.85693 30.719 8.15262C30.625 8.44868 30.5487 8.7483 30.4883 9.05111C30.4278 9.35393 30.3826 9.65974 30.3552 9.96921C30.3296 10.279 30.3176 10.5915 30.3511 10.9131C30.5058 10.6292 30.6154 10.3362 30.7113 10.0406C30.8052 9.74458 30.8814 9.44505 30.9425 9.14224Z" fill="url(#paint17_radial_139_13835)"/>
<path d="M25.1873 35.7215C25.0933 36.0175 25.0169 36.3172 24.9566 36.62C24.8961 36.9228 24.8509 37.2286 24.8234 37.538C24.7978 37.8478 24.7858 38.1603 24.8193 38.4819C24.9741 38.1981 25.0837 37.9051 25.1796 37.6094C25.2736 37.3134 25.3499 37.0137 25.411 36.7111C25.4721 36.4084 25.5172 36.1026 25.5448 35.7932C25.5705 35.4834 25.5823 35.1709 25.5483 34.8491C25.3928 35.1328 25.2831 35.4257 25.1873 35.7215Z" fill="url(#paint18_radial_139_13835)"/>
<path d="M41.78 25.4196C41.4772 25.359 41.1714 25.3139 40.8619 25.2863C40.5522 25.2607 40.2396 25.2487 39.918 25.2822C40.2018 25.437 40.4948 25.5466 40.7904 25.6425C41.0865 25.7366 41.3861 25.8128 41.6887 25.8739C41.9914 25.935 42.2972 25.9801 42.6066 26.0076C42.9164 26.0334 43.2289 26.0452 43.5507 26.0112C43.2669 25.8559 42.974 25.7461 42.6783 25.6504C42.3825 25.5562 42.0828 25.48 41.78 25.4196Z" fill="url(#paint19_radial_139_13835)"/>
<path d="M14.1198 20.3425C14.4225 20.4037 14.7283 20.4488 15.0378 20.4763C15.3475 20.5021 15.6601 20.5139 15.9818 20.4799C15.6981 20.3245 15.4052 20.2148 15.1095 20.119C14.8134 20.025 14.5138 19.9487 14.211 19.8883C13.9082 19.8278 13.6024 19.7827 13.293 19.7551C12.9832 19.7295 12.6707 19.7175 12.3491 19.7509C12.633 19.9057 12.926 20.0153 13.2216 20.1112C13.5174 20.2052 13.8171 20.2815 14.1198 20.3425Z" fill="url(#paint20_radial_139_13835)"/>
<path d="M38.1104 16.1165C38.4206 16.0253 38.7052 15.8956 38.982 15.7543C39.2579 15.6115 39.5237 15.4535 39.7809 15.2826C40.0381 15.1118 40.2863 14.9275 40.5246 14.7281C40.7619 14.5272 40.9911 14.3145 41.1946 14.063C40.8841 14.1537 40.5994 14.2832 40.3227 14.4247C40.0468 14.5676 39.781 14.7255 39.5242 14.8969C39.2673 15.0682 39.0191 15.2526 38.7809 15.4519C38.5438 15.6529 38.3143 15.8654 38.1104 16.1165Z" fill="url(#paint21_radial_139_13835)"/>
<path d="M17.7894 29.6455C17.4788 29.7363 17.194 29.8657 16.9173 30.0072C16.6414 30.1501 16.3756 30.308 16.1188 30.4794C15.862 30.6507 15.6137 30.8351 15.3755 31.0344C15.1383 31.2353 14.9089 31.4478 14.7051 31.6989C15.0153 31.6077 15.2999 31.478 15.5768 31.3367C15.8526 31.1939 16.1184 31.0358 16.3755 30.8649C16.6328 30.6941 16.881 30.5098 17.1192 30.3104C17.3564 30.1098 17.5857 29.8971 17.7894 29.6455Z" fill="url(#paint22_radial_139_13835)"/>
<path d="M35.9339 34.4557C35.7626 34.1989 35.5783 33.9506 35.3789 33.7124C35.178 33.4752 34.9655 33.2458 34.7144 33.042C34.8056 33.3522 34.9352 33.6368 35.0765 33.9137C35.2194 34.1896 35.3774 34.4554 35.5483 34.7125C35.7191 34.9698 35.9034 35.2179 36.1028 35.4562C36.3036 35.6935 36.5163 35.9227 36.7679 36.1264C36.6771 35.8158 36.5476 35.531 36.4062 35.2543C36.2633 34.9784 36.1053 34.7126 35.9339 34.4557Z" fill="url(#paint23_radial_139_13835)"/>
<path d="M19.9656 11.3067C20.1365 11.5639 20.3208 11.8122 20.5202 12.0503C20.721 12.2876 20.9337 12.5169 21.1852 12.7204C21.0945 12.4098 20.9649 12.1251 20.8236 11.8484C20.6807 11.5726 20.5227 11.3068 20.3513 11.05C20.1801 10.7931 19.9956 10.5449 19.7963 10.3066C19.5954 10.0694 19.3829 9.84004 19.1318 9.63623C19.2231 9.94645 19.3527 10.2311 19.494 10.5079C19.6369 10.7838 19.7947 11.0496 19.9656 11.3067Z" fill="url(#paint24_radial_139_13835)"/>
<path d="M35.2878 11.9878C35.4852 11.748 35.6675 11.4982 35.8366 11.2399C36.0059 10.9816 36.1615 10.7145 36.3021 10.4375C36.4412 10.1595 36.5683 9.87375 36.6564 9.5625C36.4067 9.76819 36.1959 9.99919 35.997 10.2382C35.7997 10.4781 35.6174 10.7277 35.4487 10.9865C35.2801 11.2451 35.1243 11.5122 34.9838 11.7892C34.8449 12.0672 34.7176 12.3529 34.6289 12.6638C34.8782 12.4578 35.0889 12.2267 35.2878 11.9878Z" fill="url(#paint25_radial_139_13835)"/>
<path d="M20.6113 33.7737C20.4139 34.0136 20.2317 34.2633 20.063 34.522C19.8943 34.7806 19.7385 35.0477 19.5981 35.3247C19.4591 35.6028 19.3319 35.8884 19.2432 36.1994C19.4924 35.9934 19.7031 35.7622 19.902 35.5235C20.0994 35.2836 20.2816 35.0339 20.4508 34.7755C20.6201 34.5172 20.7758 34.2501 20.9163 33.9731C21.0554 33.6951 21.1826 33.4094 21.2707 33.0981C21.0208 33.3036 20.8101 33.5348 20.6113 33.7737Z" fill="url(#paint26_radial_139_13835)"/>
<path d="M40.5926 30.9282C40.3527 30.7308 40.103 30.5486 39.8444 30.3799C39.5857 30.2112 39.3186 30.0554 39.0417 29.915C38.7636 29.776 38.478 29.6487 38.167 29.5601C38.373 29.8093 38.6041 30.02 38.8429 30.2188C39.0827 30.4162 39.3326 30.5984 39.5909 30.7677C39.8491 30.9369 40.1162 31.0926 40.3933 31.2331C40.6713 31.3722 40.957 31.4994 41.2682 31.5875C41.0626 31.3377 40.8316 31.127 40.5926 30.9282Z" fill="url(#paint27_radial_139_13835)"/>
<path d="M15.3074 14.8331C15.5473 15.0304 15.797 15.2127 16.0553 15.3819C16.3136 15.5511 16.5808 15.7069 16.8577 15.8474C17.1358 15.9865 17.4214 16.1136 17.7327 16.2018C17.5271 15.952 17.296 15.7413 17.057 15.5424C16.8171 15.3451 16.5674 15.1628 16.3087 14.9942C16.0501 14.8254 15.783 14.6697 15.506 14.5293C15.228 14.3902 14.9423 14.263 14.6313 14.1743C14.8374 14.4236 15.0685 14.6343 15.3074 14.8331Z" fill="url(#paint28_radial_139_13835)"/>
<path d="M40.7664 20.0119C40.4716 20.1103 40.1795 20.2223 39.897 20.3795C40.2188 20.4102 40.5313 20.3957 40.8408 20.3673C41.15 20.3373 41.4556 20.2895 41.7577 20.2265C42.0601 20.1635 42.3589 20.0848 42.6542 19.9883C42.9491 19.8901 43.2411 19.7779 43.5236 19.6202C43.2016 19.5889 42.8892 19.6033 42.5796 19.6316C42.2704 19.6616 41.9649 19.7094 41.6628 19.7731C41.3607 19.8366 41.0616 19.9154 40.7664 20.0119Z" fill="url(#paint29_radial_139_13835)"/>
<path d="M15.1328 25.751C15.4276 25.6528 15.7196 25.5406 16.0021 25.3828C15.6802 25.3516 15.3677 25.366 15.0581 25.3943C14.749 25.4243 14.4434 25.4721 14.1414 25.5358C13.8391 25.5993 13.5401 25.6781 13.2449 25.7746C12.9501 25.873 12.6581 25.985 12.3755 26.1421C12.6973 26.1728 13.0098 26.1583 13.3194 26.13C13.6285 26.1 13.9341 26.0522 14.2363 25.9892C14.5385 25.9264 14.8375 25.8475 15.1328 25.751Z" fill="url(#paint30_radial_139_13835)"/>
<path d="M31.0581 36.5944C30.9945 36.2921 30.9157 35.9933 30.8192 35.698C30.7208 35.4032 30.6088 35.1112 30.4517 34.8286C30.421 35.1505 30.4356 35.4629 30.4638 35.7725C30.4938 36.0817 30.5416 36.3872 30.6046 36.6895C30.6675 36.9918 30.7463 37.2907 30.8428 37.586C30.941 37.8808 31.0532 38.1729 31.211 38.4553C31.2422 38.1334 31.2278 37.8209 31.1995 37.5114C31.1694 37.202 31.1216 36.8965 31.0581 36.5944Z" fill="url(#paint31_radial_139_13835)"/>
<path d="M25.0801 10.0643C25.1784 10.3592 25.2905 10.6512 25.4483 10.9337C25.4795 10.6117 25.4651 10.2992 25.4368 9.98969C25.4068 9.6805 25.359 9.37497 25.2954 9.07291C25.2318 8.77066 25.1531 8.47178 25.0565 8.17656C24.9582 7.88172 24.8461 7.58969 24.689 7.30713C24.6583 7.62897 24.6729 7.94144 24.7011 8.251C24.7311 8.56019 24.7789 8.86572 24.8419 9.16788C24.9047 9.47003 24.9836 9.769 25.0801 10.0643Z" fill="url(#paint32_radial_139_13835)"/>
<path d="M27.9502 35.3204C34.8204 35.3204 40.3897 29.751 40.3897 22.8809C40.3897 16.0108 34.8204 10.4414 27.9502 10.4414C21.0801 10.4414 15.5107 16.0108 15.5107 22.8809C15.5107 29.751 21.0801 35.3204 27.9502 35.3204Z" fill="url(#paint33_radial_139_13835)"/>
<path d="M27.9497 35.3212C29.3419 35.3212 30.6806 35.0924 31.9304 34.6706L24.6783 27.4185C23.9046 26.5304 22.7657 25.9687 21.4953 25.9687C20.9729 25.9687 20.4729 26.0638 20.0113 26.2372C19.8814 26.2861 19.7464 26.3033 19.6154 26.2926L18.0391 24.7212C17.3293 23.9554 16.4708 23.3298 15.5098 22.8892C15.514 29.7558 21.0819 35.3212 27.9497 35.3212Z" fill="url(#paint34_linear_139_13835)"/>
<path d="M26.328 30.2923C25.9795 30.2038 25.7226 29.9119 25.669 29.5564C25.3635 27.5254 23.6114 25.9684 21.4954 25.9684C20.973 25.9684 20.4729 26.0634 20.0113 26.2369C19.6104 26.3875 19.161 26.2415 18.9318 25.8796C17.5187 23.6487 15.0299 22.167 12.1939 22.167C8.08231 22.167 4.70001 25.2799 4.26988 29.2772C4.23144 29.6344 3.98891 29.9394 3.64438 30.0415C1.52235 30.6708 -0.0217984 32.6437 0.000232776 34.9752C0.026764 37.783 2.36667 40.0213 5.17466 40.0213H25.0265C27.7705 40.0213 30.0749 37.7761 30.0488 35.0321C30.0272 32.7457 28.4519 30.8317 26.328 30.2923Z" fill="url(#paint35_linear_139_13835)"/>
<path d="M41.7018 38.237C41.0052 37.7975 40.5194 37.0887 40.3311 36.2869C40.2266 35.8419 40.1023 35.3919 39.9714 35.0862C38.8779 32.5343 36.3575 30.7226 33.4286 30.6734C30.3965 30.6225 27.7814 32.4339 26.6517 35.0391C26.2734 35.9113 25.4369 36.4826 24.4876 36.5341C24.4481 36.5362 24.4085 36.539 24.3687 36.5421C22.2057 36.7186 20.4926 38.5089 20.409 40.6775C20.3667 41.7778 20.7368 42.7903 21.3759 43.5749C22.0956 44.5429 23.2578 45.1689 24.5517 45.1689H24.7262H33.3039H39.6354C41.7165 45.1689 43.4505 43.5036 43.4552 41.4226C43.4585 40.0809 42.7577 38.9032 41.7018 38.237Z" fill="url(#paint36_linear_139_13835)"/>
</g>
<defs>
<radialGradient id="paint0_radial_139_13835" cx="0" cy="0" r="1" gradientUnits="userSpaceOnUse" gradientTransform="translate(27.9938 22.8814) scale(18.9313)">
<stop stop-color="#FFB500"/>
<stop offset="0.641" stop-color="#FFC72D" stop-opacity="0.359"/>
<stop offset="1" stop-color="#FFCF42" stop-opacity="0"/>
</radialGradient>
<radialGradient id="paint1_radial_139_13835" cx="0" cy="0" r="1" gradientUnits="userSpaceOnUse" gradientTransform="translate(29.7106 22.9878) scale(15.2269 15.2269)">
<stop stop-color="#FFCF42"/>
<stop offset="1" stop-color="#FFCF42" stop-opacity="0"/>
</radialGradient>
<radialGradient id="paint2_radial_139_13835" cx="0" cy="0" r="1" gradientUnits="userSpaceOnUse" gradientTransform="translate(29.7106 51.1055) scale(15.2269 15.2269)">
<stop stop-color="#FFCF42"/>
<stop offset="1" stop-color="#FFCF42" stop-opacity="0"/>
</radialGradient>
<radialGradient id="paint3_radial_139_13835" cx="0" cy="0" r="1" gradientUnits="userSpaceOnUse" gradientTransform="translate(56.09 24.6527) scale(15.1272 15.1272)">
<stop stop-color="#FFCF42"/>
<stop offset="1" stop-color="#FFCF42" stop-opacity="0"/>
</radialGradient>
<radialGradient id="paint4_radial_139_13835" cx="0" cy="0" r="1" gradientUnits="userSpaceOnUse" gradientTransform="translate(27.9719 24.6528) scale(15.1272 15.1272)">
<stop stop-color="#FFCF42"/>
<stop offset="1" stop-color="#FFCF42" stop-opacity="0"/>
</radialGradient>
<radialGradient id="paint5_radial_139_13835" cx="0" cy="0" r="1" gradientUnits="userSpaceOnUse" gradientTransform="translate(47.8483 22.9565) scale(15.0594 15.0594)">
<stop stop-color="#FFCF42"/>
<stop offset="1" stop-color="#FFCF42" stop-opacity="0"/>
</radialGradient>
<radialGradient id="paint6_radial_139_13835" cx="0" cy="0" r="1" gradientUnits="userSpaceOnUse" gradientTransform="translate(27.9654 42.8397) scale(15.0594 15.0594)">
<stop stop-color="#FFCF42"/>
<stop offset="1" stop-color="#FFCF42" stop-opacity="0"/>
</radialGradient>
<radialGradient id="paint7_radial_139_13835" cx="0" cy="0" r="1" gradientUnits="userSpaceOnUse" gradientTransform="translate(47.8484 42.8393) scale(15.0594 15.0594)">
<stop stop-color="#FFCF42"/>
<stop offset="1" stop-color="#FFCF42" stop-opacity="0"/>
</radialGradient>
<radialGradient id="paint8_radial_139_13835" cx="0" cy="0" r="1" gradientUnits="userSpaceOnUse" gradientTransform="translate(27.9655 22.9565) scale(15.0594)">
<stop stop-color="#FFCF42"/>
<stop offset="1" stop-color="#FFCF42" stop-opacity="0"/>
</radialGradient>
<radialGradient id="paint9_radial_139_13835" cx="0" cy="0" r="1" gradientUnits="userSpaceOnUse" gradientTransform="translate(38.4135 22.9801) scale(15.0961 15.0961)">
<stop stop-color="#FFCF42"/>
<stop offset="1" stop-color="#FFCF42" stop-opacity="0"/>
</radialGradient>
<radialGradient id="paint10_radial_139_13835" cx="0" cy="0" r="1" gradientUnits="userSpaceOnUse" gradientTransform="translate(27.958 49.0822) scale(15.0961 15.0961)">
<stop stop-color="#FFCF42"/>
<stop offset="1" stop-color="#FFCF42" stop-opacity="0"/>
</radialGradient>
<radialGradient id="paint11_radial_139_13835" cx="0" cy="0" r="1" gradientUnits="userSpaceOnUse" gradientTransform="translate(54.0729 33.3763) scale(15.0227 15.0227)">
<stop stop-color="#FFCF42"/>
<stop offset="1" stop-color="#FFCF42" stop-opacity="0"/>
</radialGradient>
<radialGradient id="paint12_radial_139_13835" cx="0" cy="0" r="1" gradientUnits="userSpaceOnUse" gradientTransform="translate(27.9712 22.9207) scale(15.0227 15.0227)">
<stop stop-color="#FFCF42"/>
<stop offset="1" stop-color="#FFCF42" stop-opacity="0"/>
</radialGradient>
<radialGradient id="paint13_radial_139_13835" cx="0" cy="0" r="1" gradientUnits="userSpaceOnUse" gradientTransform="translate(53.8198 22.924) scale(15.0246 15.0246)">
<stop stop-color="#FFCF42"/>
<stop offset="1" stop-color="#FFCF42" stop-opacity="0"/>
</radialGradient>
<radialGradient id="paint14_radial_139_13835" cx="0" cy="0" r="1" gradientUnits="userSpaceOnUse" gradientTransform="translate(27.97 33.9869) scale(15.0246 15.0246)">
<stop stop-color="#FFCF42"/>
<stop offset="1" stop-color="#FFCF42" stop-opacity="0"/>
</radialGradient>
<radialGradient id="paint15_radial_139_13835" cx="0" cy="0" r="1" gradientUnits="userSpaceOnUse" gradientTransform="translate(39.0223 48.8292) scale(15.0952 15.0952)">
<stop stop-color="#FFCF42"/>
<stop offset="1" stop-color="#FFCF42" stop-opacity="0"/>
</radialGradient>
<radialGradient id="paint16_radial_139_13835" cx="0" cy="0" r="1" gradientUnits="userSpaceOnUse" gradientTransform="translate(27.9578 22.9793) scale(15.0952 15.0952)">
<stop stop-color="#FFCF42"/>
<stop offset="1" stop-color="#FFCF42" stop-opacity="0"/>
</radialGradient>
<radialGradient id="paint17_radial_139_13835" cx="0" cy="0" r="1" gradientUnits="userSpaceOnUse" gradientTransform="translate(33.6424 22.9861) scale(15.1403 15.1404)">
<stop stop-color="#FFCF42"/>
<stop offset="1" stop-color="#FFCF42" stop-opacity="0"/>
</radialGradient>
<radialGradient id="paint18_radial_139_13835" cx="0" cy="0" r="1" gradientUnits="userSpaceOnUse" gradientTransform="translate(28.1112 50.5541) scale(15.1404 15.1404)">
<stop stop-color="#FFCF42"/>
<stop offset="1" stop-color="#FFCF42" stop-opacity="0"/>
</radialGradient>
<radialGradient id="paint19_radial_139_13835" cx="0" cy="0" r="1" gradientUnits="userSpaceOnUse" gradientTransform="translate(55.5406 28.5922) scale(15.0472 15.0472)">
<stop stop-color="#FFCF42"/>
<stop offset="1" stop-color="#FFCF42" stop-opacity="0"/>
</radialGradient>
<radialGradient id="paint20_radial_139_13835" cx="0" cy="0" r="1" gradientUnits="userSpaceOnUse" gradientTransform="translate(27.9722 23.0613) scale(15.0472 15.0472)">
<stop stop-color="#FFCF42"/>
<stop offset="1" stop-color="#FFCF42" stop-opacity="0"/>
</radialGradient>
<radialGradient id="paint21_radial_139_13835" cx="0" cy="0" r="1" gradientUnits="userSpaceOnUse" gradientTransform="translate(51.3739 22.9408) scale(15.0397 15.0397)">
<stop stop-color="#FFCF42"/>
<stop offset="1" stop-color="#FFCF42" stop-opacity="0"/>
</radialGradient>
<radialGradient id="paint22_radial_139_13835" cx="0" cy="0" r="1" gradientUnits="userSpaceOnUse" gradientTransform="translate(27.9686 38.5232) scale(15.0396 15.0396)">
<stop stop-color="#FFCF42"/>
<stop offset="1" stop-color="#FFCF42" stop-opacity="0"/>
</radialGradient>
<radialGradient id="paint23_radial_139_13835" cx="0" cy="0" r="1" gradientUnits="userSpaceOnUse" gradientTransform="translate(43.5444 46.3757) scale(15.0792 15.0792)">
<stop stop-color="#FFCF42"/>
<stop offset="1" stop-color="#FFCF42" stop-opacity="0"/>
</radialGradient>
<radialGradient id="paint24_radial_139_13835" cx="0" cy="0" r="1" gradientUnits="userSpaceOnUse" gradientTransform="translate(27.962 22.97) scale(15.0792 15.0792)">
<stop stop-color="#FFCF42"/>
<stop offset="1" stop-color="#FFCF42" stop-opacity="0"/>
</radialGradient>
<radialGradient id="paint25_radial_139_13835" cx="0" cy="0" r="1" gradientUnits="userSpaceOnUse" gradientTransform="translate(43.3477 22.9706) scale(15.0801 15.0801)">
<stop stop-color="#FFCF42"/>
<stop offset="1" stop-color="#FFCF42" stop-opacity="0"/>
</radialGradient>
<radialGradient id="paint26_radial_139_13835" cx="0" cy="0" r="1" gradientUnits="userSpaceOnUse" gradientTransform="translate(27.9619 46.5052) scale(15.0801 15.0801)">
<stop stop-color="#FFCF42"/>
<stop offset="1" stop-color="#FFCF42" stop-opacity="0"/>
</radialGradient>
<radialGradient id="paint27_radial_139_13835" cx="0" cy="0" r="1" gradientUnits="userSpaceOnUse" gradientTransform="translate(51.5038 38.3255) scale(15.0397 15.0397)">
<stop stop-color="#FFCF42"/>
<stop offset="1" stop-color="#FFCF42" stop-opacity="0"/>
</radialGradient>
<radialGradient id="paint28_radial_139_13835" cx="0" cy="0" r="1" gradientUnits="userSpaceOnUse" gradientTransform="translate(27.9685 22.9397) scale(15.0397 15.0397)">
<stop stop-color="#FFCF42"/>
<stop offset="1" stop-color="#FFCF42" stop-opacity="0"/>
</radialGradient>
<radialGradient id="paint29_radial_139_13835" cx="0" cy="0" r="1" gradientUnits="userSpaceOnUse" gradientTransform="translate(55.4931 23.0358) scale(15.0425 15.0425)">
<stop stop-color="#FFCF42"/>
<stop offset="1" stop-color="#FFCF42" stop-opacity="0"/>
</radialGradient>
<radialGradient id="paint30_radial_139_13835" cx="0" cy="0" r="1" gradientUnits="userSpaceOnUse" gradientTransform="translate(27.972 28.7986) scale(15.0425 15.0425)">
<stop stop-color="#FFCF42"/>
<stop offset="1" stop-color="#FFCF42" stop-opacity="0"/>
</radialGradient>
<radialGradient id="paint31_radial_139_13835" cx="0" cy="0" r="1" gradientUnits="userSpaceOnUse" gradientTransform="translate(33.8489 50.5071) scale(15.1356 15.1356)">
<stop stop-color="#FFCF42"/>
<stop offset="1" stop-color="#FFCF42" stop-opacity="0"/>
</radialGradient>
<radialGradient id="paint32_radial_139_13835" cx="0" cy="0" r="1" gradientUnits="userSpaceOnUse" gradientTransform="translate(28.0862 22.9859) scale(15.1357 15.1356)">
<stop stop-color="#FFCF42"/>
<stop offset="1" stop-color="#FFCF42" stop-opacity="0"/>
</radialGradient>
<radialGradient id="paint33_radial_139_13835" cx="0" cy="0" r="1" gradientUnits="userSpaceOnUse" gradientTransform="translate(20.0825 15.0698) scale(24.438 24.438)">
<stop stop-color="#FFCF42"/>
<stop offset="0.086" stop-color="#FFC93E"/>
<stop offset="0.204" stop-color="#FFB731"/>
<stop offset="0.34" stop-color="#FF9A1D"/>
<stop offset="0.489" stop-color="#FF7201"/>
<stop offset="0.496" stop-color="#FF7000"/>
<stop offset="1" stop-color="#FF001C"/>
</radialGradient>
<linearGradient id="paint34_linear_139_13835" x1="29.9393" y1="37.5653" x2="18.5184" y2="26.1444" gradientUnits="userSpaceOnUse">
<stop stop-color="#FF001C" stop-opacity="0"/>
<stop offset="1" stop-color="#C1001C"/>
</linearGradient>
<linearGradient id="paint35_linear_139_13835" x1="12.2059" y1="28.775" x2="19.3633" y2="44.6118" gradientUnits="userSpaceOnUse">
<stop stop-color="#FFF2E8"/>
<stop offset="1" stop-color="#E7D2B9"/>
</linearGradient>
<linearGradient id="paint36_linear_139_13835" x1="29.9536" y1="36.1149" x2="34.6735" y2="48.221" gradientUnits="userSpaceOnUse">
<stop stop-color="#FFF2E8"/>
<stop offset="1" stop-color="#E7D2B9"/>
</linearGradient>
</defs>
</svg>
