<svg width="48" height="48" viewBox="0 0 48 48" fill="none" xmlns="http://www.w3.org/2000/svg">
<path d="M23.9998 40.0835C32.8826 40.0835 40.0835 32.8826 40.0835 23.9998C40.0835 15.117 32.8826 7.91602 23.9998 7.91602C15.117 7.91602 7.91602 15.117 7.91602 23.9998C7.91602 32.8826 15.117 40.0835 23.9998 40.0835Z" fill="url(#paint0_linear_139_13706)"/>
<path d="M23.9998 34.4459C29.769 34.4459 34.4459 29.769 34.4459 23.9998C34.4459 18.2306 29.769 13.5537 23.9998 13.5537C18.2306 13.5537 13.5537 18.2306 13.5537 23.9998C13.5537 29.769 18.2306 34.4459 23.9998 34.4459Z" fill="url(#paint1_linear_139_13706)"/>
<path d="M39.9754 25.8679L31.378 17.2705C30.5183 16.3177 29.3086 15.6855 27.9582 15.5863C27.6391 15.5629 27.3257 15.5688 27.0203 15.6017C26.09 15.7016 25.1493 15.4581 24.3768 14.9302C23.9757 14.6563 23.4909 14.4961 22.9686 14.4961C22.3162 14.4961 21.7223 14.7459 21.2773 15.1552C20.6711 15.7125 19.9138 16.0823 19.093 16.1494C19.0556 16.1524 19.0183 16.156 18.9807 16.1601C17.1869 16.3568 15.7435 17.7914 15.5339 19.5837C15.5323 19.5972 15.5309 19.6105 15.5294 19.6239C15.4273 20.5793 14.9899 21.4596 14.2957 22.1239C13.263 23.1119 12.6427 24.5271 12.7193 26.0861C12.788 27.485 13.4281 28.7468 14.4128 29.6354L24.8393 40.0619C32.708 39.6575 39.081 33.5975 39.9754 25.8679Z" fill="url(#paint2_linear_139_13706)"/>
<path d="M32.6269 21.5661C32.6945 21.1708 32.7167 20.7599 32.6877 20.339C32.5138 17.8155 30.4807 15.7717 27.9581 15.5863C27.639 15.5629 27.3256 15.5688 27.0202 15.6017C26.09 15.7016 25.1493 15.4581 24.3768 14.9302C23.9757 14.6563 23.4909 14.4961 22.9685 14.4961C22.3161 14.4961 21.7223 14.7459 21.2773 15.1552C20.6711 15.7125 19.9138 16.0823 19.093 16.1493C19.0556 16.1523 19.0182 16.1558 18.9807 16.16C17.1869 16.3568 15.7435 17.7912 15.5339 19.5836C15.5323 19.5971 15.5308 19.6104 15.5294 19.6238C15.4273 20.5792 14.9899 21.4595 14.2956 22.1238C13.2631 23.1118 12.6427 24.527 12.7192 26.086C12.8432 28.6115 14.8278 30.6923 17.345 30.9319C17.4316 30.9401 17.5178 30.9462 17.6036 30.9501C18.5872 30.995 19.5009 31.5106 20.0105 32.3531C20.4475 33.0759 21.1925 33.7632 22.4445 33.7632C22.9685 33.7632 23.4611 33.6299 23.8908 33.3956C24.649 32.9819 25.5682 32.9726 26.3473 33.3456C27.1706 33.7396 28.0989 33.9495 29.0791 33.9214C32.2393 33.8305 34.7984 31.2288 34.8399 28.0675C34.8601 26.533 34.2973 25.1308 33.3595 24.0667C32.7546 23.3803 32.4727 22.4681 32.6269 21.5661Z" fill="url(#paint3_linear_139_13706)"/>
<path d="M24.861 31.9876C28.7969 31.9876 31.9876 28.7969 31.9876 24.861C31.9876 20.9251 28.7969 17.7344 24.861 17.7344C20.9251 17.7344 17.7344 20.9251 17.7344 24.861C17.7344 28.7969 20.9251 31.9876 24.861 31.9876Z" fill="url(#paint4_radial_139_13706)"/>
<path d="M23.9998 30.2643C27.4596 30.2643 30.2643 27.4596 30.2643 23.9998C30.2643 20.54 27.4596 17.7354 23.9998 17.7354C20.54 17.7354 17.7354 20.54 17.7354 23.9998C17.7354 27.4596 20.54 30.2643 23.9998 30.2643Z" fill="url(#paint5_radial_139_13706)"/>
<path d="M8.78278 13.9529C8.78278 12.1306 8.16413 10.5024 7.19316 9.42338C7.04503 9.25876 6.78113 9.43332 6.87178 9.63545C7.38047 10.7694 7.68675 12.2671 7.68928 13.9317C7.68956 14.117 7.54941 14.2845 7.36434 14.2924C7.17 14.3006 7.00969 14.1455 7.00969 13.953C7.00969 11.9523 6.56072 10.3304 5.93841 9.31426C5.79619 9.08204 5.43844 9.2312 5.49722 9.49707C5.87203 11.1923 5.88863 13.5523 5.88863 13.9531C5.88863 14.1627 5.69869 14.3281 5.48156 14.2864C5.31984 14.2554 5.20922 14.1034 5.20913 13.9389C5.20819 11.8914 5.00522 10.3499 4.77731 9.41757C4.67916 9.01576 4.10353 9.01576 4.00528 9.41757C3.77738 10.3499 3.57441 11.8914 3.57347 13.9389C3.57338 14.1037 3.46266 14.2554 3.30103 14.2865C3.08391 14.3282 2.89397 14.1628 2.89397 13.9532C2.89397 13.5524 2.91066 11.1927 3.28538 9.49745C3.34425 9.2311 2.98613 9.08269 2.84372 9.31529C2.22319 10.3291 1.77506 11.9454 1.773 13.9393C1.77281 14.1036 1.66303 14.2546 1.50197 14.2861C1.28419 14.3288 1.0935 14.1631 1.0935 13.953C1.0935 12.2805 1.39997 10.7754 1.91044 9.63676C2.00128 9.43435 1.73775 9.25894 1.58934 9.42385C0.618469 10.5028 0 12.1308 0 13.9529C0 16.1357 0.887438 18.04 2.20519 19.0554C2.96391 19.6398 3.40828 20.5425 3.36047 21.499L2.62969 37.0321C2.57925 38.0397 3.38259 38.8842 4.39144 38.8842C5.40028 38.8842 6.20372 38.0397 6.15319 37.0321L5.42241 21.499C5.3745 20.5425 5.81906 19.6399 6.57769 19.0554C7.89534 18.0401 8.78278 16.1357 8.78278 13.9529Z" fill="url(#paint6_linear_139_13706)"/>
<path d="M48.0002 14.9392C48.0002 11.6899 46.034 9.05566 43.6087 9.05566C41.1834 9.05566 39.2173 11.6899 39.2173 14.9392C39.2173 17.0516 40.0484 18.9033 41.2963 19.9406C42.1617 20.66 42.6139 21.7627 42.5577 22.8868L41.8469 37.0924C41.7964 38.1 42.5998 38.9445 43.6086 38.9445C44.6175 38.9445 45.4209 38.1 45.3704 37.0924L44.6596 22.8868C44.6033 21.7628 45.0556 20.66 45.921 19.9406C47.1691 18.9034 48.0002 17.0516 48.0002 14.9392Z" fill="url(#paint7_linear_139_13706)"/>
<path d="M43.6086 19.8355C45.6269 19.8355 47.263 17.6434 47.263 14.9395C47.263 12.2355 45.6269 10.0435 43.6086 10.0435C41.5903 10.0435 39.9541 12.2355 39.9541 14.9395C39.9541 17.6434 41.5903 19.8355 43.6086 19.8355Z" fill="url(#paint8_linear_139_13706)"/>
<defs>
<linearGradient id="paint0_linear_139_13706" x1="22.8717" y1="24.0003" x2="40.3989" y2="24.0003" gradientUnits="userSpaceOnUse">
<stop stop-color="#E7F1FD"/>
<stop offset="1" stop-color="#B2C7D8"/>
</linearGradient>
<linearGradient id="paint1_linear_139_13706" x1="23.3877" y1="23.6959" x2="0.515724" y2="12.3127" gradientUnits="userSpaceOnUse">
<stop stop-color="#E7F1FD"/>
<stop offset="1" stop-color="#B2C7D8"/>
</linearGradient>
<linearGradient id="paint2_linear_139_13706" x1="33.5363" y1="34.0942" x2="19.4999" y2="20.0588" gradientUnits="userSpaceOnUse">
<stop stop-color="#B2C7D8" stop-opacity="0"/>
<stop offset="1" stop-color="#879FAF"/>
</linearGradient>
<linearGradient id="paint3_linear_139_13706" x1="20.0835" y1="20.6423" x2="39.0195" y2="39.5784" gradientUnits="userSpaceOnUse">
<stop stop-color="white"/>
<stop offset="1" stop-color="#D5ECF3"/>
</linearGradient>
<radialGradient id="paint4_radial_139_13706" cx="0" cy="0" r="1" gradientUnits="userSpaceOnUse" gradientTransform="translate(24.8162 24.7843) scale(6.93444)">
<stop stop-color="#909698"/>
<stop offset="0.397" stop-color="#92989A" stop-opacity="0.603"/>
<stop offset="0.624" stop-color="#98A0A3" stop-opacity="0.376"/>
<stop offset="0.809" stop-color="#A4ADB1" stop-opacity="0.191"/>
<stop offset="0.969" stop-color="#B3C0C4" stop-opacity="0.031"/>
<stop offset="1" stop-color="#B7C4C9" stop-opacity="0"/>
</radialGradient>
<radialGradient id="paint5_radial_139_13706" cx="0" cy="0" r="1" gradientUnits="userSpaceOnUse" gradientTransform="translate(20.037 20.0654) scale(12.3066)">
<stop stop-color="#FFF2E8"/>
<stop offset="0.048" stop-color="#FFF0E2"/>
<stop offset="0.115" stop-color="#FFECD0"/>
<stop offset="0.191" stop-color="#FFE4B3"/>
<stop offset="0.276" stop-color="#FFD98B"/>
<stop offset="0.367" stop-color="#FFCC57"/>
<stop offset="0.462" stop-color="#FFBB18"/>
<stop offset="0.496" stop-color="#FFB500"/>
<stop offset="1" stop-color="#FF7000"/>
</radialGradient>
<linearGradient id="paint6_linear_139_13706" x1="3.39193" y1="24.0007" x2="5.09825" y2="24.0007" gradientUnits="userSpaceOnUse">
<stop stop-color="#74AEF8"/>
<stop offset="1" stop-color="#4E85FB"/>
</linearGradient>
<linearGradient id="paint7_linear_139_13706" x1="43.1569" y1="24.0007" x2="44.2825" y2="24.0007" gradientUnits="userSpaceOnUse">
<stop stop-color="#74AEF8"/>
<stop offset="1" stop-color="#4E85FB"/>
</linearGradient>
<linearGradient id="paint8_linear_139_13706" x1="47.3994" y1="18.7323" x2="38.6485" y2="9.98053" gradientUnits="userSpaceOnUse">
<stop stop-color="#74AEF8"/>
<stop offset="1" stop-color="#4E85FB"/>
</linearGradient>
</defs>
</svg>
