<svg width="48" height="48" viewBox="0 0 48 48" fill="none" xmlns="http://www.w3.org/2000/svg">
<g opacity="0.3" clip-path="url(#clip0_139_13731)">
<path d="M11.8516 4.3374H46.3813V27.6818H11.8516V4.3374Z" fill="url(#paint0_linear_139_13731)"/>
<path d="M11.8516 4.3374H46.3813V11.0229H11.8516V4.3374Z" fill="url(#paint1_linear_139_13731)"/>
<path d="M11.8516 4.3374H34.447V27.6818H11.8516V4.3374Z" fill="url(#paint2_linear_139_13731)"/>
<path d="M10.2329 4.23486V27.7842C10.2329 28.6822 10.9609 29.4102 11.8589 29.4102H46.3741C47.2721 29.4102 48.0001 28.6822 48.0001 27.7842V4.23486C48.0001 3.33689 47.2721 2.60889 46.3741 2.60889H11.8589C10.9609 2.60889 10.2329 3.33689 10.2329 4.23486ZM44.452 26.3439H13.781C13.4208 26.3439 13.1287 26.0518 13.1287 25.6916V6.32748C13.1287 5.96729 13.4208 5.67524 13.781 5.67524H44.452C44.8122 5.67524 45.1043 5.96729 45.1043 6.32748V25.6916C45.1043 26.0518 44.8122 26.3439 44.452 26.3439Z" fill="url(#paint3_linear_139_13731)"/>
<path d="M13.1238 27.6818H45.109C45.8117 27.6818 46.3813 27.1122 46.3813 26.4095V5.60968C46.3813 4.9071 45.8117 4.3374 45.109 4.3374H13.1238C12.4212 4.3374 11.8516 4.907 11.8516 5.60968V26.4096C11.8516 27.1122 12.4212 27.6818 13.1238 27.6818ZM13.1286 6.32752C13.1286 5.96733 13.4207 5.67528 13.7809 5.67528H44.4519C44.8121 5.67528 45.1042 5.96733 45.1042 6.32752V25.6917C45.1042 26.0519 44.8121 26.3439 44.4519 26.3439H13.7809C13.4207 26.3439 13.1286 26.0519 13.1286 25.6917V6.32752Z" fill="url(#paint4_linear_139_13731)"/>
<path d="M45.1043 17.2314V25.6915C45.1043 26.0517 44.8122 26.3437 44.452 26.3437H13.781C13.4208 26.3437 13.1287 26.0517 13.1287 25.6915V17.2314H10.2329V27.7841C10.2329 28.6821 10.9609 29.4101 11.8589 29.4101H46.3741C47.2721 29.4101 48.0001 28.6821 48.0001 27.7841V17.2314H45.1043Z" fill="url(#paint5_linear_139_13731)"/>
<path d="M28.4013 34.8523H25.3492L14.8618 34.7099L4.37447 34.8523H1.32205C0.677626 34.8523 0.155273 34.3298 0.155273 33.6855C0.155273 27.4605 5.20167 22.4141 11.4267 22.4141H18.2966C24.5217 22.4141 29.5681 27.4605 29.5681 33.6855C29.5682 34.3298 29.0457 34.8523 28.4013 34.8523Z" fill="url(#paint6_linear_139_13731)"/>
<path d="M2.73682 26.5383H26.9864C24.9318 24.0035 21.7938 22.3828 18.2768 22.3828H11.4466C7.92938 22.3827 4.79131 24.0035 2.73682 26.5383Z" fill="url(#paint7_linear_139_13731)"/>
<path d="M29.723 33.7385C29.723 34.0644 29.5913 34.3587 29.3777 34.5723C29.164 34.7853 28.8691 34.9176 28.5439 34.9176H25.4597L14.8616 34.7737L4.26409 34.9177H1.1792C0.528094 34.9177 0 34.3896 0 33.7385C0 30.5931 1.27482 27.7456 3.33609 25.6843C5.08791 23.9332 7.40668 22.7497 9.99313 22.4331C9.89892 23.1058 9.84922 23.8094 9.84922 24.5339C9.84922 29.3944 12.0932 33.3348 14.8616 33.3348C17.6299 33.3348 19.8739 29.3944 19.8739 24.5339C19.8739 23.8094 19.8243 23.1059 19.73 22.4331C25.361 23.1218 29.723 27.9211 29.723 33.7385Z" fill="url(#paint8_linear_139_13731)"/>
<path d="M19.7301 22.4336C19.8244 23.1063 19.8741 23.8099 19.8741 24.5344C19.8741 29.3948 17.6302 33.3352 14.8618 33.3353V34.7742L25.4598 34.9181H28.5441C28.8693 34.9181 29.1642 34.7857 29.3779 34.5728C29.5915 34.3591 29.7232 34.0648 29.7232 33.739C29.7232 27.9215 25.3612 23.1222 19.7301 22.4336Z" fill="url(#paint9_linear_139_13731)"/>
<path d="M14.8615 33.3353C12.0932 33.3353 9.84922 29.3949 9.84922 24.5344C9.84922 23.8099 9.89882 23.1063 9.99312 22.4336C9.42569 22.5031 8.87105 22.6143 8.33251 22.764L6.67143 27.0236C6.49289 27.4814 6.83058 27.9755 7.32188 27.9755C8.24762 27.9755 8.99811 28.726 8.99811 29.6518V30.6201C8.99811 31.0688 9.17637 31.4992 9.49364 31.8165L12.4838 34.8066L14.8616 34.7743L14.8615 33.3353Z" fill="url(#paint10_linear_139_13731)"/>
<path d="M14.8613 33.3353C17.6297 33.3353 19.8737 29.3949 19.8737 24.5344C19.8737 23.8099 19.8241 23.1063 19.7298 22.4336C20.2972 22.5031 20.8518 22.6143 21.3904 22.764L23.0515 27.0236C23.2301 27.4814 22.8924 27.9755 22.4011 27.9755C21.4754 27.9755 20.7249 28.726 20.7249 29.6518V30.6201C20.7249 31.0688 20.5466 31.4992 20.2293 31.8165L17.2392 34.8066L14.8613 34.7743V33.3353Z" fill="url(#paint11_linear_139_13731)"/>
<path d="M0.000488281 33.7387C0.000488281 34.3899 0.528394 34.9178 1.17959 34.9178H4.26421L14.8619 34.7739L25.4596 34.9178H28.5439C29.1951 34.9178 29.723 34.3899 29.723 33.7387C29.723 32.8356 29.6174 31.9572 29.4188 31.1147H0.304771C0.106088 31.9572 0.000488281 32.8356 0.000488281 33.7387Z" fill="url(#paint12_linear_139_13731)"/>
<path d="M14.8615 27.6513C16.7091 27.6513 18.2069 26.1535 18.2069 24.3059C18.2069 22.4582 16.7091 20.9604 14.8615 20.9604C13.0139 20.9604 11.5161 22.4582 11.5161 24.3059C11.5161 26.1535 13.0139 27.6513 14.8615 27.6513Z" fill="url(#paint13_linear_139_13731)"/>
<path d="M14.8615 27.6513C16.7091 27.6513 18.2069 26.1535 18.2069 24.3059C18.2069 22.4582 16.7091 20.9604 14.8615 20.9604C13.0139 20.9604 11.5161 22.4582 11.5161 24.3059C11.5161 26.1535 13.0139 27.6513 14.8615 27.6513Z" fill="url(#paint14_linear_139_13731)"/>
<path d="M4.1665 10.6052C4.1665 9.20612 5.1377 8.03388 6.44265 7.72584C6.79145 7.64348 7.1249 7.91322 7.1249 8.27162V12.9386C7.1249 13.297 6.79145 13.5668 6.44265 13.4844C5.13761 13.1764 4.1665 12.0042 4.1665 10.6052Z" fill="url(#paint15_linear_139_13731)"/>
<path d="M25.5561 10.6052C25.5561 9.20612 24.585 8.03388 23.2799 7.72584C22.9311 7.64348 22.5977 7.91322 22.5977 8.27162V12.9386C22.5977 13.297 22.9311 13.5668 23.2799 13.4844C24.585 13.1764 25.5561 12.0042 25.5561 10.6052Z" fill="url(#paint16_linear_139_13731)"/>
<path d="M14.8612 21.5032C10.1351 21.5032 6.30371 17.672 6.30371 12.9459V8.55736C6.30371 3.83125 10.1351 0 14.8611 0C19.5872 0 23.4184 3.83125 23.4184 8.55736V12.9458C23.4185 17.6719 19.5873 21.5032 14.8612 21.5032Z" fill="url(#paint17_linear_139_13731)"/>
<path d="M10.5147 13.0376C9.72777 13.0376 9.08984 12.3997 9.08984 11.6127V10.882C9.08984 10.0951 9.72777 9.45703 10.5147 9.45703C11.3016 9.45703 11.9396 10.095 11.9396 10.882V11.6127C11.9396 12.3997 11.3016 13.0376 10.5147 13.0376Z" fill="url(#paint18_linear_139_13731)"/>
<path d="M19.2077 13.0376C18.4206 13.0376 17.7827 12.3997 17.7827 11.6127V10.882C17.7827 10.0951 18.4206 9.45703 19.2077 9.45703C19.9946 9.45703 20.6325 10.095 20.6325 10.882V11.6127C20.6326 12.3997 19.9947 13.0376 19.2077 13.0376Z" fill="url(#paint19_linear_139_13731)"/>
<path d="M15.334 15.0982H14.3885C13.6005 15.0982 13.0039 14.3861 13.142 13.6103L13.684 10.5635H16.0386L16.5806 13.6103C16.7185 14.3862 16.122 15.0982 15.334 15.0982Z" fill="url(#paint20_linear_139_13731)"/>
<path d="M20.7599 13.9754C20.5643 14.3991 20.3243 14.7981 20.046 15.1665C19.5508 15.8217 18.6657 16.0585 17.9157 15.7239C17.0248 15.3265 15.9799 15.0973 14.8618 15.0973C13.7437 15.0973 12.6988 15.3264 11.8078 15.7239C11.0578 16.0586 10.1727 15.8217 9.67758 15.1665C9.39918 14.7981 9.15918 14.3991 8.96351 13.9754C8.50582 12.9842 7.50158 12.3617 6.41189 12.4282C6.34393 12.4323 6.30469 12.4362 6.30469 12.4396V16.7353C6.30469 21.4647 10.1023 25.3689 14.8317 25.3852C19.5715 25.4015 23.4189 21.5642 23.4189 16.8282V12.4396C23.4189 12.4362 23.3796 12.4323 23.3117 12.4282C22.2219 12.3617 21.2176 12.9842 20.7599 13.9754Z" fill="url(#paint21_linear_139_13731)"/>
<path d="M6.64844 19.1592C7.68336 22.7284 10.9421 25.3717 14.8317 25.3852C18.7627 25.3986 22.0797 22.7614 23.0972 19.1592H6.64844Z" fill="url(#paint22_linear_139_13731)"/>
<path d="M29.5047 10.6007H40.2184C40.6082 10.6007 40.9243 10.2847 40.9243 9.89485C40.9243 9.50501 40.6082 9.18896 40.2184 9.18896H29.5047C29.1149 9.18896 28.7988 9.50501 28.7988 9.89485C28.7988 10.2847 29.1149 10.6007 29.5047 10.6007Z" fill="#EAF6FF"/>
<path d="M29.5047 13.6754H37.7243C38.1141 13.6754 38.4302 13.3594 38.4302 12.9696C38.4302 12.5797 38.1141 12.2637 37.7243 12.2637H29.5047C29.1149 12.2637 28.7988 12.5797 28.7988 12.9696C28.7988 13.3594 29.1149 13.6754 29.5047 13.6754Z" fill="#EAF6FF"/>
<path d="M39.8118 12.2637C39.422 12.2637 39.106 12.5797 39.106 12.9696C39.106 13.3594 39.422 13.6754 39.8118 13.6754H40.6118C41.0017 13.6754 41.3177 13.3594 41.3177 12.9696C41.3177 12.5797 41.0017 12.2637 40.6118 12.2637H39.8118Z" fill="#EAF6FF"/>
<path d="M29.5047 17.1891H35.1988C35.5887 17.1891 35.9047 16.8731 35.9047 16.4832C35.9047 16.0934 35.5887 15.7773 35.1988 15.7773H29.5047C29.1149 15.7773 28.7988 16.0934 28.7988 16.4832C28.7988 16.8731 29.1149 17.1891 29.5047 17.1891Z" fill="#EAF6FF"/>
<path d="M7.92529 38.5185C11.318 38.5185 14.0683 35.7682 14.0683 32.3755C14.0683 28.9828 11.318 26.2324 7.92529 26.2324C4.53257 26.2324 1.78223 28.9828 1.78223 32.3755C1.78223 35.7682 4.53257 38.5185 7.92529 38.5185Z" fill="url(#paint23_linear_139_13731)"/>
<path d="M14.0683 32.3755C14.0683 35.7682 11.318 38.5185 7.92529 38.5185C4.53253 38.5185 1.78223 35.7682 1.78223 32.3755H14.0683Z" fill="url(#paint24_linear_139_13731)"/>
<path d="M7.92546 36.4092C3.54833 36.4092 0 39.9575 0 44.3346C0 46.3588 1.64094 47.9998 3.66513 47.9998H12.1858C14.21 47.9998 15.8509 46.3588 15.8509 44.3346C15.8509 39.9575 12.3026 36.4092 7.92546 36.4092Z" fill="url(#paint25_linear_139_13731)"/>
<path d="M24 38.5185C27.3927 38.5185 30.1431 35.7682 30.1431 32.3755C30.1431 28.9828 27.3927 26.2324 24 26.2324C20.6073 26.2324 17.8569 28.9828 17.8569 32.3755C17.8569 35.7682 20.6073 38.5185 24 38.5185Z" fill="url(#paint26_linear_139_13731)"/>
<path d="M30.1431 32.3755C30.1431 35.7682 27.3927 38.5185 24 38.5185C20.6072 38.5185 17.8569 35.7682 17.8569 32.3755H30.1431Z" fill="url(#paint27_linear_139_13731)"/>
<path d="M24.0002 36.4092C19.623 36.4092 16.0747 39.9575 16.0747 44.3346C16.0747 46.3588 17.7156 47.9998 19.7398 47.9998H28.2605C30.2847 47.9998 31.9256 46.3588 31.9256 44.3346C31.9256 39.9575 28.3773 36.4092 24.0002 36.4092Z" fill="url(#paint28_linear_139_13731)"/>
<path d="M40.0742 38.5185C43.4669 38.5185 46.2173 35.7682 46.2173 32.3755C46.2173 28.9828 43.4669 26.2324 40.0742 26.2324C36.6815 26.2324 33.9312 28.9828 33.9312 32.3755C33.9312 35.7682 36.6815 38.5185 40.0742 38.5185Z" fill="url(#paint29_linear_139_13731)"/>
<path d="M46.2173 32.3755C46.2173 35.7682 43.467 38.5185 40.0742 38.5185C36.6815 38.5185 33.9312 35.7682 33.9312 32.3755H46.2173Z" fill="url(#paint30_linear_139_13731)"/>
<path d="M40.0744 36.4092C35.6973 36.4092 32.1489 39.9575 32.1489 44.3346C32.1489 46.3588 33.7899 47.9998 35.8141 47.9998H44.3347C46.3589 47.9998 47.9998 46.3588 47.9998 44.3346C47.9998 39.9575 44.4515 36.4092 40.0744 36.4092Z" fill="url(#paint31_linear_139_13731)"/>
</g>
<defs>
<linearGradient id="paint0_linear_139_13731" x1="26.141" y1="7.25326" x2="33.8836" y2="30.0386" gradientUnits="userSpaceOnUse">
<stop stop-color="#09A76D"/>
<stop offset="1" stop-color="#026841"/>
</linearGradient>
<linearGradient id="paint1_linear_139_13731" x1="29.1164" y1="9.42286" x2="29.1164" y2="4.79576" gradientUnits="userSpaceOnUse">
<stop stop-color="#026841" stop-opacity="0"/>
<stop offset="1" stop-color="#433F43"/>
</linearGradient>
<linearGradient id="paint2_linear_139_13731" x1="30.9647" y1="16.0096" x2="21.5299" y2="16.0096" gradientUnits="userSpaceOnUse">
<stop stop-color="#026841" stop-opacity="0"/>
<stop offset="1" stop-color="#433F43"/>
</linearGradient>
<linearGradient id="paint3_linear_139_13731" x1="18.0015" y1="4.89453" x2="46.2135" y2="33.1066" gradientUnits="userSpaceOnUse">
<stop stop-color="#C86D36"/>
<stop offset="1" stop-color="#883F2E"/>
</linearGradient>
<linearGradient id="paint4_linear_139_13731" x1="47.5142" y1="34.4074" x2="9.75961" y2="-3.34721" gradientUnits="userSpaceOnUse">
<stop stop-color="#C86D36"/>
<stop offset="1" stop-color="#883F2E"/>
</linearGradient>
<linearGradient id="paint5_linear_139_13731" x1="29.1165" y1="24.3844" x2="29.1165" y2="29.7499" gradientUnits="userSpaceOnUse">
<stop stop-color="#883F2E" stop-opacity="0"/>
<stop offset="1" stop-color="#6D3326"/>
</linearGradient>
<linearGradient id="paint6_linear_139_13731" x1="11.2916" y1="25.2548" x2="15.8481" y2="34.5102" gradientUnits="userSpaceOnUse">
<stop stop-color="#E6EEFF"/>
<stop offset="1" stop-color="#BAC8FA"/>
</linearGradient>
<linearGradient id="paint7_linear_139_13731" x1="14.8616" y1="25.972" x2="14.8616" y2="24.1312" gradientUnits="userSpaceOnUse">
<stop stop-color="#A7B7F1" stop-opacity="0"/>
<stop offset="1" stop-color="#A7B7F1"/>
</linearGradient>
<linearGradient id="paint8_linear_139_13731" x1="11.2538" y1="25.2193" x2="15.8583" y2="34.572" gradientUnits="userSpaceOnUse">
<stop stop-color="#5A5A5A"/>
<stop offset="1" stop-color="#444444"/>
</linearGradient>
<linearGradient id="paint9_linear_139_13731" x1="24.8302" y1="32.1496" x2="20.1779" y2="29.7035" gradientUnits="userSpaceOnUse">
<stop stop-color="#433F43" stop-opacity="0"/>
<stop offset="1" stop-color="#1A1A1A"/>
</linearGradient>
<linearGradient id="paint10_linear_139_13731" x1="4.15726" y1="25.8735" x2="10.0927" y2="28.1757" gradientUnits="userSpaceOnUse">
<stop stop-color="#5A5A5A"/>
<stop offset="1" stop-color="#444444"/>
</linearGradient>
<linearGradient id="paint11_linear_139_13731" x1="17.4475" y1="28.3169" x2="22.0519" y2="31.3865" gradientUnits="userSpaceOnUse">
<stop stop-color="#5A5A5A"/>
<stop offset="1" stop-color="#444444"/>
</linearGradient>
<linearGradient id="paint12_linear_139_13731" x1="14.8618" y1="32.3277" x2="14.8618" y2="34.7907" gradientUnits="userSpaceOnUse">
<stop stop-color="#433F43" stop-opacity="0"/>
<stop offset="1" stop-color="#1A1A1A"/>
</linearGradient>
<linearGradient id="paint13_linear_139_13731" x1="14.8615" y1="22.373" x2="14.8615" y2="27.1679" gradientUnits="userSpaceOnUse">
<stop stop-color="#F1B0A2"/>
<stop offset="1" stop-color="#CA6E59"/>
</linearGradient>
<linearGradient id="paint14_linear_139_13731" x1="14.8615" y1="26.8598" x2="14.8615" y2="24.4759" gradientUnits="userSpaceOnUse">
<stop stop-color="#CA6E59" stop-opacity="0"/>
<stop offset="1" stop-color="#883F2E"/>
</linearGradient>
<linearGradient id="paint15_linear_139_13731" x1="5.037" y1="9.32612" x2="7.41648" y2="11.7056" gradientUnits="userSpaceOnUse">
<stop stop-color="#F1B0A2"/>
<stop offset="1" stop-color="#CA6E59"/>
</linearGradient>
<linearGradient id="paint16_linear_139_13731" x1="21.6755" y1="8.87407" x2="25.0052" y2="12.2038" gradientUnits="userSpaceOnUse">
<stop stop-color="#F1B0A2"/>
<stop offset="1" stop-color="#CA6E59"/>
</linearGradient>
<linearGradient id="paint17_linear_139_13731" x1="6.30371" y1="10.7516" x2="23.4185" y2="10.7516" gradientUnits="userSpaceOnUse">
<stop stop-color="#F1B0A2"/>
<stop offset="1" stop-color="#CA6E59"/>
</linearGradient>
<linearGradient id="paint18_linear_139_13731" x1="9.08984" y1="11.2473" x2="11.9396" y2="11.2473" gradientUnits="userSpaceOnUse">
<stop stop-color="#5A5A5A"/>
<stop offset="1" stop-color="#444444"/>
</linearGradient>
<linearGradient id="paint19_linear_139_13731" x1="17.7828" y1="11.2473" x2="20.6326" y2="11.2473" gradientUnits="userSpaceOnUse">
<stop stop-color="#5A5A5A"/>
<stop offset="1" stop-color="#444444"/>
</linearGradient>
<linearGradient id="paint20_linear_139_13731" x1="14.8613" y1="12.318" x2="14.8613" y2="15.6755" gradientUnits="userSpaceOnUse">
<stop stop-color="#CA6E59" stop-opacity="0"/>
<stop offset="1" stop-color="#883F2E"/>
</linearGradient>
<linearGradient id="paint21_linear_139_13731" x1="12.5887" y1="14.396" x2="19.999" y2="21.2307" gradientUnits="userSpaceOnUse">
<stop stop-color="#B4D2E2"/>
<stop offset="1" stop-color="#7BACDF"/>
</linearGradient>
<linearGradient id="paint22_linear_139_13731" x1="14.8729" y1="21.1736" x2="14.8729" y2="25.6434" gradientUnits="userSpaceOnUse">
<stop stop-color="#7BACDF" stop-opacity="0"/>
<stop offset="1" stop-color="#017297"/>
</linearGradient>
<linearGradient id="paint23_linear_139_13731" x1="5.43371" y1="29.8839" x2="10.5808" y2="35.0311" gradientUnits="userSpaceOnUse">
<stop stop-color="#D9B1EE"/>
<stop offset="1" stop-color="#814AA0"/>
</linearGradient>
<linearGradient id="paint24_linear_139_13731" x1="7.92529" y1="34.8241" x2="7.92529" y2="37.8754" gradientUnits="userSpaceOnUse">
<stop stop-color="#5B3374" stop-opacity="0"/>
<stop offset="1" stop-color="#5B3374"/>
</linearGradient>
<linearGradient id="paint25_linear_139_13731" x1="4.86099" y1="40.163" x2="12.6865" y2="48.6998" gradientUnits="userSpaceOnUse">
<stop stop-color="#D9B1EE"/>
<stop offset="1" stop-color="#814AA0"/>
</linearGradient>
<linearGradient id="paint26_linear_139_13731" x1="21.5084" y1="29.8839" x2="26.6555" y2="35.0311" gradientUnits="userSpaceOnUse">
<stop stop-color="#FEE45A"/>
<stop offset="1" stop-color="#FEA613"/>
</linearGradient>
<linearGradient id="paint27_linear_139_13731" x1="24" y1="34.8241" x2="24" y2="37.8754" gradientUnits="userSpaceOnUse">
<stop stop-color="#FE7701" stop-opacity="0"/>
<stop offset="0.1854" stop-color="#F87204" stop-opacity="0.185"/>
<stop offset="0.4314" stop-color="#E7630C" stop-opacity="0.431"/>
<stop offset="0.7114" stop-color="#CB4B19" stop-opacity="0.711"/>
<stop offset="1" stop-color="#A72B2B"/>
</linearGradient>
<linearGradient id="paint28_linear_139_13731" x1="20.9357" y1="40.163" x2="28.7612" y2="48.6998" gradientUnits="userSpaceOnUse">
<stop stop-color="#FEE45A"/>
<stop offset="1" stop-color="#FEA613"/>
</linearGradient>
<linearGradient id="paint29_linear_139_13731" x1="37.5826" y1="29.8839" x2="42.7297" y2="35.0311" gradientUnits="userSpaceOnUse">
<stop stop-color="#8AC9FE"/>
<stop offset="1" stop-color="#0593FC"/>
</linearGradient>
<linearGradient id="paint30_linear_139_13731" x1="40.0742" y1="34.8241" x2="40.0742" y2="37.8754" gradientUnits="userSpaceOnUse">
<stop stop-color="#2740B0" stop-opacity="0"/>
<stop offset="0.9786" stop-color="#192A7E" stop-opacity="0.979"/>
<stop offset="1" stop-color="#192A7D"/>
</linearGradient>
<linearGradient id="paint31_linear_139_13731" x1="37.0099" y1="40.163" x2="44.8354" y2="48.6998" gradientUnits="userSpaceOnUse">
<stop stop-color="#8AC9FE"/>
<stop offset="1" stop-color="#0593FC"/>
</linearGradient>
<clipPath id="clip0_139_13731">
<rect width="48" height="48" fill="white"/>
</clipPath>
</defs>
</svg>
