<svg width="48" height="48" viewBox="0 0 48 48" fill="none" xmlns="http://www.w3.org/2000/svg">
<g opacity="0.3" clip-path="url(#clip0_139_13883)">
<path d="M24 30.6993C30.3371 30.6993 35.4742 25.5621 35.4742 19.2251C35.4742 12.8881 30.3371 7.75098 24 7.75098C17.663 7.75098 12.5259 12.8881 12.5259 19.2251C12.5259 25.5621 17.663 30.6993 24 30.6993Z" fill="url(#paint0_linear_139_13883)"/>
<path d="M24 30.6993C30.3371 30.6993 35.4742 25.5621 35.4742 19.2251C35.4742 12.8881 30.3371 7.75098 24 7.75098C17.663 7.75098 12.5259 12.8881 12.5259 19.2251C12.5259 25.5621 17.663 30.6993 24 30.6993Z" fill="url(#paint1_linear_139_13883)"/>
<path d="M24 30.6993C30.3371 30.6993 35.4742 25.562 35.4742 19.2251H12.5259C12.5259 25.5621 17.663 30.6993 24 30.6993Z" fill="url(#paint2_linear_139_13883)"/>
<path d="M29.2103 6.60572C28.3337 6.24375 27.9164 5.2397 28.2784 4.36309L29.6411 1.06238C30.0031 0.185769 31.0071 -0.231549 31.8837 0.130428C32.7604 0.49231 33.1777 1.49645 32.8157 2.37306L31.453 5.67377C31.091 6.55038 30.0869 6.9677 29.2103 6.60572Z" fill="url(#paint3_linear_139_13883)"/>
<path d="M16.1166 38.3201C15.24 37.9581 14.8227 36.9541 15.1846 36.0774L16.5474 32.7767C16.9093 31.9001 17.9134 31.4828 18.79 31.8448C19.6666 32.2067 20.0839 33.2108 19.7219 34.0874L18.3592 37.3881C17.9972 38.2647 16.9932 38.6821 16.1166 38.3201Z" fill="url(#paint4_linear_139_13883)"/>
<path d="M36.6196 24.4354C36.9816 23.5588 37.9857 23.1415 38.8623 23.5035L42.163 24.8662C43.0396 25.2282 43.4569 26.2322 43.0949 27.1088C42.7331 27.9855 41.7289 28.4028 40.8523 28.0408L37.5516 26.6781C36.675 26.3161 36.2578 25.312 36.6196 24.4354Z" fill="url(#paint5_linear_139_13883)"/>
<path d="M4.90529 11.3417C5.26727 10.4651 6.27131 10.0477 7.14793 10.4097L10.4486 11.7725C11.3252 12.1344 11.7426 13.1385 11.3806 14.0151C11.0187 14.8917 10.0146 15.309 9.13795 14.947L5.83724 13.5843C4.96063 13.2224 4.54341 12.2184 4.90529 11.3417Z" fill="url(#paint6_linear_139_13883)"/>
<path d="M36.6075 13.9858C36.2436 13.1101 36.6585 12.105 37.5343 11.741L40.8318 10.3707C41.7076 10.0067 42.7126 10.4217 43.0766 11.2975C43.4405 12.1732 43.0256 13.1783 42.1498 13.5423L38.8523 14.9126C37.9765 15.2766 36.9715 14.8617 36.6075 13.9858Z" fill="url(#paint7_linear_139_13883)"/>
<path d="M4.92343 27.1528C4.55947 26.2771 4.97444 25.272 5.8502 24.908L9.14771 23.5377C10.0235 23.1737 11.0286 23.5887 11.3925 24.4645C11.7565 25.3402 11.3415 26.3453 10.4657 26.7093L7.16823 28.0796C6.29237 28.4436 5.28738 28.0286 4.92343 27.1528Z" fill="url(#paint8_linear_139_13883)"/>
<path d="M29.2394 31.8326C30.1152 31.4687 31.1202 31.8836 31.4842 32.7594L32.8545 36.0569C33.2185 36.9327 32.8035 37.9377 31.9277 38.3017C31.052 38.6656 30.0469 38.2507 29.6829 37.3749L28.3126 34.0774C27.9486 33.2015 28.3636 32.1966 29.2394 31.8326Z" fill="url(#paint9_linear_139_13883)"/>
<path d="M16.0724 0.148524C16.9481 -0.215429 17.9532 0.199535 18.3172 1.0753L19.6875 4.37281C20.0515 5.24857 19.6365 6.25365 18.7607 6.61761C17.885 6.98156 16.8799 6.56659 16.5159 5.69083L15.1456 2.39332C14.7816 1.51756 15.1966 0.512477 16.0724 0.148524Z" fill="url(#paint10_linear_139_13883)"/>
<path d="M18.6417 33.085C18.6407 33.085 18.6397 33.085 18.6387 33.085C18.4747 33.0851 18.3394 33.2168 18.3394 33.3765V33.3794C18.3394 35.839 20.3869 37.8329 22.9126 37.8329H22.9155C23.0796 37.8328 23.2148 37.7011 23.2149 37.5413C23.2149 37.5404 23.2149 37.5395 23.2149 37.5384C23.2149 35.0789 21.1674 33.085 18.6417 33.085Z" fill="url(#paint11_linear_139_13883)"/>
<path d="M19.437 33.1533V36.2721C20.2758 37.2269 21.5212 37.8328 22.9127 37.8328H22.9156C23.0796 37.8327 23.2149 37.7009 23.215 37.5412C23.215 37.5402 23.215 37.5393 23.215 37.5383C23.215 35.3431 21.5835 33.5201 19.437 33.1533Z" fill="url(#paint12_linear_139_13883)"/>
<path d="M23.0714 38.5066H25.3367V34.4329C25.3367 32.376 26.1376 30.4424 27.592 28.9881L29.0372 27.5428L27.4353 25.9409L25.9902 27.3862C24.1079 29.2684 23.0713 31.7708 23.0713 34.4328L23.0714 38.5066Z" fill="url(#paint13_linear_139_13883)"/>
<path d="M33.7885 22.5661C33.7166 21.8263 33.1349 21.2445 32.3951 21.1727C30.3726 20.9762 28.2 21.7125 26.5608 23.3518C24.9215 24.991 24.1852 27.1636 24.3817 29.1861C24.4536 29.9259 25.0353 30.5077 25.7751 30.5795C27.7976 30.776 29.9702 30.0397 31.6094 28.4003C33.2486 26.7612 33.985 24.5885 33.7885 22.5661Z" fill="url(#paint14_linear_139_13883)"/>
<path d="M24.8276 30.1332C25.0745 30.3801 25.405 30.5435 25.7748 30.5794C27.7973 30.7758 29.9699 30.0395 31.6092 28.4002C33.2484 26.761 33.9848 24.5883 33.7884 22.5659C33.7524 22.196 33.589 21.8655 33.3421 21.6187L24.8276 30.1332Z" fill="url(#paint15_linear_139_13883)"/>
<path d="M31.1942 28.7858C31.3358 28.6633 31.4745 28.5353 31.6093 28.4005C33.2485 26.7613 33.9849 24.5887 33.7885 22.5662C33.7166 21.8264 33.1348 21.2446 32.395 21.1727C30.3725 20.9762 28.1999 21.7125 26.5606 23.3518C26.4258 23.4865 26.2978 23.6252 26.1753 23.7668V28.7857L31.1942 28.7858Z" fill="url(#paint16_linear_139_13883)"/>
<path d="M29.1837 25.7773H33.3301C33.7371 24.7315 33.8915 23.6282 33.7884 22.5661C33.7165 21.8264 33.1347 21.2445 32.3949 21.1726C31.3329 21.0695 30.2295 21.2239 29.1836 21.6309V25.7773H29.1837Z" fill="url(#paint17_linear_139_13883)"/>
<path d="M25.435 41.4701H22.5299V36.2458C22.5299 33.6081 21.5028 31.1283 19.6375 29.2632L17.7842 27.4098L19.8385 25.3555L21.6919 27.2089C24.1058 29.6227 25.4351 32.832 25.4351 36.2458V41.4701H25.435Z" fill="url(#paint18_linear_139_13883)"/>
<path d="M21.6919 27.2089L19.8385 25.3555L17.7842 27.4098L19.6375 29.2632C21.1347 30.7602 22.0912 32.6534 22.4107 34.7063H25.3434C25.0056 31.8754 23.739 29.256 21.6919 27.2089Z" fill="url(#paint19_linear_139_13883)"/>
<path d="M14.3749 20.6323C13.5262 20.7148 12.8588 21.3822 12.7764 22.2308C12.551 24.5509 13.3957 27.0432 15.2761 28.9237C17.1566 30.8042 19.649 31.6489 21.9691 31.4236C22.8178 31.3411 23.4852 30.6737 23.5676 29.8251C23.793 27.505 22.9482 25.0127 21.0678 23.1322C19.1873 21.2517 16.695 20.4069 14.3749 20.6323Z" fill="url(#paint20_linear_139_13883)"/>
<path d="M23.0555 30.9116C23.3388 30.6284 23.5262 30.2494 23.5674 29.8251C23.7928 27.505 22.948 25.0126 21.0676 23.1322C19.1871 21.2517 16.6948 20.407 14.3747 20.6323C13.9503 20.6735 13.5713 20.861 13.2881 21.1442L23.0555 30.9116Z" fill="url(#paint21_linear_139_13883)"/>
<path d="M21.5098 23.6083C21.3693 23.4459 21.2224 23.2868 21.0678 23.1322C19.1873 21.2517 16.695 20.407 14.3749 20.6323C13.5262 20.7148 12.8588 21.3821 12.7764 22.2308C12.551 24.5509 13.3958 27.0432 15.2762 28.9237C15.4309 29.0783 15.5899 29.2252 15.7524 29.3658H21.5099L21.5098 23.6083Z" fill="url(#paint22_linear_139_13883)"/>
<path d="M18.0586 25.9146V21.158C16.8587 20.6912 15.5931 20.5139 14.3748 20.6322C13.5261 20.7147 12.8587 21.3821 12.7763 22.2307C12.658 23.4491 12.8351 24.7148 13.302 25.9146H18.0586Z" fill="url(#paint23_linear_139_13883)"/>
<path d="M33.8037 35.6113H33.806C33.9297 35.6114 34.0319 35.7108 34.032 35.8314V35.8335C34.032 37.69 32.4865 39.1949 30.5803 39.1949C30.5795 39.1949 30.5788 39.1949 30.578 39.1949C30.4543 39.1948 30.3521 39.0954 30.3521 38.9748C30.3521 38.9741 30.3521 38.9734 30.3521 38.9726C30.3521 37.1163 31.8975 35.6113 33.8037 35.6113Z" fill="url(#paint24_linear_139_13883)"/>
<path d="M33.2035 35.6631V38.0171C32.5705 38.7377 31.6304 39.195 30.5803 39.195C30.5795 39.195 30.5788 39.195 30.578 39.195C30.4543 39.1949 30.3521 39.0956 30.3521 38.975C30.3521 38.9742 30.3521 38.9736 30.3521 38.9728C30.3521 37.3159 31.5835 35.94 33.2035 35.6631Z" fill="url(#paint25_linear_139_13883)"/>
<path d="M28.364 35.4294C28.738 35.0554 29.3443 35.0554 29.7183 35.4294L30.5784 36.2896C31.2527 36.9638 31.6239 37.8603 31.6239 38.8139C31.6239 39.3428 31.195 39.7715 30.6661 39.7715C30.1373 39.7715 29.7085 39.3427 29.7086 38.8137C29.7086 38.3718 29.5365 37.9564 29.224 37.6439L28.3639 36.7838C27.9901 36.4098 27.99 35.8035 28.364 35.4294Z" fill="url(#paint26_linear_139_13883)"/>
<path d="M26.7936 32.6326C26.4195 32.2585 25.8132 32.2585 25.4393 32.6326L24.5791 33.4927C23.9049 34.167 23.5336 35.0634 23.5337 36.017C23.5337 36.5459 23.9625 36.9746 24.4914 36.9746C25.0203 36.9746 25.4491 36.5458 25.449 36.0169C25.449 35.575 25.621 35.1595 25.9335 34.8471L26.7936 33.9869C27.1676 33.6129 27.1676 33.0066 26.7936 32.6326Z" fill="url(#paint27_linear_139_13883)"/>
<path d="M35.9042 42.9219C35.9038 42.7711 35.8784 42.6072 35.8321 42.444C35.097 39.8499 31.9183 37.8984 28.1084 37.8984C24.2985 37.8984 21.1197 39.8499 20.3847 42.444C20.3385 42.6072 20.313 42.7711 20.3126 42.9219H20.3125V43.6429C20.3125 44.8061 20.5776 45.7491 20.9047 45.7491H35.3122C35.6393 45.7491 35.9044 44.8061 35.9044 43.6429V42.9219H35.9042Z" fill="url(#paint28_linear_139_13883)"/>
<path d="M29.929 38.0514C29.3445 37.9516 28.7351 37.8984 28.1084 37.8984C24.2985 37.8984 21.1197 39.8499 20.3847 42.444C20.3385 42.6072 20.313 42.7711 20.3126 42.9219L20.3125 43.6429C20.3125 44.8061 20.5776 45.7491 20.9047 45.7491H29.9291V38.0514H29.929Z" fill="url(#paint29_linear_139_13883)"/>
<path d="M26.5127 42.4567C26.5123 42.2811 26.4889 42.0903 26.446 41.9003C25.7663 38.8794 22.8272 36.6069 19.3045 36.6069C15.7817 36.6069 12.8426 38.8794 12.1629 41.9003C12.1202 42.0903 12.0967 42.2811 12.0963 42.4567L12.0962 43.2963C12.0962 44.6509 12.3414 45.749 12.6437 45.749H25.9652C26.2676 45.749 26.5127 44.6509 26.5127 43.2963V42.4567Z" fill="url(#paint30_linear_139_13883)"/>
<path d="M12.1629 41.9004C12.1202 42.0904 12.0967 42.2812 12.0963 42.4568H12.0962V43.2964C12.0962 44.651 12.3414 45.749 12.6437 45.749H35.3118C35.6389 45.749 35.904 44.8061 35.904 43.6429V42.9218H35.9039C35.9035 42.7711 35.8781 42.6072 35.8318 42.444C35.7679 42.2186 35.6852 41.9981 35.5856 41.7832H12.1908C12.1812 41.8223 12.1718 41.8612 12.1629 41.9004Z" fill="url(#paint31_linear_139_13883)"/>
<path d="M47.9996 45.5526C47.9985 45.4221 47.9202 45.2804 47.7778 45.1391C45.5146 42.8937 35.7288 41.2046 24 41.2046C12.2712 41.2046 2.48536 42.8936 0.222212 45.1391C0.0798118 45.2804 0.00150588 45.4221 0.000376471 45.5526H0V46.1767C0 47.1835 0.816188 47.9997 1.82296 47.9997H46.177C47.1838 47.9997 48 47.1835 48 46.1767V45.5526H47.9996Z" fill="url(#paint32_linear_139_13883)"/>
</g>
<defs>
<linearGradient id="paint0_linear_139_13883" x1="19.2708" y1="14.496" x2="36.8399" y2="32.065" gradientUnits="userSpaceOnUse">
<stop stop-color="#FEE97D"/>
<stop offset="1" stop-color="#FAC600"/>
</linearGradient>
<linearGradient id="paint1_linear_139_13883" x1="18.8494" y1="14.0745" x2="32.1261" y2="27.3512" gradientUnits="userSpaceOnUse">
<stop stop-color="#FAC600" stop-opacity="0"/>
<stop offset="0.6899" stop-color="#D68C3D" stop-opacity="0.69"/>
<stop offset="1" stop-color="#C5715A"/>
</linearGradient>
<linearGradient id="paint2_linear_139_13883" x1="24" y1="20.7369" x2="24" y2="31.9216" gradientUnits="userSpaceOnUse">
<stop stop-color="#FAC600" stop-opacity="0"/>
<stop offset="0.6899" stop-color="#D68C3D" stop-opacity="0.69"/>
<stop offset="1" stop-color="#C5715A"/>
</linearGradient>
<linearGradient id="paint3_linear_139_13883" x1="28.9845" y1="2.76094" x2="33.3915" y2="4.58289" gradientUnits="userSpaceOnUse">
<stop stop-color="#FEE97D"/>
<stop offset="1" stop-color="#FAC600"/>
</linearGradient>
<linearGradient id="paint4_linear_139_13883" x1="15.8777" y1="34.4643" x2="20.2847" y2="36.2862" gradientUnits="userSpaceOnUse">
<stop stop-color="#FEE97D"/>
<stop offset="1" stop-color="#FAC600"/>
</linearGradient>
<linearGradient id="paint5_linear_139_13883" x1="40.2877" y1="24.0846" x2="38.4657" y2="28.4916" gradientUnits="userSpaceOnUse">
<stop stop-color="#FEE97D"/>
<stop offset="1" stop-color="#FAC600"/>
</linearGradient>
<linearGradient id="paint6_linear_139_13883" x1="8.58424" y1="10.9778" x2="6.76229" y2="15.3848" gradientUnits="userSpaceOnUse">
<stop stop-color="#FEE97D"/>
<stop offset="1" stop-color="#FAC600"/>
</linearGradient>
<linearGradient id="paint7_linear_139_13883" x1="39.4829" y1="11.1347" x2="41.3143" y2="15.537" gradientUnits="userSpaceOnUse">
<stop stop-color="#FEE97D"/>
<stop offset="1" stop-color="#FAC600"/>
</linearGradient>
<linearGradient id="paint8_linear_139_13883" x1="7.8138" y1="24.3103" x2="9.64529" y2="28.7126" gradientUnits="userSpaceOnUse">
<stop stop-color="#FEE97D"/>
<stop offset="1" stop-color="#FAC600"/>
</linearGradient>
<linearGradient id="paint9_linear_139_13883" x1="32.297" y1="34.6325" x2="27.8947" y2="36.464" gradientUnits="userSpaceOnUse">
<stop stop-color="#FEE97D"/>
<stop offset="1" stop-color="#FAC600"/>
</linearGradient>
<linearGradient id="paint10_linear_139_13883" x1="19.1214" y1="2.96357" x2="14.7192" y2="4.79506" gradientUnits="userSpaceOnUse">
<stop stop-color="#FEE97D"/>
<stop offset="1" stop-color="#FAC600"/>
</linearGradient>
<linearGradient id="paint11_linear_139_13883" x1="16.8244" y1="31.5063" x2="21.4519" y2="36.1338" gradientUnits="userSpaceOnUse">
<stop stop-color="#A2E62E"/>
<stop offset="0.1231" stop-color="#97DE30"/>
<stop offset="0.3395" stop-color="#79CB36"/>
<stop offset="0.6234" stop-color="#4AAB3F"/>
<stop offset="0.9609" stop-color="#09804C"/>
<stop offset="1" stop-color="#017B4E"/>
</linearGradient>
<linearGradient id="paint12_linear_139_13883" x1="20.7185" y1="35.397" x2="22.4607" y2="37.2222" gradientUnits="userSpaceOnUse">
<stop stop-color="#017B4E" stop-opacity="0"/>
<stop offset="1" stop-color="#026841"/>
</linearGradient>
<linearGradient id="paint13_linear_139_13883" x1="21.6181" y1="28.5884" x2="24.9532" y2="31.9234" gradientUnits="userSpaceOnUse">
<stop stop-color="#A2E62E"/>
<stop offset="0.1231" stop-color="#97DE30"/>
<stop offset="0.3395" stop-color="#79CB36"/>
<stop offset="0.6234" stop-color="#4AAB3F"/>
<stop offset="0.9609" stop-color="#09804C"/>
<stop offset="1" stop-color="#017B4E"/>
</linearGradient>
<linearGradient id="paint14_linear_139_13883" x1="22.0126" y1="18.8037" x2="30.254" y2="27.045" gradientUnits="userSpaceOnUse">
<stop stop-color="#A2E62E"/>
<stop offset="0.1231" stop-color="#97DE30"/>
<stop offset="0.3395" stop-color="#79CB36"/>
<stop offset="0.6234" stop-color="#4AAB3F"/>
<stop offset="0.9609" stop-color="#09804C"/>
<stop offset="1" stop-color="#017B4E"/>
</linearGradient>
<linearGradient id="paint15_linear_139_13883" x1="31.2363" y1="26.6792" x2="27.4016" y2="25.4009" gradientUnits="userSpaceOnUse">
<stop stop-color="#017B4E" stop-opacity="0"/>
<stop offset="1" stop-color="#026841"/>
</linearGradient>
<linearGradient id="paint16_linear_139_13883" x1="29.4858" y1="25.4062" x2="25.0441" y2="29.8479" gradientUnits="userSpaceOnUse">
<stop stop-color="#017B4E" stop-opacity="0"/>
<stop offset="1" stop-color="#026841"/>
</linearGradient>
<linearGradient id="paint17_linear_139_13883" x1="33.698" y1="21.1939" x2="27.8571" y2="27.0348" gradientUnits="userSpaceOnUse">
<stop stop-color="#017B4E" stop-opacity="0"/>
<stop offset="0.4829" stop-color="#01754A" stop-opacity="0.483"/>
<stop offset="1" stop-color="#026841"/>
</linearGradient>
<linearGradient id="paint18_linear_139_13883" x1="21.4789" y1="33.4128" x2="25.5097" y2="33.4128" gradientUnits="userSpaceOnUse">
<stop stop-color="#A2E62E"/>
<stop offset="0.1231" stop-color="#97DE30"/>
<stop offset="0.3395" stop-color="#79CB36"/>
<stop offset="0.6234" stop-color="#4AAB3F"/>
<stop offset="0.9609" stop-color="#09804C"/>
<stop offset="1" stop-color="#017B4E"/>
</linearGradient>
<linearGradient id="paint19_linear_139_13883" x1="22.5395" y1="34.0995" x2="21.4332" y2="30.3007" gradientUnits="userSpaceOnUse">
<stop stop-color="#017B4E" stop-opacity="0"/>
<stop offset="1" stop-color="#026841"/>
</linearGradient>
<linearGradient id="paint20_linear_139_13883" x1="15.1343" y1="22.9903" x2="25.0563" y2="32.9122" gradientUnits="userSpaceOnUse">
<stop stop-color="#A2E62E"/>
<stop offset="0.1231" stop-color="#97DE30"/>
<stop offset="0.3395" stop-color="#79CB36"/>
<stop offset="0.6234" stop-color="#4AAB3F"/>
<stop offset="0.9609" stop-color="#09804C"/>
<stop offset="1" stop-color="#017B4E"/>
</linearGradient>
<linearGradient id="paint21_linear_139_13883" x1="20.3894" y1="23.8506" x2="15.6305" y2="28.6096" gradientUnits="userSpaceOnUse">
<stop stop-color="#017B4E" stop-opacity="0"/>
<stop offset="1" stop-color="#026841"/>
</linearGradient>
<linearGradient id="paint22_linear_139_13883" x1="19.4491" y1="27.2646" x2="24.5445" y2="32.3599" gradientUnits="userSpaceOnUse">
<stop stop-color="#017B4E" stop-opacity="0"/>
<stop offset="1" stop-color="#026841"/>
</linearGradient>
<linearGradient id="paint23_linear_139_13883" x1="15.5055" y1="23.3209" x2="22.2059" y2="30.0213" gradientUnits="userSpaceOnUse">
<stop stop-color="#017B4E" stop-opacity="0"/>
<stop offset="0.4829" stop-color="#01754A" stop-opacity="0.483"/>
<stop offset="1" stop-color="#026841"/>
</linearGradient>
<linearGradient id="paint24_linear_139_13883" x1="32.192" y1="36.2664" x2="32.192" y2="39.5624" gradientUnits="userSpaceOnUse">
<stop stop-color="#A2E62E"/>
<stop offset="0.1231" stop-color="#97DE30"/>
<stop offset="0.3395" stop-color="#79CB36"/>
<stop offset="0.6234" stop-color="#4AAB3F"/>
<stop offset="0.9609" stop-color="#09804C"/>
<stop offset="1" stop-color="#017B4E"/>
</linearGradient>
<linearGradient id="paint25_linear_139_13883" x1="32.3702" y1="37.4291" x2="30.9596" y2="37.4291" gradientUnits="userSpaceOnUse">
<stop stop-color="#017B4E" stop-opacity="0"/>
<stop offset="0.4829" stop-color="#01754A" stop-opacity="0.483"/>
<stop offset="1" stop-color="#026841"/>
</linearGradient>
<linearGradient id="paint26_linear_139_13883" x1="31.0633" y1="36.2904" x2="29.1639" y2="38.1272" gradientUnits="userSpaceOnUse">
<stop stop-color="#A2E62E"/>
<stop offset="0.172" stop-color="#8CD732"/>
<stop offset="0.5306" stop-color="#53B23D"/>
<stop offset="1" stop-color="#017B4E"/>
</linearGradient>
<linearGradient id="paint27_linear_139_13883" x1="24.0944" y1="33.4937" x2="25.9936" y2="35.3304" gradientUnits="userSpaceOnUse">
<stop stop-color="#A2E62E"/>
<stop offset="0.172" stop-color="#8CD732"/>
<stop offset="0.5306" stop-color="#53B23D"/>
<stop offset="1" stop-color="#017B4E"/>
</linearGradient>
<linearGradient id="paint28_linear_139_13883" x1="28.1085" y1="39.3335" x2="28.1085" y2="48.3103" gradientUnits="userSpaceOnUse">
<stop stop-color="#C5715A"/>
<stop offset="1" stop-color="#883F2E"/>
</linearGradient>
<linearGradient id="paint29_linear_139_13883" x1="28.5157" y1="41.6611" x2="23.3091" y2="43.5723" gradientUnits="userSpaceOnUse">
<stop stop-color="#883F2E" stop-opacity="0"/>
<stop offset="1" stop-color="#6D3326"/>
</linearGradient>
<linearGradient id="paint30_linear_139_13883" x1="19.3046" y1="38.2781" x2="19.3046" y2="48.7315" gradientUnits="userSpaceOnUse">
<stop stop-color="#C5715A"/>
<stop offset="1" stop-color="#883F2E"/>
</linearGradient>
<linearGradient id="paint31_linear_139_13883" x1="24.0001" y1="43.5783" x2="24.0001" y2="45.8758" gradientUnits="userSpaceOnUse">
<stop stop-color="#883F2E" stop-opacity="0"/>
<stop offset="1" stop-color="#6D3326"/>
</linearGradient>
<linearGradient id="paint32_linear_139_13883" x1="24" y1="42.4468" x2="24" y2="50.2166" gradientUnits="userSpaceOnUse">
<stop stop-color="#A2E62E"/>
<stop offset="0.1231" stop-color="#97DE30"/>
<stop offset="0.3395" stop-color="#79CB36"/>
<stop offset="0.6234" stop-color="#4AAB3F"/>
<stop offset="0.9609" stop-color="#09804C"/>
<stop offset="1" stop-color="#017B4E"/>
</linearGradient>
<clipPath id="clip0_139_13883">
<rect width="48" height="48" fill="white"/>
</clipPath>
</defs>
</svg>
