<svg width="360" height="361" viewBox="0 0 360 361" fill="none" xmlns="http://www.w3.org/2000/svg">
<path d="M215.046 343.066C208.937 341.756 209.387 331.898 209.307 327.329C209.217 322.51 208.037 315.531 211.456 311.672C213.596 309.262 217.045 308.572 220.245 308.192C237.931 306.113 258.368 310.702 267.076 327.939C267.856 329.489 268.466 331.478 267.426 332.878C266.186 334.538 263.627 334.128 261.627 333.538C257.468 332.318 253.319 331.098 249.159 329.878C249.009 332.858 248.83 335.947 247.4 338.557C245.98 341.176 242.921 343.156 240.051 342.356C236.272 341.306 234.612 336.197 230.763 335.438C224.794 334.258 220.985 344.336 215.036 343.066H215.046Z" fill="#FFCE08"/>
<path d="M111.024 335.927C109.794 334.198 109.265 331.548 107.195 331.118C106.155 330.898 105.105 331.378 104.176 331.878C101.176 333.488 94.6073 340.456 91.9777 334.677C90.818 332.138 92.7476 328.729 91.0379 326.519C90.328 325.609 89.1483 325.179 88.0085 325.039C85.4589 324.749 82.9494 325.709 80.5398 326.629C78.1403 327.549 75.6007 328.459 73.0612 328.059C70.5217 327.659 68.0821 325.459 68.352 322.9C68.472 321.76 69.1119 320.74 69.7818 319.81C77.8903 308.652 92.1477 302.613 105.655 302.723C109.125 302.753 112.654 303.083 115.853 304.403C121.442 306.713 125.232 312.022 129.041 316.481C129.361 316.851 129.681 317.231 129.871 317.681C130.081 318.18 130.111 318.73 130.121 319.27C130.241 325.139 127.331 330.138 123.452 334.387C120.023 338.147 114.734 341.126 111.024 335.937V335.927Z" fill="#FFCE08"/>
<path d="M304.779 132.445C305.209 133.895 305.659 135.384 306.579 136.584C307.749 138.104 309.538 139.004 311.298 139.774C318.937 143.133 327.145 145.163 335.464 145.752C339.513 146.042 343.672 146.002 347.481 147.402C351.291 148.792 354.78 152.041 354.99 156.101C355.15 159.25 353.36 162.14 351.451 164.659C342.672 176.257 329.985 184.845 315.947 188.675C315.797 188.715 322.606 230.507 322.666 235.456C322.896 251.683 320.926 268.5 312.478 282.698C296.941 308.803 267.416 318.671 238.741 321.87C206.497 325.47 172.133 324.53 139.799 323.15C125.862 322.55 111.934 321.071 98.3168 317.971C83.2895 314.552 68.4822 309.043 56.2345 299.685C31.6889 280.928 28.7195 254.353 31.9089 225.658C32.3588 221.649 41.7971 177.807 43.2168 178.497C32.9587 173.517 23.5404 166.799 15.4919 158.73C11.6826 154.911 3.97399 146.792 5.11378 140.663C6.1036 135.314 13.0523 135.084 17.5815 135.014C30.2592 134.804 42.9169 133.155 55.2247 130.115C56.6344 129.765 58.0941 129.376 59.2339 128.476C60.4337 127.526 61.1636 126.116 61.8534 124.756C64.8129 118.917 67.7724 114.038 70.7418 108.209C86.209 77.7449 103.206 48.3103 132.101 30.0936C137.57 26.6442 144.743 23.4824 150.992 21.8227C157.221 20.163 173.711 18.333 180.15 18.5829C193.957 19.1128 200.834 18.5829 214.503 21.0808C220.721 21.8227 236.167 27.0609 242.276 31.3823C259.107 43.2872 261.232 42.1506 275.223 62.8103C288.03 81.7198 298.43 111.009 304.789 132.455L304.779 132.445Z" fill="#3A6AE2"/>
<path d="M67.1127 183.335C71.062 168.648 75.4612 154.09 80.3003 139.673C85.3694 124.566 90.6485 109.939 96.4674 95.0912C101.896 81.2537 108.825 67.6162 119.693 57.2281C124.892 52.259 130.931 47.8398 137.91 46.1001C145.558 44.1905 151.407 46.72 158.106 50.0194C164.425 53.1288 167.544 59.3177 169.994 65.7166C174.103 76.4146 175.949 87.4706 178.619 98.4686C182.333 98.4686 184.099 98.8292 187.489 98.8292C187.679 92.2204 191.37 84.3932 194.3 78.4842C197.769 71.4755 202.268 64.9667 207.617 59.2577C216.006 50.3093 230.333 46.2801 242.011 50.5893C249.11 53.2088 254.979 58.5179 259.338 64.7067C263.697 70.8956 266.646 77.9443 269.196 85.073C272.615 94.6213 275.355 104.829 277.494 114.908C278.544 119.847 278.964 125.206 280.584 129.965C282.194 134.694 283.583 139.463 284.773 144.372C289.942 165.718 293.432 187.484 295.191 209.38C295.491 213.1 295.741 216.829 295.941 220.558C297.121 242.574 295.411 267.37 279.094 282.187C263.647 296.205 239.671 299.534 219.715 301.074C186.301 303.663 154.697 304.093 121.333 298.124C90.4185 292.585 65.833 276.058 60.5639 243.054C57.3845 223.128 61.8737 202.832 67.1127 183.345V183.335Z" fill="white"/>
<path d="M191.52 114.438C187.101 117.877 182.322 120.007 177.463 115.788C174.693 113.378 172.224 110.609 170.144 107.579C169.544 106.709 168.964 105.779 168.764 104.74C166.915 95.3613 188.451 98.4507 192.72 99.6705C198.869 101.43 200.169 105.459 195.959 110.439C195.219 111.308 194.36 112.058 193.49 112.808C192.84 113.368 192.19 113.918 191.53 114.428L191.52 114.438Z" fill="#FFCE08"/>
<path d="M126.711 130.175C133.431 130.175 138.879 125.941 138.879 120.717C138.879 115.494 133.431 111.259 126.711 111.259C119.991 111.259 114.543 115.494 114.543 120.717C114.543 125.941 119.991 130.175 126.711 130.175Z" fill="#F6C1C1"/>
<path d="M238.95 130.175C245.671 130.175 251.118 125.941 251.118 120.717C251.118 115.494 245.671 111.259 238.95 111.259C232.23 111.259 226.783 115.494 226.783 120.717C226.783 125.941 232.23 130.175 238.95 130.175Z" fill="#F6C1C1"/>
<path d="M133.32 86.0338C127.089 85.1175 120.345 87.8665 118.842 94.5007C118.402 96.4433 120.161 98.7158 122.324 97.9827C124.01 97.3963 125.696 96.8831 127.419 96.4066C127.565 96.4066 127.675 96.4066 127.822 96.4066C132.55 95.1604 136.252 94.7573 140.431 97.7995C141.603 98.6425 143.619 98.056 144.242 96.8098C147.578 90.1756 138.305 86.8402 133.32 86.1071V86.0338Z" fill="#0F0F10"/>
<path d="M136.993 72.0696C135.857 69.6872 132.961 69.3207 130.615 69.6139C127.866 69.9438 125.411 71.2633 123.541 73.2792C122.332 74.5987 122.882 76.6146 124.568 77.1644C125.924 77.6043 127.683 78.0441 129.296 78.0074C130.945 78.5572 133.108 78.3007 134.427 77.6776C136.516 76.7246 138.093 74.3055 137.03 72.0696H136.993Z" fill="#0F0F10"/>
<path d="M236.572 82.2946C242.803 81.3782 249.547 84.1272 251.05 90.7614C251.49 92.704 249.731 94.9765 247.568 94.2435C245.882 93.657 244.196 93.1439 242.473 92.6674C242.327 92.6674 242.217 92.6674 242.07 92.6674C237.342 91.4212 233.64 91.018 229.461 94.0602C228.289 94.9032 226.273 94.3168 225.65 93.0706C222.314 86.4363 231.587 83.1009 236.572 82.3678V82.2946Z" fill="#0F0F10"/>
<path d="M234.079 68.3665C235.216 65.9841 238.111 65.6175 240.457 65.9108C243.206 66.2406 245.662 67.5601 247.531 69.5761C248.741 70.8956 248.191 72.9115 246.505 73.4613C245.149 73.9011 243.389 74.341 241.777 74.3043C240.127 74.8541 237.965 74.5975 236.645 73.9744C234.556 73.0215 232.98 70.6024 234.043 68.3665H234.079Z" fill="#0F0F10"/>
</svg>
