<svg width="360" height="361" viewBox="0 0 360 361" fill="none" xmlns="http://www.w3.org/2000/svg">
<path d="M210.384 343.066C204.275 341.756 204.725 331.898 204.645 327.329C204.555 322.51 203.375 315.531 206.794 311.672C208.934 309.262 212.383 308.572 215.583 308.192C233.27 306.113 253.706 310.702 262.414 327.939C263.194 329.489 263.804 331.478 262.764 332.878C261.524 334.538 258.965 334.128 256.965 333.538C252.806 332.318 248.657 331.098 244.497 329.878C244.347 332.858 244.168 335.947 242.738 338.557C241.318 341.176 238.259 343.156 235.389 342.356C231.61 341.306 229.95 336.197 226.101 335.438C220.132 334.258 216.323 344.336 210.374 343.066H210.384Z" fill="#FFCE08"/>
<path d="M106.362 335.927C105.133 334.198 104.603 331.548 102.533 331.118C101.493 330.898 100.443 331.378 99.5135 331.878C96.5141 333.488 89.9453 340.456 87.3158 334.677C86.156 332.138 88.0856 328.729 86.3759 326.519C85.6661 325.609 84.4863 325.179 83.3465 325.039C80.7969 324.749 78.2874 325.709 75.8778 326.629C73.4783 327.549 70.9387 328.459 68.3992 328.059C65.8597 327.659 63.4201 325.459 63.6901 322.9C63.81 321.76 64.4499 320.74 65.1198 319.81C73.2283 308.652 87.4857 302.613 100.993 302.723C104.463 302.753 107.992 303.083 111.191 304.403C116.78 306.713 120.57 312.022 124.379 316.481C124.699 316.851 125.019 317.231 125.209 317.681C125.419 318.18 125.449 318.73 125.459 319.27C125.579 325.139 122.669 330.138 118.79 334.387C115.361 338.147 110.072 341.126 106.362 335.937V335.927Z" fill="#FFCE08"/>
<path d="M301.917 136.584C300.997 135.384 300.547 133.895 300.117 132.445L300.127 132.455C293.768 111.009 283.368 81.7196 270.562 62.8101C256.57 42.1504 254.445 43.287 237.614 31.3821C231.505 27.0607 216.059 21.8226 209.841 21.0807C196.172 18.5827 189.295 19.1126 175.488 18.5827C169.049 18.3328 152.559 20.1629 146.33 21.8226C140.081 23.4823 132.908 26.644 127.439 30.0934C98.5439 48.3101 81.547 77.7447 66.0798 108.209C65.7426 109.084 65.3629 110.011 64.583 110.538C63.624 111.181 62.7849 112.138 61.6467 111.948C53.0123 113.924 44.8169 110.046 38.4463 103.857C32.0758 97.6674 29.7031 99.7869 27.3992 102.928C26.344 104.367 26.2289 105.039 25.55 107.403C23.7575 121.215 30.61 136.565 49.6842 147.375C47.0819 150.254 28.0905 211.109 27.2469 225.658C24.0575 254.353 27.027 280.928 51.5725 299.684C63.8203 309.043 78.6276 314.552 93.6548 317.971C107.272 321.071 121.2 322.55 135.137 323.15C167.471 324.53 201.835 325.47 234.079 321.87C262.754 318.671 292.279 308.803 307.816 282.698C316.264 268.5 318.234 251.683 318.004 235.456C317.978 233.29 316.659 224.069 315.197 214.378C319.185 218.66 321.456 221.225 327.737 225.384C333.308 227.762 335.538 223.464 334.463 218.848C333.409 214.316 331.523 206.856 329.583 200.619C321.821 175.67 308.303 155.175 301.917 136.584Z" fill="#3A6AE2"/>
<path d="M62.4508 183.335C66.4 168.648 70.7992 154.09 75.6384 139.673C80.7074 124.566 85.9865 109.939 91.8054 95.0912C97.2344 81.2537 104.163 67.6162 115.031 57.2281C120.23 52.259 126.269 47.8398 133.248 46.1001C140.896 44.1905 146.745 46.72 153.444 50.0194C159.763 53.1288 162.882 59.3177 165.332 65.7166C169.441 76.4146 171.287 87.4706 173.957 98.4686C177.671 98.4686 179.437 98.8292 182.827 98.8292C183.017 92.2204 186.708 84.3932 189.638 78.4842C193.107 71.4755 197.606 64.9667 202.955 59.2577C211.344 50.3093 225.671 46.2801 237.349 50.5893C244.448 53.2088 250.317 58.5179 254.676 64.7067C259.035 70.8956 261.984 77.9443 264.534 85.073C267.953 94.6213 270.693 104.829 272.832 114.908C273.882 119.847 274.302 125.206 275.922 129.965C277.532 134.694 278.921 139.463 280.111 144.372C285.28 165.718 288.77 187.484 290.529 209.38C290.829 213.1 291.079 216.829 291.279 220.558C292.459 242.574 290.749 267.37 274.432 282.187C258.985 296.205 235.009 299.534 215.053 301.074C181.639 303.663 150.035 304.093 116.671 298.124C85.7565 292.585 61.171 276.058 55.902 243.054C52.7225 223.128 57.2117 202.832 62.4508 183.345V183.335Z" fill="white"/>
<path d="M186.858 114.438C182.439 117.877 177.66 120.007 172.801 115.788C170.031 113.378 167.562 110.609 165.482 107.579C164.882 106.709 164.302 105.779 164.102 104.74C162.253 95.3613 183.789 98.4507 188.058 99.6705C194.207 101.43 195.507 105.459 191.297 110.439C190.557 111.308 189.698 112.058 188.828 112.808C188.178 113.368 187.528 113.918 186.868 114.428L186.858 114.438Z" fill="#FFCE08"/>
<path d="M122.049 130.175C128.769 130.175 134.217 125.941 134.217 120.717C134.217 115.494 128.769 111.259 122.049 111.259C115.329 111.259 109.881 115.494 109.881 120.717C109.881 125.941 115.329 130.175 122.049 130.175Z" fill="#F6C1C1"/>
<path d="M234.289 130.175C241.009 130.175 246.456 125.941 246.456 120.717C246.456 115.494 241.009 111.259 234.289 111.259C227.568 111.259 222.121 115.494 222.121 120.717C222.121 125.941 227.568 130.175 234.289 130.175Z" fill="#F6C1C1"/>
<path d="M128.658 86.0338C122.427 85.1175 115.683 87.8665 114.18 94.5007C113.74 96.4433 115.499 98.7158 117.662 97.9827C119.348 97.3963 121.034 96.8831 122.757 96.4066C122.903 96.4066 123.013 96.4066 123.16 96.4066C127.888 95.1604 131.59 94.7573 135.769 97.7995C136.941 98.6425 138.957 98.056 139.58 96.8098C142.916 90.1756 133.643 86.8402 128.658 86.1071V86.0338Z" fill="#0F0F10"/>
<path d="M132.331 72.0696C131.195 69.6872 128.299 69.3207 125.953 69.6139C123.204 69.9438 120.749 71.2633 118.879 73.2792C117.67 74.5987 118.22 76.6146 119.906 77.1644C121.262 77.6043 123.021 78.0441 124.634 78.0074C126.283 78.5572 128.446 78.3007 129.765 77.6776C131.854 76.7246 133.431 74.3055 132.368 72.0696H132.331Z" fill="#0F0F10"/>
<path d="M231.91 82.2946C238.141 81.3782 244.885 84.1272 246.388 90.7614C246.828 92.704 245.069 94.9765 242.906 94.2435C241.22 93.657 239.534 93.1439 237.811 92.6674C237.665 92.6674 237.555 92.6674 237.408 92.6674C232.68 91.4212 228.978 91.018 224.799 94.0602C223.627 94.9032 221.611 94.3168 220.988 93.0706C217.652 86.4363 226.925 83.1009 231.91 82.3678V82.2946Z" fill="#0F0F10"/>
<path d="M229.417 68.3665C230.554 65.9841 233.449 65.6175 235.795 65.9108C238.544 66.2406 241 67.5601 242.869 69.5761C244.079 70.8956 243.529 72.9115 241.843 73.4613C240.487 73.9011 238.727 74.341 237.115 74.3043C235.465 74.8541 233.303 74.5975 231.983 73.9744C229.894 73.0215 228.318 70.6024 229.381 68.3665H229.417Z" fill="#0F0F10"/>
</svg>
