<svg width="360" height="361" viewBox="0 0 360 361" fill="none" xmlns="http://www.w3.org/2000/svg">
<path d="M104.512 326.213C111.451 322.493 118.986 314.737 112.605 306.962C110.086 303.896 106.3 302.156 102.522 300.935C92.815 297.802 82.2331 297.495 72.3335 299.955C63.8468 302.07 54.37 304.376 47.498 310.047C46.806 310.614 46.114 311.248 45.8449 312.104C45.076 314.468 47.8729 316.429 50.2853 317.025C53.1783 317.736 56.2154 317.832 59.1469 317.303C60.4636 317.063 61.9822 316.746 63.0298 317.592C63.5392 318.005 63.8275 318.62 64.1063 319.216C65.25 321.609 66.6436 323.964 68.7004 325.627C70.7669 327.299 73.6118 328.183 76.1299 327.357C78.946 326.434 81.0028 323.58 83.9535 323.31C87.1348 323.022 89.6433 325.809 92.5363 327.165C96.2943 328.923 100.85 328.174 104.502 326.213H104.512Z" fill="#FFCE08"/>
<path d="M266.317 325.915C269.191 318.755 269.758 309.739 263.568 304.444C258.551 300.147 251.526 298.379 245.019 298.936C236.148 299.705 228.016 304.203 220.866 309.499C213.023 315.304 207.42 321.696 205.113 331.24C204.69 332.989 204.786 335.075 206.132 336.266C207.496 337.478 209.64 337.295 211.283 336.497C212.927 335.709 214.282 334.431 215.858 333.508C216.541 333.114 217.348 332.778 218.107 332.999C219.597 333.441 219.722 335.44 220.02 336.968C220.549 339.678 222.653 342.033 225.296 342.85C227.94 343.667 230.996 342.927 232.966 340.986C234.052 339.919 234.792 338.564 235.725 337.362C237.224 335.44 239.194 333.95 241.145 332.48C241.838 331.961 242.578 331.422 243.443 331.394C244.538 331.355 245.471 332.134 246.345 332.787C248.296 334.239 250.593 335.296 253.015 335.488C258.849 335.959 264.126 331.336 266.308 325.906L266.317 325.915Z" fill="#FFCE08"/>
<path d="M25.7859 235.8C29.0826 265.518 40.4239 290.267 68.4022 303.895C86.7501 312.834 107.337 315.823 127.54 318.697C151.107 322.051 176.279 323.416 200.096 324.175C225.69 324.992 259.137 321.609 275.813 299.715C285.04 287.604 289.125 272.649 290.489 257.675C291.181 250.072 291.21 242.422 290.931 234.8C290.662 227.428 288.625 220.306 288.567 213.079C297.457 210.993 304.628 209.369 312.374 203.967C319.352 199.104 325.397 192.905 330.203 185.898C333.24 181.467 335.902 175.864 333.826 170.914C332.25 167.166 328.281 164.917 324.292 164.109C320.303 163.302 316.199 163.658 312.134 163.61C304.147 163.514 296.102 161.832 288.673 159.054C288.231 158.891 287.76 158.708 287.462 158.333C287.298 158.122 287.193 157.862 287.097 157.612C280.599 140.206 281.705 122.262 277.87 104.251C274.131 86.6909 267.941 69.2945 256.581 55.1563C237.195 31.0417 205.257 19.7581 174.337 18.624C119.063 16.5864 81.3966 62.2206 64.2694 109.681C60.2134 120.926 55.033 131.758 48.8241 141.975C40.4335 155.777 34.6091 168.396 30.2359 183.889C25.4688 200.767 23.8637 218.346 25.8052 235.79L25.7859 235.8Z" fill="#3A6AE2"/>
<path d="M54.9851 254.686C50.7946 243.431 49.3433 231.35 50.0449 219.393C50.7177 207.85 54.1104 197.556 56.0903 186.292C62.1743 187.686 68.5465 187.811 74.6881 186.657C79.4745 185.754 85.2317 183.822 88.9512 180.535C92.5074 177.382 91.133 171.914 88.6821 168.348C86.4235 165.061 83.1844 162.591 80.4068 159.727C77.5715 156.805 75.2071 153.47 72.8524 150.144C72.218 149.25 71.5741 148.318 71.353 147.242C71.1031 146.04 71.4203 144.8 71.7375 143.618C75.8799 128.183 80.0608 112.41 87.4326 98.2723C94.074 85.5374 103.253 74.1289 114.258 64.9021C126.656 54.5027 147.83 45.9006 159.113 62.6819C163.361 68.9964 164.755 76.772 165.745 84.3264C166.668 91.3618 167.331 98.4838 166.822 105.558L178.72 108.71C185.141 97.3977 194.598 85.5759 206.631 80.6357C218.665 75.7051 233.418 76.4932 243.673 84.4898C248.671 88.3823 252.4 93.7358 255.101 99.4737C260.733 111.44 261.55 124.309 262.848 137.246C264.222 150.971 266.211 165.08 265.827 178.863C265.644 185.35 266.971 192.049 267.48 198.575C268.038 205.707 268.355 212.858 268.432 220.018C268.643 239.423 266.654 260.087 254.841 275.475C246.172 286.778 232.957 293.996 219.155 297.562C205.353 301.127 190.907 301.3 176.683 300.599C158.681 299.714 140.785 297.446 122.908 295.178C95.0351 291.631 65.7785 283.644 55.0043 254.695L54.9851 254.686Z" fill="white"/>
<path d="M125.163 89.9687C119.569 87.6563 112.638 88.6406 109.685 94.4733C108.82 96.1813 109.928 98.7114 112.116 98.5342C113.825 98.382 115.517 98.2982 117.234 98.2572C117.371 98.2915 117.473 98.3173 117.61 98.3516C122.309 98.2964 125.855 98.7869 129.038 102.601C129.934 103.661 131.95 103.586 132.823 102.57C137.485 97.1664 129.621 91.887 125.145 90.037L125.163 89.9687Z" fill="#0F0F10"/>
<path d="M131.855 77.8107C131.353 75.3239 128.74 74.3045 126.484 74.0289C123.845 73.6931 121.246 74.3484 119.032 75.7902C117.596 76.7372 117.637 78.7451 119.08 79.6522C120.241 80.3796 121.778 81.2013 123.29 81.5446C124.699 82.4431 126.775 82.71 128.151 82.4379C130.321 82.0385 132.357 80.1523 131.889 77.8193L131.855 77.8107Z" fill="#0F0F10"/>
<path d="M222.289 110.647C228.312 111.251 233.955 115.392 233.804 121.928C233.759 123.841 231.587 125.548 229.743 124.359C228.308 123.417 226.857 122.544 225.362 121.697C225.226 121.663 225.123 121.637 224.987 121.603C220.87 119.335 217.514 118.092 212.907 119.95C211.616 120.462 209.874 119.443 209.585 118.136C208.028 111.171 217.453 110.232 222.272 110.715L222.289 110.647Z" fill="#0F0F10"/>
<path d="M223.225 97.0794C224.842 95.1244 227.627 95.4604 229.745 96.2827C232.23 97.2335 234.211 99.0383 235.481 101.355C236.3 102.868 235.316 104.619 233.615 104.737C232.248 104.829 230.505 104.828 229.01 104.416C227.344 104.542 225.388 103.797 224.304 102.908C222.58 101.53 221.676 98.9063 223.191 97.0708L223.225 97.0794Z" fill="#0F0F10"/>
<path d="M171.374 126.467C169.932 126.842 168.606 127.044 167.549 126.995C160.629 126.669 157.985 116.279 155.65 111.108C154.968 109.609 154.276 108.013 154.506 106.379C155.025 102.698 159.773 102.871 162.445 103.304C169.019 104.361 175.449 106.37 181.456 109.244C183.811 110.368 186.358 111.963 186.79 114.539C187.079 116.231 186.329 117.971 185.166 119.23C182.811 121.786 176.343 125.179 171.364 126.476L171.374 126.467Z" fill="#FFCE08"/>
<path d="M109.005 124.961C115.193 126.812 121.375 124.412 122.814 119.602C124.252 114.792 120.402 109.393 114.214 107.542C108.025 105.692 101.843 108.091 100.405 112.901C98.9662 117.711 102.817 123.111 109.005 124.961Z" fill="#F6C1C1"/>
<path d="M213.24 149.091C219.425 150.952 225.611 148.563 227.057 143.755C228.504 138.947 224.662 133.541 218.477 131.681C212.292 129.82 206.106 132.209 204.659 137.017C203.213 141.825 207.055 147.231 213.24 149.091Z" fill="#F6C1C1"/>
</svg>
