<svg width="360" height="361" viewBox="0 0 360 361" fill="none" xmlns="http://www.w3.org/2000/svg">
<path d="M126.931 318.225C124.044 321.209 121.1 324.241 117.446 326.204C113.792 328.167 109.235 328.915 105.483 327.156C102.597 325.805 100.08 323.007 96.9026 323.298C93.9484 323.57 91.8979 326.427 89.0798 327.341C86.5531 328.167 83.7058 327.273 81.6457 325.611C79.5855 323.939 78.1861 321.588 77.0491 319.197C76.7673 318.604 76.4758 317.982 75.9705 317.574C74.9307 316.729 73.4147 317.05 72.0931 317.283C69.1583 317.808 66.1166 317.71 63.2304 317.001C60.8107 316.408 58.0217 314.455 58.7894 312.084C59.0615 311.238 59.7611 310.597 60.4414 310.033C65.2031 306.098 71.0435 303.503 77.156 302.599C85.387 301.384 93.0057 298.537 101.324 298.586C109.915 298.634 118.408 302.444 124.171 308.819C126.338 311.219 129.185 315.893 126.94 318.216L126.931 318.225Z" fill="#FFCE08"/>
<path d="M280.813 308.585C281.182 314.426 281.425 320.48 279.248 325.912C277.071 331.344 271.785 335.97 265.954 335.494C263.535 335.3 261.231 334.25 259.278 332.792C258.404 332.132 257.471 331.354 256.373 331.393C255.508 331.422 254.759 331.966 254.079 332.481C252.126 333.949 250.153 335.436 248.657 337.36C247.724 338.555 246.985 339.915 245.906 340.984C243.934 342.928 240.873 343.667 238.229 342.85C235.586 342.034 233.487 339.682 232.953 336.971C232.651 335.445 232.535 333.434 231.038 332.996C230.28 332.773 229.474 333.113 228.784 333.502C227.209 334.415 225.849 335.698 224.207 336.485C222.564 337.272 220.417 337.457 219.056 336.252C217.715 335.057 217.618 332.967 218.036 331.228C218.454 329.479 219.289 327.827 219.455 326.038C219.717 323.269 220.183 320.441 221.845 318.216C228.259 309.606 238.103 303.639 248.695 301.929C259.288 300.218 272.008 302.424 280.803 308.585H280.813Z" fill="#FFCE08"/>
<path d="M31.8616 109.01C30.2387 107.368 28.6159 105.551 26.4197 104.851C23.6501 103.977 20.5307 105.153 18.4802 107.203C8.21819 117.475 13.2909 136.191 17.868 147.872C23.1836 161.467 30.9481 170.903 42.4346 180.164C39.5776 198.521 36.6622 217.15 38.7321 235.789C42.0264 265.506 53.3671 290.257 81.3447 303.891C99.6919 312.832 120.274 315.815 140.487 318.692C164.053 322.044 189.222 323.405 213.05 324.172C238.647 324.999 272.096 321.607 288.762 299.713C308.119 274.301 302.911 242.65 303.027 213.059C309.966 214.342 320.053 207.646 325.388 203.924C332.336 199.065 338.361 192.885 343.152 185.898C346.184 181.466 348.856 175.859 346.767 170.913C345.193 167.172 341.218 164.917 337.234 164.11C333.25 163.304 329.139 163.663 325.077 163.615C316.418 163.508 307.75 159.825 299.451 157.425C298.985 157.289 298.509 157.143 298.168 156.803C297.702 156.336 297.605 155.637 297.537 154.976C293.805 121.08 291.852 82.9182 269.53 55.1447C250.143 31.0348 218.21 19.7524 187.288 18.6154C161.643 17.6728 136.824 28.4596 117.738 45.1645C96.3101 63.9102 86.4563 88.7683 74.4062 113.801C72.6181 117.514 70.8397 121.235 69.0614 124.957C67.4774 128.291 52.1038 122.198 50.0825 121.333C43.2995 118.456 37.0606 114.268 31.8908 109.01H31.8616Z" fill="#3A6AE2"/>
<path d="M67.924 254.68C78.6913 283.63 107.961 291.618 135.832 295.165C153.713 297.439 171.603 299.703 189.61 300.587C203.847 301.287 218.288 301.112 232.087 297.546C245.886 293.979 259.102 286.769 267.771 275.467C279.578 260.074 281.57 239.404 281.366 220.007C281.152 200.62 279.413 180.66 277.294 161.496C275.01 140.759 277.168 118.864 268.043 99.4676C265.341 93.7341 261.619 88.3796 256.615 84.4828C246.353 76.4947 231.601 75.6979 219.57 80.6345C207.54 85.5712 198.075 97.3977 191.651 108.709L179.757 105.561C180.272 98.4764 179.601 91.363 178.678 84.3273C177.687 76.7766 176.297 69.0023 172.05 62.6857C160.768 45.9031 139.593 54.513 127.193 64.9111C109.361 79.8668 97.3204 101.022 86.9515 121.488C66.6607 161.535 51.462 210.474 67.924 254.7V254.68Z" fill="white"/>
<path d="M141.398 90.2757C135.964 88.0294 129.232 88.9856 126.362 94.6516C125.523 96.3108 126.599 98.7686 128.724 98.5964C130.384 98.4487 132.028 98.3673 133.696 98.3274C133.829 98.3607 133.928 98.3858 134.061 98.4191C138.626 98.3655 142.07 98.842 145.162 102.547C146.033 103.577 147.992 103.504 148.839 102.517C153.368 97.2678 145.729 92.1392 141.381 90.3421L141.398 90.2757Z" fill="#0F0F10"/>
<path d="M147.899 78.4651C147.411 76.0493 144.873 75.0591 142.682 74.7914C140.117 74.4652 137.593 75.1018 135.442 76.5023C134.047 77.4223 134.087 79.3728 135.489 80.254C136.617 80.9606 138.11 81.7588 139.579 82.0923C140.947 82.9651 142.964 83.2244 144.3 82.9601C146.409 82.5721 148.386 80.7398 147.932 78.4734L147.899 78.4651Z" fill="#0F0F10"/>
<path d="M235.748 110.363C241.599 110.949 247.082 114.972 246.934 121.321C246.891 123.18 244.781 124.838 242.99 123.683C241.596 122.768 240.186 121.92 238.734 121.097C238.601 121.064 238.502 121.039 238.369 121.006C234.371 118.802 231.11 117.596 226.635 119.401C225.381 119.897 223.689 118.908 223.408 117.638C221.895 110.872 231.051 109.96 235.732 110.429L235.748 110.363Z" fill="#0F0F10"/>
<path d="M236.658 97.1829C238.228 95.2837 240.934 95.6101 242.991 96.4089C245.406 97.3326 247.33 99.0858 248.564 101.336C249.359 102.806 248.403 104.507 246.752 104.621C245.423 104.711 243.73 104.71 242.278 104.31C240.66 104.433 238.76 103.709 237.706 102.844C236.031 101.507 235.154 98.9576 236.625 97.1745L236.658 97.1829Z" fill="#0F0F10"/>
<path d="M125.701 124.268C131.712 126.066 137.718 123.735 139.116 119.062C140.513 114.39 136.773 109.144 130.761 107.347C124.75 105.549 118.744 107.88 117.347 112.553C115.95 117.225 119.69 122.47 125.701 124.268Z" fill="#F6C1C1"/>
<path d="M226.958 147.708C232.966 149.516 238.976 147.195 240.381 142.525C241.786 137.854 238.054 132.603 232.046 130.796C226.038 128.988 220.028 131.309 218.623 135.979C217.218 140.65 220.95 145.901 226.958 147.708Z" fill="#F6C1C1"/>
<path d="M185.046 126.405C177.451 128.667 167.556 117.036 167.436 109.896C167.256 99.2636 189.109 107.416 194.307 109.506C196.727 110.479 199.37 111.906 199.972 114.447C200.372 116.116 199.728 117.901 198.654 119.226C197.581 120.552 196.104 121.504 194.61 122.34C191.584 124.045 188.361 125.412 185.037 126.405L185.046 126.405Z" fill="#FFCE08"/>
</svg>
