<svg width="360" height="361" viewBox="0 0 360 361" fill="none" xmlns="http://www.w3.org/2000/svg">
<path d="M349.096 257.715C349.629 265.716 350.169 273.725 350.702 281.725C351.085 287.425 351.101 294.145 347.17 297.635C344.829 299.719 341.602 300.071 339.19 302.037C334.187 306.114 334.727 314.718 332.307 321.203C328.666 330.971 318.674 335.039 309.629 337.168C290.969 341.56 271.815 342.218 252.778 342.85C215.817 344.085 178.856 341.659 142.013 338.52C108.427 335.661 70.8079 337.934 41.3174 316.423C38.3731 314.276 35.2329 311.363 35.0841 307.349C35.0372 306.114 35.2799 304.779 34.7317 303.705C34.1914 302.632 33.0482 302.217 32.0067 301.874C24.5675 299.457 16.3844 296.183 12.8605 288.264C11.0125 284.115 10.7619 279.308 10.5505 274.654L9.14093 244.006C8.93733 239.667 14.1682 239.92 17.9348 240.082C27.5431 240.497 36.7364 244.376 45.8592 247.875C133.775 281.644 230.672 283.628 319.567 253.485C324.586 251.78 329.668 249.968 334.899 249.995C340.13 250.022 346.058 252.818 349.104 257.706L349.096 257.715Z" fill="#ADE4FA"/>
<path d="M317.312 238.432C326.411 240.407 335.659 243.059 343.247 249.165C346.559 251.826 349.746 255.83 349.316 260.457C348.572 268.512 338.689 270.135 334.367 276.53C330.217 282.663 331.924 292.197 327.766 298.33C325.221 302.082 321.023 303.715 317.053 305.067C287.359 315.187 256.044 321.357 225.128 319.399C191.973 317.298 158.818 315.187 125.662 313.086C101.653 311.561 77.3624 309.983 54.3792 301.838C48.9604 299.917 42.4296 295.101 44.1523 288.86C48.8194 272.02 19.5638 263.542 12.3047 252.358C10.4097 249.436 9.03933 245.864 9.29774 242.22C9.79891 235.23 15.7972 230.666 21.3727 227.834C41.0827 217.831 64.5044 214.756 85.7022 212.799C110.079 210.544 134.91 211.545 159.28 213.403C208.472 217.164 257.156 226.661 305.683 236.312C309.559 237.079 313.443 237.584 317.312 238.423V238.432Z" fill="#DDF4FD"/>
<path d="M287.428 134.057C282.207 119.027 278.516 104.803 275.017 89.5886L275.008 89.5893C273.349 82.3645 270.323 77.1623 267.69 70.2324C257.602 43.666 231.408 25.0106 203.409 20.1994C175.409 15.3883 144.852 21.0839 122.203 38.2282C90.9957 61.8457 78.3456 100.083 62.2113 133.929C59.3276 142.233 28.6749 146.667 21.6363 148.258C16.6556 149.389 10.3689 151.983 10.8051 157.068C10.9723 159.051 12.2351 160.759 13.5105 162.286C22.1457 172.644 45.2315 180.279 58.5063 183.587C54.275 206.997 49.9492 238.281 61.4861 260.016C64.9707 266.587 69.2273 272.823 74.743 277.813C90.2177 291.81 118.525 292.92 138.32 295.119C157.549 297.25 176.972 297.649 196.264 296.186C212.165 294.98 228.115 294.088 243.847 291.393C270.362 286.842 304.141 271.85 312.015 243.824C314.732 234.165 313.954 223.794 311.441 214.08C308.918 204.367 304.725 195.187 300.545 186.061C313.819 182.753 327.49 172.772 336.126 162.415C337.401 160.887 338.664 159.179 338.831 157.196C339.267 152.111 332.981 149.517 328 148.386C320.961 146.795 290.312 142.361 287.428 134.057Z" fill="#3A6AE2"/>
<path d="M287.651 235.754C289.266 231.489 290.122 226.962 290.497 222.415C291.772 206.944 287.643 191.512 282.176 176.979C276.709 162.447 269.876 148.417 265.372 133.563C260.397 117.169 259.487 100.588 256.9 83.8078C255.264 73.1997 254.714 65.0465 244.762 58.5708C236.924 53.4737 226.262 51.5329 217.462 55.2112C201.39 61.9263 190.525 77.695 185.436 94.3483C185.106 95.4386 184.248 96.8646 184.392 98.0027C182.07 97.3893 179.621 97.2821 177.253 97.6756C177.106 95.986 177.339 94.8032 177.165 93.1066C176.08 82.3691 174.869 71.2517 169.445 61.9241C162.064 49.2175 147.138 47.5963 134.247 53.6434C131.14 55.1018 128.305 57.0835 125.567 59.1487C98.6868 79.377 84.9827 116.007 78.172 148.081C74.8608 163.66 73.1354 179.542 72.5422 195.452C71.9902 210.41 70.6254 226.918 76.8678 240.908C81.3381 250.936 90.0025 256.978 99.975 261.572C112.658 267.411 127.084 270.035 141.103 271.621C160.791 273.846 180.277 273.861 200.046 273.522C230.499 273.005 274.793 269.648 287.668 235.744L287.651 235.754Z" fill="white"/>
<path d="M120.327 125.613C126.013 126.884 131.422 124.333 132.41 119.913C133.399 115.494 129.591 110.881 123.906 109.61C118.221 108.339 112.811 110.891 111.823 115.31C110.835 119.729 114.642 124.342 120.327 125.613Z" fill="#F6C1C1"/>
<path d="M215.643 140.693C221.326 141.974 226.739 139.431 227.735 135.013C228.73 130.596 224.93 125.976 219.247 124.696C213.564 123.415 208.15 125.958 207.155 130.376C206.159 134.793 209.96 139.413 215.643 140.693Z" fill="#F6C1C1"/>
<path d="M176.483 112.758C170.347 111.645 166.171 104.761 164.966 99.1048C162.975 89.7425 185.228 93.9742 189.564 95.9644C190.994 96.6228 192.442 97.5242 193.095 98.9609C193.75 100.425 193.439 102.174 192.652 103.567C191.864 104.961 190.667 106.068 189.468 107.129C185.809 110.371 181.3 113.62 176.492 112.748L176.483 112.758Z" fill="#FFCE08"/>
<path d="M89.3132 266.753C87.825 262.451 87.4912 256.552 91.541 254.478C95.6087 252.394 100.073 256.065 104.331 257.725C105.07 258.013 105.909 258.239 106.631 257.914C107.785 257.4 107.974 255.894 108.137 254.64C108.588 251.15 110.202 247.677 113.088 245.657C115.975 243.646 120.232 243.447 122.893 245.747C125.472 247.966 126.329 252.052 129.45 253.387C130.658 249.364 132.922 245.666 135.962 242.771C137.585 241.228 139.642 239.839 141.869 240.029C152.188 240.877 149.536 273.004 148.751 280.012C148.066 286.145 146.569 292.54 142.338 297.032C134.203 305.672 120.205 300.161 111.844 294.876C101.507 288.337 93.3088 278.343 89.3042 266.753H89.3132Z" fill="#FFCE08"/>
<path d="M235.119 299.112C228.905 300.988 218.018 303.595 212.264 298.869C206.077 293.782 205.409 280.992 205.391 273.741C205.382 265.84 205.517 254.024 209.179 246.845C212.138 241.045 218.704 237.05 222.429 244.301L227.191 253.564C227.57 254.295 228.021 255.098 228.797 255.35C229.482 255.576 230.222 255.314 230.871 255.007C233.739 253.627 235.949 251.21 238.592 249.433C241.234 247.665 244.806 246.583 247.548 248.198C250.028 249.668 250.957 252.897 250.714 255.765C250.47 258.642 249.298 261.339 248.54 264.126C248.369 264.766 248.215 265.443 248.405 266.074C248.919 267.833 251.309 267.923 253.14 267.932C258.029 267.959 262.872 270.034 266.263 273.551C267.986 275.346 269.393 277.646 269.357 280.135C269.294 284.925 264.324 287.955 259.95 289.894C251.868 293.466 243.57 296.542 235.11 299.094L235.119 299.112Z" fill="#FFCE08"/>
<path d="M143.803 89.9631C140.078 93.1577 137.627 98.09 131.809 96.9658C125.611 95.7685 126.98 89.6556 126.565 85.0781C126.481 84.099 125.093 83.802 124.551 84.5756C120.892 90.0412 123.312 98.6814 129.512 100.974C136.002 103.38 144.951 98.8705 146.947 92.2401C147.494 90.4478 145.437 88.5739 143.803 89.9631Z" fill="#0F0F10"/>
<path d="M231.341 94.3959C228.475 98.3879 227.231 103.751 221.334 104.025C215.021 104.323 214.929 98.0522 213.44 93.7078C213.112 92.7827 211.708 92.8135 211.38 93.707C209.122 99.8646 213.488 107.7 220.067 108.489C226.952 109.303 234.572 102.812 234.949 95.9065C235.051 94.0161 232.628 92.7051 231.361 94.4407L231.341 94.3959Z" fill="#0F0F10"/>
<path d="M224.814 76.1699C221.982 74.2366 218.409 73.5932 217.373 75.3071C216.325 77.0532 217.624 79.8766 220.574 82.0786C221.219 82.5698 221.863 83.061 222.53 83.5424C224.816 85.2083 226.753 85.718 228.75 85.6391C230.276 85.5812 231.251 84.215 230.818 82.748C230.565 81.8703 230.296 81.0795 229.608 80.126C228.878 79.1377 227.899 78.3126 226.83 77.527C226.163 77.0457 225.484 76.5966 224.826 76.1376L224.814 76.1699Z" fill="#0F0F10"/>
<path d="M134.25 70.4852C130.882 71.0349 127.828 73.0239 128.269 74.9953C128.721 76.989 131.625 78.1151 135.261 77.6879C136.076 77.5957 136.869 77.5135 137.674 77.399C140.475 77.0192 142.242 76.0526 143.615 74.6179C144.663 73.5401 144.437 71.8749 143.115 71.1209C142.326 70.6666 141.589 70.2695 140.427 70.0601C139.21 69.848 137.936 69.929 136.623 70.1067C135.818 70.2212 135.023 70.3582 134.227 70.4951L134.25 70.4852Z" fill="#0F0F10"/>
</svg>
