<svg width="360" height="361" viewBox="0 0 360 361" fill="none" xmlns="http://www.w3.org/2000/svg">
<path d="M207.668 340.795C202.248 339.635 202.648 330.885 202.578 326.835C202.498 322.555 201.458 316.365 204.488 312.945C206.388 310.805 209.448 310.195 212.288 309.855C227.988 308.005 246.128 312.085 253.848 327.375C254.548 328.755 255.078 330.515 254.158 331.755C253.058 333.235 250.779 332.865 249.019 332.345C245.329 331.265 241.648 330.175 237.958 329.095C237.828 331.735 237.669 334.475 236.399 336.805C235.139 339.125 232.418 340.885 229.878 340.175C226.518 339.235 225.059 334.705 221.639 334.035C216.349 332.985 212.958 341.935 207.678 340.805L207.668 340.795Z" fill="#FFCE08"/>
<path d="M115.359 334.455C114.269 332.925 113.799 330.565 111.959 330.185C111.039 329.995 110.108 330.415 109.278 330.865C106.618 332.295 100.789 338.475 98.4585 333.345C97.4285 331.085 99.1386 328.065 97.6286 326.105C96.9986 325.295 95.9585 324.915 94.9385 324.795C92.6685 324.535 90.4485 325.385 88.3185 326.205C86.1885 327.015 83.9285 327.825 81.6785 327.475C79.4285 327.115 77.2586 325.165 77.5086 322.895C77.6186 321.885 78.1785 320.975 78.7785 320.145C85.9785 310.245 98.6286 304.885 110.609 304.975C113.689 304.995 116.819 305.295 119.659 306.465C124.618 308.515 127.979 313.225 131.359 317.185C131.639 317.515 131.929 317.855 132.089 318.245C132.279 318.685 132.309 319.175 132.319 319.655C132.429 324.865 129.849 329.295 126.399 333.075C123.349 336.415 118.659 339.055 115.369 334.455H115.359Z" fill="#FFCE08"/>
<path d="M45.1486 236.595C47.9786 208.335 56.1985 181.565 64.9685 154.915C69.5485 140.995 75.2685 127.025 81.6185 113.695C87.3285 101.715 93.9885 90.175 101.729 79.395C104.549 75.465 108.348 72.755 111.448 69.035C114.828 64.965 118.398 61.075 122.328 57.525C130.328 50.285 139.609 44.375 149.879 40.925C160.479 37.365 170.799 36.335 181.889 35.065C192.409 33.865 203.578 34.815 213.678 38.605C223.468 42.285 233.228 46.575 241.198 53.355C247.668 58.865 252.718 65.825 257.698 72.715C267.658 86.475 274.608 102.175 279.948 118.225C284.148 130.835 288.168 143.125 290.908 156.175C294.418 172.925 297.539 189.775 299.719 206.765C300.988 216.675 302.338 227.035 302.918 237.325C303.298 244.085 303.338 250.815 302.808 257.375C301.958 267.775 299.509 278.175 294.139 287.215C280.349 310.385 254.148 319.135 228.698 321.975C200.088 325.165 169.589 324.335 140.889 323.115C128.519 322.585 116.158 321.265 104.078 318.515C90.7385 315.475 77.5985 310.595 66.7285 302.285C44.9385 285.645 42.3085 262.055 45.1385 236.595H45.1486Z" fill="#3A6AE2"/>
<path d="M76.5685 203.585C80.3785 203.505 84.1885 203.415 87.9885 203.335C94.3285 203.195 102.918 200.645 103.168 192.665C103.288 188.835 99.1685 186.175 96.9585 183.535C94.3185 180.395 92.0885 177.005 89.3185 173.895C87.5185 171.875 85.8885 169.695 84.4585 167.395C86.3185 164.315 87.0685 160.005 88.2185 156.585C89.6285 152.375 91.0385 148.165 92.5085 143.985C95.3885 135.825 98.4985 127.735 102.328 119.965C108.108 108.245 113.378 96.3751 123.038 87.1351C127.658 82.7251 133.008 78.8051 139.208 77.2551C145.998 75.5551 151.189 77.8051 157.129 80.7251C162.739 83.4851 165.498 88.9751 167.678 94.6551C171.318 104.155 172.948 113.755 175.318 123.525C178.028 122.875 180.568 123.275 183.208 123.955C183.378 118.095 186.649 111.235 189.249 105.995C191.779 100.885 194.998 95.0251 199.168 91.0351C203.418 86.9751 210.478 84.3051 216.168 82.8051C221.468 81.4051 227.269 81.2651 232.269 83.5051C234.399 84.4551 236.319 85.8051 238.129 87.2751C248.979 96.0651 253.509 107.885 258.519 120.395C261.479 127.785 263.848 135.405 265.698 143.145C266.628 147.065 267.428 151.025 268.048 155.005C268.518 157.995 268.188 161.435 269.418 164.185C264.258 163.155 259.028 160.635 254.188 158.565C251.078 157.265 248.669 157.525 247.149 160.905C244.999 165.695 247.199 172.435 248.739 177.125C251.399 185.235 255.858 192.465 261.808 198.625C265.778 202.735 270.578 206.165 276.048 207.835C276.378 207.935 276.718 208.035 276.948 208.285C277.218 208.575 277.268 209.005 277.318 209.405C277.758 213.655 278.438 217.895 278.778 222.145C279.048 225.445 279.268 228.755 279.438 232.065C280.488 251.605 278.969 273.605 264.489 286.755C250.789 299.195 229.498 302.145 211.788 303.515C182.138 305.815 154.089 306.195 124.479 300.895C97.0485 295.985 75.2285 281.315 70.5485 252.025C69.0685 242.765 69.4685 233.315 70.8385 224.065C71.8885 216.995 74.3585 210.835 74.6985 203.615C75.3085 203.605 75.9284 203.585 76.5384 203.575L76.5685 203.585Z" fill="white"/>
<path d="M186.511 135.627C182.591 138.677 178.341 140.567 174.031 136.827C171.571 134.687 169.381 132.237 167.541 129.547C167.011 128.767 166.491 127.957 166.311 127.027C164.661 118.707 183.781 121.447 187.571 122.527C193.031 124.087 194.181 127.657 190.451 132.087C189.801 132.857 189.031 133.527 188.261 134.187C187.691 134.687 187.111 135.167 186.521 135.627H186.511Z" fill="#FFCE08"/>
<path d="M139.489 113.735C139.719 113.385 140.388 115.245 140.438 115.425C140.698 116.335 140.839 117.315 140.849 118.255C140.849 119.335 140.778 122.135 139.168 122.215C137.138 122.315 137.279 118.985 137.449 117.815C137.559 117.075 137.719 116.315 137.969 115.615C138.329 114.605 138.548 113.905 139.658 114.085C142.228 114.505 142.529 120.515 140.079 121.405C138.209 122.075 138.308 118.235 138.178 117.225C137.968 115.575 138.099 118.165 138.099 118.505C138.099 118.705 138.008 120.475 138.158 120.475C136.858 120.425 135.848 121.985 136.818 123.045C137.678 123.985 138.919 124.345 140.099 123.675C141.739 122.745 141.818 120.905 141.788 119.225C141.758 117.755 142.019 115.895 141.149 114.625C140.309 113.405 138.599 113.065 137.269 113.615C130.879 116.225 137.199 130.675 143.509 123.215C145.599 120.745 145.948 116.985 144.548 114.095C143.198 111.295 139.618 109.035 136.818 111.395C134.518 113.335 133.758 117.785 134.158 120.585C134.588 123.565 137.449 126.445 140.649 125.345C144.519 124.015 144.609 118.515 143.769 115.265C143.359 113.675 142.679 111.705 140.979 111.075C139.629 110.575 138.159 111.075 137.389 112.255C136.469 113.645 138.599 115.145 139.509 113.745L139.489 113.735Z" fill="#0F0F10"/>
<path d="M218.298 116.675C218.488 118.275 218.908 119.855 219.028 121.465C219.118 122.765 218.788 125.725 216.788 125.585C213.528 125.355 214.899 116.655 217.359 117.315C219.009 117.755 218.958 119.995 218.808 121.305C218.698 122.235 218.378 125.905 216.828 124.215C216.198 123.525 216.329 122.165 216.379 121.315C216.399 121.035 216.848 119.285 215.968 120.095C215.828 120.225 215.938 122.025 215.968 122.085C216.498 122.895 216.169 120.885 216.119 120.535C215.949 119.125 213.579 118.815 213.239 120.275C212.889 121.775 212.618 123.065 213.558 124.445C214.278 125.505 215.599 126.205 216.899 125.985C218.169 125.775 219.049 124.725 219.359 123.525C219.739 122.025 219.728 119.455 219.218 117.975C218.118 114.835 214.209 116.115 213.359 118.705C212.459 121.455 212.598 125.505 215.188 127.285C221.698 131.765 224.178 119.035 220.458 115.375C218.368 113.325 215.029 113.295 213.359 115.865C211.719 118.385 211.178 123.045 212.548 125.745C214.038 128.695 217.709 129.565 220.119 127.185C223.239 124.115 221.488 119.875 220.728 116.245C220.398 114.685 218.128 115.105 218.308 116.675H218.298Z" fill="#0F0F10"/>
<path d="M127.469 143.715C133.433 143.715 138.269 139.954 138.269 135.315C138.269 130.676 133.433 126.915 127.469 126.915C121.504 126.915 116.668 130.676 116.668 135.315C116.668 139.954 121.504 143.715 127.469 143.715Z" fill="#F6C1C1"/>
<path d="M227.078 145.825C233.043 145.825 237.879 142.064 237.879 137.425C237.879 132.786 233.043 129.025 227.078 129.025C221.114 129.025 216.278 132.786 216.278 137.425C216.278 142.064 221.114 145.825 227.078 145.825Z" fill="#F6C1C1"/>
<path d="M283.245 71.6336C282.98 71.5895 282.715 71.5453 282.495 71.457C279.891 70.6184 278.434 67.7937 279.317 65.1896C279.317 65.1454 280.994 60.0697 282.318 55.2587C282.715 53.8463 283.686 52.6988 285.011 52.0809C286.335 51.4629 287.835 51.4629 289.159 52.0809C294.279 54.4201 298.649 54.9939 301.518 53.7139C303.416 52.8753 304.74 51.1981 305.578 48.594C306.285 46.4313 307.123 42.2824 305.093 38.5308C303.46 35.4853 300.194 33.2785 295.427 31.9102C292.249 31.0275 289.733 31.1599 287.968 32.2633C285.452 33.8522 284.393 37.4274 284.216 38.6632C283.819 41.3997 281.303 43.2534 278.611 42.8562C275.874 42.459 274.02 39.9432 274.374 37.2067C274.506 36.3239 275.786 28.291 282.495 23.9655C285.452 22.0235 290.572 20.2139 298.119 22.3325C307.432 24.9366 311.802 30.0123 313.832 33.8081C316.613 38.9722 317.01 45.2838 315.024 51.5954C313.347 56.8918 310.036 60.7759 305.534 62.762C301.253 64.6599 296.045 64.7482 290.351 63.1151C289.468 65.9399 288.806 68.1026 288.762 68.235C287.968 70.6184 285.584 72.0308 283.245 71.6336Z" fill="#FFCE08"/>
<path d="M285.938 82.2266C284.526 85.272 280.95 86.5961 277.905 85.1837C274.859 83.7714 273.535 80.1963 274.948 77.1508C276.36 74.1053 279.935 72.7812 282.981 74.1936C285.982 75.606 287.306 79.1811 285.938 82.2266Z" fill="#FFCE08"/>
<circle cx="216.982" cy="117.996" r="2.77051" fill="white"/>
<circle cx="139.723" cy="113.883" r="2.77051" fill="white"/>
</svg>
