<svg width="360" height="361" viewBox="0 0 360 361" fill="none" xmlns="http://www.w3.org/2000/svg">
<path d="M352.68 290.277H6V71.8683H352.68V290.277Z" fill="#156400"/>
<g opacity="0.5">
<path opacity="0.05" d="M243.833 116.728C241.306 116.7 239.079 116.031 236.585 115.566C232.13 114.747 227.434 114.678 222.929 115.416C220.469 115.812 218.042 116.373 215.566 116.659C214.485 116.782 212.582 117.561 211.468 117.343C208.434 116.769 211.185 113.216 211.443 111.85C211.526 111.399 211.817 109.609 211.41 109.281C210.828 108.803 208.077 109.199 207.404 109.199C205.06 109.213 202.899 108.68 200.572 108.584C197.538 108.461 194.637 108.311 191.612 108.092C183.965 107.532 177.092 109.814 169.711 110.948C164.857 111.699 158.54 113.817 153.579 112.56C153.687 112.041 154.185 111.822 154.651 111.494C153.379 111.549 152.099 111.535 150.827 111.522C146.647 111.508 143.306 111.768 139.25 112.656C135.094 113.558 131.121 114.979 126.957 115.84C125.02 116.25 121.28 117.425 119.302 117.206C120.665 115.334 127.929 117.671 129.5 117.903C132.517 118.34 135.493 119.146 138.568 119.037C132.542 119.078 126.4 119.392 120.574 120.909C116.784 121.893 113.218 123.492 109.237 121.989C104.665 120.253 98.5316 117.302 93.7276 120.117C91.8159 121.237 90.4778 123.943 89.4555 125.76C88.5412 127.372 89.123 127.919 89.4804 129.367C85.2333 130.214 81.6593 133.166 77.3373 133.576C76.1821 133.685 74.3618 133.685 73.431 133.002C72.6497 132.428 72.5333 131.471 72.0346 130.761C74.2372 129.968 82.4905 131.977 82.291 134.546C82.1248 136.705 77.836 138.386 76.1073 139.028C72.6331 140.312 68.3942 140.982 64.7039 141.706C63.2078 142.007 61.745 142.13 60.224 142.253C59.4677 142.307 58.462 142.731 57.7638 142.717C56.3841 142.703 56.1265 141.938 55.1457 141.419C54.4309 141.036 53.4252 140.872 52.486 141.159C51.6632 141.419 49.1365 143.031 49.1033 143.865C55.1956 145.587 61.7866 143.551 67.9204 144.644C67.2888 145.682 64.6623 146.283 63.4073 146.803C59.0438 148.593 54.7551 150.506 50.3915 152.296C47.4659 153.498 44.4821 154.646 41.5897 155.917C40.3928 156.436 38.315 156.955 37.7415 158.103C38.5976 158.786 39.9773 158.322 40.9913 158.24C43.9169 158.021 46.8592 157.638 49.7599 157.31C52.1868 157.024 54.5722 156.75 57.0241 156.696C58.5867 156.668 60.3154 156.887 61.8863 156.655C60.9804 156.723 60.0578 157.242 59.2765 157.611C56.3592 158.964 53.5582 160.481 50.5827 161.765C46.6348 163.459 42.2712 164.839 38.6142 166.971C39.3456 167.6 42.7367 167.203 43.4182 167.135C47.1833 166.711 50.7905 165.646 54.4808 164.921C58.5617 164.115 62.7008 163.651 66.8316 163.063C68.7932 162.79 71.8684 161.847 73.5723 162.981C66.9314 166.22 59.9248 169.062 53.1426 172.054C49.3526 173.721 45.5626 175.375 41.7892 177.083C39.9939 177.889 36.3202 178.941 35.3561 180.635C36.6277 181.195 38.1238 181.182 39.5284 181.209C44.133 181.277 48.7957 180.458 53.1925 179.392C57.9965 178.23 63.266 176.235 68.3111 176.112C63.3159 178.9 58.2459 181.592 53.0346 184.065C50.1339 185.5 47.1418 186.798 44.0748 187.946C42.986 188.096 42.0967 188.519 41.4151 189.189C42.4458 189.257 43.4598 188.984 44.4488 188.779C48.5381 187.932 52.4694 186.702 56.434 185.527C60.2822 184.379 64.1886 183.505 68.1947 182.862C71.0206 182.412 73.805 181.879 76.6475 182.289C73.5639 186.948 67.2722 189.462 62.4349 192.591C59.742 194.409 57.0657 196.24 54.406 198.084C52.8268 198.754 51.9541 199.779 51.7879 201.159C54.6803 202.553 59.4012 200.53 62.1523 199.601C66.1667 198.248 69.8653 196.335 73.8465 194.901C69.8487 196.937 66.0337 199.301 62.5595 201.965C60.1409 203.81 55.5862 206.474 55.686 209.59C55.794 212.773 60.465 213.621 63.1663 214.112C68.3111 215.028 73.5806 214.932 78.7586 214.317C75.4008 216.244 71.0456 217.706 67.2805 218.868C64.7787 219.633 61.4707 220.753 58.728 220.548C63.4406 219.81 64.5377 224.552 63.9226 227.736C63.6567 229.116 61.7783 231.548 62.8338 232.737C63.532 233.529 66.7153 233.27 67.6129 233.434C71.3115 234.144 74.1291 236.221 77.0464 238.107C80.2464 240.17 82.1497 239.514 85.8566 238.653C87.9345 238.161 93.445 236.303 95.5727 237.533C95.6475 238.216 95.1322 239.46 96.0049 239.76C97.26 240.197 100.368 238.558 101.648 238.202C103.577 237.67 105.547 237.055 107.558 236.809C109.245 236.604 109.868 236.973 111.348 237.273C112.711 237.547 114.556 237.328 115.919 237.328C119.601 237.328 123.483 237 127.14 237.26C128.91 237.383 130.705 237.547 132.334 238.189C132.75 238.353 133.506 238.954 133.947 238.995C134.728 239.077 135.26 238.708 135.95 238.476C137.554 237.902 139.274 237.697 141.012 237.915C148.774 238.872 153.354 246.223 160.785 248.123C165.796 249.407 170.276 246.155 173.659 243.286C174.706 244.338 171.556 247.057 171.515 248.369C175.637 248.191 179.402 246.92 183.616 247.193C190.099 247.617 195.543 250.432 202.242 249.339C206.373 248.246 210.379 246.866 214.244 245.199C217.003 243.682 219.646 243.682 222.157 245.199C223.528 247.221 224.035 249.407 223.669 251.744C223.395 253.643 223.536 255.515 224.093 257.346C225.464 257.906 226.703 257.701 227.8 256.731C230.235 255.624 232.596 254.408 234.873 253.069C238.106 251.402 242.594 248.806 246.734 249.489C248.221 249.735 249.377 250.569 250.898 250.651C253.574 250.787 256.009 248.751 258.336 247.822C259.799 247.234 262.351 245.882 264.005 246.729C265.385 247.439 265.119 249.229 267.005 249.489C267.695 249.311 268.393 249.12 269.083 248.943C271.909 247.289 274.727 245.622 277.511 243.928C280.337 242.411 283.969 239.828 287.385 240.498C287.651 241.168 287.767 241.851 287.726 242.548C289.363 240.826 291.05 236.576 290.909 234.376C290.676 230.728 285.241 232.177 282.498 232.627C283.977 231.712 286.379 231.562 288.125 231.316C291.657 230.824 295.148 230.701 298.672 231.261C302.096 231.808 304.955 233.051 307.1 235.442C307.798 236.221 307.673 236.85 308.87 236.549C311.314 235.934 309.161 233.488 308.313 232.491C305.213 228.829 301.963 223.746 302.487 219.018C303.31 221.901 303.767 226.848 308.022 227.572C312.112 228.269 319.052 223.063 315.719 219.742C313.857 217.884 310.873 216.722 308.546 215.315C305.047 213.211 302.869 210.833 301.889 207.253C300.966 203.919 300.949 200.544 303.509 197.797C306.061 195.065 308.38 195.27 312.261 195.037C316.957 194.75 320.024 193.288 321.545 189.353C322.734 186.279 324.537 181.769 324.005 178.463C323.648 176.235 322.443 174.131 321.595 172.013C320.481 169.239 319.858 166.397 320.008 163.473C320.215 159.415 323.091 156.901 325.909 153.881C325.26 152.911 324.18 152.528 322.676 152.733C320.473 152.405 318.304 151.995 316.151 151.49C314.189 151.066 306.46 150.492 306.867 148.019C307.158 146.215 312.826 142.922 313.915 141.802C315.503 140.162 317.389 138.099 315.694 136.035C313.633 134.45 311.28 133.275 308.654 132.483C305.604 131.335 302.437 130.501 299.162 129.996C296.744 129.586 293.527 129.531 291.424 128.37C288.474 126.73 291.707 122.972 289.629 120.772C287.277 118.272 279.697 120.39 276.763 120.841C274.444 121.196 272.092 121.647 269.756 121.893C267.928 122.084 266.216 121.128 264.429 120.554C261.769 119.693 259.99 117.862 257.447 116.892C256.292 116.455 255.078 116.304 253.832 116.209C251.978 116.072 249.692 115.402 243.8 116.782L243.833 116.728Z" fill="white"/>
<path opacity="0.05" d="M308.529 116.728C301.373 116.728 294.267 116.782 287.161 117.425C274.245 118.572 261.628 121.715 248.737 122.972C232.87 124.53 217.178 126.88 201.245 128.178C191.828 128.944 182.419 129.668 173.011 130.501C165.04 131.198 157.111 132.278 149.148 132.961C142.034 133.576 135.011 134.833 127.896 135.434C120.781 136.035 113.742 136.787 106.602 137.087C100.36 137.347 93.6112 137.32 87.5438 138.754C82.4406 139.971 77.221 140.708 71.9847 141.433C63.4572 142.608 54.9213 143.728 46.3438 144.493C41.4484 144.931 36.7025 145.013 31.7738 145.136C32.4969 145.218 32.9374 144.903 33.5525 144.698C34.8491 144.275 35.8381 144.07 37.2428 143.961C41.8972 143.605 46.3438 143.387 51.0398 143.373C58.6033 143.373 66.1667 143.373 73.7301 143.373C84.0031 143.373 94.2096 142.744 104.474 142.785C113.26 142.826 121.928 143.141 130.705 143.441C135.202 143.592 139.673 144.002 144.178 143.961C148.691 143.933 153.155 143.892 157.651 144.234C165.364 144.835 173.701 144.917 181.43 144.261C185.553 143.906 189.6 143.414 193.74 143.359C193.108 143.318 192.742 143.537 192.144 143.701C190.714 144.111 189.334 144.398 187.863 144.657C182.519 145.573 177.291 146.475 171.872 146.967C165.057 147.595 158.316 148.729 151.476 149.153C141.976 149.754 132.509 150.888 123.142 152.337C103.942 155.302 84.7678 158.089 65.9173 162.503C56.0682 164.798 46.6597 168.092 36.5363 169.499C37.8827 168.611 40.3845 168.46 42.0052 168.16C46.9422 167.231 52.112 166.534 57.1155 166.015C66.4908 165.058 76.0158 165.386 85.441 165.4C97.8085 165.4 110.134 165.919 122.494 166.001C154.343 166.233 186.243 166.11 218.059 165.386C215.906 165.14 213.471 166.138 211.377 166.411C206.606 167.039 201.586 167.285 196.807 167.695C179.311 169.198 161.749 170.688 144.411 173.298C135.584 174.623 126.824 176.29 118.014 177.711C107.441 179.433 96.8693 180.963 86.3553 182.917C80.4624 184.024 74.553 185.049 68.6601 186.142C66.7153 186.511 62.8753 187.727 60.6728 187.399C65.6763 187.303 70.4056 186.825 75.3841 186.238C91.3837 184.352 107.217 184.079 123.383 184.694C148.442 185.636 173.252 188.984 198.352 189.121C220.212 189.244 242.038 189.271 263.855 190.624C273.754 191.239 283.986 191.594 293.727 193.193C299.802 194.19 305.986 194.327 312.153 194.354C314.929 194.354 317.364 193.999 319.974 193.329C321.346 192.974 322.534 192.632 323.947 192.523C324.695 190.309 314.613 187.071 312.901 186.525C307.79 184.912 302.504 183.887 297.417 182.152C291.782 180.225 286.379 177.82 280.686 176.03C273.671 173.83 266.415 171.849 259.226 170.127C257.904 169.813 255.627 169.157 255.303 167.805C261.802 166.424 268.418 165.195 274.959 163.91C279.547 163.008 284.168 162.175 288.574 160.727C289.455 160.44 294.973 159.046 295.306 157.816C294.076 156.299 287.875 156.641 286.047 156.518C278.907 156.067 271.892 155.807 264.803 154.933C258.079 154.113 251.28 153.648 244.564 152.76C242.736 152.514 241.157 152.118 239.436 151.572C238.755 151.353 236.702 151.025 236.377 150.506C235.471 149.071 241.339 148.634 242.054 148.483C249.992 146.734 257.871 144.78 265.825 143.072C273.488 141.419 281.301 140.367 288.964 138.686C291.94 138.03 294.899 137.306 297.882 136.664C299.345 136.35 301.165 136.227 302.528 135.625C302.113 134.778 298.098 134.806 297.575 134.765C291.99 134.355 286.238 134.505 280.636 134.683C275.217 134.86 269.856 135.243 264.429 135.229C263.822 135.229 259.392 135.776 259.251 134.683C259.916 134.081 260.805 133.808 261.694 133.521C264.894 132.51 268.327 131.881 271.626 131.171C278.492 129.695 285.482 128.493 292.455 127.454C298.207 126.593 303.825 125.705 309.402 124.175C311.372 123.642 313.682 123.259 315.544 122.494C317.298 121.77 319.525 119.912 316.666 118.996C313.973 118.135 310.682 117.862 308.513 116.687L308.529 116.728Z" fill="white"/>
<path opacity="0.05" d="M254.605 104.58C248.778 104.58 243.002 104.621 237.217 104.99C226.703 105.674 216.438 107.518 205.949 108.256C193.041 109.172 180.267 110.565 167.301 111.317C159.638 111.768 151.983 112.191 144.32 112.683C137.837 113.093 131.379 113.735 124.896 114.132C119.111 114.487 113.393 115.238 107.599 115.594C101.815 115.949 96.0797 116.386 90.27 116.564C85.1834 116.714 79.6978 116.701 74.7608 117.548C70.6051 118.258 66.3579 118.695 62.1024 119.133C55.1623 119.83 48.2223 120.485 41.2323 120.936C37.2511 121.196 33.3863 121.237 29.3718 121.319C29.9619 121.36 30.3193 121.182 30.818 121.059C31.8736 120.813 32.6798 120.69 33.8185 120.622C37.6002 120.417 41.224 120.281 45.0473 120.281C51.2061 120.281 57.3566 120.281 63.5154 120.281C71.8767 120.281 80.1799 119.912 88.5412 119.939C95.6891 119.966 102.746 120.144 109.885 120.322C113.542 120.417 117.183 120.649 120.848 120.636C124.522 120.622 128.154 120.595 131.811 120.8C138.086 121.155 144.868 121.21 151.16 120.8C154.518 120.595 157.809 120.308 161.175 120.267C160.66 120.24 160.361 120.363 159.879 120.472C158.715 120.718 157.593 120.882 156.396 121.032C152.049 121.579 147.794 122.098 143.389 122.398C137.845 122.767 132.359 123.437 126.791 123.683C119.061 124.038 111.356 124.708 103.726 125.555C88.1007 127.304 72.5001 128.957 57.1571 131.553C49.1448 132.906 41.4816 134.847 33.245 135.68C34.3421 135.161 36.3784 135.065 37.6999 134.888C41.7227 134.341 45.92 133.931 49.9926 133.63C57.6225 133.07 65.3688 133.261 73.0403 133.261C83.1055 133.261 93.1375 133.562 103.194 133.617C129.118 133.753 155.075 133.685 180.965 133.248C179.211 133.098 177.233 133.685 175.529 133.849C171.648 134.218 167.558 134.368 163.669 134.614C149.431 135.502 135.135 136.377 121.031 137.921C113.841 138.7 106.718 139.684 99.5456 140.531C90.9432 141.542 82.3326 142.444 73.78 143.605C68.9843 144.261 64.172 144.862 59.3763 145.505C57.7888 145.723 54.6637 146.434 52.8767 146.242C56.9493 146.188 60.7975 145.901 64.8535 145.559C77.8776 144.439 90.7604 144.288 103.917 144.644C124.314 145.204 144.502 147.172 164.932 147.254C182.719 147.322 200.48 147.349 218.242 148.142C226.296 148.497 234.624 148.716 242.553 149.659C247.498 150.246 252.535 150.328 257.547 150.342C259.808 150.342 261.786 150.123 263.913 149.741C265.027 149.536 266 149.331 267.147 149.262C267.753 147.964 259.55 146.051 258.162 145.723C254.006 144.767 249.701 144.166 245.562 143.154C240.974 142.02 236.577 140.599 231.939 139.547C226.237 138.249 220.328 137.087 214.477 136.076C213.405 135.885 211.551 135.502 211.285 134.71C216.571 133.904 221.957 133.18 227.276 132.414C231.008 131.881 234.773 131.39 238.356 130.529C239.07 130.351 243.559 129.531 243.833 128.807C242.835 127.919 237.782 128.11 236.294 128.042C230.485 127.782 224.775 127.618 219.007 127.113C213.529 126.634 208.002 126.361 202.533 125.828C201.045 125.692 199.757 125.459 198.361 125.131C197.804 125.008 196.133 124.817 195.867 124.503C195.128 123.656 199.907 123.396 200.489 123.314C206.947 122.289 213.355 121.128 219.829 120.117C226.071 119.146 232.421 118.518 238.655 117.534C241.082 117.151 243.484 116.714 245.911 116.345C247.108 116.168 248.579 116.086 249.692 115.73C249.36 115.225 246.085 115.252 245.661 115.225C241.115 114.979 236.436 115.074 231.881 115.184C227.476 115.279 223.104 115.512 218.691 115.498C218.192 115.498 214.593 115.826 214.477 115.17C215.017 114.815 215.74 114.651 216.463 114.487C219.073 113.899 221.866 113.517 224.55 113.107C230.136 112.232 235.829 111.535 241.497 110.907C246.177 110.401 250.756 109.868 255.286 108.967C256.89 108.652 258.769 108.42 260.281 107.983C261.711 107.559 263.523 106.466 261.196 105.919C259.01 105.414 256.325 105.25 254.563 104.553L254.605 104.58Z" fill="white"/>
<path opacity="0.05" d="M252.809 211.571C246.983 211.571 241.206 211.612 235.422 211.981C224.908 212.664 214.643 214.509 204.154 215.26C191.246 216.176 178.471 217.57 165.505 218.321C157.842 218.772 150.187 219.196 142.524 219.688C136.041 220.097 129.583 220.74 123.1 221.136C117.316 221.491 111.597 222.243 105.804 222.598C100.019 222.953 94.2844 223.391 88.4747 223.568C83.3881 223.718 77.9025 223.705 72.9655 224.552C68.8098 225.263 64.5626 225.7 60.3071 226.123C53.367 226.82 46.427 227.476 39.437 227.927C35.4558 228.187 31.591 228.228 27.5765 228.31C28.1667 228.351 28.524 228.173 29.0227 228.05C30.0783 227.804 30.8845 227.681 32.0232 227.613C35.8049 227.408 39.4287 227.271 43.252 227.271C49.4108 227.271 55.5613 227.271 61.7201 227.271C70.0814 227.271 78.3846 226.902 86.7459 226.93C93.8938 226.957 100.95 227.135 108.09 227.312C111.747 227.408 115.387 227.64 119.061 227.626C122.735 227.613 126.367 227.585 130.024 227.79C136.299 228.146 143.081 228.2 149.373 227.79C152.731 227.585 156.022 227.299 159.388 227.258C158.873 227.23 158.574 227.353 158.092 227.462C156.928 227.708 155.806 227.872 154.609 228.023C150.262 228.569 146.007 229.089 141.602 229.389C136.058 229.758 130.572 230.428 125.004 230.674C117.274 231.029 109.569 231.698 101.939 232.546C86.3137 234.295 70.7131 235.948 55.3701 238.544C47.3579 239.897 39.6947 241.837 31.458 242.671C32.5551 242.151 34.5914 242.056 35.913 241.878C39.9357 241.332 44.133 240.922 48.2056 240.621C55.8356 240.061 63.5819 240.252 71.2533 240.252C81.3185 240.252 91.3505 240.553 101.407 240.607C127.331 240.744 153.288 240.676 179.178 240.238C177.424 240.088 175.446 240.676 173.742 240.84C169.861 241.209 165.771 241.359 161.882 241.605C147.644 242.493 133.348 243.368 119.244 244.912C112.054 245.691 104.931 246.674 97.7586 247.522C89.1563 248.533 80.5456 249.434 71.9931 250.596C67.1973 251.252 62.385 251.853 57.5893 252.495C56.0018 252.714 52.8767 253.424 51.0897 253.233C55.1623 253.178 59.0105 252.892 63.0665 252.55C76.0906 251.429 88.9734 251.279 102.13 251.634C122.527 252.195 142.715 254.162 163.145 254.244C180.932 254.313 198.693 254.34 216.455 255.132C224.509 255.488 232.837 255.706 240.766 256.649C245.711 257.237 250.748 257.319 255.76 257.332C258.021 257.332 259.999 257.127 262.126 256.731C263.24 256.526 264.213 256.321 265.36 256.253C265.966 254.955 257.763 253.042 256.375 252.714C252.219 251.757 247.914 251.156 243.775 250.145C239.187 249.011 234.79 247.59 230.152 246.538C224.45 245.24 218.541 244.078 212.69 243.067C211.618 242.876 209.764 242.493 209.498 241.701C214.784 240.894 220.17 240.17 225.489 239.405C229.221 238.872 232.986 238.38 236.569 237.519C237.283 237.355 241.772 236.522 242.046 235.798C241.048 234.909 235.995 235.101 234.507 235.032C228.698 234.773 222.988 234.609 217.219 234.103C211.742 233.625 206.215 233.352 200.746 232.819C199.258 232.682 197.97 232.45 196.574 232.122C196.017 231.999 194.346 231.808 194.08 231.493C193.341 230.646 198.12 230.387 198.702 230.305C205.16 229.28 211.568 228.118 218.042 227.107C224.284 226.137 230.634 225.509 236.868 224.525C239.295 224.142 241.697 223.705 244.124 223.336C245.321 223.158 246.792 223.076 247.905 222.721C247.573 222.215 244.298 222.243 243.874 222.215C239.328 221.969 234.649 222.065 230.094 222.174C225.689 222.27 221.317 222.502 216.904 222.489C216.405 222.489 212.806 222.817 212.69 222.161C213.23 221.806 213.953 221.642 214.676 221.478C217.286 220.89 220.079 220.507 222.763 220.097C228.349 219.223 234.042 218.526 239.71 217.898C244.39 217.392 248.969 216.859 253.499 215.957C255.103 215.643 256.982 215.411 258.494 214.973C259.924 214.55 261.736 213.457 259.409 212.91C257.223 212.405 254.538 212.241 252.776 211.544L252.809 211.571Z" fill="white"/>
<path opacity="0.05" d="M269.831 150.369C264.071 150.369 258.345 150.424 252.626 151.066C242.22 152.214 232.064 155.356 221.674 156.614C208.9 158.171 196.258 160.522 183.425 161.82C175.837 162.585 168.265 163.309 160.685 164.143C154.268 164.839 147.877 165.919 141.46 166.602C135.734 167.217 130.074 168.474 124.347 169.075C118.62 169.677 112.952 170.428 107.192 170.729C102.164 170.988 96.728 170.961 91.8492 172.396C87.735 173.612 83.5294 174.35 79.3155 175.074C72.4502 176.249 65.5766 177.369 58.6615 178.135C54.7218 178.572 50.8985 178.654 46.9257 178.777C47.5075 178.859 47.8649 178.545 48.3552 178.34C49.3942 177.916 50.2004 177.711 51.3307 177.602C55.0792 177.247 58.6615 177.028 62.4432 177.014C68.5355 177.014 74.6278 177.014 80.7201 177.014C88.9984 177.014 97.2184 176.386 105.488 176.427C112.57 176.468 119.543 176.782 126.616 177.083C130.24 177.233 133.839 177.643 137.471 177.602C141.103 177.574 144.702 177.533 148.326 177.875C154.543 178.476 161.25 178.558 167.475 177.902C170.8 177.547 174.058 177.055 177.391 177.001C176.884 176.96 176.585 177.178 176.103 177.342C174.956 177.752 173.842 178.039 172.653 178.299C168.348 179.214 164.142 180.116 159.779 180.608C154.293 181.236 148.858 182.371 143.355 182.794C135.709 183.395 128.079 184.53 120.532 185.978C105.064 188.943 89.63 191.731 74.445 196.144C66.5158 198.44 58.9357 201.733 50.7822 203.14C51.8627 202.252 53.8824 202.102 55.1873 201.801C59.1685 200.872 63.3242 200.175 67.3553 199.656C74.9104 198.699 82.5736 199.027 90.1703 199.041C100.136 199.041 110.06 199.56 120.008 199.642C145.666 199.874 171.348 199.751 196.981 199.027C195.252 198.781 193.282 199.779 191.595 200.052C187.755 200.681 183.708 200.927 179.859 201.336C165.763 202.84 151.625 204.329 137.662 206.939C130.547 208.264 123.491 209.931 116.401 211.352C107.89 213.074 99.3711 214.604 90.9017 216.558C86.1558 217.665 81.3934 218.69 76.6475 219.783C75.0766 220.152 71.9848 221.368 70.2144 221.04C74.2455 220.945 78.0521 220.466 82.0666 219.879C94.9577 217.993 107.707 217.72 120.723 218.335C140.904 219.278 160.893 222.625 181.106 222.762C198.71 222.885 216.289 222.912 233.859 224.265C241.83 224.88 250.066 225.235 257.921 226.834C262.816 227.831 267.795 227.968 272.757 227.995C274.993 227.995 276.954 227.64 279.057 226.971C280.162 226.615 281.118 226.274 282.257 226.164C282.855 223.951 274.735 220.712 273.364 220.166C269.249 218.553 264.986 217.529 260.896 215.793C256.358 213.867 252.003 211.462 247.415 209.672C241.772 207.472 235.92 205.49 230.127 203.769C229.063 203.454 227.227 202.799 226.969 201.446C232.205 200.066 237.533 198.836 242.802 197.552C246.501 196.65 250.216 195.816 253.773 194.368C254.48 194.081 258.926 192.687 259.201 191.457C258.212 189.941 253.217 190.282 251.745 190.159C245.994 189.708 240.35 189.449 234.64 188.574C229.221 187.754 223.744 187.29 218.342 186.402C216.87 186.156 215.599 185.759 214.211 185.213C213.662 184.994 212.008 184.666 211.742 184.147C211.011 182.712 215.74 182.275 216.314 182.125C222.705 180.376 229.047 178.422 235.455 176.714C241.63 175.06 247.922 174.008 254.089 172.327C256.491 171.672 258.868 170.947 261.27 170.305C262.451 169.991 263.913 169.868 265.011 169.267C264.678 168.419 261.437 168.447 261.021 168.406C256.524 167.996 251.887 168.146 247.382 168.324C243.018 168.501 238.696 168.884 234.333 168.87C233.842 168.87 230.277 169.417 230.16 168.324C230.701 167.723 231.407 167.449 232.13 167.162C234.707 166.151 237.475 165.523 240.134 164.812C245.661 163.336 251.297 162.134 256.907 161.095C261.536 160.235 266.066 159.346 270.554 157.816C272.142 157.283 274.004 156.901 275.5 156.135C276.913 155.411 278.708 153.553 276.406 152.637C274.236 151.776 271.585 151.503 269.839 150.328L269.831 150.369Z" fill="white"/>
<path opacity="0.05" d="M314.14 141.064C308.38 141.064 302.653 141.146 296.935 142.048C286.529 143.687 276.372 148.142 265.983 149.945C253.208 152.159 240.566 155.507 227.734 157.338C220.145 158.417 212.573 159.456 204.993 160.631C198.577 161.628 192.185 163.159 185.769 164.129C180.042 164.99 174.382 166.793 168.656 167.654C162.929 168.515 157.26 169.567 151.501 170.005C146.472 170.373 141.037 170.332 136.158 172.382C132.043 174.104 127.838 175.17 123.624 176.194C116.759 177.861 109.885 179.46 102.97 180.553C99.0303 181.182 95.207 181.277 91.2341 181.482C91.8159 181.592 92.1733 181.154 92.6637 180.868C93.7026 180.266 94.5088 179.979 95.6392 179.815C99.3877 179.31 102.97 178.996 106.752 178.982C112.844 178.982 118.936 178.982 125.029 178.982C133.307 178.982 141.527 178.094 149.797 178.148C156.878 178.203 163.851 178.654 170.925 179.078C174.548 179.296 178.147 179.87 181.779 179.829C185.411 179.774 189.01 179.72 192.634 180.212C198.851 181.059 205.558 181.195 211.784 180.239C215.108 179.733 218.366 179.037 221.699 178.955C221.192 178.9 220.893 179.201 220.411 179.446C219.264 180.034 218.15 180.444 216.962 180.799C212.656 182.111 208.451 183.382 204.087 184.092C198.602 184.98 193.166 186.593 187.664 187.208C180.017 188.069 172.387 189.681 164.841 191.731C149.373 195.939 133.938 199.929 118.753 206.187C110.824 209.453 103.244 214.14 95.0907 216.135C96.1711 214.878 98.1908 214.659 99.4957 214.222C103.477 212.91 107.633 211.899 111.664 211.175C119.219 209.808 126.882 210.287 134.479 210.287C144.444 210.287 154.368 211.011 164.317 211.147C189.974 211.489 215.657 211.311 241.29 210.259C239.561 209.918 237.591 211.325 235.904 211.721C232.064 212.623 228.016 212.965 224.168 213.552C210.072 215.684 195.934 217.816 181.971 221.519C174.856 223.404 167.799 225.768 160.71 227.804C152.199 230.25 143.68 232.423 135.21 235.224C130.464 236.795 125.702 238.257 120.956 239.815C119.385 240.334 116.293 242.069 114.523 241.605C118.554 241.468 122.361 240.799 126.375 239.965C139.266 237.273 152.016 236.904 165.032 237.765C185.212 239.118 205.201 243.859 225.415 244.064C243.018 244.242 260.597 244.283 278.168 246.21C286.138 247.084 294.375 247.576 302.229 249.858C307.125 251.279 312.103 251.457 317.065 251.498C319.301 251.511 321.263 250.992 323.365 250.036C324.471 249.544 325.427 249.038 326.565 248.888C327.164 245.745 319.043 241.127 317.672 240.361C313.558 238.066 309.294 236.617 305.205 234.144C300.667 231.411 296.311 227.982 291.724 225.44C286.08 222.311 280.229 219.496 274.436 217.05C273.372 216.599 271.535 215.657 271.277 213.744C276.514 211.79 281.841 210.041 287.111 208.21C290.809 206.925 294.525 205.75 298.082 203.673C298.788 203.263 303.235 201.282 303.509 199.533C302.52 197.388 297.525 197.852 296.054 197.688C290.302 197.06 284.659 196.677 278.949 195.447C273.53 194.286 268.052 193.616 262.65 192.359C261.179 192.018 259.907 191.457 258.519 190.665C257.971 190.35 256.317 189.886 256.051 189.162C255.319 187.112 260.049 186.497 260.622 186.279C267.014 183.792 273.355 181.018 279.763 178.572C285.939 176.222 292.231 174.719 298.398 172.341C300.8 171.412 303.177 170.373 305.579 169.472C306.759 169.034 308.222 168.843 309.319 167.996C308.987 166.793 305.745 166.834 305.329 166.78C300.833 166.192 296.195 166.411 291.69 166.67C287.327 166.916 283.005 167.463 278.641 167.436C278.151 167.436 274.585 168.215 274.469 166.657C275.009 165.796 275.716 165.413 276.439 165.003C279.015 163.569 281.783 162.667 284.443 161.656C289.97 159.551 295.605 157.857 301.215 156.368C305.845 155.138 310.375 153.867 314.863 151.695C316.45 150.929 318.312 150.396 319.808 149.303C321.221 148.278 323.016 145.628 320.714 144.316C318.545 143.086 315.893 142.703 314.148 141.036L314.14 141.064Z" fill="white"/>
<path opacity="0.05" d="M304.473 119.529C297.284 119.529 290.153 119.611 283.013 120.513C270.039 122.152 257.372 126.607 244.423 128.411C228.49 130.624 212.723 133.972 196.732 135.803C187.273 136.882 177.823 137.921 168.373 139.096C160.369 140.094 152.407 141.624 144.403 142.594C137.263 143.455 130.207 145.259 123.059 146.119C115.919 146.98 108.846 148.032 101.673 148.47C95.3982 148.839 88.6243 148.798 82.5403 150.847C77.4121 152.569 72.1676 153.635 66.9148 154.66C58.3539 156.327 49.7848 157.925 41.1658 159.018C36.2537 159.647 31.4829 159.743 26.5376 159.948C27.2607 160.057 27.7012 159.62 28.3246 159.333C29.6212 158.732 30.6185 158.445 32.0315 158.281C36.7025 157.775 41.1658 157.461 45.8867 157.447C53.4834 157.447 61.0801 157.447 68.6768 157.447C78.9913 157.447 89.2477 156.559 99.5539 156.614C108.381 156.668 117.083 157.119 125.901 157.543C130.423 157.761 134.911 158.335 139.432 158.294C143.962 158.24 148.45 158.185 152.963 158.677C160.71 159.524 169.079 159.661 176.851 158.704C180.99 158.199 185.054 157.502 189.21 157.42C188.578 157.365 188.204 157.666 187.606 157.912C186.176 158.499 184.788 158.909 183.309 159.264C177.939 160.576 172.695 161.847 167.251 162.558C160.411 163.446 153.637 165.058 146.771 165.673C137.23 166.534 127.722 168.146 118.313 170.196C99.0303 174.404 79.7726 178.394 60.8474 184.653C50.9567 187.918 41.5066 192.605 31.3333 194.6C32.6881 193.343 35.1982 193.124 36.8272 192.687C41.7892 191.375 46.9755 190.364 52.004 189.64C61.4209 188.274 70.9874 188.752 80.4542 188.752C92.8798 188.752 105.256 189.476 117.665 189.613C149.656 189.954 181.688 189.777 213.646 188.724C211.485 188.383 209.041 189.79 206.93 190.187C202.143 191.088 197.097 191.43 192.293 192.018C174.715 194.149 157.086 196.281 139.673 199.984C130.805 201.869 122.003 204.233 113.16 206.269C102.546 208.715 91.924 210.888 81.3684 213.689C75.4506 215.26 69.5163 216.722 63.5985 218.28C61.6453 218.799 57.7888 220.535 55.5779 220.07C60.6063 219.933 65.3522 219.264 70.3557 218.43C86.4218 215.739 102.33 215.37 118.562 216.23C143.729 217.583 168.647 222.325 193.856 222.53C215.807 222.707 237.724 222.748 259.641 224.675C269.582 225.549 279.855 226.041 289.637 228.323C295.746 229.744 301.955 229.922 308.139 229.963C310.931 229.977 313.375 229.457 315.993 228.501C317.365 228.009 318.561 227.503 319.983 227.353C320.731 224.21 310.607 219.592 308.895 218.827C303.759 216.531 298.456 215.083 293.344 212.609C287.684 209.877 282.257 206.447 276.539 203.905C269.499 200.776 262.21 197.961 254.987 195.516C253.657 195.065 251.371 194.122 251.047 192.209C257.572 190.255 264.221 188.506 270.787 186.675C275.4 185.39 280.038 184.215 284.468 182.138C285.349 181.728 290.892 179.747 291.233 177.998C290.003 175.853 283.77 176.317 281.933 176.153C274.768 175.525 267.72 175.142 260.597 173.912C253.84 172.751 247.016 172.081 240.276 170.824C238.447 170.483 236.851 169.923 235.122 169.13C234.441 168.816 232.371 168.351 232.047 167.627C231.141 165.577 237.034 164.962 237.749 164.744C245.72 162.257 253.632 159.483 261.619 157.037C269.316 154.687 277.162 153.184 284.858 150.806C287.85 149.877 290.818 148.839 293.81 147.937C295.281 147.5 297.109 147.308 298.473 146.461C298.057 145.259 294.018 145.3 293.494 145.245C287.884 144.657 282.107 144.876 276.48 145.136C271.045 145.382 265.65 145.928 260.206 145.901C259.591 145.901 255.153 146.68 255.003 145.122C255.677 144.261 256.566 143.879 257.464 143.469C260.68 142.034 264.129 141.132 267.446 140.121C274.336 138.017 281.359 136.322 288.366 134.833C294.142 133.603 299.786 132.332 305.388 130.16C307.366 129.395 309.685 128.862 311.555 127.768C313.317 126.744 315.553 124.093 312.685 122.781C309.984 121.551 306.676 121.169 304.498 119.502L304.473 119.529Z" fill="white"/>
</g>
<g style="mix-blend-mode:multiply" opacity="0.2">
<path d="M6 71.8683L335.733 96.4092L343.537 275.246L6 290.277H352.68V71.8683H6Z" fill="#3C3C3C"/>
</g>
<g style="mix-blend-mode:multiply" opacity="0.2">
<path d="M352.68 290.277L22.9471 265.736L15.1426 86.8989L352.68 71.8683H6V290.277H352.68Z" fill="#3C3C3C"/>
</g>
<path d="M6 290.277H352.68V71.8683H6V290.277ZM15.1426 86.8989H343.537V275.246H15.1426V86.8989Z" fill="#9F5900"/>
<path d="M9.32458 77.334V284.811H349.355V77.334H9.32458ZM346.862 280.712H11.818V81.4332H346.862V280.712Z" fill="#774200"/>
</svg>
