<svg width="360" height="361" viewBox="0 0 360 361" fill="none" xmlns="http://www.w3.org/2000/svg">
<path fill-rule="evenodd" clip-rule="evenodd" d="M221.617 83.7861C221.617 113.703 191.7 117.385 191.7 117.385H169.411C169.411 117.385 167.912 117.319 165.553 116.966H165.531C157.704 115.842 140.662 111.653 138.898 96.6834C137.509 84.9105 142.558 79.0461 148.863 71.1755C153.824 65.0244 150.186 55.9633 149.966 55.4121C150.473 55.6767 158.564 60.2183 160.548 64.0764C161.582 65.9665 162.41 67.9622 163.017 70.029C163.017 70.029 161.121 55.2137 168.749 45.3147C176.378 35.4158 177.965 32.3513 178.119 27.2806C177.801 22.9704 176.672 18.7591 174.79 14.8683C180.18 17.9363 184.914 22.0338 188.724 26.9278C188.724 26.9278 190.201 28.89 190.84 29.86C191.7 31.0946 192.405 32.1529 193.089 33.167C196.691 38.9672 198.705 45.612 198.931 52.4358C200.914 50.4809 202.462 48.1294 203.473 45.5352C204.243 42.5787 204.416 39.4981 203.98 36.474L208.632 44.3447C213.857 53.9129 221.617 70.3818 221.617 83.7861Z" fill="#E23A3A"/>
<path fill-rule="evenodd" clip-rule="evenodd" d="M200.541 99.3508C200.188 114.365 190.884 117.385 190.884 117.385H169.411C169.411 117.385 167.912 117.319 165.553 116.966H165.531C160.548 114.585 157.704 108.147 157.307 104.488C157.02 102.561 157.125 100.596 157.616 98.7114C158.516 95.2972 160.321 92.1895 162.841 89.7164C169.279 82.8158 173.401 80.2363 175.077 72.4759C175.661 69.1272 175.765 65.7124 175.385 62.3344C179.342 64.8467 182.693 68.2048 185.196 72.1672C187.164 75.2649 188.253 78.8386 188.349 82.5071C189.416 81.458 190.249 80.196 190.796 78.8033C191.201 77.197 191.291 75.5274 191.061 73.8869C191.061 73.8869 200.805 87.3794 200.541 99.3508Z" fill="#FAAE57"/>
<path fill-rule="evenodd" clip-rule="evenodd" d="M191.846 77.5427C192.066 79.0407 191.985 80.5678 191.605 82.0336C191.107 83.3109 190.347 84.4697 189.374 85.4354C189.281 82.0742 188.286 78.7999 186.493 75.9553C184.197 72.3264 181.126 69.2502 177.502 66.9471C177.846 70.0433 177.75 73.1726 177.218 76.242C175.692 83.3586 171.902 85.7088 166.022 92.0274C165.368 92.6873 164.756 93.3883 164.19 94.1262C162.696 95.8945 161.674 98.012 161.218 100.282C160.768 102.008 160.671 103.808 160.934 105.573C161.32 109.14 164.276 115.608 169.428 117.383H191.702C191.702 117.383 200.21 114.63 200.536 100.859C200.788 89.8888 191.846 77.5427 191.846 77.5427Z" fill="#FBC688"/>
<path d="M123.55 339.488C115.543 339.488 109.375 337.432 105.046 333.32C100.934 328.992 98.8782 322.932 98.8782 315.141C98.8782 307.349 100.934 301.398 105.046 297.286C109.375 293.174 115.543 291.118 123.55 291.118H152.767V158.343H180.036L132.965 187.235C127.338 190.698 122.035 192.105 117.058 191.456C112.08 190.59 107.86 188.426 104.397 184.963C100.934 181.5 98.6618 177.28 97.5797 172.302C96.4976 167.325 96.9304 162.347 98.8782 157.369C100.826 152.391 104.722 148.171 110.565 144.708L155.364 116.79C160.126 113.76 164.995 111.488 169.973 109.973C175.167 108.458 180.577 107.7 186.204 107.7C194.428 107.7 200.813 109.865 205.358 114.193C209.903 118.305 212.175 124.365 212.175 132.372V291.118H238.146C246.153 291.118 252.213 293.174 256.325 297.286C260.654 301.398 262.818 307.349 262.818 315.141C262.818 322.932 260.654 328.992 256.325 333.32C252.213 337.432 246.153 339.488 238.146 339.488H123.55Z" fill="#F89524"/>
</svg>
