<svg width="360" height="361" viewBox="0 0 360 361" fill="none" xmlns="http://www.w3.org/2000/svg">
<path fill-rule="evenodd" clip-rule="evenodd" d="M321.075 240.943C321.075 342.718 219.3 355.243 219.3 355.243H143.475C143.475 355.243 138.375 355.018 130.35 353.818H130.275C103.65 349.993 45.675 335.743 39.675 284.818C34.95 244.768 52.125 224.818 73.575 198.043C90.45 177.118 78.075 146.293 77.325 144.418C79.05 145.318 106.575 160.768 113.325 173.893C116.842 180.323 119.658 187.112 121.725 194.143C121.725 194.143 115.275 143.743 141.225 110.068C167.175 76.3933 172.575 65.9683 173.1 48.7183C172.018 34.0556 168.176 19.7294 161.775 6.49329C180.11 16.9304 196.216 30.8696 209.175 47.5183C209.175 47.5183 214.2 54.1933 216.375 57.4933C219.3 61.6933 221.7 65.2933 224.025 68.7433C236.278 88.475 243.132 111.079 243.9 134.293C250.645 127.643 255.91 119.643 259.35 110.818C261.971 100.76 262.557 90.2807 261.075 79.9933L276.9 106.768C294.675 139.318 321.075 195.343 321.075 240.943Z" fill="#E23A3A"/>
<path fill-rule="evenodd" clip-rule="evenodd" d="M249.375 293.893C248.175 344.968 216.525 355.243 216.525 355.243H143.475C143.475 355.243 138.375 355.018 130.35 353.818H130.275C113.325 345.718 103.65 323.818 102.3 311.368C101.324 304.814 101.681 298.131 103.35 291.718C106.411 280.104 112.553 269.531 121.125 261.118C143.025 237.643 157.05 228.868 162.75 202.468C164.737 191.077 165.091 179.46 163.8 167.968C177.26 176.515 188.659 187.939 197.175 201.418C203.868 211.956 207.575 224.114 207.9 236.593C211.529 233.024 214.365 228.731 216.225 223.993C217.603 218.529 217.908 212.849 217.125 207.268C217.125 207.268 250.275 253.168 249.375 293.893Z" fill="#FAAE57"/>
<path fill-rule="evenodd" clip-rule="evenodd" d="M219.795 219.703C220.546 224.799 220.268 229.994 218.977 234.981C217.283 239.326 214.698 243.268 211.387 246.553C211.07 235.119 207.685 223.98 201.585 214.303C193.774 201.958 183.33 191.493 171 183.658C172.17 194.191 171.844 204.837 170.032 215.278C164.842 239.488 151.95 247.483 131.947 268.978C129.72 271.223 127.639 273.608 125.715 276.118C120.633 282.134 117.155 289.337 115.605 297.058C114.074 302.932 113.745 309.054 114.637 315.058C115.95 327.193 126.007 349.198 143.535 355.236H219.307C219.307 355.236 248.25 345.868 249.36 299.023C250.215 261.703 219.795 219.703 219.795 219.703Z" fill="#FBC688"/>
</svg>
