<svg width="360" height="360" viewBox="0 0 360 360" fill="none" xmlns="http://www.w3.org/2000/svg">
<g clip-path="url(#clip0_122_2889)">
<path d="M281.149 168.718C281.149 113.42 236.323 68.5941 181.025 68.5941C125.726 68.5941 80.7132 113.774 80.9004 169.067C80.9965 196.524 92.1473 221.376 110.128 239.407C124.127 253.442 134.372 270.78 139.543 289.915L147.618 319.775H213.247L220.892 291.498C226.179 271.949 236.768 254.307 251.208 240.106C269.679 221.943 281.139 196.666 281.139 168.713L281.149 168.718Z" fill="#FFCE08"/>
<path d="M196.187 354.75H164.187C155.121 354.75 147.365 348.056 146.849 339.562L144.147 306.772L216.622 306.307L213.531 339.562C213.015 348.056 205.259 354.75 196.192 354.75H196.187Z" fill="#3D4048"/>
<path d="M210.106 320.605C189.863 321.47 169.545 320.433 149.303 321.328C147.506 321.409 147.638 324.03 149.404 324.09C169.661 324.763 189.975 323.509 210.237 324.151C212.509 324.222 212.408 320.508 210.106 320.605Z" fill="#858A97"/>
<path d="M210.106 329.398C189.863 330.263 169.545 329.226 149.303 330.121C147.506 330.202 147.638 332.823 149.404 332.884C169.661 333.556 189.975 332.302 210.237 332.944C212.509 333.015 212.408 329.302 210.106 329.398Z" fill="#858A97"/>
<path d="M189.19 17.682C189.19 24.1327 185.76 47.3297 181.525 47.3297C177.291 47.3297 173.861 24.1327 173.861 17.682C173.861 11.2314 177.291 6 181.525 6C185.76 6 189.19 11.2314 189.19 17.682Z" fill="#FFCE08"/>
<path d="M284.665 53.3098C279.773 57.5141 264.413 75.2319 267.17 78.4446C269.927 81.6522 289.755 69.1405 294.652 64.9362C299.545 60.7318 301.275 54.7214 298.518 51.5087C295.76 48.3011 289.557 49.1055 284.665 53.3098Z" fill="#FFCE08"/>
<path d="M321.876 156.819C315.476 157.633 292.031 157.153 291.5 152.953C290.969 148.754 313.544 142.43 319.944 141.615C326.344 140.801 331.965 143.548 332.501 147.747C333.032 151.947 328.276 156.009 321.876 156.819Z" fill="#FFCE08"/>
<path d="M87.1537 45.6045C92.2333 49.5811 108.378 66.5856 105.772 69.9146C103.161 73.2487 82.7875 61.6477 77.7079 57.666C72.6284 53.6893 70.6249 47.7598 73.2355 44.4307C75.8461 41.0966 82.0792 41.6228 87.1588 45.5995L87.1537 45.6045Z" fill="#FFCE08"/>
<path d="M38.665 140.234C45.0651 141.049 68.5101 140.568 69.0413 136.369C69.5725 132.17 46.9978 125.846 40.5977 125.031C34.1977 124.216 28.5767 126.964 28.0404 131.163C27.5092 135.362 32.265 139.425 38.665 140.234Z" fill="#FFCE08"/>
<path d="M224.241 219.696C221.024 217.343 218.524 214.262 216.703 210.797C220.336 206.314 221.934 200.283 222.597 194.683C223.002 191.258 223.118 187.822 223.174 184.377C223.23 181.053 222.789 178.235 219.976 176.166C217.467 174.324 214.118 175.983 212.195 177.774C209.974 179.839 208.896 183.218 208.041 186.036C206.311 191.723 206.342 197.814 207.429 203.612C207.809 205.636 208.375 207.619 209.104 209.542C207.682 210.655 206.073 211.535 204.293 212.102C198.823 213.853 194.67 210.701 192.14 206.036C191.725 205.272 191.33 204.457 190.956 203.612C191.386 202.459 191.796 201.305 192.18 200.167C194.042 194.627 195.069 188.824 195.535 183.006C195.919 178.184 196.056 172.422 191.416 169.568C189.924 168.647 188.249 169.346 187.313 170.646C180.534 180.051 180.913 192.522 184.597 203.187C183.413 206.021 182.021 208.773 180.473 211.429C178.773 214.358 175.53 218.871 171.594 218.3C167.931 217.768 165.002 213.164 163.18 210.321C161.845 208.237 160.797 206.011 159.973 203.693C160.438 202.469 160.873 201.23 161.268 199.975C162.831 195.047 163.707 189.917 164.116 184.772C164.455 180.476 164.597 174.445 159.897 172.386C158.531 171.789 156.512 171.85 155.789 173.464C151.665 182.642 150.876 192.71 153.477 202.434C153.563 202.763 153.669 203.091 153.765 203.42C150.917 210.67 146.586 217.384 141.324 223.096C138.961 225.661 142.7 229.44 145.159 226.931C149.849 222.145 153.75 216.706 156.795 210.802C157.701 212.502 158.718 214.136 159.836 215.684C162.902 219.934 166.747 223.911 172.267 224.209C177.422 224.487 181.612 220.151 184.404 216.387C185.745 214.581 186.919 212.608 187.961 210.559C190.486 214.581 194.128 217.774 199.086 218.467C203.65 219.104 208.072 217.688 211.811 215.183C214.001 218.912 216.835 222.271 220.133 225.034C223.902 228.186 228.208 222.605 224.241 219.706V219.696ZM189.757 177.936C189.97 180.334 189.413 183.294 189.281 184.751C189.039 187.407 188.573 190.038 187.961 192.639C187.334 187.524 187.754 182.282 189.757 177.941V177.936ZM213.146 193.023C213.334 190.534 213.991 188.08 214.821 185.733C215.195 184.67 215.676 183.669 216.278 182.717C216.324 182.642 216.536 182.373 216.749 182.136C216.779 182.297 216.845 182.53 216.865 182.859C217.184 188.935 216.683 195.487 214.791 201.28C214.558 201.999 214.275 202.697 213.956 203.37C213.156 199.97 212.883 196.443 213.141 193.023H213.146Z" fill="white"/>
<path d="M229.933 204.968C219.288 237.459 208.082 269.794 196.041 301.799C194.599 305.629 200.503 307.976 201.935 304.152C213.93 272.101 225.076 239.756 235.068 207.022C236.1 203.648 231.046 201.574 229.933 204.973V204.968Z" fill="white"/>
<path d="M133.103 202.914C141.597 236.038 149.535 269.318 156.593 302.775C157.438 306.782 163.676 305.588 162.826 301.586C155.708 268.109 147.709 234.849 138.531 201.877C137.585 198.477 132.212 199.444 133.103 202.914Z" fill="white"/>
</g>
<defs>
<clipPath id="clip0_122_2889">
<rect width="304.542" height="348.75" fill="white" transform="translate(28 6)"/>
</clipPath>
</defs>
</svg>
