<svg width="328" height="98" viewBox="0 0 328 98" fill="none" xmlns="http://www.w3.org/2000/svg">
<mask id="mask0_172_1166" style="mask-type:alpha" maskUnits="userSpaceOnUse" x="0" y="-6" width="380" height="110">
<rect x="0.924316" y="-6" width="379" height="110" rx="15" fill="url(#paint0_linear_172_1166)"/>
</mask>
<g mask="url(#mask0_172_1166)">
<g style="mix-blend-mode:multiply">
<circle cx="170.924" cy="137" r="58" fill="#D0E7FF"/>
</g>
<g style="mix-blend-mode:multiply">
<path d="M432.924 0C432.924 18.4962 426.179 36.3576 413.953 50.2367C401.727 64.1159 384.859 73.0601 366.51 75.393C348.162 77.726 329.592 73.2876 314.282 62.9097C298.972 52.5318 287.971 36.9267 283.343 19.019C278.714 1.11127 280.775 -17.8698 289.138 -34.3669C297.502 -50.864 311.595 -63.7448 328.776 -70.5952C345.957 -77.4457 365.046 -77.7955 382.467 -71.5792C399.887 -65.3629 414.443 -53.0072 423.405 -36.8276L377.934 -11.6385C375.102 -16.7517 370.502 -20.6565 364.996 -22.621C359.491 -24.5855 353.458 -24.4749 348.029 -22.31C342.599 -20.1451 338.145 -16.0744 335.502 -10.8609C332.859 -5.64733 332.208 0.351196 333.67 6.01051C335.133 11.6698 338.61 16.6015 343.448 19.8812C348.287 23.1609 354.155 24.5635 359.954 23.8263C365.752 23.089 371.083 20.2624 374.947 15.8762C378.811 11.49 380.942 5.84531 380.942 0H432.924Z" fill="#D0E7FF"/>
</g>
<g style="mix-blend-mode:multiply">
<path d="M162.924 13C162.924 17.4183 166.506 21 170.924 21C175.343 21 178.924 17.4183 178.924 13C178.924 8.58172 175.343 5 170.924 5C166.506 5 162.924 8.58172 162.924 13ZM175.978 13C175.978 15.7913 173.716 18.0542 170.924 18.0542C168.133 18.0542 165.87 15.7913 165.87 13C165.87 10.2087 168.133 7.94584 170.924 7.94584C173.716 7.94584 175.978 10.2087 175.978 13Z" fill="#D0E7FF"/>
</g>
<g style="mix-blend-mode:multiply">
<path d="M266.924 84C266.924 86.7614 269.163 89 271.924 89C274.686 89 276.924 86.7614 276.924 84C276.924 81.2386 274.686 79 271.924 79C269.163 79 266.924 81.2386 266.924 84ZM275.083 84C275.083 85.7446 273.669 87.1589 271.924 87.1589C270.18 87.1589 268.765 85.7446 268.765 84C268.765 82.2554 270.18 80.8411 271.924 80.8411C273.669 80.8411 275.083 82.2554 275.083 84Z" fill="#D0E7FF"/>
</g>
</g>
<defs>
<linearGradient id="paint0_linear_172_1166" x1="373.424" y1="90.4999" x2="8.42432" y2="7.99996" gradientUnits="userSpaceOnUse">
<stop stop-color="#835AE2"/>
<stop offset="1" stop-color="#CC95DC"/>
</linearGradient>
</defs>
</svg>
