<svg width="98" height="97" viewBox="0 0 98 97" fill="none" xmlns="http://www.w3.org/2000/svg">
<g clip-path="url(#clip0_172_250)">
<g filter="url(#filter0_i_172_250)">
<path d="M57.6104 31.9919C56.8222 31.9919 56.1836 31.3531 56.1836 30.5651V19.0171C56.1836 18.2292 56.8222 17.5903 57.6104 17.5903C58.3986 17.5903 59.0372 18.2292 59.0372 19.0171V30.5651C59.0372 31.3531 58.3986 31.9919 57.6104 31.9919Z" fill="#BDC0C7"/>
</g>
<g filter="url(#filter1_i_172_250)">
<path d="M39.793 31.9919C39.0048 31.9919 38.3662 31.3531 38.3662 30.5651V19.0171C38.3662 18.2292 39.0048 17.5903 39.793 17.5903C40.5812 17.5903 41.2198 18.2292 41.2198 19.0171V30.5651C41.2198 31.3531 40.581 31.9919 39.793 31.9919Z" fill="#BDC0C7"/>
</g>
<path d="M42.3911 12.1473L57.6102 14.7061L58.6 15.4682L59.5898 14.7061L80.432 0.962524C81.3773 0.339105 80.9362 -1.13184 79.8037 -1.13184H65.2948C64.3268 -1.13184 63.38 -0.847807 62.5719 -0.314942L48.7014 8.83145L42.3911 12.1473Z" fill="#3D4048"/>
<path d="M57.6102 14.7061L47.6049 17.0038L37.813 14.7061L16.9708 0.962524C16.0255 0.339105 16.4666 -1.13184 17.5991 -1.13184H32.108C33.076 -1.13184 34.0228 -0.847807 34.831 -0.314942L57.6102 14.7061Z" fill="#545963"/>
<g clip-path="url(#clip1_172_250)">
<path d="M48.5834 28.0894C30.1264 28.0894 15.1655 43.037 15.1655 61.476C15.1655 79.915 30.1264 94.8679 48.5834 94.8679C67.0405 94.8679 82.0001 79.9164 82.0001 61.476C82.0001 43.0357 67.0367 28.0894 48.5834 28.0894Z" fill="url(#paint0_linear_172_250)"/>
<path d="M48.4179 93.3708C30.2122 93.3708 15.4078 78.8226 15.0103 60.7275C15.0051 60.9766 15 61.2257 15 61.4762C15 79.9165 29.9609 94.8681 48.4179 94.8681C66.875 94.8681 81.8345 79.9165 81.8345 61.4762C81.8345 61.2271 81.8307 60.9766 81.8256 60.7275C81.4267 78.8226 66.621 93.3695 48.4179 93.3695V93.3708Z" fill="#BDC0C7"/>
<g style="mix-blend-mode:overlay" opacity="0.35">
<path d="M48.5834 28.0894C30.1264 28.0894 15.1655 43.037 15.1655 61.476C15.1655 61.8846 15.1822 62.2826 15.1989 62.6873C23.7098 70.3146 35.4297 75.0318 48.3667 75.0318C61.3037 75.0318 73.4327 70.1485 81.9783 62.2813C81.9847 62.0111 82.0001 61.7488 82.0001 61.476C82.0001 43.037 67.0367 28.0894 48.5834 28.0894Z" fill="white"/>
</g>
<g style="mix-blend-mode:overlay" opacity="0.49">
<path d="M75.2511 41.2708C69.1488 33.2626 59.5079 28.0894 48.6551 28.0894C37.8022 28.0894 28.01 33.3403 21.9141 41.4527C29.4695 46.1132 38.6012 48.8428 48.4383 48.8428C58.2754 48.8428 67.6405 46.0434 75.2511 41.2708Z" fill="white"/>
</g>
<g style="mix-blend-mode:overlay" opacity="0.49">
<path d="M48.5819 29.9992C66.7144 29.9992 81.465 44.438 81.9728 62.4316C81.9844 62.1152 81.9985 61.7976 81.9985 61.476C81.9985 43.037 67.0364 28.0894 48.5819 28.0894C30.1274 28.0894 15.1665 43.037 15.1665 61.476C15.1665 61.7976 15.1819 62.1152 15.1909 62.4316C15.6988 44.438 30.448 29.9992 48.5819 29.9992Z" fill="white"/>
</g>
<path d="M44.0753 30.2839C45.631 30.1613 47.2342 30.7702 46.457 31.4635C45.6785 32.1594 40.4188 35.2765 38.1256 33.3496C35.8286 31.42 42.2464 30.4275 44.0753 30.2839Z" fill="white"/>
<path d="M25.995 38.7733C21.1265 42.983 17.1916 50.7607 17.2904 55.3052C17.3891 59.8471 19.7516 52.7192 20.9713 50.1333C22.1936 47.5487 28.2908 39.6603 32.7117 37.2747C37.1339 34.8852 33.6082 32.1911 25.995 38.7733Z" fill="white"/>
<path d="M48.6243 36.6157C34.9011 36.6157 23.7764 47.7332 23.7764 61.4419C23.7764 75.1505 34.9011 86.268 48.6243 86.268C62.3475 86.268 73.4685 75.1532 73.4685 61.4419C73.4685 47.7305 62.3475 36.6157 48.6243 36.6157Z" fill="url(#paint1_linear_172_250)"/>
<g style="mix-blend-mode:overlay" opacity="0.35">
<path d="M48.5835 87.9237C34.1164 87.9237 22.3452 76.1485 22.3452 61.6741C22.3452 47.1996 34.1164 35.4258 48.5835 35.4258C63.0505 35.4258 74.8191 47.2009 74.8191 61.6741C74.8191 76.1472 63.0493 87.9237 48.5835 87.9237ZM48.5835 37.8074C35.3951 37.8074 24.6641 48.5137 24.6641 61.6741C24.6641 74.8344 35.3951 85.5407 48.5835 85.5407C61.7718 85.5407 72.5003 74.8344 72.5003 61.6741C72.5003 48.5137 61.7718 37.8074 48.5835 37.8074Z" fill="white"/>
</g>
<g style="mix-blend-mode:multiply" opacity="0.44">
<path d="M48.6245 36.6157C41.3371 36.6157 34.7833 39.7513 30.2393 44.7479C34.6743 40.6291 40.6125 38.1104 47.1457 38.1104C60.8651 38.1104 71.9886 49.2239 71.9886 62.9352C71.9886 69.3671 69.5428 75.2257 65.5284 79.6357C70.4149 75.1018 73.4699 68.6303 73.4699 61.4432C73.4699 47.7345 62.349 36.617 48.6258 36.617L48.6245 36.6157Z" fill="#545963"/>
</g>
<g style="mix-blend-mode:multiply" opacity="0.44">
<path d="M33.1482 76.1272C33.1482 60.1054 44.2717 51.3024 57.9923 51.3024C63.5996 51.3024 68.7708 53.1581 72.9263 56.2884C70.5523 45.051 60.5728 36.6157 48.6195 36.6157C34.8989 36.6157 23.7754 47.7332 23.7754 61.4419C23.7754 69.5556 27.6692 76.7559 33.6869 81.2872C33.338 79.6226 33.1482 77.8973 33.1482 76.1272Z" fill="#545963"/>
</g>
<path d="M48.6243 84.9147C35.1423 84.9147 24.1765 74.1795 23.7995 60.8003C23.7892 61.0389 23.7764 61.2735 23.7764 61.5147C23.7764 75.2286 34.9011 86.3408 48.6243 86.3408C62.3475 86.3408 73.4685 75.2286 73.4685 61.5147C73.4685 61.2748 73.4582 61.0389 73.4505 60.8003C73.0696 74.1808 62.1064 84.9147 48.6231 84.9147H48.6243Z" fill="#BDC0C7"/>
<path opacity="0.7" d="M24.1395 45.0115C25.9325 42.9436 31.2037 36.5986 31.2037 36.5986C31.2037 36.5986 35.6067 28.1067 35.7131 27.8681C35.7426 27.7996 30.0853 35.8526 30.0853 35.8526L24.1382 45.0102L24.1395 45.0115Z" fill="white"/>
<path d="M31.6922 35.0789C30.0685 33.7727 30.3635 30.1034 30.3506 29.0635V30.0586C30.3506 29.8991 30.3378 29.7278 30.3378 29.6909V29.0635C30.3352 29.3613 30.3147 29.8332 30.248 30.3775C30.248 30.3775 29.7709 34.0614 28.9129 34.8219C26.9788 36.5669 22.109 36.2308 23.9764 36.2743C30.2827 36.414 30.2827 42.7392 30.3391 44.8138V43.7699C30.3442 43.845 30.3519 43.907 30.3519 43.9439V44.8138C30.4853 39.9028 30.4686 36.795 35.9707 36.3798C37.7932 36.2361 33.5929 36.5973 31.6935 35.0776L31.6922 35.0789Z" fill="white"/>
</g>
<path d="M60.9762 21.0416H36.4275C35.5528 21.0416 34.8438 20.3325 34.8438 19.4578V16.2903C34.8438 15.4156 35.5528 14.7065 36.4275 14.7065H60.9762C61.8509 14.7065 62.5599 15.4156 62.5599 16.2903V19.4578C62.5601 20.3325 61.8509 21.0416 60.9762 21.0416Z" fill="#BDC0C7"/>
<path d="M60.9761 14.7065H54.6411C55.5158 14.7065 56.2249 15.4156 56.2249 16.2903V19.4578C56.2249 20.3325 55.5158 21.0416 54.6411 21.0416H60.9763C61.851 21.0416 62.5601 20.3325 62.5601 19.4578V16.2903C62.5601 15.4156 61.8509 14.7065 60.9761 14.7065Z" fill="#6D727D"/>
<g clip-path="url(#clip2_172_250)">
<path d="M56.4899 72.2072L52.5106 60.6302C53.8793 59.6574 54.7754 58.0615 54.7754 56.2549C54.7744 53.2893 51.684 50.2808 48.7184 50.2808C45.7528 50.2808 44.0362 53.2893 44.0362 56.2549C44.0362 57.9715 44.8454 59.4967 46.0996 60.4798L40.9131 71.5822C40.9131 71.5822 42.1417 73.0706 47.5675 73.3857V73.3887C47.5675 73.3887 47.5675 73.3887 47.7251 73.3887H50.9904V73.3857C54.1729 73.3478 56.4899 72.2082 56.4899 72.2082V72.2072Z" fill="#BDC0C7"/>
<path d="M55.335 71.5821L51.3556 60.0051C52.7244 59.0323 53.6205 57.4364 53.6205 55.6299C53.6195 52.6642 51.2155 50.2603 48.2509 50.2603C45.2863 50.2603 42.8813 52.6642 42.8813 55.6299C42.8813 57.3464 43.6905 58.8717 44.9446 59.8547L40.9131 71.5821C40.9131 71.5821 43.2301 72.7217 46.4126 72.7596V72.7626C46.4126 72.7626 46.4126 72.7626 46.5701 72.7626H49.8355V72.7596C53.018 72.7217 55.335 71.5821 55.335 71.5821Z" fill="#3D4048"/>
</g>
</g>
<defs>
<filter id="filter0_i_172_250" x="56.1836" y="17.5903" width="2.85352" height="14.4014" filterUnits="userSpaceOnUse" color-interpolation-filters="sRGB">
<feFlood flood-opacity="0" result="BackgroundImageFix"/>
<feBlend mode="normal" in="SourceGraphic" in2="BackgroundImageFix" result="shape"/>
<feColorMatrix in="SourceAlpha" type="matrix" values="0 0 0 0 0 0 0 0 0 0 0 0 0 0 0 0 0 0 127 0" result="hardAlpha"/>
<feOffset dx="-1"/>
<feComposite in2="hardAlpha" operator="arithmetic" k2="-1" k3="1"/>
<feColorMatrix type="matrix" values="0 0 0 0 0.596078 0 0 0 0 0.623529 0 0 0 0 0.678431 0 0 0 1 0"/>
<feBlend mode="normal" in2="shape" result="effect1_innerShadow_172_250"/>
</filter>
<filter id="filter1_i_172_250" x="38.3662" y="17.5903" width="2.85352" height="14.4014" filterUnits="userSpaceOnUse" color-interpolation-filters="sRGB">
<feFlood flood-opacity="0" result="BackgroundImageFix"/>
<feBlend mode="normal" in="SourceGraphic" in2="BackgroundImageFix" result="shape"/>
<feColorMatrix in="SourceAlpha" type="matrix" values="0 0 0 0 0 0 0 0 0 0 0 0 0 0 0 0 0 0 127 0" result="hardAlpha"/>
<feOffset dx="-1"/>
<feComposite in2="hardAlpha" operator="arithmetic" k2="-1" k3="1"/>
<feColorMatrix type="matrix" values="0 0 0 0 0.596078 0 0 0 0 0.623529 0 0 0 0 0.678431 0 0 0 1 0"/>
<feBlend mode="normal" in2="shape" result="effect1_innerShadow_172_250"/>
</filter>
<linearGradient id="paint0_linear_172_250" x1="47.1072" y1="24.561" x2="50.057" y2="94.4422" gradientUnits="userSpaceOnUse">
<stop stop-color="#858A97"/>
<stop offset="1" stop-color="#545963"/>
</linearGradient>
<linearGradient id="paint1_linear_172_250" x1="48.6231" y1="82.9295" x2="48.6231" y2="42.1553" gradientUnits="userSpaceOnUse">
<stop stop-color="#858A97"/>
<stop offset="1" stop-color="#545963"/>
</linearGradient>
<clipPath id="clip0_172_250">
<rect width="97.4033" height="97.4033" fill="white" transform="translate(0 -1.13184)"/>
</clipPath>
<clipPath id="clip1_172_250">
<rect width="67" height="67" fill="white" transform="translate(15 27.8682)"/>
</clipPath>
<clipPath id="clip2_172_250">
<rect width="15.5768" height="23.1274" fill="white" transform="translate(40.9131 50.2603)"/>
</clipPath>
</defs>
</svg>
