<svg width="24" height="25" viewBox="0 0 24 25" fill="none" xmlns="http://www.w3.org/2000/svg">
<path fill-rule="evenodd" clip-rule="evenodd" d="M12.75 19.4883V21.75H15C15.4142 21.75 15.75 22.0858 15.75 22.5C15.75 22.9142 15.4142 23.25 15 23.25H9C8.58579 23.25 8.25 22.9142 8.25 22.5C8.25 22.0858 8.58579 21.75 9 21.75H11.25V19.4883H12.75Z" fill="#FCFCFD"/>
<path opacity="0.4" d="M21 16.5V8.5C21 6.84315 19.6569 5.5 18 5.5H6C4.34315 5.5 3 6.84315 3 8.5V16.5C3 18.1569 4.34315 19.5 6 19.5H18C19.6569 19.5 21 18.1569 21 16.5Z" fill="#FCFCFD"/>
<path d="M12 3.5C12.8495 2.92128 14.3149 2.60187 15.2023 2.50438C15.6414 2.45614 16 2.81268 16 3.25257V7.63331C16 8.07321 15.6414 8.42988 15.2023 8.47813C14.3149 8.57561 12.8495 8.92128 12 9.5V3.5Z" fill="#FCFCFD"/>
<path d="M12 3.5C11.1505 2.92128 9.68508 2.60187 8.79773 2.50438C8.35857 2.45614 8 2.81268 8 3.25257V7.63331C8 8.07321 8.35857 8.42988 8.79773 8.47813C9.68508 8.57561 11.1505 8.92128 12 9.5V3.5Z" fill="#FCFCFD"/>
</svg>
