<svg width="24" height="24" viewBox="0 0 24 24" fill="none" xmlns="http://www.w3.org/2000/svg">
<path d="M14.52 18.6299C13.71 18.8399 12.87 18.9399 12 18.9399C8.73 18.9399 5.8 17.4099 3.8 14.9899C2.4 13.2999 2.4 10.6899 3.8 9.00993C3.96 8.80993 4.14 8.61993 4.32 8.42993" stroke="#26272C" stroke-width="1.5" stroke-linecap="round" stroke-linejoin="round"/>
<path d="M20.2 14.9901C19.4 15.9501 18.45 16.7701 17.4 17.4101L6.59003 6.59006C8.18003 5.61006 10.02 5.06006 12 5.06006C15.27 5.06006 18.2 6.59006 20.2 9.01006C21.6 10.6901 21.6 13.3101 20.2 14.9901Z" stroke="#26272C" stroke-width="1.5" stroke-linecap="round" stroke-linejoin="round"/>
<path d="M15.08 11.9999C15.08 12.8499 14.73 13.6199 14.18 14.1799L9.82001 9.81992C10.37 9.25992 11.15 8.91992 12 8.91992C13.71 8.91992 15.08 10.2899 15.08 11.9999Z" stroke="#26272C" stroke-width="1.5" stroke-linecap="round" stroke-linejoin="round"/>
<path d="M2.75 2.75L6.59 6.59L9.82 9.82L14.18 14.18L17.41 17.41L21.25 21.25" stroke="#26272C" stroke-width="1.5" stroke-linecap="round" stroke-linejoin="round"/>
</svg>
