<svg width="49" height="48" viewBox="0 0 49 48" fill="none" xmlns="http://www.w3.org/2000/svg">
<path opacity="0.4" fill-rule="evenodd" clip-rule="evenodd" d="M37.7003 14.0799L35.8403 11.2399C35.3003 10.3199 34.2803 9.73987 33.0403 9.69987C31.9203 9.69987 30.8603 10.2399 30.2803 11.0799L29.5403 12.1399L26.1203 5.65996C25.0603 3.85996 22.2403 3.4399 20.6403 5.0999L11.7403 15.0799C8.5603 18.5399 6.82031 22.92 6.82031 27.42C6.82031 28.2 6.9403 29.1399 7.2403 30.5199C7.3003 30.7599 7.36031 31.02 7.44031 31.3L7.54028 31.7599C9.38028 38.5799 15.9403 43.4999 23.9603 43.9999H24.0803C32.3003 43.9999 39.6203 38.8799 41.4403 31.8399C41.5403 31.5599 41.6003 31.2799 41.6803 30.9999C41.7203 30.8399 41.7603 30.6799 41.8403 30.3799C42.0803 29.1799 42.1803 28.28 42.1803 27.56V27.3C42.1803 22.66 39.8803 17.4199 37.7003 14.0799ZM29.6803 36.4599L29.7203 36.2799C29.76 36.1209 29.7998 35.9816 29.8396 35.8425L29.8403 35.8399C29.9003 35.5399 29.9403 35.2199 29.9403 35.0199C29.9403 33.4799 29.3403 31.98 28.2403 30.8L24.2003 26.2599L20.1603 30.78C19.0603 31.98 18.4403 33.4799 18.4403 35.0199C18.4403 35.2199 18.5003 35.5199 18.5803 35.9399C18.6003 35.9599 18.6203 36.1199 18.6603 36.2799C19.1203 37.9599 20.2803 39.22 21.8803 39.92C22.7003 40.28 23.4003 40.4999 24.0203 40.4999H24.1003C24.9403 40.4399 25.7403 40.26 26.5003 39.92C28.1203 39.22 29.2803 37.9599 29.6803 36.4599Z" fill="#E47D07"/>
<path d="M29.7199 36.2798L29.6799 36.4597C29.2799 37.9597 28.1199 39.2198 26.4999 39.9198C25.7399 40.2598 24.9399 40.4398 24.0999 40.4998H24.02C23.4 40.4998 22.6999 40.2798 21.8799 39.9198C20.2799 39.2198 19.1199 37.9598 18.6599 36.2798C18.6199 36.1198 18.6 35.9597 18.58 35.9397C18.5 35.5197 18.4399 35.2198 18.4399 35.0198C18.4399 33.4798 19.0599 31.9798 20.1599 30.7798L24.2 26.2598L28.2399 30.7998C29.3399 31.9798 29.9399 33.4798 29.9399 35.0198C29.9399 35.2198 29.9 35.5397 29.84 35.8397L29.8392 35.8423C29.7995 35.9814 29.7597 36.1208 29.7199 36.2798Z" fill="#E47D07"/>
</svg>
