<svg width="38" height="44" viewBox="0 0 38 44" fill="none" xmlns="http://www.w3.org/2000/svg">
<g opacity="0.4">
<path d="M29.5 22C29.5 24.2091 27.7091 26 25.5 26H9.5V32C9.5 34.2091 11.2909 36 13.5 36H33.5C35.7091 36 37.5 34.2091 37.5 32V16C37.5 13.7909 35.7091 12 33.5 12H29.5V22Z" fill="#CC1E1E"/>
</g>
<path d="M3 28H25.7144C27.8052 28 29.5002 26.2091 29.5002 24V8C29.5002 5.79086 27.8052 4 25.7144 4H3V28Z" fill="#CC1E1E"/>
<path opacity="0.4" fill-rule="evenodd" clip-rule="evenodd" d="M1.5 0.5C2.32843 0.5 3 1.17157 3 2V42C3 42.8284 2.32843 43.5 1.5 43.5C0.671573 43.5 0 42.8284 0 42V2C0 1.17157 0.671573 0.5 1.5 0.5Z" fill="#CC1E1E"/>
</svg>
