<svg width="24" height="24" viewBox="0 0 24 24" fill="none" xmlns="http://www.w3.org/2000/svg">
<path opacity="0.4" fill-rule="evenodd" clip-rule="evenodd" d="M8.42314 2H16.6061C17.2327 2 17.6476 2.65015 17.3838 3.21843L15.7287 6.78322C15.4648 7.35151 15.8798 8.00165 16.5063 8.00165H19.6582C20.433 8.00165 20.8104 8.94779 20.2483 9.48103L7.30508 21.7605C6.67646 22.3569 5.66089 21.7508 5.88741 20.9144L7.58236 14.6561C7.72998 14.1111 7.3195 13.5746 6.7548 13.5746H3.85839C3.23225 13.5746 2.81729 12.9252 3.08035 12.357L7.6451 2.49717C7.78544 2.19403 8.08908 2 8.42314 2ZM10.1998 3.71476H9.93287C9.59404 3.71476 9.287 3.9143 9.14939 4.22392L6.48199 10.2256C6.23 10.7925 6.64502 11.4312 7.26547 11.4312H7.53243C7.87125 11.4312 8.1783 11.2316 8.31591 10.922L10.9833 4.92035C11.2353 4.35338 10.8203 3.71476 10.1998 3.71476Z" fill="#E47D07"/>
<path d="M10.1999 3.71484H9.93297C9.59414 3.71484 9.2871 3.91438 9.14949 4.22401L6.48209 10.2257C6.2301 10.7926 6.64512 11.4313 7.26557 11.4313H7.53253C7.87135 11.4313 8.1784 11.2317 8.31601 10.9221L10.9834 4.92044C11.2354 4.35346 10.8204 3.71484 10.1999 3.71484Z" fill="#E47D07"/>
</svg>
