<svg width="24" height="24" viewBox="0 0 24 24" fill="none" xmlns="http://www.w3.org/2000/svg">
<rect x="0.25" y="3.25" width="23.5" height="16.6429" rx="1.75" fill="white" stroke="#F5F5F5" stroke-width="0.5"/>
<mask id="mask0_25_2201" style="mask-type:luminance" maskUnits="userSpaceOnUse" x="0" y="3" width="24" height="18">
<rect x="0.25" y="3.25" width="23.5" height="16.6429" rx="1.75" fill="white" stroke="white" stroke-width="0.5"/>
</mask>
<g mask="url(#mask0_25_2201)">
<path fill-rule="evenodd" clip-rule="evenodd" d="M0 8.71429H24V3H0V8.71429Z" fill="#FFA44A"/>
<path fill-rule="evenodd" clip-rule="evenodd" d="M0 20.1429H24V14.4286H0V20.1429Z" fill="#1A9F0B"/>
<path d="M11.9999 13.619C13.1308 13.619 14.0475 12.7023 14.0475 11.5714C14.0475 10.4405 13.1308 9.52378 11.9999 9.52378C10.8691 9.52378 9.95231 10.4405 9.95231 11.5714C9.95231 12.7023 10.8691 13.619 11.9999 13.619Z" fill="#181A93" fill-opacity="0.15" stroke="#181A93" stroke-width="0.666667"/>
<path fill-rule="evenodd" clip-rule="evenodd" d="M12.0001 12.1429C12.3157 12.1429 12.5716 11.887 12.5716 11.5714C12.5716 11.2558 12.3157 11 12.0001 11C11.6845 11 11.4287 11.2558 11.4287 11.5714C11.4287 11.887 11.6845 12.1429 12.0001 12.1429Z" fill="#181A93"/>
</g>
</svg>
