<svg width="24" height="24" viewBox="0 0 24 24" fill="none" xmlns="http://www.w3.org/2000/svg">
<rect x="0.25" y="3.25" width="23.5" height="16.6429" rx="1.75" fill="white" stroke="#F5F5F5" stroke-width="0.5"/>
<mask id="mask0_25_2759" style="mask-type:luminance" maskUnits="userSpaceOnUse" x="0" y="3" width="24" height="18">
<rect x="0.25" y="3.25" width="23.5" height="16.6429" rx="1.75" fill="white" stroke="white" stroke-width="0.5"/>
</mask>
<g mask="url(#mask0_25_2759)">
<path fill-rule="evenodd" clip-rule="evenodd" d="M12 15.5714C14.2091 15.5714 16 13.7805 16 11.5714C16 9.36227 14.2091 7.57141 12 7.57141C9.79086 7.57141 8 9.36227 8 11.5714C8 13.7805 9.79086 15.5714 12 15.5714Z" fill="#E01B41"/>
<mask id="mask1_25_2759" style="mask-type:luminance" maskUnits="userSpaceOnUse" x="8" y="7" width="8" height="9">
<path fill-rule="evenodd" clip-rule="evenodd" d="M12 15.5714C14.2091 15.5714 16 13.7805 16 11.5714C16 9.36227 14.2091 7.57141 12 7.57141C9.79086 7.57141 8 9.36227 8 11.5714C8 13.7805 9.79086 15.5714 12 15.5714Z" fill="white"/>
</mask>
<g mask="url(#mask1_25_2759)">
<path fill-rule="evenodd" clip-rule="evenodd" d="M8.00012 12.1428C9.14298 13.2143 10.8573 13.8571 12.0001 12.1428C13.143 10.4285 15.4287 10.4285 16.0001 12.1428C16.5716 13.8571 16.0001 15.5714 16.0001 15.5714H8.00012C8.00012 15.5714 6.85727 11.0714 8.00012 12.1428Z" fill="#0E4B9C"/>
</g>
<path opacity="0.75" fill-rule="evenodd" clip-rule="evenodd" d="M5.26746 6.08976C5.35951 5.93033 5.56337 5.8757 5.7228 5.96775L6.1352 6.20584C6.29463 6.29789 6.34925 6.50175 6.25721 6.66119L4.87625 9.05307C4.78421 9.2125 4.58034 9.26712 4.42091 9.17507L4.00852 8.93698C3.84909 8.84493 3.79446 8.64107 3.88651 8.48164L5.26746 6.08976ZM17.8649 6.20584C17.7055 6.29789 17.6509 6.50175 17.7429 6.66119L19.1239 9.05307C19.2159 9.2125 19.4198 9.26712 19.5792 9.17507L19.9916 8.93698C20.151 8.84493 20.2057 8.64107 20.1136 8.48164L18.7327 6.08976C18.6406 5.93033 18.4367 5.8757 18.2773 5.96775L17.8649 6.20584ZM16.3803 7.06299C16.2209 7.15503 16.1663 7.3589 16.2583 7.51833L17.6393 9.91021C17.7313 10.0696 17.9352 10.1243 18.0946 10.0322L18.507 9.79412C18.6664 9.70207 18.721 9.49821 18.629 9.33878L17.248 6.9469C17.156 6.78747 16.9521 6.73284 16.7927 6.82489L16.3803 7.06299ZM3.88651 14.6612C3.79446 14.5018 3.84909 14.2979 4.00852 14.2058L4.42091 13.9677C4.58034 13.8757 4.78421 13.9303 4.87625 14.0898L6.25721 16.4816C6.34925 16.6411 6.29463 16.8449 6.1352 16.937L5.72281 17.1751C5.56337 17.2671 5.35951 17.2125 5.26746 17.0531L3.88651 14.6612ZM5.49313 13.3487C5.3337 13.4407 5.27908 13.6446 5.37113 13.804L6.75208 16.1959C6.84413 16.3554 7.04799 16.41 7.20742 16.3179L7.61981 16.0798C7.77924 15.9878 7.83387 15.7839 7.74182 15.6245L6.36087 13.2326C6.26882 13.0732 6.06496 13.0186 5.90553 13.1106L5.49313 13.3487ZM17.6393 13.2326C17.7313 13.0732 17.9352 13.0186 18.0946 13.1106L18.507 13.3487C18.6664 13.4407 18.721 13.6446 18.629 13.804L17.248 16.1959C17.156 16.3554 16.9521 16.41 16.7927 16.3179L16.3803 16.0798C16.2209 15.9878 16.1663 15.7839 16.2583 15.6245L17.6393 13.2326ZM19.5792 13.9677C19.4198 13.8757 19.2159 13.9303 19.1239 14.0898L17.7429 16.4816C17.6509 16.6411 17.7055 16.8449 17.8649 16.937L18.2773 17.1751C18.4367 17.2671 18.6406 17.2125 18.7327 17.0531L20.1136 14.6612C20.2057 14.5018 20.151 14.2979 19.9916 14.2058L19.5792 13.9677ZM7.20742 6.82489C7.04799 6.73284 6.84413 6.78747 6.75208 6.9469L5.37113 9.33878C5.27908 9.49821 5.3337 9.70207 5.49313 9.79412L5.90553 10.0322C6.06496 10.1243 6.26882 10.0696 6.36087 9.91021L7.74182 7.51833C7.83387 7.3589 7.77924 7.15503 7.61981 7.06299L7.20742 6.82489Z" fill="#262626"/>
</g>
</svg>
