<svg width="160" height="161" viewBox="0 0 160 161" fill="none" xmlns="http://www.w3.org/2000/svg">
<g clip-path="url(#clip0_65_1201)">
<rect width="160" height="160" transform="translate(0 0.868286)" fill="#3A6AE2"/>
<path d="M3.75478 102.898C0.440207 113.821 -2.54125 124.839 -5.1823 135.945L-5.18208 135.952C-8.68561 150.687 -11.6088 166.013 -8.78672 180.893C-4.11029 205.538 24.7972 217.465 48.1121 220.943C73.1241 223.618 96.8258 224.633 121.988 220.886C145.303 217.408 164.11 205.547 168.787 180.902C171.609 166.022 168.686 150.696 165.182 135.961L165.182 135.954C162.541 124.848 159.56 113.83 156.245 102.907C152.773 91.4621 149.133 80.3722 145.093 69.1055C141.323 58.6049 136.424 48.2215 128.498 40.1897C124.706 36.3477 120.272 32.8998 115.074 31.4417C109.378 29.8413 104.934 31.6109 99.8363 33.9395C95.0274 36.1338 92.5514 40.7087 90.5734 45.4557C87.256 53.3919 85.6286 61.6462 83.3848 69.8389C80.842 69.9132 79.4015 69.7485 76.6152 69.8299C74.3714 61.6372 72.744 53.3828 69.4266 45.4467C67.4486 40.6996 64.9726 36.1248 60.1637 33.9304C55.0656 31.6018 50.6221 29.8323 44.9255 31.4326C39.7279 32.8907 35.294 36.3386 31.5024 40.1806C23.5763 48.2125 18.6769 58.5959 14.907 69.0964C10.8668 80.3631 7.22676 91.453 3.75478 102.898Z" fill="white"/>
<path d="M86.4613 77.6787C83.3875 80.4652 79.975 82.304 76.1508 79.4568C73.9708 77.8305 71.9925 75.9216 70.2878 73.799C69.7963 73.1897 69.3163 72.535 69.1108 71.7779C67.2233 64.952 83.3055 66.0381 86.5273 66.7021C91.1678 67.6606 92.3519 70.5652 89.5187 74.4775C89.0204 75.1612 88.4269 75.763 87.8259 76.3653C87.3769 76.8151 86.9273 77.2574 86.4681 77.6708L86.4613 77.6787Z" fill="#FFCE08"/>
<path d="M50.7191 54.2652C54.7104 57.739 55.1292 63.7998 51.6554 67.791C48.1815 71.7823 42.1207 72.2011 38.1295 68.7273C34.1383 65.2534 33.7194 59.1926 37.1933 55.2014C40.6671 51.2102 46.7279 50.7913 50.7191 54.2652Z" fill="#0F0F10"/>
<path d="M43.8452 67.4214C42.8597 68.4808 40.9133 68.2837 39.5337 66.978C38.1293 65.6722 37.809 63.7505 38.7945 62.6911C39.78 61.6317 40.2481 63.4056 41.6525 64.7113C43.0568 66.0171 44.8553 66.362 43.8452 67.4214Z" fill="white"/>
<path d="M52.6657 55.9405L51.0396 51.9L49.4382 55.9405L45.4962 57.468L49.3643 58.6999L51.0396 63.0361L52.7396 58.6999L56.6077 57.468L52.6657 55.9405Z" fill="white"/>
<path d="M125.665 54.2652C129.657 57.739 130.076 63.7998 126.602 67.791C123.128 71.7823 117.067 72.2011 113.076 68.7273C109.085 65.2534 108.666 59.1926 112.14 55.2014C115.613 51.2102 121.674 50.7913 125.665 54.2652Z" fill="#0F0F10"/>
<path d="M118.792 67.4214C117.806 68.4808 115.86 68.2837 114.48 66.978C113.101 65.6722 112.756 63.7505 113.741 62.6911C114.727 61.6317 115.195 63.4056 116.599 64.7113C118.004 66.0171 119.802 66.362 118.792 67.4214Z" fill="white"/>
<path d="M127.612 55.9405L125.986 51.9L124.36 55.9405L120.418 57.468L124.311 58.6999L125.986 63.0361L127.686 58.6999L131.554 57.468L127.612 55.9405Z" fill="white"/>
<path d="M31.475 97.2413C37.2857 97.2413 41.9962 93.5798 41.9962 89.063C41.9962 84.5463 37.2857 80.8847 31.475 80.8847C25.6644 80.8847 20.9539 84.5463 20.9539 89.063C20.9539 93.5798 25.6644 97.2413 31.475 97.2413Z" fill="#F6C1C1"/>
<path d="M128.525 97.2413C134.336 97.2413 139.046 93.5798 139.046 89.063C139.046 84.5463 134.336 80.8847 128.525 80.8847C122.714 80.8847 118.004 84.5463 118.004 89.063C118.004 93.5798 122.714 97.2413 128.525 97.2413Z" fill="#F6C1C1"/>
</g>
<defs>
<clipPath id="clip0_65_1201">
<rect width="160" height="160" fill="white" transform="translate(0 0.868286)"/>
</clipPath>
</defs>
</svg>
