<svg width="99" height="96" viewBox="0 0 99 96" fill="none" xmlns="http://www.w3.org/2000/svg">
<g clip-path="url(#clip0_172_1173)">
<g filter="url(#filter0_i_172_1173)">
<path d="M58.5347 31.1238C57.7465 31.1238 57.1079 30.4849 57.1079 29.697V18.149C57.1079 17.361 57.7465 16.7222 58.5347 16.7222C59.3229 16.7222 59.9615 17.361 59.9615 18.149V29.697C59.9615 30.4849 59.3229 31.1238 58.5347 31.1238Z" fill="#FAF166"/>
</g>
<g filter="url(#filter1_i_172_1173)">
<path d="M40.7173 31.1238C39.9292 31.1238 39.2905 30.4849 39.2905 29.697V18.149C39.2905 17.361 39.9292 16.7222 40.7173 16.7222C41.5055 16.7222 42.1441 17.361 42.1441 18.149V29.697C42.1441 30.4849 41.5053 31.1238 40.7173 31.1238Z" fill="#FAF166"/>
</g>
<path d="M43.3154 11.2792L58.5345 13.8379L59.5243 14.6L60.5141 13.8379L81.3563 0.0943604C82.3017 -0.529059 81.8605 -2 80.728 -2H66.2191C65.2511 -2 64.3043 -1.71597 63.4962 -1.18311L49.6257 7.96329L43.3154 11.2792Z" fill="#FF4452"/>
<path d="M58.5345 13.8379L48.5292 16.1357L38.7373 13.8379L17.8951 0.0943604C16.9498 -0.529059 17.391 -2 18.5235 -2H33.0324C34.0003 -2 34.9471 -1.71597 35.7553 -1.18311L58.5345 13.8379Z" fill="#FF5B65"/>
<g clip-path="url(#clip1_172_1173)">
<path d="M49.5078 27.2212C31.0507 27.2212 16.0898 42.1688 16.0898 60.6078C16.0898 79.0469 31.0507 93.9998 49.5078 93.9998C67.9648 93.9998 82.9244 79.0482 82.9244 60.6078C82.9244 42.1675 67.961 27.2212 49.5078 27.2212Z" fill="url(#paint0_linear_172_1173)"/>
<path d="M49.3422 92.5027C31.1365 92.5027 16.3322 77.9544 15.9346 59.8594C15.9294 60.1085 15.9243 60.3576 15.9243 60.608C15.9243 79.0484 30.8852 93.9999 49.3422 93.9999C67.7993 93.9999 82.7589 79.0484 82.7589 60.608C82.7589 60.3589 82.755 60.1085 82.7499 59.8594C82.351 77.9544 67.5453 92.5014 49.3422 92.5014V92.5027Z" fill="#FFF064"/>
<g style="mix-blend-mode:overlay" opacity="0.35">
<path d="M49.5078 27.2212C31.0507 27.2212 16.0898 42.1688 16.0898 60.6078C16.0898 61.0164 16.1065 61.4145 16.1232 61.8191C24.6341 69.4465 36.354 74.1636 49.291 74.1636C62.228 74.1636 74.357 69.2804 82.9026 61.4132C82.909 61.143 82.9244 60.8807 82.9244 60.6078C82.9244 42.1688 67.961 27.2212 49.5078 27.2212Z" fill="white"/>
</g>
<g style="mix-blend-mode:overlay" opacity="0.49">
<path d="M76.1755 40.4027C70.0731 32.3944 60.4323 27.2212 49.5794 27.2212C38.7265 27.2212 28.9343 32.4722 22.8384 40.5845C30.3938 45.2451 39.5255 47.9747 49.3626 47.9747C59.1997 47.9747 68.5648 45.1752 76.1755 40.4027Z" fill="white"/>
</g>
<g style="mix-blend-mode:overlay" opacity="0.49">
<path d="M49.5062 29.131C67.6388 29.131 82.3893 43.5699 82.8972 61.5634C82.9087 61.2471 82.9228 60.9294 82.9228 60.6078C82.9228 42.1688 67.9607 27.2212 49.5062 27.2212C31.0517 27.2212 16.0908 42.1688 16.0908 60.6078C16.0908 60.9294 16.1062 61.2471 16.1152 61.5634C16.6231 43.5699 31.3723 29.131 49.5062 29.131Z" fill="white"/>
</g>
<path d="M44.9996 29.4157C46.5554 29.2931 48.1585 29.9021 47.3813 30.5953C46.6028 31.2912 41.3431 34.4084 39.0499 32.4814C36.7529 30.5518 43.1707 29.5594 44.9996 29.4157Z" fill="white"/>
<path d="M26.9193 37.9051C22.0508 42.1149 18.116 49.8925 18.2147 54.437C18.3135 58.9789 20.6759 51.8511 21.8956 49.2651C23.1179 46.6805 29.2151 38.7922 33.636 36.4066C38.0582 34.017 34.5325 31.323 26.9193 37.9051Z" fill="white"/>
<path d="M49.5487 35.7476C35.8255 35.7476 24.7007 46.865 24.7007 60.5737C24.7007 74.2824 35.8255 85.3998 49.5487 85.3998C63.2719 85.3998 74.3928 74.285 74.3928 60.5737C74.3928 46.8624 63.2719 35.7476 49.5487 35.7476Z" fill="url(#paint1_linear_172_1173)"/>
<g style="mix-blend-mode:overlay" opacity="0.35">
<path d="M49.5078 87.0555C35.0407 87.0555 23.2695 75.2803 23.2695 60.8059C23.2695 46.3314 35.0407 34.5576 49.5078 34.5576C63.9749 34.5576 75.7435 46.3328 75.7435 60.8059C75.7435 75.279 63.9736 87.0555 49.5078 87.0555ZM49.5078 36.9393C36.3194 36.9393 25.5884 47.6455 25.5884 60.8059C25.5884 73.9663 36.3194 84.6725 49.5078 84.6725C62.6962 84.6725 73.4246 73.9663 73.4246 60.8059C73.4246 47.6455 62.6962 36.9393 49.5078 36.9393Z" fill="white"/>
</g>
<g style="mix-blend-mode:multiply" opacity="0.44">
<path d="M49.5488 35.7476C42.2614 35.7476 35.7076 38.8831 31.1636 43.8797C35.5986 39.7609 41.5368 37.2422 48.07 37.2422C61.7894 37.2422 72.9129 48.3557 72.9129 62.067C72.9129 68.4989 70.4671 74.3575 66.4527 78.7676C71.3392 74.2336 74.3942 67.7622 74.3942 60.575C74.3942 46.8663 63.2733 35.7489 49.5501 35.7489L49.5488 35.7476Z" fill="#CE7C1D"/>
</g>
<g style="mix-blend-mode:multiply" opacity="0.44">
<path d="M34.0725 75.259C34.0725 59.2372 45.196 50.4342 58.9166 50.4342C64.5239 50.4342 69.6951 52.29 73.8506 55.4203C71.4766 44.1829 61.4971 35.7476 49.5438 35.7476C35.8232 35.7476 24.6997 46.865 24.6997 60.5737C24.6997 68.6874 28.5935 75.8877 34.6112 80.4191C34.2623 78.7544 34.0725 77.0291 34.0725 75.259Z" fill="#CE7C1D"/>
</g>
<path d="M49.5487 84.0465C36.0666 84.0465 25.1008 73.3113 24.7238 59.9321C24.7135 60.1707 24.7007 60.4053 24.7007 60.6465C24.7007 74.3604 35.8255 85.4726 49.5487 85.4726C63.2719 85.4726 74.3928 74.3604 74.3928 60.6465C74.3928 60.4066 74.3825 60.1707 74.3748 59.9321C73.9939 73.3126 63.0307 84.0465 49.5474 84.0465H49.5487Z" fill="#FFF064"/>
<path opacity="0.7" d="M25.0638 44.1434C26.8568 42.0754 32.128 35.7305 32.128 35.7305C32.128 35.7305 36.531 27.2385 36.6374 26.9999C36.6669 26.9314 31.0096 34.9845 31.0096 34.9845L25.0625 44.1421L25.0638 44.1434Z" fill="white"/>
<path d="M32.6165 34.2107C30.9928 32.9046 31.2878 29.2352 31.275 28.1953V29.1904C31.275 29.0309 31.2621 28.8596 31.2621 28.8227V28.1953C31.2596 28.4932 31.239 28.965 31.1724 29.5094C31.1724 29.5094 30.6952 33.1932 29.8372 33.9537C27.9032 35.6988 23.0333 35.3627 24.9007 35.4062C31.207 35.5459 31.207 41.871 31.2634 43.9456V42.9017C31.2685 42.9769 31.2762 43.0388 31.2762 43.0757V43.9456C31.4096 39.0347 31.3929 35.9268 36.8951 35.5116C38.7175 35.368 34.5172 35.7291 32.6178 34.2094L32.6165 34.2107Z" fill="white"/>
</g>
<path d="M61.9005 20.1734H37.3518C36.4771 20.1734 35.7681 19.4644 35.7681 18.5896V15.4221C35.7681 14.5474 36.4771 13.8384 37.3518 13.8384H61.9005C62.7752 13.8384 63.4842 14.5474 63.4842 15.4221V18.5896C63.4844 19.4644 62.7752 20.1734 61.9005 20.1734Z" fill="#FAF166"/>
<path d="M61.9004 13.8384H55.5654C56.4402 13.8384 57.1492 14.5474 57.1492 15.4221V18.5896C57.1492 19.4644 56.4402 20.1734 55.5654 20.1734H61.9006C62.7754 20.1734 63.4844 19.4644 63.4844 18.5896V15.4221C63.4844 14.5474 62.7752 13.8384 61.9004 13.8384Z" fill="#F2D93F"/>
<g clip-path="url(#clip2_172_1173)">
<path d="M57.4142 71.339L53.4349 59.762C54.8036 58.7892 55.6997 57.1933 55.6997 55.3868C55.6987 52.4212 52.6083 49.4126 49.6427 49.4126C46.6771 49.4126 44.9605 52.4212 44.9605 55.3868C44.9605 57.1033 45.7697 58.6286 47.0239 59.6117L41.8374 70.714C41.8374 70.714 43.066 72.2024 48.4919 72.5175V72.5206C48.4919 72.5206 48.4919 72.5206 48.6494 72.5206H51.9147V72.5175C55.0972 72.4797 57.4142 71.3401 57.4142 71.3401V71.339Z" fill="#FFF064"/>
<path d="M56.2593 70.714L52.2799 59.137C53.6487 58.1641 54.5448 56.5683 54.5448 54.7617C54.5438 51.7961 52.1398 49.3921 49.1752 49.3921C46.2106 49.3921 43.8056 51.7961 43.8056 54.7617C43.8056 56.4782 44.6148 58.0035 45.8689 58.9866L41.8374 70.714C41.8374 70.714 44.1544 71.8536 47.3369 71.8914V71.8945C47.3369 71.8945 47.3369 71.8945 47.4945 71.8945H50.7598V71.8914C53.9423 71.8536 56.2593 70.714 56.2593 70.714Z" fill="#AF5904"/>
</g>
</g>
<defs>
<filter id="filter0_i_172_1173" x="57.1079" y="16.7222" width="2.85352" height="14.4014" filterUnits="userSpaceOnUse" color-interpolation-filters="sRGB">
<feFlood flood-opacity="0" result="BackgroundImageFix"/>
<feBlend mode="normal" in="SourceGraphic" in2="BackgroundImageFix" result="shape"/>
<feColorMatrix in="SourceAlpha" type="matrix" values="0 0 0 0 0 0 0 0 0 0 0 0 0 0 0 0 0 0 127 0" result="hardAlpha"/>
<feOffset dx="-1"/>
<feComposite in2="hardAlpha" operator="arithmetic" k2="-1" k3="1"/>
<feColorMatrix type="matrix" values="0 0 0 0 0.94902 0 0 0 0 0.85098 0 0 0 0 0.247059 0 0 0 1 0"/>
<feBlend mode="normal" in2="shape" result="effect1_innerShadow_172_1173"/>
</filter>
<filter id="filter1_i_172_1173" x="39.2905" y="16.7222" width="2.85352" height="14.4014" filterUnits="userSpaceOnUse" color-interpolation-filters="sRGB">
<feFlood flood-opacity="0" result="BackgroundImageFix"/>
<feBlend mode="normal" in="SourceGraphic" in2="BackgroundImageFix" result="shape"/>
<feColorMatrix in="SourceAlpha" type="matrix" values="0 0 0 0 0 0 0 0 0 0 0 0 0 0 0 0 0 0 127 0" result="hardAlpha"/>
<feOffset dx="-1"/>
<feComposite in2="hardAlpha" operator="arithmetic" k2="-1" k3="1"/>
<feColorMatrix type="matrix" values="0 0 0 0 0.94902 0 0 0 0 0.85098 0 0 0 0 0.247059 0 0 0 1 0"/>
<feBlend mode="normal" in2="shape" result="effect1_innerShadow_172_1173"/>
</filter>
<linearGradient id="paint0_linear_172_1173" x1="48.0316" y1="23.6929" x2="50.9813" y2="93.574" gradientUnits="userSpaceOnUse">
<stop stop-color="#F7E436"/>
<stop offset="1" stop-color="#CE7C1D"/>
</linearGradient>
<linearGradient id="paint1_linear_172_1173" x1="49.5474" y1="82.0613" x2="49.5474" y2="41.2872" gradientUnits="userSpaceOnUse">
<stop stop-color="#F7E436"/>
<stop offset="1" stop-color="#CE7C1D"/>
</linearGradient>
<clipPath id="clip0_172_1173">
<rect width="97.4033" height="97.4033" fill="white" transform="translate(0.924316 -2)"/>
</clipPath>
<clipPath id="clip1_172_1173">
<rect width="67" height="67" fill="white" transform="translate(15.9243 27)"/>
</clipPath>
<clipPath id="clip2_172_1173">
<rect width="15.5768" height="23.1274" fill="white" transform="translate(41.8374 49.3921)"/>
</clipPath>
</defs>
</svg>
