<svg width="24" height="24" viewBox="0 0 24 24" fill="none" xmlns="http://www.w3.org/2000/svg">
<path fill-rule="evenodd" clip-rule="evenodd" d="M7 16.1074V20.523C7 21.2304 7.71453 21.7142 8.37139 21.4514L11.6286 20.1486C11.867 20.0532 12.133 20.0532 12.3714 20.1486L15.6286 21.4514C16.2855 21.7142 17 21.2304 17 20.523V16.1074C16.7817 16.204 16.5443 16.2657 16.2949 16.2856L15.358 16.3604C14.9028 16.3967 14.4706 16.5757 14.123 16.872L13.4077 17.4815C12.5965 18.1728 11.4035 18.1728 10.5923 17.4815L9.87701 16.872C9.52941 16.5757 9.09722 16.3967 8.64196 16.3604L7.70513 16.2856C7.4557 16.2657 7.21832 16.204 7 16.1074Z" fill="#F89524"/>
<path opacity="0.4" d="M10.5923 2.51845C11.4035 1.82718 12.5965 1.82718 13.4077 2.51845L14.123 3.12803C14.4706 3.42425 14.9028 3.60327 15.358 3.6396L16.2949 3.71436C17.3572 3.79914 18.2009 4.64275 18.2856 5.70513L18.3604 6.64196C18.3967 7.09722 18.5757 7.52941 18.872 7.87701L19.4815 8.59231C20.1728 9.40347 20.1728 10.5965 19.4815 11.4077L18.872 12.123C18.5757 12.4706 18.3967 12.9028 18.3604 13.358L18.2856 14.2949C18.2009 15.3572 17.3572 16.2009 16.2949 16.2856L15.358 16.3604C14.9028 16.3967 14.4706 16.5757 14.123 16.872L13.4077 17.4815C12.5965 18.1728 11.4035 18.1728 10.5923 17.4815L9.87701 16.872C9.52941 16.5757 9.09722 16.3967 8.64196 16.3604L7.70513 16.2856C6.64275 16.2009 5.79914 15.3572 5.71436 14.2949L5.6396 13.358C5.60327 12.9028 5.42425 12.4706 5.12803 12.123L4.51845 11.4077C3.82718 10.5965 3.82718 9.40347 4.51845 8.59231L5.12803 7.87701C5.42425 7.52941 5.60327 7.09722 5.6396 6.64196L5.71436 5.70513C5.79914 4.64275 6.64275 3.79914 7.70513 3.71436L8.64196 3.6396C9.09722 3.60327 9.52941 3.42425 9.87701 3.12803L10.5923 2.51845Z" fill="#F89524"/>
<path d="M10.55 13.13C10.3767 13.13 10.24 13.0833 10.14 12.99C10.0467 12.89 10 12.7567 10 12.59C10 12.4167 10.0467 12.2867 10.14 12.2C10.24 12.1133 10.3767 12.07 10.55 12.07H11.67V7.16H12.29L10.82 8.05C10.6933 8.12333 10.5733 8.15333 10.46 8.14C10.3533 8.12 10.26 8.07333 10.18 8C10.1067 7.92 10.0567 7.82667 10.03 7.72C10.0033 7.61333 10.01 7.50667 10.05 7.4C10.0967 7.28667 10.1833 7.19333 10.31 7.12L11.69 6.29C11.8233 6.21 11.9567 6.14333 12.09 6.09C12.2233 6.03 12.3467 6 12.46 6C12.6 6 12.7167 6.04 12.81 6.12C12.9033 6.19333 12.95 6.31667 12.95 6.49V12.07H13.97C14.1433 12.07 14.2767 12.1133 14.37 12.2C14.47 12.2867 14.52 12.4167 14.52 12.59C14.52 12.7633 14.47 12.8967 14.37 12.99C14.2767 13.0833 14.1433 13.13 13.97 13.13H10.55Z" fill="#F89524"/>
</svg>
