<svg width="24" height="18" viewBox="0 0 24 18" fill="none" xmlns="http://www.w3.org/2000/svg">
<rect width="24" height="17.1429" rx="2" fill="white"/>
<mask id="mask0_25_3331" style="mask-type:luminance" maskUnits="userSpaceOnUse" x="0" y="0" width="24" height="18">
<rect width="24" height="17.1429" rx="2" fill="white"/>
</mask>
<g mask="url(#mask0_25_3331)">
<path fill-rule="evenodd" clip-rule="evenodd" d="M24 0H0V1.14286H24V0ZM24 2.28571H0V3.42857H24V2.28571ZM0 4.57143H24V5.71429H0V4.57143ZM24 6.85714H0V8H24V6.85714ZM0 9.14286H24V10.2857H0V9.14286ZM24 11.4286H0V12.5714H24V11.4286ZM0 13.7143H24V14.8571H0V13.7143ZM24 16H0V17.1429H24V16Z" fill="#D02F44"/>
<rect width="10.2857" height="8" fill="#46467F"/>
<g filter="url(#filter0_d_25_3331)">
<path fill-rule="evenodd" clip-rule="evenodd" d="M2.28592 1.71428C2.28592 2.02987 2.03009 2.28571 1.7145 2.28571C1.3989 2.28571 1.14307 2.02987 1.14307 1.71428C1.14307 1.39869 1.3989 1.14285 1.7145 1.14285C2.03009 1.14285 2.28592 1.39869 2.28592 1.71428ZM4.57164 1.71428C4.57164 2.02987 4.3158 2.28571 4.00021 2.28571C3.68462 2.28571 3.42878 2.02987 3.42878 1.71428C3.42878 1.39869 3.68462 1.14285 4.00021 1.14285C4.3158 1.14285 4.57164 1.39869 4.57164 1.71428ZM6.28592 2.28571C6.60151 2.28571 6.85735 2.02987 6.85735 1.71428C6.85735 1.39869 6.60151 1.14285 6.28592 1.14285C5.97033 1.14285 5.7145 1.39869 5.7145 1.71428C5.7145 2.02987 5.97033 2.28571 6.28592 2.28571ZM9.14307 1.71428C9.14307 2.02987 8.88723 2.28571 8.57164 2.28571C8.25605 2.28571 8.00021 2.02987 8.00021 1.71428C8.00021 1.39869 8.25605 1.14285 8.57164 1.14285C8.88723 1.14285 9.14307 1.39869 9.14307 1.71428ZM2.85735 3.42857C3.17294 3.42857 3.42878 3.17273 3.42878 2.85714C3.42878 2.54155 3.17294 2.28571 2.85735 2.28571C2.54176 2.28571 2.28592 2.54155 2.28592 2.85714C2.28592 3.17273 2.54176 3.42857 2.85735 3.42857ZM5.7145 2.85714C5.7145 3.17273 5.45866 3.42857 5.14307 3.42857C4.82748 3.42857 4.57164 3.17273 4.57164 2.85714C4.57164 2.54155 4.82748 2.28571 5.14307 2.28571C5.45866 2.28571 5.7145 2.54155 5.7145 2.85714ZM7.42878 3.42857C7.74437 3.42857 8.00021 3.17273 8.00021 2.85714C8.00021 2.54155 7.74437 2.28571 7.42878 2.28571C7.11319 2.28571 6.85735 2.54155 6.85735 2.85714C6.85735 3.17273 7.11319 3.42857 7.42878 3.42857ZM9.14307 4C9.14307 4.31559 8.88723 4.57142 8.57164 4.57142C8.25605 4.57142 8.00021 4.31559 8.00021 4C8.00021 3.6844 8.25605 3.42857 8.57164 3.42857C8.88723 3.42857 9.14307 3.6844 9.14307 4ZM6.28592 4.57142C6.60151 4.57142 6.85735 4.31559 6.85735 4C6.85735 3.6844 6.60151 3.42857 6.28592 3.42857C5.97033 3.42857 5.7145 3.6844 5.7145 4C5.7145 4.31559 5.97033 4.57142 6.28592 4.57142ZM4.57164 4C4.57164 4.31559 4.3158 4.57142 4.00021 4.57142C3.68462 4.57142 3.42878 4.31559 3.42878 4C3.42878 3.6844 3.68462 3.42857 4.00021 3.42857C4.3158 3.42857 4.57164 3.6844 4.57164 4ZM1.7145 4.57142C2.03009 4.57142 2.28592 4.31559 2.28592 4C2.28592 3.6844 2.03009 3.42857 1.7145 3.42857C1.3989 3.42857 1.14307 3.6844 1.14307 4C1.14307 4.31559 1.3989 4.57142 1.7145 4.57142ZM3.42878 5.14285C3.42878 5.45844 3.17294 5.71428 2.85735 5.71428C2.54176 5.71428 2.28592 5.45844 2.28592 5.14285C2.28592 4.82726 2.54176 4.57142 2.85735 4.57142C3.17294 4.57142 3.42878 4.82726 3.42878 5.14285ZM5.14307 5.71428C5.45866 5.71428 5.7145 5.45844 5.7145 5.14285C5.7145 4.82726 5.45866 4.57142 5.14307 4.57142C4.82748 4.57142 4.57164 4.82726 4.57164 5.14285C4.57164 5.45844 4.82748 5.71428 5.14307 5.71428ZM8.00021 5.14285C8.00021 5.45844 7.74437 5.71428 7.42878 5.71428C7.11319 5.71428 6.85735 5.45844 6.85735 5.14285C6.85735 4.82726 7.11319 4.57142 7.42878 4.57142C7.74437 4.57142 8.00021 4.82726 8.00021 5.14285ZM8.57164 6.85714C8.88723 6.85714 9.14307 6.6013 9.14307 6.28571C9.14307 5.97012 8.88723 5.71428 8.57164 5.71428C8.25605 5.71428 8.00021 5.97012 8.00021 6.28571C8.00021 6.6013 8.25605 6.85714 8.57164 6.85714ZM6.85735 6.28571C6.85735 6.6013 6.60151 6.85714 6.28592 6.85714C5.97033 6.85714 5.7145 6.6013 5.7145 6.28571C5.7145 5.97012 5.97033 5.71428 6.28592 5.71428C6.60151 5.71428 6.85735 5.97012 6.85735 6.28571ZM4.00021 6.85714C4.3158 6.85714 4.57164 6.6013 4.57164 6.28571C4.57164 5.97012 4.3158 5.71428 4.00021 5.71428C3.68462 5.71428 3.42878 5.97012 3.42878 6.28571C3.42878 6.6013 3.68462 6.85714 4.00021 6.85714ZM2.28592 6.28571C2.28592 6.6013 2.03009 6.85714 1.7145 6.85714C1.3989 6.85714 1.14307 6.6013 1.14307 6.28571C1.14307 5.97012 1.3989 5.71428 1.7145 5.71428C2.03009 5.71428 2.28592 5.97012 2.28592 6.28571Z" fill="url(#paint0_linear_25_3331)"/>
</g>
</g>
<defs>
<filter id="filter0_d_25_3331" x="1.14307" y="1.14285" width="8" height="6.71429" filterUnits="userSpaceOnUse" color-interpolation-filters="sRGB">
<feFlood flood-opacity="0" result="BackgroundImageFix"/>
<feColorMatrix in="SourceAlpha" type="matrix" values="0 0 0 0 0 0 0 0 0 0 0 0 0 0 0 0 0 0 127 0" result="hardAlpha"/>
<feOffset dy="1"/>
<feColorMatrix type="matrix" values="0 0 0 0 0 0 0 0 0 0 0 0 0 0 0 0 0 0 0.06 0"/>
<feBlend mode="normal" in2="BackgroundImageFix" result="effect1_dropShadow_25_3331"/>
<feBlend mode="normal" in="SourceGraphic" in2="effect1_dropShadow_25_3331" result="shape"/>
</filter>
<linearGradient id="paint0_linear_25_3331" x1="1.14307" y1="1.14285" x2="1.14307" y2="6.85714" gradientUnits="userSpaceOnUse">
<stop stop-color="white"/>
<stop offset="1" stop-color="#F0F0F0"/>
</linearGradient>
</defs>
</svg>
