<svg width="24" height="24" viewBox="0 0 24 24" fill="none" xmlns="http://www.w3.org/2000/svg">
<path d="M9 20.75V10.75C9 9.64543 9.89543 8.75 11 8.75H13C14.1046 8.75 15 9.64543 15 10.75V20.75M9 20.75C9 21.8546 9.89543 22.75 11 22.75H13C14.1046 22.75 15 21.8546 15 20.75M9 20.75V14.75C9 13.6454 8.10457 12.75 7 12.75H5C3.89543 12.75 3 13.6454 3 14.75V20.75C3 21.8546 3.89543 22.75 5 22.75H7C8.10457 22.75 9 21.8546 9 20.75ZM15 20.75V16.75C15 15.6454 15.8954 14.75 17 14.75H19C20.1046 14.75 21 15.6454 21 16.75V20.75C21 21.8546 20.1046 22.75 19 22.75H17C15.8954 22.75 15 21.8546 15 20.75Z" stroke="#26272C" stroke-width="1.5"/>
<path d="M11.5245 2.71353C11.6741 2.25287 12.3259 2.25287 12.4755 2.71353L12.6324 3.1963C12.6993 3.40232 12.8913 3.5418 13.1079 3.5418H13.6155C14.0999 3.5418 14.3013 4.1616 13.9094 4.4463L13.4988 4.74468C13.3235 4.872 13.2502 5.09768 13.3171 5.3037L13.474 5.78647C13.6237 6.24713 13.0964 6.63019 12.7046 6.34549L12.2939 6.04712C12.1186 5.9198 11.8814 5.9198 11.7061 6.04712L11.2954 6.34549C10.9036 6.63019 10.3763 6.24713 10.526 5.78647L10.6829 5.3037C10.7498 5.09768 10.6765 4.872 10.5012 4.74468L10.0906 4.4463C9.69871 4.1616 9.90009 3.5418 10.3845 3.5418H10.8921C11.1087 3.5418 11.3007 3.40232 11.3676 3.1963L11.5245 2.71353Z" fill="#26272C"/>
</svg>
