<svg width="24" height="24" viewBox="0 0 24 24" fill="none" xmlns="http://www.w3.org/2000/svg">
<path fill-rule="evenodd" clip-rule="evenodd" d="M12.4755 2.15457C12.3259 1.69392 11.6741 1.69392 11.5245 2.15457L11.3676 2.63735C11.3007 2.84336 11.1087 2.98284 10.8921 2.98284H10.3845C9.90009 2.98284 9.69871 3.60265 10.0906 3.88735L10.5012 4.18573C10.6765 4.31305 10.7498 4.53873 10.6829 4.74474L10.526 5.22752C10.3763 5.68818 10.9036 6.07124 11.2954 5.78654L11.7061 5.48817C11.8814 5.36084 12.1186 5.36084 12.2939 5.48817L12.7046 5.78654C13.0964 6.07124 13.6237 5.68818 13.474 5.22752L13.3171 4.74474C13.2502 4.53873 13.3235 4.31305 13.4988 4.18573L13.9094 3.88735C14.3013 3.60265 14.0999 2.98284 13.6155 2.98284H13.1079C12.8913 2.98284 12.6993 2.84336 12.6324 2.63735L12.4755 2.15457ZM11 8.19105C9.89543 8.19105 9 9.08648 9 10.191V20.191C9 21.2956 9.89543 22.191 11 22.191H13C14.1046 22.191 15 21.2956 15 20.191V10.191C15 9.08648 14.1046 8.19105 13 8.19105H11ZM18 14.191C16.8954 14.191 16 15.0865 16 16.191V20.191C16 21.2956 16.8954 22.191 18 22.191H20C21.1046 22.191 22 21.2956 22 20.191V16.191C22 15.0865 21.1046 14.191 20 14.191H18ZM2 14.191C2 13.0865 2.89543 12.191 4 12.191H6C7.10457 12.191 8 13.0865 8 14.191V20.191C8 21.2956 7.10457 22.191 6 22.191H4C2.89543 22.191 2 21.2956 2 20.191V14.191Z" fill="#26272C"/>
</svg>
