<svg width="24" height="24" viewBox="0 0 24 24" fill="none" xmlns="http://www.w3.org/2000/svg">
<path fill-rule="evenodd" clip-rule="evenodd" d="M18.625 10.875C18.625 15.1552 15.1552 18.625 10.875 18.625C6.59479 18.625 3.125 15.1552 3.125 10.875C3.125 6.59479 6.59479 3.125 10.875 3.125C15.1552 3.125 18.625 6.59479 18.625 10.875ZM10.875 20.125C15.9836 20.125 20.125 15.9836 20.125 10.875C20.125 5.76637 15.9836 1.625 10.875 1.625C5.76637 1.625 1.625 5.76637 1.625 10.875C1.625 15.9836 5.76637 20.125 10.875 20.125ZM21.7967 21.7967C21.0256 22.5678 19.7754 22.5678 19.0043 21.7967L17.1313 19.9238C18.2215 19.1686 19.1686 18.2215 19.9238 17.1313L21.7967 19.0042C22.5678 19.7753 22.5678 21.0256 21.7967 21.7967Z" fill="#26272C"/>
</svg>
